<svg xmlns="http://www.w3.org/2000/svg" width="1005" height="1101" viewBox="0 0 1005 1101" fill="none">
<path d="M515.594 0.819423C260.033 -7.34976 38.6641 193.393 5.21867 456.793C-31.3484 744.784 169.914 1003.91 417.558 1045.41C725.587 1097.03 1024.36 798.392 997.53 474.412C977.319 230.322 775.376 9.12383 515.594 0.819423Z" fill="#F4F7FA"/>
<path d="M625.012 1031.45C611.406 1026.7 601.237 1014.54 598.37 999.604L578.567 896.432L409.172 902.764L388.324 1010.25C385.404 1025.3 397.092 1040.4 410.553 1045.94L481.424 1075.14C494.606 1080.56 508.775 1082.73 522.858 1081.46L672.635 1067.97C677.013 1067.58 680.525 1063.95 681.035 1059.3C681.544 1054.66 684.612 1049.44 680.437 1047.98L625.012 1031.45Z" fill="#97A6B7"/>
<path d="M626.688 1025.17C613.096 1020.48 602.937 1008.48 600.073 993.729L580.29 891.854L415.023 898.114L394.197 1004.24C391.28 1019.11 398.997 1034.01 412.444 1039.49L483.244 1068.31C496.413 1073.67 510.568 1075.81 524.636 1074.55L674.262 1061.24C678.636 1060.85 682.145 1057.27 682.654 1052.68C683.163 1048.09 680.531 1043.76 676.36 1042.32L626.688 1025.17Z" fill="url(#paint0_linear_1_7)"/>
<path d="M63.0347 965.004C44.6651 966.157 29.6367 953.612 29.6367 937.033V339.503C29.6367 322.924 44.6651 310.122 63.0347 310.96L916.248 373.139C929.734 373.754 936.971 362.293 936.971 376.393V884.588C936.971 898.688 926.05 910.845 912.564 911.691L63.0347 965.004Z" fill="#97A6B7"/>
<path d="M70.6695 965.004C52.2999 966.157 37.2715 953.612 37.2715 937.033V339.503C37.2715 322.924 52.2999 310.122 70.6695 310.96L920.198 349.708C933.685 350.323 944.605 362.293 944.605 376.393V884.588C944.605 898.688 933.685 910.845 920.198 911.691L70.6695 965.004Z" fill="white"/>
<path opacity="0.3" d="M920.199 361.668L70.6698 324.879C60.8492 324.454 52.8646 331.284 52.8646 340.137V804.858V936.132C52.8646 944.985 60.8492 951.678 70.6698 951.085L920.199 899.731C927.427 899.294 933.273 892.809 933.273 885.243V769.072V375.932C933.273 368.367 927.427 361.981 920.199 361.668Z" fill="#D8DEE8"/>
<path d="M913.886 856.731L79.8769 900.069C71.123 900.523 64.0085 894.432 64.0085 886.462V347.965C64.0085 339.995 71.123 333.812 79.8769 334.154L913.886 366.742C920.431 366.998 925.726 372.772 925.726 379.64V843.679C925.726 850.548 920.431 856.391 913.886 856.731Z" fill="#1C3D5B"/>
<path opacity="0.6" d="M287.932 391.023L97.4636 385.126V366.009L287.932 372.494V391.023Z" fill="white"/>
<path opacity="0.36" d="M377.63 388.512L333.63 387.111V374.05L377.63 375.548V388.512Z" fill="white"/>
<path opacity="0.36" d="M377.63 406.525L333.63 405.257V392.196L377.63 393.56V406.525Z" fill="white"/>
<path d="M596.901 412.842L426.2 407.923V395.066L596.901 400.358V412.842Z" fill="#65E4A3"/>
<path opacity="0.5" d="M624.892 430.909L455.889 426.554V413.761L624.892 418.486V430.909Z" fill="#0DBBFC"/>
<path opacity="0.5" d="M624.892 448.169L455.889 444.328V431.535L624.892 435.746V448.169Z" fill="#0DBBFC"/>
<path opacity="0.6" d="M624.892 465.429L455.889 462.102V449.31L624.892 453.006V465.429Z" fill="white"/>
<path opacity="0.36" d="M377.63 424.537L333.63 423.403V410.342L377.63 411.573V424.537Z" fill="white"/>
<path opacity="0.36" d="M377.63 442.549L333.63 441.549V428.489L377.63 429.585V442.549Z" fill="white"/>
<path opacity="0.36" d="M377.63 460.562L333.63 459.696V446.635L377.63 447.598V460.562Z" fill="white"/>
<path opacity="0.36" d="M377.63 478.574L333.63 477.842V464.781L377.63 465.61V478.574Z" fill="white"/>
<path opacity="0.6" d="M495.535 480.536L387.232 478.734V465.791L495.535 467.83V480.536Z" fill="white"/>
<path opacity="0.36" d="M377.63 496.586L333.63 495.988V482.927L377.63 483.622V496.586Z" fill="white"/>
<path opacity="0.36" d="M377.63 514.598L333.63 514.134V501.074L377.63 501.634V514.598Z" fill="white"/>
<path opacity="0.36" d="M377.63 532.611L333.63 532.281V519.22L377.63 519.647V532.611Z" fill="white"/>
<path opacity="0.5" d="M546.278 498.88L426.2 497.247V484.39L546.278 486.285V498.88Z" fill="#0DBBFC"/>
<path opacity="0.6" d="M608.66 517.037L455.889 515.425V502.633L608.66 504.579V517.037Z" fill="white"/>
<path d="M608.66 534.347L455.889 533.2V520.407L608.66 521.889V534.347Z" fill="#65E4A3"/>
<path opacity="0.36" d="M377.63 550.624L333.63 550.428V537.367L377.63 537.661V550.624Z" fill="white"/>
<path opacity="0.36" d="M377.63 568.637L333.63 568.574V555.514L377.63 555.673V568.637Z" fill="white"/>
<path opacity="0.36" d="M377.63 586.649L333.63 586.721V573.66L377.63 573.685V586.649Z" fill="white"/>
<path opacity="0.36" d="M377.63 604.662L333.63 604.867V591.806L377.63 591.698V604.662Z" fill="white"/>
<path opacity="0.36" d="M377.63 622.674L333.63 623.013V609.952L377.63 609.709V622.674Z" fill="white"/>
<path opacity="0.36" d="M377.63 640.687L333.63 641.16V628.099L377.63 627.723V640.687Z" fill="white"/>
<path opacity="0.36" d="M377.63 658.699L333.63 659.306V646.245L377.63 645.735V658.699Z" fill="white"/>
<path opacity="0.36" d="M377.63 676.711L333.63 677.452V664.391L377.63 663.747V676.711Z" fill="white"/>
<path opacity="0.36" d="M377.63 694.724L333.63 695.599V682.538L377.63 681.76V694.724Z" fill="white"/>
<path opacity="0.36" d="M377.63 712.736L333.63 713.745V700.684L377.63 699.772V712.736Z" fill="white"/>
<path opacity="0.36" d="M377.63 730.75L333.63 731.892V718.832L377.63 717.785V730.75Z" fill="white"/>
<path opacity="0.36" d="M377.63 748.761L333.63 750.038V736.977L377.63 735.797V748.761Z" fill="white"/>
<path opacity="0.36" d="M377.63 766.773L333.63 768.184V755.123L377.63 753.809V766.773Z" fill="white"/>
<path opacity="0.36" d="M377.63 784.786L333.63 786.33V773.27L377.63 771.821V784.786Z" fill="white"/>
<path opacity="0.36" d="M377.63 802.798L333.63 804.477V791.416L377.63 789.835V802.798Z" fill="white"/>
<path opacity="0.36" d="M377.63 820.811L333.63 822.623V809.562L377.63 807.847V820.811Z" fill="white"/>
<path opacity="0.36" d="M377.63 838.824L333.63 840.77V827.709L377.63 825.86V838.824Z" fill="white"/>
<path opacity="0.36" d="M377.63 856.836L333.63 858.916V845.856L377.63 843.872V856.836Z" fill="white"/>
<g opacity="0.5" filter="url(#filter0_d_1_7)">
<path d="M506.932 392.631L386.933 388.808V375.864L506.932 379.95V392.631Z" fill="#0DBBFC"/>
<path d="M506.432 380.433V392.114L387.433 388.323V376.381L506.432 380.433Z" stroke="black"/>
</g>
<path opacity="0.6" d="M596.901 759.744L426.2 765.216V752.359L596.901 747.26V759.744Z" fill="white"/>
<path opacity="0.5" d="M624.892 776.108L455.889 782.04V769.247L624.892 763.685V776.108Z" fill="#0DBBFC"/>
<path opacity="0.5" d="M624.892 793.368L455.889 799.815V787.021L624.892 780.945V793.368Z" fill="#0DBBFC"/>
<path opacity="0.5" d="M697.72 807.627L533.092 814.408V801.784L697.72 795.364V807.627Z" fill="#0DBBFC"/>
<path d="M697.72 824.666L533.092 831.947V819.323L697.72 812.403V824.666Z" fill="#65E4A3"/>
<path opacity="0.6" d="M697.72 841.704L533.092 849.487V836.863L697.72 829.441V841.704Z" fill="white"/>
<path opacity="0.5" d="M506.932 745.01L386.933 748.491V735.547L506.932 732.329V745.01Z" fill="#0DBBFC"/>
<path opacity="0.5" d="M596.901 568.949L426.2 568.706V555.848L596.901 556.465V568.949Z" fill="#0DBBFC"/>
<path opacity="0.6" d="M624.892 586.248L455.889 586.523V573.73L624.892 573.826V586.248Z" fill="white"/>
<path opacity="0.5" d="M624.892 603.508L455.889 604.296V591.503L624.892 591.085V603.508Z" fill="#0DBBFC"/>
<path opacity="0.5" d="M624.892 620.768L455.889 622.071V609.278L624.892 608.345V620.768Z" fill="#0DBBFC"/>
<path opacity="0.5" d="M495.535 639.419L387.232 640.583V627.64L495.535 626.713V639.419Z" fill="#0DBBFC"/>
<path opacity="0.6" d="M546.278 656.372L426.2 658.028V645.171L546.278 643.777V656.372Z" fill="white"/>
<path d="M608.66 672.821L455.889 675.394V662.601L608.66 660.363V672.821Z" fill="#65E4A3"/>
<path opacity="0.5" d="M608.66 690.131L455.889 693.168V680.376L608.66 677.673V690.131Z" fill="#0DBBFC"/>
<path opacity="0.5" d="M642.528 706.663L491.595 710.123V697.408L642.528 694.279V706.663Z" fill="#0DBBFC"/>
<path opacity="0.5" d="M642.528 723.869L491.595 727.789V715.074L642.528 711.485V723.869Z" fill="#0DBBFC"/>
<path d="M506.932 551.201L386.933 550.665V537.722L506.932 538.52V551.201Z" fill="#65E4A3"/>
<path d="M287.932 419.974L178.912 417.124V398.259L287.932 401.445V419.974Z" fill="white"/>
<path opacity="0.6" d="M150.714 416.388L171.248 416.925V398.036L150.714 397.436V416.388Z" fill="white"/>
<path opacity="0.6" d="M287.932 446.611L178.912 444.244V425.379L287.932 428.082V446.611Z" fill="white"/>
<path opacity="0.6" d="M150.714 443.632L171.248 444.077V425.188L150.714 424.679V443.632Z" fill="white"/>
<path opacity="0.6" d="M287.932 473.247L178.912 471.363V452.497L287.932 454.717V473.247Z" fill="white"/>
<path opacity="0.6" d="M150.714 470.876L171.248 471.231V452.342L150.714 451.924V470.876Z" fill="white"/>
<path d="M287.932 662.314L97.4636 665.017V645.901L287.932 643.785V662.314Z" fill="white"/>
<path opacity="0.6" d="M287.932 691.266L178.912 693.338V674.473L287.932 672.737V691.266Z" fill="white"/>
<path opacity="0.6" d="M150.714 693.874L171.248 693.484V674.595L150.714 674.922V693.874Z" fill="white"/>
<path opacity="0.6" d="M287.932 717.902L178.912 720.458V701.593L287.932 699.373V717.902Z" fill="white"/>
<path opacity="0.6" d="M150.714 721.119L171.248 720.638V701.749L150.714 702.167V721.119Z" fill="white"/>
<path opacity="0.6" d="M287.932 744.538L178.912 747.577V728.711L287.932 726.008V744.538Z" fill="white"/>
<path opacity="0.6" d="M150.714 748.364L171.248 747.791V728.902L150.714 729.411V748.364Z" fill="white"/>
<path d="M287.932 500.063L97.4636 497.622V478.506L287.932 481.534V500.063Z" fill="white"/>
<path opacity="0.6" d="M287.932 529.015L178.912 528.143V509.278L287.932 510.486V529.015Z" fill="white"/>
<path opacity="0.6" d="M150.714 527.918L171.248 528.082V509.193L150.714 508.965V527.918Z" fill="white"/>
<path opacity="0.6" d="M287.932 555.65L178.912 555.262V536.397L287.932 537.121V555.65Z" fill="white"/>
<path opacity="0.6" d="M150.714 555.163L171.248 555.235V536.346L150.714 536.21V555.163Z" fill="white"/>
<path opacity="0.6" d="M287.932 609.268L178.912 609.853V590.987L287.932 590.739V609.268Z" fill="white"/>
<path opacity="0.6" d="M150.714 610.004L171.248 609.894V591.005L150.714 591.051V610.004Z" fill="white"/>
<path opacity="0.6" d="M287.932 635.904L178.912 636.973V618.107L287.932 617.375V635.904Z" fill="white"/>
<path opacity="0.6" d="M150.714 637.249L171.248 637.047V618.158L150.714 618.296V637.249Z" fill="white"/>
<path opacity="0.6" d="M287.932 582.287L178.912 582.382V563.517L287.932 563.758V582.287Z" fill="white"/>
<path opacity="0.6" d="M150.714 582.406L171.248 582.388V563.499L150.714 563.454V582.406Z" fill="white"/>
<path d="M287.932 771.165L97.4636 777.318V758.202L287.932 752.636V771.165Z" fill="white"/>
<path opacity="0.6" d="M287.932 800.117L178.912 804.164V785.299L287.932 781.587V800.117Z" fill="white"/>
<path opacity="0.6" d="M150.714 805.211L171.248 804.448V785.559L150.714 786.258V805.211Z" fill="white"/>
<path opacity="0.6" d="M287.932 826.753L178.912 831.284V812.419L287.932 808.224V826.753Z" fill="white"/>
<path opacity="0.6" d="M150.714 832.455L171.248 831.602V812.713L150.714 813.503V832.455Z" fill="white"/>
<path opacity="0.6" d="M287.932 853.388L178.912 858.403V839.537L287.932 834.859V853.388Z" fill="white"/>
<path opacity="0.6" d="M150.714 859.7L171.248 858.756V839.866L150.714 840.748V859.7Z" fill="white"/>
<path opacity="0.6" d="M311.078 852.417L306.883 852.61V373.14L311.078 373.282V852.417Z" fill="white"/>
<path opacity="0.6" d="M831.511 874.706C646.581 878.777 604.993 906.573 552.445 873.267C480.239 827.502 513.123 746.093 442.772 703.39C354.326 649.703 252.353 748.027 206.191 700.091C160.221 652.354 247.061 540.001 196.791 414.762C176.617 364.503 142.266 331.86 118.537 313.144L70.6692 310.961C52.2992 310.123 37.2711 322.926 37.2711 339.504V937.035C37.2711 953.613 52.2992 966.158 70.6692 965.005L920.198 911.693C933.685 910.846 944.605 898.69 944.605 884.589V875.554C919.144 874.603 879.705 873.645 831.511 874.706Z" fill="white"/>
<path d="M780.305 706.127C771.545 696.281 795.796 659.292 808.776 643.084C820.115 628.925 831.77 614.371 846.083 616.214C858.649 617.832 870.876 631.782 871.608 645.152C873.579 681.119 792.758 720.124 780.305 706.127Z" fill="url(#paint1_linear_1_7)"/>
<path d="M885.485 1086.22C887.134 1087.63 887.438 1091.16 887.636 1093.46C887.725 1094.49 887.769 1095 887.659 1095.37C886.863 1098.02 881.979 1098.3 874.321 1099.12C862.218 1100.42 858.617 1101.42 857.67 1099.53C856.782 1097.75 858.93 1094.84 859.172 1094.52C860.472 1092.8 862.069 1092.17 865.154 1091.1C870.864 1089.12 874.722 1088.04 875.89 1087.71C883.184 1085.66 884.402 1085.3 885.485 1086.22Z" fill="url(#paint2_linear_1_7)"/>
<path d="M878.288 1074.58L877.077 1089.1C877.42 1089.8 881.52 1091.9 884.776 1090.1L887.888 1075.83L878.288 1074.58Z" fill="#D8DEE8"/>
<path d="M789.505 1084.36C791.481 1086.65 791.931 1090.88 790.213 1092.97C788.524 1095.02 785.983 1093.48 778.78 1093.71C771.063 1093.95 769.048 1095.87 763.804 1094.35C761.685 1093.73 757.943 1092.23 758.014 1090.64C758.064 1089.52 759.969 1088.94 766.331 1086.7C775.362 1083.52 775.323 1083.34 777.241 1083.01C782.058 1082.17 786.894 1081.32 789.505 1084.36Z" fill="url(#paint3_linear_1_7)"/>
<path d="M784.56 1071.11L780.69 1084.66C780.982 1085.39 784.917 1087.81 788.294 1086.28L794.042 1073.12L784.56 1071.11Z" fill="#D8DEE8"/>
<path d="M818.951 774.274C818.396 819.823 815.444 871.037 808.359 926.678C801.357 981.67 791.544 1031.36 780.841 1075.05C785.779 1076.45 790.717 1077.85 795.655 1079.25C808.184 1066.95 823.988 1047.59 831.614 1020.24C836.347 1003.26 834.77 994.532 837.772 973.647C842.553 940.395 852.236 922.974 862.243 896.16C871.236 872.064 881.867 836.702 887.566 789.434C864.694 784.381 841.822 779.328 818.951 774.274Z" fill="url(#paint4_linear_1_7)"/>
<path d="M863.526 769.928C866.549 827.858 869.035 886.867 870.918 946.92C872.332 991.984 873.371 1036.48 874.061 1080.38C879.105 1081.04 884.149 1081.69 889.194 1082.35C894.068 1072.8 900.542 1058.19 904.977 1039.47C910.363 1016.74 909.116 1003.24 911.478 979.671C914.128 953.243 917.978 947.485 924.798 914.146C938.64 846.486 945.561 812.655 930.12 791.611C925.108 784.78 909.395 767.642 863.526 769.928Z" fill="url(#paint5_linear_1_7)"/>
<path d="M937.043 624.334C925.23 620.837 907.917 616.747 886.714 615.486C856.472 613.686 841.351 612.786 830.637 620.368C805.889 637.877 825.048 678.289 814.918 778.467C813.471 792.772 813.147 807.181 812.099 821.525C810.365 845.276 809.969 846.565 811.54 848.972C821.384 864.064 858.112 841.3 911.945 850.299C942.066 855.334 955.727 866.933 963.979 858.566C973.603 848.81 965.347 822.568 958.242 799.977C950.085 774.047 945.047 773.713 940.417 754.185C935.578 733.773 938.505 723.263 939.258 691.075C939.618 675.673 939.541 652.753 937.043 624.334Z" fill="url(#paint6_linear_1_7)"/>
<g opacity="0.3">
<path d="M863.839 812.405C877.909 811.246 887.037 819.619 899.182 813.094C915.837 804.145 921.188 776.302 920.127 756.596C918.514 726.656 902.273 718.763 905.073 699.41C906.587 688.944 913.685 675.048 939.172 660.852C939.511 672.8 939.447 682.984 939.257 691.076C938.504 723.264 935.577 733.773 940.416 754.185C945.046 773.714 950.084 774.048 958.241 799.978C965.347 822.568 973.602 848.811 963.978 858.567C955.726 866.933 942.065 855.334 911.944 850.299C865.559 842.546 831.891 858.354 817.161 853.227C834.962 822.263 851.106 813.454 863.839 812.405Z" fill="url(#paint7_linear_1_7)"/>
</g>
<path d="M917.851 626.389C927.9 617.697 948.106 627.536 953.507 630.166C983.627 644.832 1010.67 684.354 1003.97 726.121C1002.97 732.385 998.305 761.683 974.738 775.88C953.472 788.689 924.758 785.395 901.752 767.252C898.609 764.315 895.464 761.379 892.319 758.442C889.226 754.923 886.133 751.403 883.039 747.883C887.902 743.626 896.163 737.484 907.766 733.543C923.064 728.346 934.2 737.67 941.298 730.582C946.196 725.69 946.207 717.049 944.998 711.812C942.56 701.257 933.722 698.289 926.344 690.798C909.012 673.197 905.819 636.796 917.851 626.389Z" fill="url(#paint8_linear_1_7)"/>
<path d="M773.44 762.739L908.132 760.622L872.315 778.819L773.095 771.983L773.44 762.739Z" fill="#DCEFF6"/>
<path d="M912.886 764.39V764.39C912.886 767.044 911.308 769.414 908.939 770.321L865.901 788.082L865.705 775.768L908.132 760.622C910.513 759.901 912.886 761.783 912.886 764.39Z" fill="#ABABAB" fill-opacity="0.8"/>
<path d="M892.145 756.001C892.972 755.807 888.118 745.625 884.307 746.8C880.498 747.975 861.861 759.345 860.167 764.027C858.473 768.708 858.473 768.708 858.473 768.708C858.473 768.708 866.603 769.377 871.644 767.594C876.686 765.81 885.423 757.578 892.145 756.001Z" fill="white"/>
<path d="M862.132 689.371L871.626 780.37C871.953 783.51 867.777 788.188 864.78 788.039L725.501 779.038C723.212 778.923 721.307 777.15 720.919 774.773L703.438 686.884C702.916 683.685 708.378 680.382 711.459 680.473L857.415 684.793C859.853 684.866 861.866 686.819 862.132 689.371Z" fill="#DCEFF6"/>
<path d="M858.948 692.025L868.443 783.025C868.77 786.165 866.355 788.87 863.358 788.721L722.317 781.692C720.029 781.578 718.124 779.805 717.736 777.428L703.326 689.136C702.804 685.938 705.194 683.036 708.276 683.128L854.232 687.448C856.669 687.519 858.683 689.474 858.948 692.025Z" fill="#ABABAB" fill-opacity="0.8"/>
<path opacity="0.3" d="M776.129 760.367C788.444 754.873 784.098 744.395 798.64 731.338C817.826 714.114 837.38 721.584 844.226 708.234C846.358 704.075 847.376 697.606 843.663 687.134L854.232 687.447C856.669 687.518 858.683 689.473 858.948 692.024L868.443 783.024C868.769 786.163 866.355 788.869 863.358 788.72L722.317 781.691C720.029 781.577 718.123 779.804 717.736 777.427L715.747 765.243C720.026 762.736 725.14 760.457 731.107 759.182C751.799 754.765 761.951 766.693 776.129 760.367Z" fill="#ABABAB" fill-opacity="0.8"/>
<path d="M713.432 768.963C713.203 768.23 713.689 767.475 714.421 767.436C717.402 767.276 724.315 767.211 728.133 769.671C733.091 772.868 739.501 778.702 734.102 781.645L729.061 784.395C728.83 784.521 728.577 784.56 728.323 784.502C726.532 784.087 718.993 782.326 718.168 781.889C717.418 781.491 714.543 772.511 713.432 768.963Z" fill="white"/>
<path d="M884.456 580.704C884.381 590.142 885.381 597.627 886.327 602.753C887.411 608.626 888.192 610.143 889.189 611.374C890.689 613.227 892.963 614.782 905.81 618.136C912.801 619.96 913.7 619.91 913.855 620.641C914.608 624.203 895.545 636.346 875.849 633.419C863.795 631.629 852.828 624.389 853.501 620.588C854.179 616.762 866.219 618.815 869.808 611.894C872.305 607.078 869.506 600.243 866.198 594.582C869.402 588.263 881.252 587.023 884.456 580.704Z" fill="white"/>
<path d="M862.083 584.436C859.239 580.458 859.063 573.513 862.341 569.124C865.162 565.346 869.601 564.807 872.258 564.484C879.959 563.548 889.675 566.932 893.055 574.393C895.057 578.815 890.725 588.001 890.047 589.653C889.279 591.52 887.887 592.161 886.598 593.573C884.813 595.531 882.017 598.645 877.455 603.853C877.1 602.316 876.561 600.414 875.705 598.352C875.375 597.558 874.051 594.459 872.048 591.889C868.034 586.736 864.78 588.206 862.083 584.436Z" fill="url(#paint9_linear_1_7)"/>
<path d="M883.963 599.473C883.963 599.473 878.9 608.216 868.821 607.526C859.797 606.907 858.475 585.603 864.239 581.082C866.162 579.574 870.013 578.948 873.145 579.872C874.994 580.418 875.621 581.227 878.659 582.056C881.463 582.822 882.254 582.494 883.1 583.244C884.158 584.182 884.933 586.48 883.166 592.708C884.888 590.873 886.954 590.169 888.419 590.897C888.652 591.013 889.272 591.457 889.621 592.129C890.883 594.562 888.771 597.67 883.963 599.473Z" fill="white"/>
<path d="M883.508 581.97C883.073 582.312 884.403 584.021 884.502 586.44C884.696 591.136 880.18 596.773 875.574 597.251C872.85 597.534 872.102 595.806 867.6 595.305C864.813 594.995 862.492 595.368 861.032 595.704C859.618 600.854 860.949 605.989 864.219 608.371C867.74 610.936 872.237 609.38 874.117 608.729C875.375 608.294 879.406 606.908 881.513 603.017C883.707 598.962 881.554 596.518 884.072 593.776C885.342 592.392 887.01 591.793 888.634 589.115C889.075 588.387 889.37 587.744 889.55 587.311C887.222 584.713 884.138 581.475 883.508 581.97Z" fill="url(#paint10_linear_1_7)"/>
<path d="M864.309 597.614C864.309 597.614 866.258 598.685 869.626 598.486C869.79 598.476 869.97 598.527 869.992 598.616C870.069 598.952 867.908 600.46 865.917 599.872C864.504 599.453 863.404 598.044 863.594 597.686C863.674 597.535 863.994 597.554 864.309 597.614Z" fill="white"/>
<g filter="url(#filter1_d_1_7)">
<path d="M159.629 635.021C157.236 635.973 120.739 651.252 113.237 691.352C112.631 694.591 106.767 729.044 128.962 753.382C153.85 780.673 201.773 779.997 220.795 757.182C225.231 751.861 227.571 745.964 228.882 741.009L223.87 726.992C217.755 719.22 209.428 717.379 204.981 716.225C194.018 713.38 185.741 718.521 179.462 712.955C175.988 709.877 175.297 705.445 174.681 701.486C172.581 688.003 179.811 679.702 180.337 671.387C180.731 665.171 182.798 651.551 175.09 642.669C170.209 637.044 163.45 635.513 159.629 635.021Z" fill="url(#paint11_linear_1_7)"/>
</g>
<path d="M145.408 1081.92C144.982 1079.45 137.409 1077.22 133.659 1080.52C131.797 1082.16 130.515 1085.49 131.592 1087C131.984 1087.54 130.379 1088.5 131.917 1088.52C137.019 1088.59 145.832 1084.37 145.408 1081.92Z" fill="url(#paint12_linear_1_7)"/>
<path d="M137.47 1082.82L129.682 1081.66C133.29 1077.08 132.622 1062.52 132.622 1062.52L140.905 1064.47C140.905 1064.47 139.961 1068.46 138.356 1074.36C137.806 1076.38 137.561 1079.54 137.47 1082.82Z" fill="url(#paint13_linear_1_7)"/>
<path d="M138.161 1081.81C138.161 1081.81 128.784 1079.53 127.77 1081.49C126.755 1083.45 125.968 1088.69 131.917 1088.52C137.866 1088.35 138.69 1083.47 138.161 1081.81Z" fill="url(#paint14_linear_1_7)"/>
<path d="M252.276 1091.18C251.527 1088.79 243.731 1087.7 240.457 1091.52C238.832 1093.42 238.005 1096.91 239.272 1098.24C239.732 1098.72 238.271 1099.91 239.796 1099.7C244.856 1099.01 253.022 1093.54 252.276 1091.18Z" fill="url(#paint15_linear_1_7)"/>
<path d="M244.536 1093.23H236.67C239.635 1088.17 237.037 1073.85 237.037 1073.85L245.497 1074.56C245.497 1074.56 245.094 1078.66 244.289 1084.73C244.013 1086.81 244.19 1089.98 244.536 1093.23Z" fill="url(#paint16_linear_1_7)"/>
<path d="M264.922 780.102C268.566 792.769 273.77 813.213 277.119 838.864C286.674 912.026 266.366 914.36 270.158 995.433C271.369 1021.31 248.86 1080.99 246.876 1082.3C245.916 1082.4 244.875 1082.47 243.763 1082.43C241.806 1082.37 239.045 1082.05 235.836 1081.04C232.27 1080.39 219.415 1043.74 222.395 1021.95C224.503 1006.52 223.892 989.972 222.67 956.866C222.472 951.501 209.434 852.5 209.434 852.5C205.468 889.145 200.907 920.281 196.953 944.422C184.249 1021.98 142.944 1068.92 140.789 1069.68C140.363 1069.86 136.487 1071.34 133.318 1069.14C131.908 1068.16 131.428 1066.9 131.428 1066.9C130.323 1065.99 131.754 989.466 144.353 931.875C162.64 848.284 154.677 828.725 160.47 791.388C165.483 759.08 264.922 780.102 264.922 780.102Z" fill="url(#paint17_linear_1_7)"/>
<g filter="url(#filter2_d_1_7)">
<path d="M269.819 792.731C258.838 798.664 230.554 809.296 196.845 804.014C181.9 801.672 169.866 796.529 161.241 791.817C160.978 791.678 160.714 791.539 160.464 791.401C169.22 763.526 162.36 748.611 159.121 734.861C154.499 715.262 154.433 716.745 150.627 701.165C144.36 675.466 143.332 649.213 147.639 643.849C159.253 629.364 180.189 628.837 191.052 628.491C203.192 628.116 231.107 623.611 246.473 638.166C246.737 638.415 243.59 640.19 245.144 642.102C246.579 643.877 251.517 650.1 255.993 658.5C259.232 664.585 262.169 671.682 265.119 682.244C270.32 700.887 271.821 716.772 272.321 723.689C272.479 725.976 272.625 728.194 272.756 730.329C274.797 764.676 272.203 781.254 269.819 792.731Z" fill="#0DBBFC"/>
</g>
<path d="M245.086 1092.13C245.086 1092.13 235.499 1091.26 234.755 1093.35C234.011 1095.44 233.928 1100.75 239.797 1099.7C245.665 1098.66 245.83 1093.7 245.086 1092.13Z" fill="url(#paint18_linear_1_7)"/>
<path d="M225.997 612.157C229.306 605.203 227.128 597.699 226.641 596.078C224.605 589.293 223.949 588.29 222.635 586.92L220.787 585.131C220.787 585.131 220.675 585.055 220.556 584.981C219.303 584.203 214.742 583.124 213.774 583.144C210.683 583.208 205.186 595.298 202.787 613.482C202.538 614.143 202.292 614.811 202.049 615.485C200.539 619.682 199.277 623.792 198.224 627.787C177.529 631.172 174.811 633.956 174.817 635.447C174.829 638.587 186.931 641.326 195.942 642.045C215.597 643.612 235.237 636.739 234.891 632.927C234.741 631.267 230.731 629.385 214.087 628.325C214.282 625.424 214.477 622.522 214.672 619.621C215.992 619.209 223.561 617.28 225.997 612.157Z" fill="url(#paint19_linear_1_7)"/>
<path d="M227.879 581.269C226.838 586.842 223.25 592.29 221.803 592.989C221.616 593.079 220.551 593.66 219.479 594.806C219.333 594.961 219.195 595.151 219.056 595.403C217.251 598.682 221.801 603.896 220.488 605.262C219.535 606.252 216.208 603.992 215.598 604.891C215.024 605.736 217.669 608.267 217.007 609.285C216.506 610.053 214.802 608.911 213.402 609.959C212.705 610.481 212.782 611.023 211.809 612.855C211.258 613.89 210.55 615.002 210.05 615.6C207.618 618.502 202.214 618.644 201.456 617.131C201.245 616.709 201.54 616.451 201.481 615.168C201.481 615.168 201.427 613.978 200.917 612.513C200.188 610.418 197.845 608.551 195.596 606.039C191.43 601.388 190.689 597.994 190.488 596.858C190.416 596.453 190.381 596.151 190.356 595.934C189.852 591.568 190.953 585.529 193.39 582.172C197.472 576.55 203.564 580.851 210.125 575.792C217.694 569.955 215.745 559.477 219.342 559.095C223.306 558.672 229.803 570.964 227.879 581.269Z" fill="#26264F"/>
<path d="M218.824 603.565C217.87 601.423 215.264 602.723 214.805 605.151C214.346 607.577 216.119 610.559 218.377 610.52C220.636 610.481 220.107 606.448 218.824 603.565Z" fill="url(#paint20_linear_1_7)"/>
<path d="M164.338 774.133C164.314 774.133 164.286 774.132 164.261 774.129C163.872 774.084 163.594 773.715 163.638 773.307C165.064 759.783 162.399 749.945 160.048 741.264C159.472 739.139 158.912 737.075 158.435 735.038C155.819 723.937 154.674 719.646 153.46 715.103C152.663 712.122 151.849 709.067 150.577 703.931C150.481 703.533 150.707 703.128 151.082 703.025C151.463 702.911 151.849 703.161 151.946 703.556C153.212 708.679 154.026 711.727 154.821 714.701C156.037 719.256 157.185 723.557 159.803 734.681C160.28 736.702 160.835 738.748 161.406 740.856C163.792 749.669 166.498 759.656 165.039 773.472C165 773.851 164.694 774.133 164.338 774.133Z" fill="url(#paint21_linear_1_7)"/>
<g opacity="0.3" filter="url(#filter3_d_1_7)">
<path d="M269.82 792.731C258.838 798.664 230.554 809.295 196.845 804.014C181.9 801.671 169.866 796.529 161.241 791.816C165.152 788.614 169.971 783.25 177.937 774.129C187.589 763.096 198.9 767.213 205.549 771.371C210.342 774.351 216.281 774.434 221.14 771.607C226.011 768.765 229.093 763.428 229.238 757.579C229.317 754.89 229.198 751.827 228.882 748.361C226.604 723.259 259.641 721.124 259.641 721.124C264.302 718.574 268.727 722.69 272.756 730.328C274.797 764.676 272.203 781.254 269.82 792.731Z" fill="url(#paint22_linear_1_7)"/>
</g>
<path d="M385.311 680.907C383.982 681.041 382.374 682.459 381.243 683.134C379.636 684.094 378.018 685.036 376.379 685.935C373.215 687.669 369.865 688.956 366.247 688.886C366.348 688.343 366.527 687.799 366.73 687.279C367.343 685.77 368.151 684.466 367.669 684.013C366.978 683.355 363.941 684.713 361.138 687.54C360.004 688.665 358.922 690.051 358.036 691.629C356.605 694.195 356.847 695.598 355.65 697.555C353.871 699.233 352.536 699.602 352.536 699.602V700.137L352.738 700.796C351.147 702.072 349.351 702.827 347.943 703.321C350.42 704.021 352.839 704.734 355.303 705.448L357.015 708.453C357.015 708.453 366.351 706.395 371.983 702.799C374.616 701.111 375.523 699.026 375.744 697.297C375.901 696.144 375.741 695.156 375.598 694.525C375.481 694.072 375.375 693.797 375.375 693.797C375.375 693.797 383.066 690.435 386.103 683.162C386.561 682.064 386.606 680.777 385.311 680.907Z" fill="url(#paint23_linear_1_7)"/>
<g filter="url(#filter4_d_1_7)">
<path d="M352.734 696.58C357.124 699.814 359.479 704.206 360.7 707.01C357.471 714.986 350.15 729.796 334.997 740.71C310.151 758.606 273.719 759.208 248.344 738.799C218.027 714.417 212.962 667.661 225.695 647.639C227.161 645.334 231.98 637.756 239.462 636.886C244.187 636.337 250.618 638.388 260.779 650.911C281.95 677.005 274.472 693.298 286.98 700.933C305.736 712.381 333.608 682.491 352.734 696.58Z" fill="#0DBBFC"/>
</g>
<path d="M667.7 195.866C659.917 193.473 649.516 208.516 640.87 221.021C627.934 239.73 612.82 261.588 616.892 287.835C620.897 313.658 641.928 333.77 647.922 330.893C653.048 328.433 643.192 311.065 650.743 287.835C656.835 269.091 666.93 269.084 673.7 250.708C682.102 227.9 677.274 198.81 667.7 195.866Z" fill="url(#paint24_linear_1_7)"/>
<path d="M663.849 314.811C623.766 325.054 597.364 341.498 581.945 353.13C573.588 359.434 569.728 363.366 567.644 369.097C555.771 401.755 616.773 451.135 623.274 456.306C626.114 449.336 628.953 442.366 631.793 435.396C625.49 398.975 614.995 387.549 606.213 384.151C603.757 383.2 599.633 382.181 599.713 380.958C599.902 378.064 623.073 382.188 645.215 373.659C667.295 365.155 689.478 343.636 685.517 329.409C684.793 326.812 681.765 319.305 663.849 314.811Z" fill="#0A2640"/>
<path d="M624.982 553.522C624.982 553.522 628.713 554.921 628.727 558.027C628.741 561.133 624.947 574.816 620.827 579.678C616.706 584.539 616.338 577.286 616.593 572.614C616.847 567.942 617.928 557.483 618.946 555.46C619.965 553.439 624.982 553.522 624.982 553.522Z" fill="url(#paint25_linear_1_7)"/>
<path opacity="0.3" d="M613.001 362.558C605.719 362.408 588.655 360.977 584.112 369.857C580.321 377.265 586.962 388.496 591.046 395.403C602.148 414.182 612.924 416.103 620.514 427.64C623.451 432.106 626.113 438.344 626.96 447.256C628.571 443.303 630.182 439.349 631.792 435.396C625.489 398.975 614.995 387.549 606.213 384.151C603.756 383.2 599.633 382.181 599.713 380.958C599.902 378.064 623.072 382.188 645.215 373.659C665.342 365.907 685.488 347.355 685.905 333.356C654.033 357.419 630.045 362.91 613.001 362.558Z" fill="#0A2640"/>
<path d="M627.137 540.323C626.917 545.11 626.532 549.112 626.184 552.084C625.414 558.659 624.706 561.26 623.736 563.63C622.891 565.695 620.777 570.199 619.767 569.887C618.742 569.57 619.797 564.58 620.596 550.701C620.712 548.687 621.064 542.274 621.064 542.274L627.137 540.323Z" fill="url(#paint26_linear_1_7)"/>
<path d="M686.961 317.548C663.867 332.206 648.875 348.871 640.159 360.125C629.869 373.411 614.218 393.62 608.551 423.754C605.531 439.815 607.017 454.224 610.113 482.383C613.188 510.351 617.596 533.122 621.044 548.672C622.82 549.423 624.595 550.173 626.371 550.924C631.128 541.724 637.351 527.161 639.581 508.537C643.231 478.068 632.403 468.386 637.6 446.779C642.102 428.06 655.148 416.583 681.237 393.627C702.673 374.767 722.438 363.578 729.775 340.054C731.021 336.059 732.08 331.159 730.049 326.672C725.671 317.002 708.924 313.628 686.961 317.548Z" fill="#0A2640"/>
<path d="M705.396 197.609C699.401 196.252 689.543 196.521 680.145 188.731C677.316 186.385 667.293 178.076 668.51 166.188C669.581 155.722 679.004 150.098 680.16 149.428C686.831 145.562 693.481 146.422 700.857 147.483C710.421 148.86 713.598 151.61 720.244 153.496C736.685 158.161 742.245 148.424 758.798 149.246C779.956 150.295 781.786 166.744 799.587 167.154C819.57 167.615 823.4 147.027 843.13 143.539C870.515 138.697 911.951 169.732 911.117 205.509C910.635 226.172 896.018 249.853 877.349 256.962C866.467 261.106 854.725 259.79 851.373 267.239C848.987 272.54 854.35 276.625 853.843 285.862C853.191 297.77 843.452 306.127 841.879 307.476C827.28 320.003 794.547 313.675 772.195 295.95C731.888 263.985 737.989 204.991 705.396 197.609Z" fill="url(#paint27_linear_1_7)"/>
<path d="M751.695 193.362C738.119 191.601 722.46 190.261 705.06 190.012C668.293 189.486 663.029 194.394 661.682 198.027C659.171 204.8 663.472 208.194 661.03 220.004C659.57 227.064 660.95 230.282 658.127 237.869C655.376 245.262 657.533 249.237 659.967 266.574C663.077 288.743 664.512 300.01 658.619 308.947C654.524 315.156 649.944 315.682 650.38 318.632C651.31 324.916 671.951 321.45 698.084 333.514C705.649 337.006 712.612 341.31 718.451 344.919C732.124 353.369 734.654 356.601 740.986 360.429C761.01 372.537 791.09 373.704 806.856 359.061C812.733 353.601 817.017 345.576 815.09 342.638C812.465 338.638 800.727 347.724 789.955 342.182C782.819 338.51 784.175 332.571 775.925 325.573C765.997 317.151 759.094 321.564 752.336 316.084C741.794 307.535 746.59 287.068 749.549 252.752C750.774 238.545 752.003 218.26 751.695 193.362Z" fill="url(#paint28_linear_1_7)"/>
<path d="M711.905 185.39C716.92 188.665 725.026 192.945 725.919 194.107C726.811 195.267 701.361 199.855 685.525 191.442C685.525 191.442 683.07 190.007 692.617 187.997C694.651 187.569 694.253 183.403 693.981 179.096L695.89 175.364C695.89 175.364 706.891 182.113 711.905 185.39Z" fill="url(#paint29_linear_1_7)"/>
<path d="M699.254 172.826C699.254 172.826 701.221 181.611 693.872 185.952C687.291 189.841 676.158 173.903 678.238 167.98C678.931 166.004 681.409 163.465 683.999 162.612C685.82 162.011 692.712 162.243 695.664 168.351C696.437 166.565 697.822 165.629 698.752 165.922C699.933 166.294 700.106 168.556 700.146 169.068C700.283 170.844 699.602 172.222 699.254 172.826Z" fill="url(#paint30_linear_1_7)"/>
<path opacity="0.3" d="M687.859 313.648C695.43 316.952 696.452 324.091 706.921 328.141C716.908 332.004 720.259 327.164 730.22 330.371C745.181 335.188 750.901 350.385 753.165 348.951C755.24 347.638 753.25 333.1 743.634 323.682C732.59 312.865 720.695 317.818 713.628 306.588C710.879 302.218 708.759 295.238 711.157 289.866C714.408 282.586 722.897 285.11 727.395 279.089C735.478 268.271 716.563 248.76 721.747 232.267C723.816 225.685 730.403 217.435 751.646 211.913C751.358 228.445 750.453 242.261 749.549 252.753C746.59 287.069 741.794 307.537 752.336 316.085C759.094 321.565 765.996 317.152 775.925 325.574C784.175 332.572 782.819 338.512 789.955 342.183C800.726 347.725 812.464 338.64 815.089 342.639C817.017 345.577 812.733 353.602 806.855 359.062C791.09 373.705 761.01 372.539 740.985 360.431C734.654 356.602 732.124 353.37 718.451 344.921C712.611 341.312 705.648 337.008 698.083 333.516C679.744 325.049 664.12 324.23 656.105 322.323C672.019 311.151 681.713 310.967 687.859 313.648Z" fill="url(#paint31_linear_1_7)"/>
<path d="M614.78 324.86L710.837 329.78C712.16 329.849 713.366 330.594 714.065 331.777L716.723 336.268C718.046 338.503 716.456 341.386 713.956 341.286L612.208 337.206L614.78 324.86Z" fill="#007DAC"/>
<path d="M526.599 268.997L625.836 271.021C628.773 271.082 631.462 272.765 632.913 275.453L667.278 339.1L562.47 334.704C559.594 334.583 556.969 332.944 555.49 330.343L523.651 274.349C522.295 271.966 523.96 268.943 526.599 268.997Z" fill="#007DAC"/>
<path opacity="0.3" d="M632.913 275.453C631.461 272.765 628.773 271.081 625.836 271.021L623.661 270.977C623.337 274.349 622.354 277.434 620.394 279.924C614.275 287.7 604.108 282.904 596.531 291.132C588.207 300.171 595.896 310.931 588.455 319.344C580.621 328.198 567.954 320.989 553.393 326.655L555.49 330.342C556.968 332.943 559.593 334.583 562.47 334.703L667.277 339.099L632.913 275.453Z" fill="#007DAC"/>
<path d="M695.102 324.913C694.019 321.904 692.937 318.896 691.854 315.886C703.817 312.433 720.362 307.332 737.333 300.948C741.526 299.371 743.061 297.332 744.182 295.766C752.883 283.619 730.741 262.19 731.138 234.384C731.413 215.109 742.513 193.061 752.294 192.811C772.177 192.302 816.015 281.111 779.093 319.015C760.768 337.828 726.53 340.012 695.102 324.913Z" fill="url(#paint32_linear_1_7)"/>
<path d="M691.855 315.886C684.344 311.686 675.354 315.991 674.775 316.279C673.125 317.099 670.723 318.56 668.297 321.169C668.022 321.563 664.765 326.315 665.951 327.838C666.902 329.058 670.587 328.046 675.014 325.148C676.87 324.874 679.633 324.622 682.943 324.943C689.022 325.533 691.806 327.555 694.013 325.81C695.629 324.533 696.179 321.832 695.598 319.824C694.974 317.667 693.126 316.597 691.855 315.886Z" fill="url(#paint33_linear_1_7)"/>
<path d="M384.348 1075.21C378.464 1044.6 380.998 1020 383.671 1005.14C386.913 987.122 393.505 950.486 421.172 930.065C423.352 928.456 444.996 912.785 454.717 920.568C459.73 924.581 460.875 934.275 458.683 941.926C453.023 961.68 427.505 959.489 419.027 981.971C416.204 989.458 415.68 998.593 417.649 999.455C420.074 1000.52 426.987 989.344 427.646 988.28C433.81 978.321 433.867 972.682 438.567 971.153C441.453 970.214 445.256 971.095 446.957 973.494C450.832 978.957 443.179 991.406 441.039 994.885C435.442 1003.99 430.768 1006.06 429.632 1013.81C429.143 1017.14 429.23 1022.08 431.11 1022.84C433.653 1023.88 438.506 1016.91 441.62 1012.44C449.992 1000.42 450.884 993.425 455.046 992.924C458.929 992.456 463.304 997.92 464.428 1001.25C467.496 1010.34 455.167 1029.67 384.348 1075.21Z" fill="#65E4A3"/>
<path opacity="0.28" d="M385.234 1069.96C384.355 1041.52 388.729 1018.97 392.692 1004.17C397.785 985.148 407.364 949.373 434.239 933.892C436.149 932.791 450.199 924.697 454.125 929.032C456.742 931.922 454.422 939.854 450.574 945.106C444.006 954.069 436.442 950.514 425.717 959.311C416.093 967.206 412.714 977.837 411.867 980.618C408.729 990.939 410.36 999.787 410.802 1003.05C412.482 1015.43 409.041 1035.71 385.234 1069.96Z" fill="white"/>
<path opacity="0.28" d="M394.822 1062.86C409.892 1048.65 413.375 1037.01 413.643 1028.84C413.851 1022.48 412.215 1014.92 416.839 1007.91C419.796 1003.42 422.026 1004.14 427.137 999.309C437.814 989.215 439.14 975.607 441.341 976.132C442.566 976.425 443.201 980.889 442.407 985.104C440.766 993.803 434.303 994.715 427.847 1005.29C423.437 1012.51 421.906 1019.54 421.1 1023.23C419.134 1032.25 420.469 1035.41 419.325 1040.43C417.841 1046.93 412.471 1055.31 394.822 1062.86Z" fill="white"/>
<path d="M393.403 1080.15C419.526 1081.73 427.292 1083.38 439.603 1078.96C451.171 1074.81 463.036 1066.64 461.994 1062.89C461.247 1060.2 453.984 1060.24 449.646 1060.26C438.006 1060.31 428.406 1064.07 421.671 1067.7C427.48 1063.55 433.289 1059.4 439.098 1055.25C443.155 1053.72 450.019 1050.48 456.099 1043.63C459.906 1039.34 468.653 1027.72 465.365 1022.14C461.931 1016.31 445.616 1017.49 436.211 1025.76C431.698 1029.72 431.692 1032.76 425.644 1039.69C420.147 1045.98 414.472 1049.98 410.484 1052.39C414.22 1047.47 419.302 1039.79 423.252 1029.44C429.254 1013.72 433.785 988.837 426.151 984.314C421.087 981.314 411.046 987.496 406.024 994.822C401.953 1000.76 402.352 1005.74 399.55 1024.83C398.332 1033.13 397.137 1039.81 396.362 1043.96C388.592 1026.02 386.338 1010.92 385.883 999.829C385.299 985.575 387.539 974.406 382.36 971.436C377.744 968.787 369.501 973.954 365.32 978.802C348.399 998.423 370.725 1044.47 373.085 1049.22C366.876 1044.28 358.32 1036.53 350.033 1025.34C341.171 1013.37 337.428 1004.46 332.923 1005.26C328.442 1006.05 325.489 1016.09 325.825 1023.86C326.763 1045.53 353.641 1058.25 356.51 1059.56C354.249 1059.94 350.415 1060.35 345.896 1059.44C335.874 1057.43 332.748 1051.03 322.581 1048.86C318.693 1048.03 310.741 1047.17 309.762 1049.7C308.003 1054.25 328.086 1071.34 352.453 1077.85C361.384 1080.24 359.248 1078.09 393.403 1080.15Z" fill="#0DBBFC"/>
<path opacity="0.28" d="M410.645 1064.48C422.538 1058.92 420.922 1051.35 433.933 1041.98C442.266 1035.97 444.201 1038.16 453.131 1032.42C458.042 1029.27 462.057 1025.65 465.315 1022.07C465.331 1022.1 465.35 1022.12 465.365 1022.14C468.653 1027.72 459.906 1039.34 456.099 1043.63C450.018 1050.48 443.155 1053.72 439.098 1055.25C433.289 1059.4 427.48 1063.55 421.671 1067.7C428.406 1064.07 438.006 1060.32 449.646 1060.26C453.428 1060.24 459.43 1060.21 461.404 1061.99C457.908 1064.27 454.763 1065.37 452.203 1065.92C446.368 1067.17 442.707 1065.77 437.659 1068.97C433.609 1071.54 433.946 1073.72 430.38 1075.11C427.024 1076.42 425.31 1075.04 417.029 1073.61C408.974 1072.22 404.88 1071.57 401.625 1073.72C399.165 1075.35 397.859 1078.03 397.138 1080.39C396.304 1080.34 395.45 1080.28 394.574 1080.23C395.221 1077.52 396.412 1074.41 398.676 1071.64C402.266 1067.24 406.195 1066.57 410.645 1064.48Z" fill="white"/>
<path opacity="0.28" d="M376.753 1074.1C374.873 1073.63 373.975 1075.04 371.365 1075.4C366.515 1076.06 364.697 1071.85 358.996 1069.85C352.248 1067.48 350.537 1071.89 343.816 1069.7C338.496 1067.96 339.181 1065.07 332.231 1060.86C324.834 1056.37 321.702 1058.21 316.266 1054.51C314.518 1053.32 312.525 1051.55 310.627 1048.79C313.017 1047.43 319.27 1048.15 322.581 1048.86C332.748 1051.03 335.874 1057.43 345.896 1059.44C350.415 1060.35 354.249 1059.95 356.51 1059.56C353.641 1058.25 326.763 1045.53 325.825 1023.86C325.514 1016.65 328.033 1007.5 331.976 1005.58C331.507 1010.58 331.441 1014.86 331.514 1018.22C331.682 1026.05 331.815 1030.03 334.167 1033.3C338.249 1038.96 343.224 1036.01 350.008 1041.9C356.184 1047.26 354.032 1051.42 360.475 1056.79C366.035 1061.43 369.33 1059.74 374.561 1063.49C377.843 1065.85 381.829 1070.32 384.224 1079.66C383.133 1079.61 382.089 1079.56 381.096 1079.52C380.15 1076.87 378.779 1074.61 376.753 1074.1Z" fill="white"/>
<path opacity="0.28" d="M381.814 1044.57C378.559 1035.23 372.908 1036.19 370.551 1027.97C368.207 1019.8 373.334 1017.26 372.027 1005.43C371.048 996.567 367.869 995.262 367.657 989.204C367.501 984.737 368.997 978.652 375.913 971.109C378.01 970.529 379.99 970.527 381.554 971.424C386.733 974.395 384.492 985.563 385.077 999.818C385.532 1010.91 387.786 1026 395.555 1043.94C396.331 1039.8 397.526 1033.12 398.744 1024.82C401.545 1005.73 401.146 1000.75 405.218 994.81C410.24 987.484 420.281 981.303 425.345 984.302C425.634 984.474 425.904 984.678 426.159 984.906C423.633 986.719 421.303 988.947 419.344 991.695C412.666 1001.06 416.465 1007.78 410.41 1026.26C404.587 1044.03 398.679 1045.13 393.992 1060.49C392.495 1065.39 391.085 1071.88 390.794 1080.04C389.083 1079.94 387.471 1079.85 385.946 1079.77C384.192 1073.72 383.365 1068.31 383.012 1063.72C382.235 1053.6 384.012 1050.87 381.814 1044.57Z" fill="white"/>
<path d="M379.67 131.102C421.67 132.457 456.944 159.396 463.818 193.497C463.827 193.542 463.836 193.586 463.845 193.631C464.217 195.498 464.503 197.385 464.701 199.292C464.714 199.418 464.729 199.544 464.741 199.67C464.828 200.56 464.896 201.456 464.944 202.354C464.952 202.517 464.958 202.681 464.966 202.844C465.008 203.762 465.035 204.683 465.035 205.609C465.035 245.237 426.536 275.269 379.67 272.72C378.424 272.652 377.185 272.558 375.953 272.446C375.832 272.435 375.711 272.426 375.59 272.414C374.423 272.304 373.264 272.171 372.111 272.022C371.932 271.998 371.752 271.976 371.573 271.952C370.457 271.802 369.348 271.632 368.246 271.446C368.038 271.411 367.831 271.375 367.623 271.339C366.542 271.149 365.467 270.944 364.4 270.721C364.183 270.675 363.968 270.628 363.752 270.581C362.691 270.352 361.635 270.11 360.588 269.848C360.386 269.797 360.185 269.743 359.982 269.69C358.942 269.423 357.909 269.145 356.885 268.846C356.701 268.793 356.52 268.735 356.336 268.681C355.415 268.406 354.5 268.118 353.593 267.819C353.362 267.742 353.13 267.67 352.901 267.593C351.98 267.281 351.07 266.953 350.164 266.616C349.968 266.544 349.768 266.479 349.573 266.405C349.575 266.403 349.578 266.401 349.58 266.398C318.427 254.593 296.524 228.023 296.524 198.31C296.524 159.712 333.481 129.613 379.67 131.102Z" fill="#0DBBFC"/>
<path d="M287.632 198.31C287.632 236.908 324.589 270.208 370.778 272.72C417.644 275.268 456.143 245.237 456.143 205.609C456.143 165.98 417.644 132.614 370.778 131.102C324.589 129.613 287.632 159.711 287.632 198.31Z" fill="#0DBBFC"/>
<g opacity="0.3">
<path d="M350.39 253.632C360.504 233.276 350.279 213.297 363.961 200.416C377.921 187.274 396.152 200.835 415.89 190.426C423.553 186.384 432.095 178.383 438.459 161.43C449.541 173.896 456.143 189.239 456.143 205.608C456.143 245.236 417.644 275.268 370.778 272.719C360.138 272.14 349.992 269.929 340.681 266.404C345.269 262.217 348.31 257.819 350.39 253.632Z" fill="#0DBBFC"/>
</g>
<path d="M346.808 219.955L313.37 203.924V198.965L346.808 181.884V190.368L323.639 201.232L346.808 211.507V219.955Z" fill="white"/>
<path d="M382.751 175.45L363.486 227.617L353.851 227.336L372.908 175.45L382.751 175.45Z" fill="white"/>
<path d="M389.939 212.385L414.912 202.578L389.939 190.732V182.041L426.421 200.495V205.777L389.939 221.039V212.385Z" fill="white"/>
<path d="M256.882 567.596C249.546 557.925 245.322 546.571 245.322 534.426C245.322 499.109 281.043 470.48 325.107 470.48C369.171 470.48 404.892 499.109 404.892 534.426C404.892 569.742 369.171 598.371 325.107 598.371C308.592 598.371 293.249 594.35 280.52 587.462C272.106 588.973 259.046 591.512 252.153 592.862C250.124 593.259 248.461 591.171 249.188 589.137L256.882 567.596Z" fill="#65E4A3"/>
<g opacity="0.2">
<path d="M281.446 547.958C299.337 540.043 319.01 556.751 331.309 545.095C343.708 533.345 330.314 510.114 342.188 493.559C347.85 485.666 357.363 481.931 368.245 480.626C390.291 492.004 404.892 511.848 404.892 534.426C404.892 569.742 369.171 598.372 325.107 598.372C308.592 598.372 293.249 594.35 280.52 587.462C273.882 588.655 264.352 590.486 257.24 591.869C262.486 563.237 272.136 552.077 281.446 547.958Z" fill="#65E4A3"/>
</g>
<path d="M376.823 514.333C376.823 516.056 375.496 517.452 373.86 517.452H274.97C273.333 517.452 272.007 516.056 272.007 514.333V513.843C272.007 512.121 273.333 510.724 274.97 510.724H373.86C375.496 510.724 376.823 512.121 376.823 513.843V514.333Z" fill="white"/>
<path d="M376.823 533.171C376.823 534.893 375.496 536.29 373.86 536.29H274.97C273.333 536.29 272.007 534.893 272.007 533.171V532.681C272.007 530.958 273.333 529.562 274.97 529.562H373.86C375.496 529.562 376.823 530.958 376.823 532.681V533.171Z" fill="white"/>
<path d="M326.972 551.919C326.972 553.692 325.606 555.129 323.922 555.129H275.057C273.373 555.129 272.008 553.692 272.008 551.919V551.611C272.008 549.838 273.373 548.401 275.057 548.401H323.922C325.606 548.401 326.972 549.838 326.972 551.611V551.919Z" fill="white"/>
<g clip-path="url(#clip0_1_7)">
<mask id="mask0_1_7" style="mask-type:luminance" maskUnits="userSpaceOnUse" x="692" y="444" width="116" height="116">
<path d="M807.011 444.174H692.011V559.174H807.011V444.174Z" fill="white"/>
</mask>
<g mask="url(#mask0_1_7)">
<path class="gear position-path" fill-rule="evenodd" clip-rule="evenodd" d="M743.156 444.235C739.907 444.258 737.29 446.934 737.313 450.212L737.343 454.51C737.37 457.038 735.798 459.305 733.434 460.145C731.919 460.676 730.436 461.293 728.992 461.994C726.762 463.06 724.109 462.605 722.356 460.851L719.361 457.87C717.051 455.568 713.329 455.59 711.046 457.919C711.044 457.921 711.042 457.925 711.04 457.927L705.13 463.962C702.864 466.302 702.9 470.051 705.211 472.346L708.125 475.245C709.899 477.005 710.378 479.703 709.318 481.976C708.629 483.45 708.026 484.963 707.511 486.509C706.692 488.918 704.451 490.54 701.926 490.551L697.865 490.58C694.615 490.597 691.994 493.27 692.011 496.547C692.011 496.551 692.011 496.555 692.011 496.557L692.072 505.046C692.094 508.325 694.747 510.964 697.996 510.941C697.997 510.941 697.997 510.941 697.997 510.941L702.454 510.909C704.902 510.899 707.093 512.438 707.932 514.757C708.47 516.213 709.087 517.637 709.78 519.025C710.912 521.293 710.481 524.037 708.709 525.84L705.572 529.052C703.288 531.386 703.311 535.144 705.622 537.448C705.624 537.45 705.626 537.452 705.627 537.454L711.618 543.411C713.932 545.708 717.654 545.681 719.934 543.349L723.427 539.763C725.154 538 727.787 537.505 730.027 538.524C731.314 539.103 732.629 539.615 733.967 540.06C736.343 540.843 737.956 543.071 737.973 545.593L738.008 550.751C738.031 554.028 740.683 556.669 743.933 556.646C743.933 556.646 743.933 556.646 743.933 556.646L752.345 556.585C755.596 556.562 758.212 553.885 758.189 550.607L758.149 545.024C758.137 542.574 759.638 540.378 761.911 539.518C763.13 539.057 764.311 538.539 765.465 537.981C767.715 536.852 770.429 537.283 772.226 539.057L776.146 542.96C778.463 545.262 782.189 545.234 784.473 542.899L790.372 536.885C792.651 534.548 792.627 530.79 790.316 528.484L786.321 524.509C784.547 522.734 784.071 520.025 785.132 517.744C785.639 516.632 786.107 515.495 786.519 514.332C787.363 511.943 789.59 510.339 792.102 510.305L797.632 510.265C800.882 510.242 803.498 507.567 803.476 504.287L803.415 495.799C803.392 492.522 800.739 489.881 797.491 489.904L792.229 489.94C789.671 489.952 787.388 488.326 786.544 485.889C786.097 484.628 785.589 483.398 785.022 482.195C783.994 479.99 784.437 477.372 786.132 475.634L789.89 471.792C792.171 469.455 792.144 465.695 789.829 463.393L783.905 457.409C781.588 455.107 777.86 455.135 775.578 457.47L772.226 460.893C770.444 462.706 767.713 463.172 765.438 462.049C764.116 461.402 762.76 460.823 761.377 460.318C759.079 459.465 757.548 457.26 757.54 454.787L757.505 450.069C757.482 446.791 754.828 444.151 751.58 444.174C751.576 444.174 751.572 444.174 751.57 444.174L743.156 444.235ZM768.901 499.856C769.204 511.64 759.979 521.44 748.301 521.746C736.62 522.049 726.906 512.744 726.604 500.96C726.302 489.175 735.526 479.377 747.206 479.072C747.472 479.065 747.739 479.063 748.005 479.065C759.376 479.202 768.608 488.385 768.901 499.856Z" fill="white" fill-opacity="0.9"/>
</g>
</g>
<defs>
<filter id="filter0_d_1_7" x="382.933" y="375.864" width="127.999" height="24.7667" filterUnits="userSpaceOnUse" color-interpolation-filters="sRGB">
<feFlood flood-opacity="0" result="BackgroundImageFix"/>
<feColorMatrix in="SourceAlpha" type="matrix" values="0 0 0 0 0 0 0 0 0 0 0 0 0 0 0 0 0 0 127 0" result="hardAlpha"/>
<feOffset dy="4"/>
<feGaussianBlur stdDeviation="2"/>
<feComposite in2="hardAlpha" operator="out"/>
<feColorMatrix type="matrix" values="0 0 0 0 0 0 0 0 0 0 0 0 0 0 0 0 0 0 0.25 0"/>
<feBlend mode="normal" in2="BackgroundImageFix" result="effect1_dropShadow_1_7"/>
<feBlend mode="normal" in="SourceGraphic" in2="effect1_dropShadow_1_7" result="shape"/>
</filter>
<filter id="filter1_d_1_7" x="108.092" y="635.021" width="124.791" height="147.069" filterUnits="userSpaceOnUse" color-interpolation-filters="sRGB">
<feFlood flood-opacity="0" result="BackgroundImageFix"/>
<feColorMatrix in="SourceAlpha" type="matrix" values="0 0 0 0 0 0 0 0 0 0 0 0 0 0 0 0 0 0 127 0" result="hardAlpha"/>
<feOffset dy="4"/>
<feGaussianBlur stdDeviation="2"/>
<feComposite in2="hardAlpha" operator="out"/>
<feColorMatrix type="matrix" values="0 0 0 0 0 0 0 0 0 0 0 0 0 0 0 0 0 0 0.25 0"/>
<feBlend mode="normal" in2="BackgroundImageFix" result="effect1_dropShadow_1_7"/>
<feBlend mode="normal" in="SourceGraphic" in2="effect1_dropShadow_1_7" result="shape"/>
</filter>
<filter id="filter2_d_1_7" x="141.025" y="627.543" width="136.469" height="185.9" filterUnits="userSpaceOnUse" color-interpolation-filters="sRGB">
<feFlood flood-opacity="0" result="BackgroundImageFix"/>
<feColorMatrix in="SourceAlpha" type="matrix" values="0 0 0 0 0 0 0 0 0 0 0 0 0 0 0 0 0 0 127 0" result="hardAlpha"/>
<feOffset dy="4"/>
<feGaussianBlur stdDeviation="2"/>
<feComposite in2="hardAlpha" operator="out"/>
<feColorMatrix type="matrix" values="0 0 0 0 0 0 0 0 0 0 0 0 0 0 0 0 0 0 0.25 0"/>
<feBlend mode="normal" in2="BackgroundImageFix" result="effect1_dropShadow_1_7"/>
<feBlend mode="normal" in="SourceGraphic" in2="effect1_dropShadow_1_7" result="shape"/>
</filter>
<filter id="filter3_d_1_7" x="157.241" y="720.369" width="120.253" height="93.0734" filterUnits="userSpaceOnUse" color-interpolation-filters="sRGB">
<feFlood flood-opacity="0" result="BackgroundImageFix"/>
<feColorMatrix in="SourceAlpha" type="matrix" values="0 0 0 0 0 0 0 0 0 0 0 0 0 0 0 0 0 0 127 0" result="hardAlpha"/>
<feOffset dy="4"/>
<feGaussianBlur stdDeviation="2"/>
<feComposite in2="hardAlpha" operator="out"/>
<feColorMatrix type="matrix" values="0 0 0 0 0 0 0 0 0 0 0 0 0 0 0 0 0 0 0.25 0"/>
<feBlend mode="normal" in2="BackgroundImageFix" result="effect1_dropShadow_1_7"/>
<feBlend mode="normal" in="SourceGraphic" in2="effect1_dropShadow_1_7" result="shape"/>
</filter>
<filter id="filter4_d_1_7" x="215.171" y="636.807" width="149.529" height="125.316" filterUnits="userSpaceOnUse" color-interpolation-filters="sRGB">
<feFlood flood-opacity="0" result="BackgroundImageFix"/>
<feColorMatrix in="SourceAlpha" type="matrix" values="0 0 0 0 0 0 0 0 0 0 0 0 0 0 0 0 0 0 127 0" result="hardAlpha"/>
<feOffset dy="4"/>
<feGaussianBlur stdDeviation="2"/>
<feComposite in2="hardAlpha" operator="out"/>
<feColorMatrix type="matrix" values="0 0 0 0 0 0 0 0 0 0 0 0 0 0 0 0 0 0 0.25 0"/>
<feBlend mode="normal" in2="BackgroundImageFix" result="effect1_dropShadow_1_7"/>
<feBlend mode="normal" in="SourceGraphic" in2="effect1_dropShadow_1_7" result="shape"/>
</filter>
<linearGradient id="paint0_linear_1_7" x1="536.051" y1="1218.88" x2="538.753" y2="1000.65" gradientUnits="userSpaceOnUse">
<stop offset="0.494" stop-color="#EBEFF2"/>
<stop offset="1" stop-color="white"/>
</linearGradient>
<linearGradient id="paint1_linear_1_7" x1="825.042" y1="616.055" x2="825.042" y2="709.044" gradientUnits="userSpaceOnUse">
<stop offset="0.442708" stop-color="#0DBBFC"/>
<stop offset="1" stop-color="#0A2640"/>
</linearGradient>
<linearGradient id="paint2_linear_1_7" x1="857.615" y1="1092.72" x2="887.76" y2="1093.54" gradientUnits="userSpaceOnUse">
<stop stop-color="#311944"/>
<stop offset="1" stop-color="#893976"/>
</linearGradient>
<linearGradient id="paint3_linear_1_7" x1="759.733" y1="1083.98" x2="790.837" y2="1092.1" gradientUnits="userSpaceOnUse">
<stop stop-color="#311944"/>
<stop offset="1" stop-color="#893976"/>
</linearGradient>
<linearGradient id="paint4_linear_1_7" x1="834.204" y1="774.274" x2="834.204" y2="1079.25" gradientUnits="userSpaceOnUse">
<stop offset="0.209375" stop-color="#65E4A3"/>
<stop offset="1" stop-color="#0A2640" stop-opacity="0.61"/>
</linearGradient>
<linearGradient id="paint5_linear_1_7" x1="901.215" y1="769.72" x2="901.215" y2="1082.35" gradientUnits="userSpaceOnUse">
<stop offset="0.209375" stop-color="#65E4A3"/>
<stop offset="1" stop-color="#0A2640" stop-opacity="0.61"/>
</linearGradient>
<linearGradient id="paint6_linear_1_7" x1="889.452" y1="614.24" x2="889.452" y2="861.512" gradientUnits="userSpaceOnUse">
<stop offset="0.442708" stop-color="#0DBBFC"/>
<stop offset="1" stop-color="#0A2640"/>
</linearGradient>
<linearGradient id="paint7_linear_1_7" x1="892.755" y1="660.852" x2="892.755" y2="861.513" gradientUnits="userSpaceOnUse">
<stop offset="0.442708" stop-color="#0DBBFC"/>
<stop offset="1" stop-color="#0A2640"/>
</linearGradient>
<linearGradient id="paint8_linear_1_7" x1="944.02" y1="622.874" x2="944.02" y2="783.602" gradientUnits="userSpaceOnUse">
<stop offset="0.442708" stop-color="#0DBBFC"/>
<stop offset="1" stop-color="#0A2640"/>
</linearGradient>
<linearGradient id="paint9_linear_1_7" x1="895.611" y1="628.68" x2="870.929" y2="568.479" gradientUnits="userSpaceOnUse">
<stop stop-color="#311944"/>
<stop offset="1" stop-color="#6B3976"/>
</linearGradient>
<linearGradient id="paint10_linear_1_7" x1="888.634" y1="631.572" x2="863.928" y2="571.31" gradientUnits="userSpaceOnUse">
<stop stop-color="#311944"/>
<stop offset="1" stop-color="#6B3976"/>
</linearGradient>
<linearGradient id="paint11_linear_1_7" x1="179.723" y1="767.197" x2="144.999" y2="635.252" gradientUnits="userSpaceOnUse">
<stop offset="0.9999" stop-color="#0DBBFC"/>
<stop offset="1" stop-color="#AA80F9"/>
</linearGradient>
<linearGradient id="paint12_linear_1_7" x1="149.614" y1="1074.79" x2="132.425" y2="1085.65" gradientUnits="userSpaceOnUse">
<stop stop-color="#444B8C"/>
<stop offset="0.9964" stop-color="#26264F"/>
</linearGradient>
<linearGradient id="paint13_linear_1_7" x1="133.479" y1="1086.57" x2="137.514" y2="1059.46" gradientUnits="userSpaceOnUse">
<stop stop-color="#FFC444"/>
<stop offset="0.9964" stop-color="#F36F56"/>
</linearGradient>
<linearGradient id="paint14_linear_1_7" x1="148.362" y1="1072.81" x2="131.173" y2="1083.66" gradientUnits="userSpaceOnUse">
<stop stop-color="#444B8C"/>
<stop offset="0.9964" stop-color="#26264F"/>
</linearGradient>
<linearGradient id="paint15_linear_1_7" x1="255.494" y1="1083.5" x2="239.86" y2="1096.71" gradientUnits="userSpaceOnUse">
<stop stop-color="#444B8C"/>
<stop offset="0.9964" stop-color="#26264F"/>
</linearGradient>
<linearGradient id="paint16_linear_1_7" x1="241.084" y1="1097.54" x2="241.084" y2="1070.1" gradientUnits="userSpaceOnUse">
<stop stop-color="#FFC444"/>
<stop offset="0.9964" stop-color="#F36F56"/>
</linearGradient>
<linearGradient id="paint17_linear_1_7" x1="242.311" y1="1110.12" x2="134.887" y2="698.097" gradientUnits="userSpaceOnUse">
<stop stop-color="#0A2640"/>
<stop offset="0.9964" stop-color="#26264F"/>
</linearGradient>
<linearGradient id="paint18_linear_1_7" x1="253.989" y1="1081.72" x2="238.356" y2="1094.93" gradientUnits="userSpaceOnUse">
<stop stop-color="#444B8C"/>
<stop offset="0.9964" stop-color="#26264F"/>
</linearGradient>
<linearGradient id="paint19_linear_1_7" x1="239.529" y1="581.103" x2="160.582" y2="690.296" gradientUnits="userSpaceOnUse">
<stop stop-color="#FFC444"/>
<stop offset="0.9964" stop-color="#F36F56"/>
</linearGradient>
<linearGradient id="paint20_linear_1_7" x1="235.931" y1="578.503" x2="156.986" y2="687.692" gradientUnits="userSpaceOnUse">
<stop stop-color="#FFC444"/>
<stop offset="0.9964" stop-color="#F36F56"/>
</linearGradient>
<linearGradient id="paint21_linear_1_7" x1="150.555" y1="738.565" x2="165.451" y2="738.565" gradientUnits="userSpaceOnUse">
<stop offset="0.0036" stop-color="#6165D7"/>
<stop offset="1" stop-color="#AA80F9"/>
</linearGradient>
<linearGradient id="paint22_linear_1_7" x1="161.241" y1="762.905" x2="273.494" y2="762.905" gradientUnits="userSpaceOnUse">
<stop offset="0.9997" stop-color="#0DBBFC"/>
<stop offset="0.9998" stop-color="#17B7FC"/>
<stop offset="0.9999" stop-color="#9E85F9"/>
<stop offset="1" stop-color="#AA80F9"/>
</linearGradient>
<linearGradient id="paint23_linear_1_7" x1="360.174" y1="683.124" x2="383.979" y2="711.575" gradientUnits="userSpaceOnUse">
<stop stop-color="#FFC444"/>
<stop offset="0.9964" stop-color="#F36F56"/>
</linearGradient>
<linearGradient id="paint24_linear_1_7" x1="647.121" y1="195.613" x2="647.121" y2="331.167" gradientUnits="userSpaceOnUse">
<stop stop-color="#0A2640" stop-opacity="0.43"/>
<stop offset="0.0001" stop-color="#65E4A3"/>
</linearGradient>
<linearGradient id="paint25_linear_1_7" x1="612.753" y1="525.192" x2="637.267" y2="620.102" gradientUnits="userSpaceOnUse">
<stop offset="0.0036" stop-color="#E38DDD"/>
<stop offset="1" stop-color="#9571F6"/>
</linearGradient>
<linearGradient id="paint26_linear_1_7" x1="619.343" y1="555.113" x2="627.137" y2="555.113" gradientUnits="userSpaceOnUse">
<stop stop-color="#311944"/>
<stop offset="1" stop-color="#A03976"/>
</linearGradient>
<linearGradient id="paint27_linear_1_7" x1="873.612" y1="118.002" x2="731.288" y2="243.465" gradientUnits="userSpaceOnUse">
<stop stop-color="#444B8C"/>
<stop offset="0.9964" stop-color="#26264F"/>
</linearGradient>
<linearGradient id="paint28_linear_1_7" x1="732.954" y1="189.973" x2="732.954" y2="369.777" gradientUnits="userSpaceOnUse">
<stop stop-color="#0A2640" stop-opacity="0.43"/>
<stop offset="0.0001" stop-color="#65E4A3"/>
</linearGradient>
<linearGradient id="paint29_linear_1_7" x1="685.242" y1="185.881" x2="725.941" y2="185.881" gradientUnits="userSpaceOnUse">
<stop stop-color="#311944"/>
<stop offset="1" stop-color="#A03976"/>
</linearGradient>
<linearGradient id="paint30_linear_1_7" x1="690.395" y1="296.926" x2="689.423" y2="212.374" gradientUnits="userSpaceOnUse">
<stop stop-color="#311944"/>
<stop offset="1" stop-color="#A03976"/>
</linearGradient>
<linearGradient id="paint31_linear_1_7" x1="735.831" y1="211.913" x2="735.831" y2="369.778" gradientUnits="userSpaceOnUse">
<stop stop-color="#0A2640" stop-opacity="0.43"/>
<stop offset="0.0001" stop-color="#65E4A3"/>
</linearGradient>
<linearGradient id="paint32_linear_1_7" x1="742.633" y1="192.809" x2="742.633" y2="334.861" gradientUnits="userSpaceOnUse">
<stop stop-color="#0A2640" stop-opacity="0.43"/>
<stop offset="0.0001" stop-color="#65E4A3"/>
</linearGradient>
<linearGradient id="paint33_linear_1_7" x1="665.692" y1="321.201" x2="695.823" y2="321.201" gradientUnits="userSpaceOnUse">
<stop stop-color="#311944"/>
<stop offset="1" stop-color="#A03976"/>
</linearGradient>
<clipPath id="clip0_1_7">
<rect width="116.972" height="111.425" fill="white" transform="translate(692.011 444.174)"/>
</clipPath>
</defs>
</svg>