<svg xmlns="http://www.w3.org/2000/svg" xmlns:xlink="http://www.w3.org/1999/xlink" version="1.1" x="0px" y="0px" viewBox="0 0 500 500" style="enable-background:new 0 0 500 500;" xml:space="preserve">
<g id="BACKGROUND">
	<rect style="fill:#FFFFFF;" width="500" height="500"/>
</g>
<g id="OBJECTS">
	<g>
		<path style="fill:#D3E7EA;" d="M257.247,100.131c-88.272,0-159.831,65.222-159.831,145.677c0,55.02,33.47,102.91,82.861,127.694    c5.186-8.846,14.733-14.793,24.192-18.48c12.044-4.695,25.016-6.199,37.85-4.833c14.819,1.578,28.401,7.405,41.325,14.556    c10.114,5.596,20.069,11.506,30.029,17.39c60.425-20.787,103.405-73.979,103.405-136.328    C417.078,165.353,345.519,100.131,257.247,100.131z"/>
		<ellipse style="fill:#D3D3D3;" cx="278" cy="421.225" rx="83.038" ry="13.355"/>
		<ellipse style="fill:#D3D3D3;" cx="370.667" cy="402.558" rx="83.038" ry="13.355"/>
		<ellipse style="fill:#D3D3D3;" cx="125.458" cy="413.891" rx="73.163" ry="13.355"/>
		<ellipse style="fill:#D3D3D3;" cx="129.333" cy="401.891" rx="83.038" ry="13.355"/>
	</g>
	<g>
		<g>
			<path style="fill:#508889;" d="M126.487,353.856c0,0-24.088-70.014-4.432-129.973c9.235-28.172,36.283-24.463,41.018,5.633     C168.637,264.874,165.863,313.135,126.487,353.856z"/>
			<path style="fill:#39656C;" d="M127.767,354.6c8.216-134.54,15.826-149.081,15.826-149.081L127.767,354.6z"/>
		</g>
		<g>
			<path style="fill:#62C1C5;" d="M125.284,358.966c0,0-54.508-42.743-70.64-104.547c-7.579-29.038,14.851-42.894,34.02-21.006     C111.187,259.129,134.066,300.713,125.284,358.966z"/>
			<path style="fill:#39656C;" d="M126.64,358.78C63.227,242.551,61.471,225.784,61.471,225.784L126.64,358.78z"/>
		</g>
		<path style="fill:#222B54;" d="M86.659,403.927h61.814c10.489,0,18.992-8.503,18.992-18.992v-59.96H67.667v59.96    C67.667,395.424,76.17,403.927,86.659,403.927z"/>
		<path style="fill:#EED253;" d="M60.126,326.749h111.775c2.205,0,3.992-1.787,3.992-3.992l0,0c0-2.205-1.787-3.992-3.992-3.992    H60.126c-2.205,0-3.992,1.787-3.992,3.992l0,0C56.135,324.962,57.922,326.749,60.126,326.749z"/>
	</g>
	<g>
		<g>
			<polygon style="fill:#ADD9D8;" points="178.421,69.507 217.031,81.99 183.433,54.122    "/>
			<polygon style="fill:#86B5B1;" points="217.031,81.99 175.935,87.943 177.374,70.205 178.421,69.507    "/>
			<polygon style="fill:#ADD9D8;" points="138.6,80.234 216.933,81.988 177.374,70.205    "/>
		</g>
		<g>
			<polygon style="fill:#ADD9D8;" points="256.079,138.545 234.6,145.49 253.291,129.987    "/>
			<polygon style="fill:#86B5B1;" points="234.6,145.49 257.462,148.801 256.662,138.934 256.079,138.545    "/>
			<polygon style="fill:#ADD9D8;" points="278.232,144.513 234.655,145.489 256.662,138.934    "/>
		</g>
	</g>
	<g>
		<path style="fill:#322A49;" d="M354.867,70.446c6.801-2.718,14.408-2.51,21.258,0.085c6.3,2.387,13.957,6.706,17.017,14.137    c5.587,13.569-1.915,36.236-22.987,34.959c-21.071-1.277-28.254-13.249-28.733-16.921    C341.012,99.559,335.676,78.116,354.867,70.446z"/>
		<polygon style="fill:#E1B58F;" points="361.735,380.063 362.932,392.394 370.235,393.591 369.038,378.267   "/>
		<polygon style="fill:#E1B58F;" points="393.342,383.534 394.539,395.866 401.842,397.063 400.645,381.739   "/>
		<g>
			<path style="fill:#D3B63C;" d="M371.852,392.484c0,0-37.821-9.243-39.502,12.95l41.505-1.348     C373.855,404.085,376.571,395.421,371.852,392.484z"/>
			<path style="fill:#FFFFFF;" d="M357.364,390.554c0,0,1.799,4.839-0.326,5.486c-2.125,0.647-1.895-5.46-1.895-5.46     L357.364,390.554z"/>
			<path style="fill:#FFFFFF;" d="M353.673,390.634c0,0,1.799,4.839-0.325,5.486c-2.125,0.647-1.896-5.46-1.896-5.46     L353.673,390.634z"/>
			<polygon style="fill:#FFFFFF;" points="373.612,402.88 334.719,404.079 334.635,402.99 373.638,402.129    "/>
		</g>
		<g>
			<path style="fill:#EED253;" d="M404.895,394.08c0,0-37.821-9.243-39.502,12.95l41.505-1.348     C406.899,405.682,409.615,397.017,404.895,394.08z"/>
			<path style="fill:#FFFFFF;" d="M390.407,392.151c0,0,1.799,4.839-0.326,5.486c-2.125,0.647-1.896-5.46-1.896-5.46     L390.407,392.151z"/>
			<path style="fill:#FFFFFF;" d="M386.716,392.23c0,0,1.799,4.839-0.326,5.486c-2.125,0.647-1.896-5.46-1.896-5.46L386.716,392.23z     "/>
			<polygon style="fill:#FFFFFF;" points="406.655,404.476 367.763,405.675 367.679,404.586 406.682,403.725    "/>
		</g>
		<path style="fill:#39656C;" d="M355.263,220.16c0,0-11.756,62.503,5.325,165.202h12.126l9.078-158.194    C381.793,227.168,366.455,214.602,355.263,220.16z"/>
		<path style="fill:#518A88;" d="M408.735,218.011c0,0,10.81,64.652-6.271,167.351h-12.126l-26.239-164.313    C364.099,221.049,397.543,212.453,408.735,218.011z"/>
		<g>
			<path style="fill:#E1B58F;" d="M348.159,164.359c0,0,1.156,43.531-13.652,49.319c-14.808,5.789-47.288-32.367-47.288-32.367     s-7.026-0.538-5.308-4.309c1.718-3.771,5.354-8.072,6.857-5.588c1.503,2.484,0.663,5.603,0.663,5.603s27.488,7.787,42.279,20.769     l2.426-35.532L348.159,164.359z"/>
			<path style="fill:#222B54;" d="M351.754,177.996c0,0,3.218-24.597-12.095-39.456c0,0-16.015,18.047-15.656,35.348     C324.003,173.888,342.851,172.877,351.754,177.996z"/>
		</g>
		<g>
			<g>
				<g>
					<path style="fill:#222B54;" d="M408.553,220.691l5.837-81.352c0,0-12.787-14.342-43.641-14.342c0,0-20.292,0.742-33.078,15.331       c0,0,6.393,61.323,18.068,79.621C355.739,219.949,373.529,230.582,408.553,220.691z"/>
				</g>
			</g>
		</g>
		<g>
			<polygon style="fill:#172836;" points="327.272,195.448 384.589,195.384 380.555,187.236 327.263,187.295    "/>
			<polygon style="fill:#263E5E;" points="341.525,142.36 276.093,142.432 293.023,195.486 355.643,195.417    "/>
			<path style="fill:#D5E7EB;" d="M311.234,173.4c0.846,2.652,3.251,4.266,5.371,3.605c2.12-0.661,3.153-3.348,2.307-6     c-0.846-2.652-3.251-4.266-5.371-3.605C311.421,168.062,310.388,170.748,311.234,173.4z"/>
		</g>
		<path style="fill:#E1B58F;" d="M344.283,90.447c0,0-5.601,28.005,17.114,32.673c22.715,4.667,27.383-28.627,22.093-39.207    C378.201,73.332,352.218,67.731,344.283,90.447z"/>
		<path style="fill:#E1B58F;" d="M362.871,123.372c0,0,2.07,1.614,1.698,6.437c-0.372,4.823,8.808,7.312,14.409,3.734    c5.601-3.578,4.512-6.068,4.512-6.068l-3.491-12.281C379.999,115.194,373.369,124.403,362.871,123.372z"/>
		<path style="fill:#D5A180;" d="M374.697,125.039c2.773-2.08,4.685-5.018,5.747-8.281l-0.445-1.564c0,0-6.63,9.208-17.128,8.178    c0,0,0.795,0.622,1.311,2.243C366.921,128.245,371.154,127.696,374.697,125.039z"/>
		<path style="fill:#E1B58F;" d="M380.035,95.257c0,0,4.636-9.693,7.797-4.917s-4.285,14.891-9.623,13.065    C372.87,101.579,380.035,95.257,380.035,95.257z"/>
		<g>
			<path style="fill:#E1B58F;" d="M418.68,148.519c0,0,21.915,37.63,11.52,49.913c-10.396,12.283-57.598-5.393-57.598-5.393     s-6.509,2.946-6.79-1.198c-0.281-4.144,0.89-9.687,3.418-8.239c2.529,1.448,3.278,4.594,3.278,4.594s28.19-6.541,47.577-2.347     l-14.891-32.355L418.68,148.519z"/>
			<path style="fill:#222B54;" d="M428.42,158.736c0,0-8.939-23.146-29.691-28.733c0,0-5.587,23.625,3.033,38.63     C401.762,168.633,418.044,158.576,428.42,158.736z"/>
		</g>
		<path style="fill:#322A49;" d="M385.799,87.221c0,0-1.117,8.141-3.831,7.503c-2.714-0.638-4.15-14.526-4.15-14.526    s-30.17,18.996-40.227,2.075c-10.057-16.921,10.376-14.047,10.376-14.047S346.85,62,354.512,62c7.662,0,10.057,4.31,10.057,4.31    s-0.16-4.31,5.587-2.873c5.747,1.437,17.24,14.207,16.282,23.625"/>
		<path style="fill:#322A49;" d="M389.391,80.677c0,0,3.592-0.718,3.193-2.394c-0.399-1.676-2.155-0.559-2.155-0.559    s2.794-3.113,1.117-2.873C389.87,75.09,383.564,78.841,389.391,80.677z"/>
		<path style="fill:#3F395B;" d="M354.412,85.258c0,0,5.18-2.563,1.281-4.857c-3.899-2.294-11.384-3.736-12.99-7.812    c-1.606-4.075-7.22,0.508-4.244,4.87C341.434,81.822,349.554,86.095,354.412,85.258z"/>
		
		
		
		
	</g>
	<g>
		<g>
			<defs>
				<path id="SVGID_1_" d="M256.745,394.842c0,0,14.235-71.927-34.09-95.153C222.654,299.689,201.301,365.622,256.745,394.842z"/>
			</defs>
			<clipPath id="SVGID_00000011737880737175682030000011281029818147991207_">
				<use xlink:href="#SVGID_1_" style="overflow:visible;"/>
			</clipPath>
			<path style="clip-path:url(#SVGID_00000011737880737175682030000011281029818147991207_);fill:#EED253;" d="M256.745,394.842     c0,0,14.235-71.927-34.09-95.153C222.654,299.689,201.301,365.622,256.745,394.842z"/>
			<g style="clip-path:url(#SVGID_00000011737880737175682030000011281029818147991207_);">
				<g>
					<path style="fill:#FFFFFF;" d="M221.584,299.824c10.068,34.235,22.088,67.85,35.985,100.716       c0.421,0.996,1.874,0.138,1.456-0.851c-13.84-32.73-25.788-66.222-35.815-100.314       C222.904,298.337,221.276,298.779,221.584,299.824L221.584,299.824z"/>
				</g>
			</g>
			<g style="clip-path:url(#SVGID_00000011737880737175682030000011281029818147991207_);">
				<g>
					<path style="fill:#FFFFFF;" d="M212.887,328.456c5.755,6.988,13.694,15.731,23.87,13.417       c9.809-2.23,11.775-13.111,12.717-21.569c0.12-1.077-1.567-1.068-1.686,0c-0.95,8.529-3.324,20.341-14.303,20.196       c-8.521-0.113-14.449-7.217-19.406-13.236C213.389,326.426,212.202,327.624,212.887,328.456L212.887,328.456z"/>
				</g>
			</g>
			<g style="clip-path:url(#SVGID_00000011737880737175682030000011281029818147991207_);">
				<g>
					<path style="fill:#FFFFFF;" d="M215.279,359.45c8.438,6.288,19.464,13.693,30.345,8.716c4.713-2.156,7.628-6.564,10.472-10.699       c3.675-5.342,6.887-10.757,7.788-17.272c0.147-1.061-1.478-1.52-1.626-0.448c-0.711,5.145-2.885,9.649-5.674,13.982       c-2.763,4.291-5.85,9.717-10.424,12.267c-10.561,5.889-21.699-1.791-30.031-8.001       C215.26,357.346,214.418,358.808,215.279,359.45L215.279,359.45z"/>
				</g>
			</g>
		</g>
		<g>
			<defs>
				<path id="SVGID_00000161602454848415074390000017869684208216262031_" d="M258.305,400.142c0,0-40.8-60.921-91.393-43.168      C166.912,356.974,198.441,418.691,258.305,400.142z"/>
			</defs>
			<clipPath id="SVGID_00000063625679085618020570000004461434155308267650_">
				<use xlink:href="#SVGID_00000161602454848415074390000017869684208216262031_" style="overflow:visible;"/>
			</clipPath>
			<path style="clip-path:url(#SVGID_00000063625679085618020570000004461434155308267650_);fill:#B0D9C7;" d="M258.305,400.142     c0,0-40.8-60.921-91.393-43.168C166.912,356.974,198.441,418.691,258.305,400.142z"/>
			<g style="clip-path:url(#SVGID_00000063625679085618020570000004461434155308267650_);">
				<g>
					<path style="fill:#FFFFFF;" d="M166.241,357.821c31.328,17.084,63.598,32.355,96.666,45.764       c1.005,0.408,1.442-1.223,0.448-1.626c-32.932-13.354-65.064-28.58-96.264-45.594       C166.139,355.846,165.287,357.301,166.241,357.821L166.241,357.821z"/>
				</g>
			</g>
			<g style="clip-path:url(#SVGID_00000063625679085618020570000004461434155308267650_);">
				<g>
					<path style="fill:#FFFFFF;" d="M180.349,384.22c9,0.867,20.302,1.415,26.112-7.05c5.821-8.482-0.635-17.869-6.008-24.587       c-0.678-0.847-1.863,0.352-1.192,1.192c5.419,6.777,12.084,16.787,4.055,24.48c-6.107,5.851-15.238,5.024-22.967,4.28       C179.27,382.43,179.277,384.117,180.349,384.22L180.349,384.22z"/>
				</g>
			</g>
			<g style="clip-path:url(#SVGID_00000063625679085618020570000004461434155308267650_);">
				<g>
					<path style="fill:#FFFFFF;" d="M203.97,404.439c10.257-1.498,22.993-3.959,27.431-14.795c2.214-5.405,0.821-11.42-0.258-16.926       c-1.153-5.883-2.764-11.448-6.441-16.273c-0.649-0.852-2.114-0.013-1.456,0.851c3.063,4.019,4.701,8.607,5.784,13.507       c1.189,5.385,2.846,11.638,1.235,17.051c-3.323,11.169-16.914,13.523-26.744,14.959       C202.452,402.97,202.907,404.595,203.97,404.439L203.97,404.439z"/>
				</g>
			</g>
		</g>
		<g>
			<defs>
				<path id="SVGID_00000130632905773948138450000011434425615799869328_" d="M302.982,396.34c0,0-14.235-71.927,34.09-95.153      C337.072,301.188,358.425,367.12,302.982,396.34z"/>
			</defs>
			<clipPath id="SVGID_00000066473724214132315100000018113557392268126622_">
				<use xlink:href="#SVGID_00000130632905773948138450000011434425615799869328_" style="overflow:visible;"/>
			</clipPath>
			<path style="clip-path:url(#SVGID_00000066473724214132315100000018113557392268126622_);fill:#EED253;" d="M302.982,396.34     c0,0-14.235-71.927,34.09-95.153C337.072,301.188,358.425,367.12,302.982,396.34z"/>
			<g style="clip-path:url(#SVGID_00000066473724214132315100000018113557392268126622_);">
				<g>
					<path style="fill:#FFFFFF;" d="M336.517,300.874c-10.027,34.092-21.975,67.583-35.815,100.314       c-0.418,0.988,1.034,1.848,1.456,0.851c13.897-32.867,25.917-66.482,35.985-100.716       C338.449,300.28,336.823,299.834,336.517,300.874L336.517,300.874z"/>
				</g>
			</g>
			<g style="clip-path:url(#SVGID_00000066473724214132315100000018113557392268126622_);">
				<g>
					<path style="fill:#FFFFFF;" d="M345.647,328.762c-4.963,6.026-10.881,13.123-19.406,13.236       c-10.975,0.145-13.355-11.679-14.303-20.195c-0.119-1.066-1.806-1.078-1.686,0c0.933,8.38,2.906,19.444,12.717,21.569       c10.233,2.216,18.06-6.364,23.87-13.418C347.524,329.123,346.338,327.924,345.647,328.762L345.647,328.762z"/>
				</g>
			</g>
			<g style="clip-path:url(#SVGID_00000066473724214132315100000018113557392268126622_);">
				<g>
					<path style="fill:#FFFFFF;" d="M343.596,359.493c-8.072,6.016-19.785,14.24-30.031,8.001       c-4.361-2.655-7.192-7.367-9.943-11.541c-2.998-4.549-5.402-9.255-6.155-14.708c-0.148-1.07-1.772-0.615-1.626,0.448       c0.9,6.513,4.117,11.927,7.788,17.272c2.841,4.136,5.758,8.544,10.472,10.699c10.879,4.975,21.91-2.43,30.345-8.716       C345.307,360.307,344.467,358.843,343.596,359.493L343.596,359.493z"/>
				</g>
			</g>
		</g>
		<g>
			<defs>
				<path id="SVGID_00000016064885351701395130000011087696302920273797_" d="M301.421,401.64c0,0,40.8-60.921,91.393-43.168      C392.814,358.472,361.285,420.189,301.421,401.64z"/>
			</defs>
			<clipPath id="SVGID_00000181083921279277413900000001971038061234825900_">
				<use xlink:href="#SVGID_00000016064885351701395130000011087696302920273797_" style="overflow:visible;"/>
			</clipPath>
			<path style="clip-path:url(#SVGID_00000181083921279277413900000001971038061234825900_);fill:#B0D9C7;" d="M301.421,401.64     c0,0,40.8-60.921,91.393-43.168C392.814,358.472,361.285,420.189,301.421,401.64z"/>
			<g style="clip-path:url(#SVGID_00000181083921279277413900000001971038061234825900_);">
				<g>
					<path style="fill:#FFFFFF;" d="M392.634,357.864c-31.199,17.014-63.331,32.24-96.264,45.594       c-0.992,0.402-0.559,2.034,0.448,1.625c33.068-13.409,65.338-28.68,96.666-45.764       C394.438,358.8,393.588,357.344,392.634,357.864L392.634,357.864z"/>
				</g>
			</g>
			<g style="clip-path:url(#SVGID_00000181083921279277413900000001971038061234825900_);">
				<g>
					<path style="fill:#FFFFFF;" d="M379.377,384.033c-7.748,0.746-16.841,1.589-22.967-4.28c-7.998-7.664-1.359-17.71,4.055-24.48       c0.671-0.839-0.514-2.039-1.192-1.192c-5.373,6.719-11.826,16.108-6.008,24.587c5.808,8.465,17.115,7.916,26.112,7.049       C380.447,385.615,380.458,383.929,379.377,384.033L379.377,384.033z"/>
				</g>
			</g>
			<g style="clip-path:url(#SVGID_00000181083921279277413900000001971038061234825900_);">
				<g>
					<path style="fill:#FFFFFF;" d="M356.205,404.312c-9.833-1.436-23.407-3.786-26.744-14.959       c-1.553-5.198-0.03-11.088,1.063-16.265c1.094-5.18,2.718-10.045,5.956-14.293c0.657-0.862-0.806-1.703-1.456-0.851       c-3.67,4.815-5.295,10.395-6.441,16.272c-1.077,5.523-2.458,11.503-0.258,16.926c4.396,10.839,17.213,13.302,27.431,14.795       C356.818,406.093,357.276,404.469,356.205,404.312L356.205,404.312z"/>
				</g>
			</g>
		</g>
		<g>
			<path style="fill:#188A8B;" d="M245.6,293.508c0,0-12.737,5.806-11.239,31.28l25.474-1.311L245.6,293.508z"/>
			<path style="fill:#322A49;" d="M268.592,274.824c0,0,19.105,5.198,22.337-15.031c3.231-20.229-9.412-32.17-16.015-36.385     c-6.603-4.215-23.039-3.793-30.203,0.983c-7.165,4.776-18.684,20.229-5.619,34.418     C252.155,272.997,260.163,281.707,268.592,274.824z"/>
			<path style="fill:#626DED;" d="M307.227,382.127c0,0,2.246,22.348-8.526,27.559c-10.772,5.211-38.119-0.218-38.12-0.997     c-0.001-0.78-2.507-27.283-2.507-27.283S289.763,386.049,307.227,382.127z"/>
			<g>
				<path style="fill:#E1AF8B;" d="M239.191,405.721l-14.54,3.374c0,0-0.06,8.824,4.135,10.255l12.356-3.492L239.191,405.721z"/>
				<path style="fill:#626DED;" d="M237.022,404.775c0,0,68.004-37.699,87.282-26.82c19.278,10.879-8.149,33.143-37.71,36.525      c-29.562,3.383-50.044,5.291-50.044,5.291L237.022,404.775z"/>
			</g>
			<g>
				<path style="fill:#E1AF8B;" d="M302.586,403.831l14.548,3.341c0,0,0.08,8.824-4.112,10.264l-12.364-3.465L302.586,403.831z"/>
				<path style="fill:#8D9AF7;" d="M304.753,402.88c0,0-68.09-37.548-87.343-26.626c-19.253,10.922,8.224,33.125,37.793,36.441      c29.569,3.317,50.056,5.18,50.056,5.18L304.753,402.88z"/>
			</g>
			<g>
				<g>
					<g>
						<path style="fill:#188A8B;" d="M307.227,382.127l5.336-85.137c0,0-11.917-14.995-40.632-14.963        c0,0-18.883,0.797-30.766,16.077c0,0,6.023,64.165,16.91,83.301C258.075,381.405,274.643,392.513,307.227,382.127z"/>
					</g>
				</g>
			</g>
			<path style="fill:#E1B58F;" d="M246.467,247.677c0,0-5.601,28.005,17.114,32.673c22.715,4.668,27.383-28.627,22.093-39.207     C280.384,230.563,254.402,224.961,246.467,247.677z"/>
			<path style="fill:#E1B58F;" d="M265.055,280.602c0,0,2.07,1.614,1.698,6.437c-0.372,4.823,8.808,7.312,14.409,3.734     c5.601-3.578,4.512-6.068,4.512-6.068l-3.491-12.281C282.183,272.424,275.552,281.633,265.055,280.602z"/>
			<path style="fill:#322A49;" d="M243.867,244.901c0,0,4.776,7.305,10.396,3.512c5.619-3.793,3.091-18.824,14.61-12.924     c11.52,5.9,7.445,16.155,14.048,14.189c6.603-1.967,6.603,5.479,6.603,5.479s-2.388-29.08-24.584-28.658     C242.743,226.919,243.867,244.901,243.867,244.901z"/>
			<path style="fill:#D5A180;" d="M276.88,282.269c2.773-2.08,4.685-5.018,5.747-8.281l-0.445-1.564c0,0-6.63,9.208-17.128,8.178     c0,0,0.795,0.622,1.311,2.243C269.104,285.475,273.338,284.926,276.88,282.269z"/>
			<path style="fill:#E1B58F;" d="M282.219,252.487c0,0,4.636-9.693,7.797-4.917c3.161,4.776-4.285,14.891-9.623,13.065     C275.054,258.809,282.219,252.487,282.219,252.487z"/>
			<g>
				<path style="fill:#263E5E;" d="M316.273,407.209c0,0-29.434,25.486-12.312,39.705l22.931-34.621      C326.892,412.293,321.4,405.062,316.273,407.209z"/>
				<path style="fill:#FFFFFF;" d="M306.311,417.904c0,0,4.987,1.335,4.285,3.442c-0.702,2.107-5.549-1.616-5.549-1.616      L306.311,417.904z"/>
				<path style="fill:#FFFFFF;" d="M304.239,420.96c0,0,4.987,1.335,4.285,3.442c-0.702,2.107-5.549-1.616-5.549-1.616      L304.239,420.96z"/>
				<polygon style="fill:#FFFFFF;" points="325.768,411.793 304.227,444.198 303.291,443.636 325.171,411.337     "/>
			</g>
			<g>
				<path style="fill:#263E5E;" d="M228.855,408.143c0,0,9.243,37.821-12.95,39.502l1.348-41.505      C217.253,406.14,225.918,403.424,228.855,408.143z"/>
				<path style="fill:#FFFFFF;" d="M230.784,422.631c0,0-4.839-1.799-5.486,0.325c-0.647,2.125,5.46,1.896,5.46,1.896      L230.784,422.631z"/>
				<path style="fill:#FFFFFF;" d="M230.705,426.322c0,0-4.839-1.799-5.486,0.326c-0.647,2.125,5.46,1.896,5.46,1.896      L230.705,426.322z"/>
				<polygon style="fill:#FFFFFF;" points="218.459,406.383 217.26,445.276 218.349,445.36 219.21,406.357     "/>
			</g>
			<path style="fill:#263E5E;" d="M238.526,360.406l28.767-3.166c1.619-0.178,2.787-1.635,2.609-3.254l-4.796-43.569     c-0.178-1.619-1.635-2.787-3.254-2.609l-28.767,3.166c-1.619,0.178-2.787,1.635-2.609,3.254l4.796,43.569     C235.45,359.416,236.907,360.584,238.526,360.406z"/>
			<path style="fill:#E6F1F1;" d="M244.71,321.534c0,1.823,1.478,3.301,3.301,3.301c1.823,0,3.301-1.478,3.301-3.301     c0-1.823-1.478-3.301-3.301-3.301C246.188,318.233,244.71,319.711,244.71,321.534z"/>
			<path style="fill:#E1B58F;" d="M312.563,296.99c0,0,21.915,35.291,11.52,46.81c-10.396,11.52-57.598-5.057-57.598-5.057     s-6.509,2.763-6.79-1.124c-0.281-3.887,0.89-9.085,3.418-7.727c2.529,1.358,3.278,4.308,3.278,4.308s28.19-6.134,47.576-2.201     l-14.891-30.344L312.563,296.99z"/>
			<path style="fill:#E1B58F;" d="M229.397,335.231c0,0,1.264-7.445,4.355-5.479c3.091,1.967,5.76,10.958,2.248,12.222     C232.488,343.238,229.678,337.479,229.397,335.231z"/>
			<path style="fill:#188A8B;" d="M295.049,297.067l8.804,23.039c0,0,12.924-7.118,18.169-12.362c0,0-6.556-16.296-29.22-22.852     L295.049,297.067z"/>
			
			
			<path style="fill:#3F395B;" d="M256.581,223.197c0,0,5.409,2.037,1.756,4.706c-3.653,2.669-10.958,4.847-12.152,9.061     c-1.194,4.214-7.235,0.211-4.706-4.425C244.008,227.903,251.664,222.846,256.581,223.197z"/>
			<path style="fill:#322A49;" d="M269.104,223.108c0,0-2.647-5.798,0.63-5.546c3.277,0.252,3.151,2.773,3.151,2.773     s3.908-4.412,5.798-2.017c1.891,2.395-1.008,4.034-1.008,4.034s2.899-2.899,4.034-0.63c1.134,2.269-3.277,6.303-4.286,6.681     C276.415,228.78,269.104,223.108,269.104,223.108z"/>
		</g>
	</g>
	<g>
		<g>
			<path style="fill:#322A49;" d="M119.438,104.8c-0.686,0.214-14.846-7.183-22.508,15.085     c-7.662,22.268-59.622,54.833-16.043,67.763c43.579,12.93,101.525,4.31,95.299-17.958c-6.226-22.268-21.79-30.649-22.747-39.029     C152.481,122.28,141.706,97.856,119.438,104.8z"/>
			<path style="fill:#E1B58F;" d="M142.903,165.859c0,0,12.77,0.639,15.644,15.963c2.873,15.325,12.132,99.928,12.132,99.928     s4.869,9.418-2.554,11.334c-7.423,1.916-2.634-10.775-2.634-10.775l-17.48-65.129L142.903,165.859z"/>
			<path style="fill:#E3B28D;" d="M149.125,403.817l0.659,9.492c0,0,6.518,1.813,6.774,1.302c0.257-0.511,1.989-10.336,1.989-10.336     L149.125,403.817z"/>
			<g>
				<path style="fill:#487D9F;" d="M144.833,412.377c0,0,37.821-9.243,39.502,12.95l-41.505-1.348      C142.83,423.979,140.114,415.314,144.833,412.377z"/>
				<path style="fill:#FFFFFF;" d="M159.321,410.448c0,0-1.799,4.839,0.325,5.486c2.125,0.647,1.896-5.46,1.896-5.46      L159.321,410.448z"/>
				<path style="fill:#FFFFFF;" d="M163.012,410.527c0,0-1.799,4.839,0.326,5.486c2.125,0.647,1.896-5.46,1.896-5.46      L163.012,410.527z"/>
				<polygon style="fill:#FFFFFF;" points="143.074,422.773 181.966,423.972 182.05,422.883 143.047,422.022     "/>
			</g>
			<path style="fill:#487D9F;" d="M155.904,254.79c0,0,13.188,75.947,2.644,149.433l-9.423-0.407l-21.394-122.338     C127.731,281.478,124.506,227.303,155.904,254.79z"/>
			<path style="fill:#558FC2;" d="M94.423,256.472c0,0-7.159,24.96,6.977,56.091c16.232,35.746,12.202,88.648,12.202,88.648     l10.661,0.08c0,0,19.413-93.057,8.971-142.074L94.423,256.472z"/>
			<path style="fill:#EED253;" d="M94.834,168.992c0,0-7.159,20.613,1.704,41.62c8.863,21.007-2.116,47.117-2.116,47.117     s38.324,15.612,61.481-1.905c0,0-3.431-38.512-3.225-67.43c0.026-3.732-1.71-13.193-3.455-16.493     c-2.275-4.303-7.039-8.795-17.009-8.484C113.355,164.003,102.445,161.204,94.834,168.992z"/>
			<polygon style="fill:#E3B28D;" points="113.704,400.939 112.895,413.261 122.087,414.043 124.263,401.291    "/>
			<path style="fill:#EED253;" d="M146.558,173.952c0,0,13.556,16.991,9.485,29.712c-4.922,15.382-41.921,11.391-41.921,11.391     l-11.485-26.251C102.637,188.804,140.437,192.734,146.558,173.952z"/>
			<path style="fill:#E1B58F;" d="M143.945,121.33c0,0,10.552,26.539-10.951,35.22c-21.504,8.682-32.09-23.229-28.792-34.588     S132.049,100.414,143.945,121.33z"/>
			<path style="fill:#E1B58F;" d="M131.589,157.064c0,0-1.745,1.961-0.511,6.638c1.234,4.677-7.347,8.779-13.501,6.268     c-6.154-2.511-5.531-5.156-5.531-5.156l1.223-12.709C113.269,152.104,121.449,159.968,131.589,157.064z"/>
			<path style="fill:#D5A180;" d="M120.257,160.833c-3.102-1.547-5.512-4.092-7.144-7.111l0.156-1.619c0,0,8.18,7.864,18.321,4.96     c0,0-0.67,0.755-0.886,2.442C128.484,162.586,124.22,162.809,120.257,160.833z"/>
			<path style="fill:#E1B58F;" d="M109.643,132.499c0,0-6.306-8.7-8.555-3.433c-2.249,5.268,6.896,13.876,11.818,11.118     C117.829,137.428,109.643,132.499,109.643,132.499z"/>
			<g>
				<path style="fill:#558FC2;" d="M112.029,411.898c0,0,37.821-9.243,39.502,12.95l-41.505-1.348      C110.026,423.5,107.31,414.836,112.029,411.898z"/>
				<path style="fill:#FFFFFF;" d="M126.517,409.969c0,0-1.799,4.839,0.326,5.486c2.125,0.647,1.896-5.46,1.896-5.46      L126.517,409.969z"/>
				<path style="fill:#FFFFFF;" d="M130.208,410.048c0,0-1.799,4.839,0.326,5.486c2.125,0.647,1.896-5.46,1.896-5.46      L130.208,410.048z"/>
				<polygon style="fill:#FFFFFF;" points="110.27,422.295 149.162,423.493 149.246,422.404 110.243,421.543     "/>
			</g>
			<g>
				<path style="fill:#263E5E;" d="M156.232,231.307h-13.409c-2.557,0-4.629-2.073-4.629-4.629V195.39      c0-2.557,2.073-4.629,4.629-4.629h13.409c2.557,0,4.629,2.073,4.629,4.629v31.287      C160.861,229.234,158.789,231.307,156.232,231.307z"/>
				<path style="fill:#FFFFFF;" d="M156.132,196.418c0,1.174-0.951,2.125-2.125,2.125c-1.174,0-2.125-0.951-2.125-2.125      c0-1.174,0.951-2.125,2.125-2.125C155.181,194.293,156.132,195.244,156.132,196.418z"/>
				<path style="fill:#FFFFFF;" d="M150.625,196.418c0,0.347-0.281,0.628-0.629,0.628c-0.347,0-0.628-0.281-0.628-0.628      c0-0.347,0.281-0.629,0.628-0.629C150.344,195.789,150.625,196.071,150.625,196.418z"/>
				<path style="fill:#FFFFFF;" d="M154.955,227.476h-10.216c-0.132,0-0.239-0.108-0.239-0.24l0,0c0-0.132,0.108-0.239,0.239-0.239      h10.216c0.132,0,0.24,0.108,0.24,0.239l0,0C155.195,227.368,155.087,227.476,154.955,227.476z"/>
			</g>
			<g>
				<path style="fill:#E1B58F;" d="M95.131,169.77c0,0-21.915,37.63-11.52,49.913c10.396,12.283,57.597-5.393,57.597-5.393      s6.509,2.946,6.79-1.198c0.281-4.144-0.89-9.687-3.418-8.239c-2.529,1.448-3.278,4.594-3.278,4.594s-28.19-6.541-47.576-2.347      l8.881-19.297C105.847,180.762,102.403,172.452,95.131,169.77L95.131,169.77z"/>
			</g>
			<path style="fill:#322A49;" d="M113.93,121.721c-0.457-0.144,4.15,17.4-1.437,15.165s-10.376-13.728-10.376-13.728     s7.183-23.625,34.001-22.667c26.818,0.958,11.653,12.611,11.653,12.611s8.62-0.958,7.024,2.873s-25.062,2.554-25.221,3.193     C129.414,119.806,135.161,128.426,113.93,121.721z"/>
		</g>
		
		
		
		
		
		<path style="fill:#322A49;" d="M123.277,104.457c0,0-1.954-11.066-3.157-9.501c-1.203,1.565-1.203,5.924-1.203,5.924    s-4.961-7.601-5.563-5.701c-0.601,1.9,2.857,6.93,2.857,6.93s-5.112-3.8-6.916-2.347s6.164,6.707,6.765,6.93    C116.662,106.916,123.277,104.457,123.277,104.457z"/>
	</g>
</g>

</svg>