<svg xmlns="http://www.w3.org/2000/svg" width="1005" height="1101" fill="none">
  <defs>
    <style>
      @keyframes rotateGear {
        0% {
          transform: rotate(0deg);
        }
        to {
          transform: rotate(360deg);
        }
      }
    </style>
  </defs>
  <path
    d="M515.594.82C260.033-7.35 38.664 193.392 5.219 456.792c-36.567 287.991 164.695 547.117 412.339 588.617 308.029 51.62 606.802-247.018 579.972-570.998C977.319 230.322 775.376 9.124 515.594.819z"
    fill="#F4F7FA"
  />
  <path
    d="M625.012 1031.45c-13.606-4.75-23.775-16.91-26.642-31.846l-19.803-103.172-169.395 6.332-20.848 107.486c-2.92 15.05 8.768 30.15 22.229 35.69l70.871 29.2c13.182 5.42 27.351 7.59 41.434 6.32l149.777-13.49c4.378-.39 7.89-4.02 8.4-8.67.509-4.64 3.577-9.86-.598-11.32l-55.425-16.53z"
    fill="#97A6B7"
  />
  <path
    d="M626.688 1025.17c-13.592-4.69-23.751-16.69-26.615-31.441L580.29 891.854l-165.267 6.26-20.826 106.126c-2.917 14.87 4.8 29.77 18.247 35.25l70.8 28.82c13.169 5.36 27.324 7.5 41.392 6.24l149.626-13.31c4.374-.39 7.883-3.97 8.392-8.56.509-4.59-2.123-8.92-6.294-10.36l-49.672-17.15z"
    fill="url(#paint0_linear_1_7)"
  />
  <path
    d="M63.035 965.004c-18.37 1.153-33.398-11.392-33.398-27.971v-597.53c0-16.579 15.028-29.381 33.398-28.543l853.213 62.179c13.486.615 20.723-10.846 20.723 3.254v508.195c0 14.1-10.921 26.257-24.407 27.103l-849.53 53.313z"
    fill="#97A6B7"
  />
  <path
    d="M70.67 965.004c-18.37 1.153-33.398-11.392-33.398-27.971v-597.53c0-16.579 15.028-29.381 33.398-28.543l849.528 38.748c13.487.615 24.407 12.585 24.407 26.685v508.195c0 14.1-10.92 26.257-24.407 27.103L70.669 965.004z"
    fill="#fff"
  />
  <path
    opacity=".3"
    d="m920.199 361.668-849.53-36.789c-9.82-.425-17.804 6.405-17.804 15.258v595.995c0 8.853 7.984 15.546 17.805 14.953l849.529-51.354c7.228-.437 13.074-6.922 13.074-14.488V375.932c0-7.565-5.846-13.951-13.074-14.264z"
    fill="#D8DEE8"
  />
  <path
    d="m913.886 856.731-834.01 43.338c-8.753.454-15.868-5.637-15.868-13.607V347.965c0-7.97 7.115-14.153 15.869-13.811l834.009 32.588c6.545.256 11.84 6.03 11.84 12.898v464.039c0 6.869-5.295 12.712-11.84 13.052z"
    fill="#1C3D5B"
  />
  <path
    opacity=".6"
    d="m287.932 391.023-190.468-5.897v-19.117l190.468 6.485v18.529z"
    fill="#fff"
  />
  <path
    opacity=".36"
    d="m377.63 388.512-44-1.401V374.05l44 1.498v12.964zM377.63 406.525l-44-1.268v-13.061l44 1.364v12.965z"
    fill="#fff"
  />
  <path
    d="M596.901 412.842 426.2 407.923v-12.857l170.701 5.292v12.484z"
    fill="#65E4A3"
  />
  <path
    opacity=".5"
    d="m624.892 430.909-169.003-4.355v-12.793l169.003 4.725v12.423zM624.892 448.169l-169.003-3.841v-12.793l169.003 4.211v12.423z"
    fill="#0DBBFC"
  />
  <path
    opacity=".6"
    d="m624.892 465.429-169.003-3.327V449.31l169.003 3.696v12.423z"
    fill="#fff"
  />
  <path
    opacity=".36"
    d="m377.63 424.537-44-1.134v-13.061l44 1.231v12.964zM377.63 442.549l-44-1v-13.06l44 1.096v12.964zM377.63 460.562l-44-.866v-13.061l44 .963v12.964zM377.63 478.574l-44-.732v-13.061l44 .829v12.964z"
    fill="#fff"
  />
  <path
    opacity=".6"
    d="m495.535 480.536-108.303-1.802v-12.943l108.303 2.039v12.706z"
    fill="#fff"
  />
  <path
    opacity=".36"
    d="m377.63 496.586-44-.598v-13.061l44 .695v12.964zM377.63 514.598l-44-.464v-13.06l44 .56v12.964zM377.63 532.611l-44-.33V519.22l44 .427v12.964z"
    fill="#fff"
  />
  <path
    opacity=".5"
    d="M546.278 498.88 426.2 497.247V484.39l120.078 1.895v12.595z"
    fill="#0DBBFC"
  />
  <path
    opacity=".6"
    d="m608.66 517.037-152.771-1.612v-12.792l152.771 1.946v12.458z"
    fill="#fff"
  />
  <path
    d="M608.66 534.347 455.889 533.2v-12.793l152.771 1.482v12.458z"
    fill="#65E4A3"
  />
  <path
    opacity=".36"
    d="m377.63 550.624-44-.196v-13.061l44 .294v12.963zM377.63 568.637l-44-.063v-13.06l44 .159v12.964zM377.63 586.649l-44 .072V573.66l44 .025v12.964zM377.63 604.662l-44 .205v-13.061l44-.108v12.964zM377.63 622.674l-44 .339v-13.061l44-.243v12.965zM377.63 640.687l-44 .473v-13.061l44-.376v12.964zM377.63 658.699l-44 .607v-13.061l44-.51v12.964zM377.63 676.711l-44 .741v-13.061l44-.644v12.964zM377.63 694.724l-44 .875v-13.061l44-.778v12.964zM377.63 712.736l-44 1.009v-13.061l44-.912v12.964zM377.63 730.75l-44 1.142v-13.06l44-1.047v12.965zM377.63 748.761l-44 1.277v-13.061l44-1.18v12.964zM377.63 766.773l-44 1.411v-13.061l44-1.314v12.964zM377.63 784.786l-44 1.544v-13.06l44-1.449v12.965zM377.63 802.798l-44 1.679v-13.061l44-1.581v12.963zM377.63 820.811l-44 1.812v-13.061l44-1.715v12.964zM377.63 838.824l-44 1.946v-13.061l44-1.849v12.964zM377.63 856.836l-44 2.08v-13.06l44-1.984v12.964z"
    fill="#fff"
  />
  <g opacity=".5" filter="url(#filter0_d_1_7)">
    <path
      d="m506.932 392.631-119.999-3.823v-12.944l119.999 4.086v12.681z"
      fill="#0DBBFC"
    />
    <path
      d="M506.432 380.433v11.681l-118.999-3.791v-11.942l118.999 4.052z"
      stroke="#000"
    />
  </g>
  <path
    opacity=".6"
    d="M596.901 759.744 426.2 765.216v-12.857l170.701-5.099v12.484z"
    fill="#fff"
  />
  <path
    opacity=".5"
    d="m624.892 776.108-169.003 5.932v-12.793l169.003-5.562v12.423zM624.892 793.368l-169.003 6.447v-12.794l169.003-6.076v12.423zM697.72 807.627l-164.628 6.781v-12.624l164.628-6.42v12.263z"
    fill="#0DBBFC"
  />
  <path
    d="m697.72 824.666-164.628 7.281v-12.624l164.628-6.92v12.263z"
    fill="#65E4A3"
  />
  <path
    opacity=".6"
    d="m697.72 841.704-164.628 7.783v-12.624l164.628-7.422v12.263z"
    fill="#fff"
  />
  <path
    opacity=".5"
    d="m506.932 745.01-119.999 3.481v-12.944l119.999-3.218v12.681zM596.901 568.949l-170.701-.243v-12.858l170.701.617v12.484z"
    fill="#0DBBFC"
  />
  <path
    opacity=".6"
    d="m624.892 586.248-169.003.275V573.73l169.003.096v12.422z"
    fill="#fff"
  />
  <path
    opacity=".5"
    d="m624.892 603.508-169.003.788v-12.793l169.003-.418v12.423zM624.892 620.768l-169.003 1.303v-12.793l169.003-.933v12.423zM495.535 639.419l-108.303 1.164V627.64l108.303-.927v12.706z"
    fill="#0DBBFC"
  />
  <path
    opacity=".6"
    d="M546.278 656.372 426.2 658.028v-12.857l120.078-1.394v12.595z"
    fill="#fff"
  />
  <path
    d="m608.66 672.821-152.771 2.573v-12.793l152.771-2.238v12.458z"
    fill="#65E4A3"
  />
  <path
    opacity=".5"
    d="m608.66 690.131-152.771 3.037v-12.792l152.771-2.703v12.458zM642.528 706.663l-150.933 3.46v-12.715l150.933-3.129v12.384zM642.528 723.869l-150.933 3.92v-12.715l150.933-3.589v12.384z"
    fill="#0DBBFC"
  />
  <path
    d="m506.932 551.201-119.999-.536v-12.943l119.999.798v12.681z"
    fill="#65E4A3"
  />
  <path
    d="m287.932 419.974-109.02-2.85v-18.865l109.02 3.186v18.529z"
    fill="#fff"
  />
  <path
    opacity=".6"
    d="m150.714 416.388 20.534.537v-18.889l-20.534-.6v18.952zM287.932 446.611l-109.02-2.367v-18.865l109.02 2.703v18.529zM150.714 443.632l20.534.445v-18.889l-20.534-.509v18.953zM287.932 473.247l-109.02-1.884v-18.866l109.02 2.22v18.53zM150.714 470.876l20.534.355v-18.889l-20.534-.418v18.952z"
    fill="#fff"
  />
  <path
    d="m287.932 662.314-190.468 2.703v-19.116l190.468-2.116v18.529z"
    fill="#fff"
  />
  <path
    opacity=".6"
    d="m287.932 691.266-109.02 2.072v-18.865l109.02-1.736v18.529zM150.714 693.874l20.534-.39v-18.889l-20.534.327v18.952zM287.932 717.902l-109.02 2.556v-18.865l109.02-2.22v18.529zM150.714 721.119l20.534-.481v-18.889l-20.534.418v18.952zM287.932 744.538l-109.02 3.039v-18.866l109.02-2.703v18.53zM150.714 748.364l20.534-.573v-18.889l-20.534.509v18.953z"
    fill="#fff"
  />
  <path
    d="m287.932 500.063-190.468-2.441v-19.116l190.468 3.028v18.529z"
    fill="#fff"
  />
  <path
    opacity=".6"
    d="m287.932 529.015-109.02-.872v-18.865l109.02 1.208v18.529zM150.714 527.918l20.534.164v-18.889l-20.534-.228v18.953zM287.932 555.65l-109.02-.388v-18.865l109.02.724v18.529zM150.714 555.163l20.534.072v-18.889l-20.534-.136v18.953zM287.932 609.268l-109.02.585v-18.866l109.02-.248v18.529zM150.714 610.004l20.534-.11v-18.889l-20.534.046v18.953zM287.932 635.904l-109.02 1.069v-18.866l109.02-.732v18.529zM150.714 637.249l20.534-.202v-18.889l-20.534.138v18.953zM287.932 582.287l-109.02.095v-18.865l109.02.241v18.529zM150.714 582.406l20.534-.018v-18.889l-20.534-.045v18.952z"
    fill="#fff"
  />
  <path
    d="m287.932 771.165-190.468 6.153v-19.116l190.468-5.566v18.529z"
    fill="#fff"
  />
  <path
    opacity=".6"
    d="m287.932 800.117-109.02 4.047v-18.865l109.02-3.712v18.53zM150.714 805.211l20.534-.763v-18.889l-20.534.699v18.953zM287.932 826.753l-109.02 4.531v-18.865l109.02-4.195v18.529zM150.714 832.455l20.534-.853v-18.889l-20.534.79v18.952zM287.932 853.388l-109.02 5.015v-18.866l109.02-4.678v18.529zM150.714 859.7l20.534-.944v-18.89l-20.534.882V859.7zM311.078 852.417l-4.195.193V373.14l4.195.142v479.135z"
    fill="#fff"
  />
  <path
    opacity=".6"
    d="M831.511 874.706c-184.93 4.071-226.518 31.867-279.066-1.439-72.206-45.765-39.322-127.174-109.673-169.877-88.446-53.687-190.419 44.637-236.581-3.299-45.97-47.737 40.87-160.09-9.4-285.329-20.174-50.259-54.525-82.902-78.254-101.618l-47.868-2.183c-18.37-.838-33.398 11.965-33.398 28.543v597.531c0 16.578 15.028 29.123 33.398 27.97l849.529-53.312c13.487-.847 24.407-13.003 24.407-27.104v-9.035a1909.75 1909.75 0 0 0-113.094-.848z"
    fill="#fff"
  />
  <path
    d="M780.305 706.127c-8.76-9.846 15.491-46.835 28.471-63.043 11.339-14.159 22.994-28.713 37.307-26.87 12.566 1.618 24.793 15.568 25.525 28.938 1.971 35.967-78.85 74.972-91.303 60.975z"
    fill="url(#paint1_linear_1_7)"
  />
  <path
    d="M885.485 1086.22c1.649 1.41 1.953 4.94 2.151 7.24.089 1.03.133 1.54.023 1.91-.796 2.65-5.68 2.93-13.338 3.75-12.103 1.3-15.704 2.3-16.651.41-.888-1.78 1.26-4.69 1.502-5.01 1.3-1.72 2.897-2.35 5.982-3.42 5.71-1.98 9.568-3.06 10.736-3.39 7.294-2.05 8.512-2.41 9.595-1.49z"
    fill="url(#paint2_linear_1_7)"
  />
  <path
    d="m878.288 1074.58-1.211 14.52c.343.7 4.443 2.8 7.699 1l3.112-14.27-9.6-1.25z"
    fill="#D8DEE8"
  />
  <path
    d="M789.505 1084.36c1.976 2.29 2.426 6.52.708 8.61-1.689 2.05-4.23.51-11.433.74-7.717.24-9.732 2.16-14.976.64-2.119-.62-5.861-2.12-5.79-3.71.05-1.12 1.955-1.7 8.317-3.94 9.031-3.18 8.992-3.36 10.91-3.69 4.817-.84 9.653-1.69 12.264 1.35z"
    fill="url(#paint3_linear_1_7)"
  />
  <path
    d="m784.56 1071.11-3.87 13.55c.292.73 4.227 3.15 7.604 1.62l5.748-13.16-9.482-2.01z"
    fill="#D8DEE8"
  />
  <path
    d="M818.951 774.274a1335.494 1335.494 0 0 1-10.592 152.404 1329.172 1329.172 0 0 1-27.518 148.372l14.814 4.2c12.529-12.3 28.333-31.66 35.959-59.01 4.733-16.98 3.156-25.708 6.158-46.593 4.781-33.252 14.464-50.673 24.471-77.487 8.993-24.096 19.624-59.458 25.323-106.726l-68.615-15.16z"
    fill="url(#paint4_linear_1_7)"
  />
  <path
    d="M863.526 769.928a8520.511 8520.511 0 0 1 7.392 176.992 8530.097 8530.097 0 0 1 3.143 133.46c5.044.66 10.088 1.31 15.133 1.97a191.377 191.377 0 0 0 15.783-42.88c5.386-22.73 4.139-36.23 6.501-59.799 2.65-26.428 6.5-32.186 13.32-65.525 13.842-67.66 20.763-101.491 5.322-122.535-5.012-6.831-20.725-23.969-66.594-21.683z"
    fill="url(#paint5_linear_1_7)"
  />
  <path
    d="M937.043 624.334a224.277 224.277 0 0 0-50.329-8.848c-30.242-1.8-45.363-2.7-56.077 4.882-24.748 17.509-5.589 57.921-15.719 158.099-1.447 14.305-1.771 28.714-2.819 43.058-1.734 23.751-2.13 25.04-.559 27.447 9.844 15.092 46.572-7.672 100.405 1.327 30.121 5.035 43.782 16.634 52.034 8.267 9.624-9.756 1.368-35.998-5.737-58.589-8.157-25.93-13.195-26.264-17.825-45.792-4.839-20.412-1.912-30.922-1.159-63.11.36-15.402.283-38.322-2.215-66.741z"
    fill="url(#paint6_linear_1_7)"
  />
  <path
    d="M863.839 812.405c14.07-1.159 23.198 7.214 35.343.689 16.655-8.949 22.006-36.792 20.945-56.498-1.613-29.94-17.854-37.833-15.054-57.186 1.514-10.466 8.612-24.362 34.099-38.558.339 11.948.275 22.132.085 30.224-.753 32.188-3.68 42.697 1.159 63.109 4.63 19.529 9.668 19.863 17.825 45.793 7.106 22.59 15.361 48.833 5.737 58.589-8.252 8.366-21.913-3.233-52.034-8.268-46.385-7.753-80.053 8.055-94.783 2.928 17.801-30.964 33.945-39.773 46.678-40.822z"
    fill="url(#paint7_linear_1_7)"
    opacity=".3"
  />
  <path
    d="M917.851 626.389c10.049-8.692 30.255 1.147 35.656 3.777 30.12 14.666 57.163 54.188 50.463 95.955-1 6.264-5.665 35.562-29.232 49.759-21.266 12.809-49.98 9.515-72.986-8.628-3.143-2.937-6.288-5.873-9.433-8.81l-9.28-10.559c4.863-4.257 13.124-10.399 24.727-14.34 15.298-5.197 26.434 4.127 33.532-2.961 4.898-4.892 4.909-13.533 3.7-18.77-2.438-10.555-11.276-13.523-18.654-21.014-17.332-17.601-20.525-54.002-8.493-64.409z"
    fill="url(#paint8_linear_1_7)"
  />
  <path
    d="m773.44 762.739 134.692-2.117-35.817 18.197-99.22-6.836.345-9.244z"
    fill="#DCEFF6"
  />
  <path
    d="M912.886 764.39c0 2.654-1.578 5.024-3.947 5.931l-43.038 17.761-.196-12.314 42.427-15.146c2.381-.721 4.754 1.161 4.754 3.768z"
    fill="#ABABAB"
    fill-opacity=".8"
  />
  <path
    d="M892.145 756.001c.827-.194-4.027-10.376-7.838-9.201-3.809 1.175-22.446 12.545-24.14 17.227l-1.694 4.681s8.13.669 13.171-1.114c5.042-1.784 13.779-10.016 20.501-11.593z"
    fill="#fff"
  />
  <path
    d="m862.132 689.371 9.494 90.999c.327 3.14-3.849 7.818-6.846 7.669l-139.279-9.001c-2.289-.115-4.194-1.888-4.582-4.265l-17.481-87.889c-.522-3.199 4.94-6.502 8.021-6.411l145.956 4.32c2.438.073 4.451 2.026 4.717 4.578z"
    fill="#DCEFF6"
  />
  <path
    d="m858.948 692.025 9.495 91c.327 3.14-2.088 5.845-5.085 5.696l-141.041-7.029c-2.288-.114-4.193-1.887-4.581-4.264l-14.41-88.292c-.522-3.198 1.868-6.1 4.95-6.008l145.956 4.32c2.437.071 4.451 2.026 4.716 4.577z"
    fill="#ABABAB"
    fill-opacity=".8"
  />
  <path
    opacity=".3"
    d="M776.129 760.367c12.315-5.494 7.969-15.972 22.511-29.029 19.186-17.224 38.74-9.754 45.586-23.104 2.132-4.159 3.15-10.628-.563-21.1l10.569.313c2.437.071 4.451 2.026 4.716 4.577l9.495 91c.326 3.139-2.088 5.845-5.085 5.696l-141.041-7.029c-2.288-.114-4.194-1.887-4.581-4.264l-1.989-12.184c4.279-2.507 9.393-4.786 15.36-6.061 20.692-4.417 30.844 7.511 45.022 1.185z"
    fill="#ABABAB"
    fill-opacity=".8"
  />
  <path
    d="M713.432 768.963c-.229-.733.257-1.488.989-1.527 2.981-.16 9.894-.225 13.712 2.235 4.958 3.197 11.368 9.031 5.969 11.974l-5.041 2.75a1.035 1.035 0 0 1-.738.107c-1.791-.415-9.33-2.176-10.155-2.613-.75-.398-3.625-9.378-4.736-12.926zM884.456 580.704c-.075 9.438.925 16.923 1.871 22.049 1.084 5.873 1.865 7.39 2.862 8.621 1.5 1.853 3.774 3.408 16.621 6.762 6.991 1.824 7.89 1.774 8.045 2.505.753 3.562-18.31 15.705-38.006 12.778-12.054-1.79-23.021-9.03-22.348-12.831.678-3.826 12.718-1.773 16.307-8.694 2.497-4.816-.302-11.651-3.61-17.312 3.204-6.319 15.054-7.559 18.258-13.878z"
    fill="#fff"
  />
  <path
    d="M862.083 584.436c-2.844-3.978-3.02-10.923.258-15.312 2.821-3.778 7.26-4.317 9.917-4.64 7.701-.936 17.417 2.448 20.797 9.909 2.002 4.422-2.33 13.608-3.008 15.26-.768 1.867-2.16 2.508-3.449 3.92-1.785 1.958-4.581 5.072-9.143 10.28a34.71 34.71 0 0 0-1.75-5.501c-.33-.794-1.654-3.893-3.657-6.463-4.014-5.153-7.268-3.683-9.965-7.453z"
    fill="url(#paint9_linear_1_7)"
  />
  <path
    d="M883.963 599.473s-5.063 8.743-15.142 8.053c-9.024-.619-10.346-21.923-4.582-26.444 1.923-1.508 5.774-2.134 8.906-1.21 1.849.546 2.476 1.355 5.514 2.184 2.804.766 3.595.438 4.441 1.188 1.058.938 1.833 3.236.066 9.464 1.722-1.835 3.788-2.539 5.253-1.811.233.116.853.56 1.202 1.232 1.262 2.433-.85 5.541-5.658 7.344z"
    fill="#fff"
  />
  <path
    d="M883.508 581.97c-.435.342.895 2.051.994 4.47.194 4.696-4.322 10.333-8.928 10.811-2.724.283-3.472-1.445-7.974-1.946a19.614 19.614 0 0 0-6.568.399c-1.414 5.15-.083 10.285 3.187 12.667 3.521 2.565 8.018 1.009 9.898.358 1.258-.435 5.289-1.821 7.396-5.712 2.194-4.055.041-6.499 2.559-9.241 1.27-1.384 2.938-1.983 4.562-4.661.441-.728.736-1.371.916-1.804-2.328-2.598-5.412-5.836-6.042-5.341z"
    fill="url(#paint10_linear_1_7)"
  />
  <path
    d="M864.309 597.614s1.949 1.071 5.317.872c.164-.01.344.041.366.13.077.336-2.084 1.844-4.075 1.256-1.413-.419-2.513-1.828-2.323-2.186.08-.151.4-.132.715-.072z"
    fill="#fff"
  />
  <g filter="url(#filter1_d_1_7)">
    <path
      d="M159.629 635.021c-2.393.952-38.89 16.231-46.392 56.331-.606 3.239-6.47 37.692 15.725 62.03 24.888 27.291 72.811 26.615 91.833 3.8 4.436-5.321 6.776-11.218 8.087-16.173l-5.012-14.017c-6.115-7.772-14.442-9.613-18.889-10.767-10.963-2.845-19.24 2.296-25.519-3.27-3.474-3.078-4.165-7.51-4.781-11.469-2.1-13.483 5.13-21.784 5.656-30.099.394-6.216 2.461-19.836-5.247-28.718-4.881-5.625-11.64-7.156-15.461-7.648z"
      fill="url(#paint11_linear_1_7)"
    />
  </g>
  <path
    d="M145.408 1081.92c-.426-2.47-7.999-4.7-11.749-1.4-1.862 1.64-3.144 4.97-2.067 6.48.392.54-1.213 1.5.325 1.52 5.102.07 13.915-4.15 13.491-6.6z"
    fill="url(#paint12_linear_1_7)"
  />
  <path
    d="m137.47 1082.82-7.788-1.16c3.608-4.58 2.94-19.14 2.94-19.14l8.283 1.95s-.944 3.99-2.549 9.89c-.55 2.02-.795 5.18-.886 8.46z"
    fill="url(#paint13_linear_1_7)"
  />
  <path
    d="M138.161 1081.81s-9.377-2.28-10.391-.32c-1.015 1.96-1.802 7.2 4.147 7.03 5.949-.17 6.773-5.05 6.244-6.71z"
    fill="url(#paint14_linear_1_7)"
  />
  <path
    d="M252.276 1091.18c-.749-2.39-8.545-3.48-11.819.34-1.625 1.9-2.452 5.39-1.185 6.72.46.48-1.001 1.67.524 1.46 5.06-.69 13.226-6.16 12.48-8.52z"
    fill="url(#paint15_linear_1_7)"
  />
  <path
    d="M244.536 1093.23h-7.866c2.965-5.06.367-19.38.367-19.38l8.46.71s-.403 4.1-1.208 10.17c-.276 2.08-.099 5.25.247 8.5z"
    fill="url(#paint16_linear_1_7)"
  />
  <path
    d="M264.922 780.102c3.644 12.667 8.848 33.111 12.197 58.762 9.555 73.162-10.753 75.496-6.961 156.569 1.211 25.877-21.298 85.557-23.282 86.867-.96.1-2.001.17-3.113.13-1.957-.06-4.718-.38-7.927-1.39-3.566-.65-16.421-37.3-13.441-59.09 2.108-15.43 1.497-31.978.275-65.084-.198-5.365-13.236-104.366-13.236-104.366a1700.279 1700.279 0 0 1-12.481 91.922c-12.704 77.558-54.009 124.498-56.164 125.258-.426.18-4.302 1.66-7.471-.54-1.41-.98-1.89-2.24-1.89-2.24-1.105-.91.326-77.434 12.925-135.025 18.287-83.591 10.324-103.15 16.117-140.487 5.013-32.308 104.452-11.286 104.452-11.286z"
    fill="url(#paint17_linear_1_7)"
  />
  <g filter="url(#filter2_d_1_7)">
    <path
      d="M269.819 792.731c-10.981 5.933-39.265 16.565-72.974 11.283-14.945-2.342-26.979-7.485-35.604-12.197-.263-.139-.527-.278-.777-.416 8.756-27.875 1.896-42.79-1.343-56.54-4.622-19.599-4.688-18.116-8.494-33.696-6.267-25.699-7.295-51.952-2.988-57.316 11.614-14.485 32.55-15.012 43.413-15.358 12.14-.375 40.055-4.88 55.421 9.675.264.249-2.883 2.024-1.329 3.936 1.435 1.775 6.373 7.998 10.849 16.398 3.239 6.085 6.176 13.182 9.126 23.744 5.201 18.643 6.702 34.528 7.202 41.445.158 2.287.304 4.505.435 6.64 2.041 34.347-.553 50.925-2.937 62.402z"
      fill="#0DBBFC"
    />
  </g>
  <path
    d="M245.086 1092.13s-9.587-.87-10.331 1.22c-.744 2.09-.827 7.4 5.042 6.35 5.868-1.04 6.033-6 5.289-7.57z"
    fill="url(#paint18_linear_1_7)"
  />
  <path
    d="M225.997 612.157c3.309-6.954 1.131-14.458.644-16.079-2.036-6.785-2.692-7.788-4.006-9.158l-1.848-1.789s-.112-.076-.231-.15c-1.253-.778-5.814-1.857-6.782-1.837-3.091.064-8.588 12.154-10.987 30.338a146.99 146.99 0 0 0-4.563 14.305c-20.695 3.385-23.413 6.169-23.407 7.66.012 3.14 12.114 5.879 21.125 6.598 19.655 1.567 39.295-5.306 38.949-9.118-.15-1.66-4.16-3.542-20.804-4.602l.585-8.704c1.32-.412 8.889-2.341 11.325-7.464z"
    fill="url(#paint19_linear_1_7)"
  />
  <path
    d="M227.879 581.269c-1.041 5.573-4.629 11.021-6.076 11.72-.187.09-1.252.671-2.324 1.817a2.883 2.883 0 0 0-.423.597c-1.805 3.279 2.745 8.493 1.432 9.859-.953.99-4.28-1.27-4.89-.371-.574.845 2.071 3.376 1.409 4.394-.501.768-2.205-.374-3.605.674-.697.522-.62 1.064-1.593 2.896-.551 1.035-1.259 2.147-1.759 2.745-2.432 2.902-7.836 3.044-8.594 1.531-.211-.422.084-.68.025-1.963 0 0-.054-1.19-.564-2.655-.729-2.095-3.072-3.962-5.321-6.474-4.166-4.651-4.907-8.045-5.108-9.181a14.218 14.218 0 0 1-.132-.924c-.504-4.366.597-10.405 3.034-13.762 4.082-5.622 10.174-1.321 16.735-6.38 7.569-5.837 5.62-16.315 9.217-16.697 3.964-.423 10.461 11.869 8.537 22.174z"
    fill="#26264F"
  />
  <path
    d="M218.824 603.565c-.954-2.142-3.56-.842-4.019 1.586-.459 2.426 1.314 5.408 3.572 5.369 2.259-.039 1.73-4.072.447-6.955z"
    fill="url(#paint20_linear_1_7)"
  />
  <path
    d="M164.338 774.133a.674.674 0 0 1-.077-.004c-.389-.045-.667-.414-.623-.822 1.426-13.524-1.239-23.362-3.59-32.043-.576-2.125-1.136-4.189-1.613-6.226-2.616-11.101-3.761-15.392-4.975-19.935a553.422 553.422 0 0 1-2.883-11.172c-.096-.398.13-.803.505-.906.381-.114.767.136.864.531a535.848 535.848 0 0 0 2.875 11.145c1.216 4.555 2.364 8.856 4.982 19.98.477 2.021 1.032 4.067 1.603 6.175 2.386 8.813 5.092 18.8 3.633 32.616a.72.72 0 0 1-.701.661z"
    fill="url(#paint21_linear_1_7)"
  />
  <g opacity=".3" filter="url(#filter3_d_1_7)">
    <path
      d="M269.82 792.731c-10.982 5.933-39.266 16.564-72.975 11.283-14.945-2.343-26.979-7.485-35.604-12.198 3.911-3.202 8.73-8.566 16.696-17.687 9.652-11.033 20.963-6.916 27.612-2.758 4.793 2.98 10.732 3.063 15.591.236 4.871-2.842 7.953-8.179 8.098-14.028.079-2.689-.04-5.752-.356-9.218-2.278-25.102 30.759-27.237 30.759-27.237 4.661-2.55 9.086 1.566 13.115 9.204 2.041 34.348-.553 50.926-2.936 62.403z"
      fill="url(#paint22_linear_1_7)"
    />
  </g>
  <path
    d="M385.311 680.907c-1.329.134-2.937 1.552-4.068 2.227-1.607.96-3.225 1.902-4.864 2.801-3.164 1.734-6.514 3.021-10.132 2.951.101-.543.28-1.087.483-1.607.613-1.509 1.421-2.813.939-3.266-.691-.658-3.728.7-6.531 3.527a18.7 18.7 0 0 0-3.102 4.089c-1.431 2.566-1.189 3.969-2.386 5.926-1.779 1.678-3.114 2.047-3.114 2.047v.535l.202.659c-1.591 1.276-3.387 2.031-4.795 2.525 2.477.7 4.896 1.413 7.36 2.127l1.712 3.005s9.336-2.058 14.968-5.654c2.633-1.688 3.54-3.773 3.761-5.502.157-1.153-.003-2.141-.146-2.772a7.324 7.324 0 0 0-.223-.728s7.691-3.362 10.728-10.635c.458-1.098.503-2.385-.792-2.255z"
    fill="url(#paint23_linear_1_7)"
  />
  <g filter="url(#filter4_d_1_7)">
    <path
      d="M352.734 696.58c4.39 3.234 6.745 7.626 7.966 10.43-3.229 7.976-10.55 22.786-25.703 33.7-24.846 17.896-61.278 18.498-86.653-1.911-30.317-24.382-35.382-71.138-22.649-91.16 1.466-2.305 6.285-9.883 13.767-10.753 4.725-.549 11.156 1.502 21.317 14.025 21.171 26.094 13.693 42.387 26.201 50.022 18.756 11.448 46.628-18.442 65.754-4.353z"
      fill="#0DBBFC"
    />
  </g>
  <path
    d="M667.7 195.866c-7.783-2.393-18.184 12.65-26.83 25.155-12.936 18.709-28.05 40.567-23.978 66.814 4.005 25.823 25.036 45.935 31.03 43.058 5.126-2.46-4.73-19.828 2.821-43.058 6.092-18.744 16.187-18.751 22.957-37.127 8.402-22.808 3.574-51.898-6-54.842z"
    fill="url(#paint24_linear_1_7)"
  />
  <path
    d="M663.849 314.811c-40.083 10.243-66.485 26.687-81.904 38.319-8.357 6.304-12.217 10.236-14.301 15.967-11.873 32.658 49.129 82.038 55.63 87.209l8.519-20.91c-6.303-36.421-16.798-47.847-25.58-51.245-2.456-.951-6.58-1.97-6.5-3.193.189-2.894 23.36 1.23 45.502-7.299 22.08-8.504 44.263-30.023 40.302-44.25-.724-2.597-3.752-10.104-21.668-14.598z"
    fill="#0A2640"
  />
  <path
    d="M624.982 553.522s3.731 1.399 3.745 4.505c.014 3.106-3.78 16.789-7.9 21.651-4.121 4.861-4.489-2.392-4.234-7.064.254-4.672 1.335-15.131 2.353-17.154 1.019-2.021 6.036-1.938 6.036-1.938z"
    fill="url(#paint25_linear_1_7)"
  />
  <path
    opacity=".3"
    d="M613.001 362.558c-7.282-.15-24.346-1.581-28.889 7.299-3.791 7.408 2.85 18.639 6.934 25.546 11.102 18.779 21.878 20.7 29.468 32.237 2.937 4.466 5.599 10.704 6.446 19.616l4.832-11.86c-6.303-36.421-16.797-47.847-25.579-51.245-2.457-.951-6.58-1.97-6.5-3.193.189-2.894 23.359 1.23 45.502-7.299 20.127-7.752 40.273-26.304 40.69-40.303-31.872 24.063-55.86 29.554-72.904 29.202z"
    fill="#0A2640"
  />
  <path
    d="M627.137 540.323c-.22 4.787-.605 8.789-.953 11.761-.77 6.575-1.478 9.176-2.448 11.546-.845 2.065-2.959 6.569-3.969 6.257-1.025-.317.03-5.307.829-19.186.116-2.014.468-8.427.468-8.427l6.073-1.951z"
    fill="url(#paint26_linear_1_7)"
  />
  <path
    d="M686.961 317.548c-23.094 14.658-38.086 31.323-46.802 42.577-10.29 13.286-25.941 33.495-31.608 63.629-3.02 16.061-1.534 30.47 1.562 58.629 3.075 27.968 7.483 50.739 10.931 66.289l5.327 2.252c4.757-9.2 10.98-23.763 13.21-42.387 3.65-30.469-7.178-40.151-1.981-61.758 4.502-18.719 17.548-30.196 43.637-53.152 21.436-18.86 41.201-30.049 48.538-53.573 1.246-3.995 2.305-8.895.274-13.382-4.378-9.67-21.125-13.044-43.088-9.124z"
    fill="#0A2640"
  />
  <path
    d="M705.396 197.609c-5.995-1.357-15.853-1.088-25.251-8.878-2.829-2.346-12.852-10.655-11.635-22.543 1.071-10.466 10.494-16.09 11.65-16.76 6.671-3.866 13.321-3.006 20.697-1.945 9.564 1.377 12.741 4.127 19.387 6.013 16.441 4.665 22.001-5.072 38.554-4.25 21.158 1.049 22.988 17.498 40.789 17.908 19.983.461 23.813-20.127 43.543-23.615 27.385-4.842 68.821 26.193 67.987 61.97-.482 20.663-15.099 44.344-33.768 51.453-10.882 4.144-22.624 2.828-25.976 10.277-2.386 5.301 2.977 9.386 2.47 18.623-.652 11.908-10.391 20.265-11.964 21.614-14.599 12.527-47.332 6.199-69.684-11.526-40.307-31.965-34.206-90.959-66.799-98.341z"
    fill="url(#paint27_linear_1_7)"
  />
  <path
    d="M751.695 193.362a407.78 407.78 0 0 0-46.635-3.35c-36.767-.526-42.031 4.382-43.378 8.015-2.511 6.773 1.79 10.167-.652 21.977-1.46 7.06-.08 10.278-2.903 17.865-2.751 7.393-.594 11.368 1.84 28.705 3.11 22.169 4.545 33.436-1.348 42.373-4.095 6.209-8.675 6.735-8.239 9.685.93 6.284 21.571 2.818 47.704 14.882 7.565 3.492 14.528 7.796 20.367 11.405 13.673 8.45 16.203 11.682 22.535 15.51 20.024 12.108 50.104 13.275 65.87-1.368 5.877-5.46 10.161-13.485 8.234-16.423-2.625-4-14.363 5.086-25.135-.456-7.136-3.672-5.78-9.611-14.03-16.609-9.928-8.422-16.831-4.009-23.589-9.489-10.542-8.549-5.746-29.016-2.787-63.332 1.225-14.207 2.454-34.492 2.146-59.39z"
    fill="url(#paint28_linear_1_7)"
  />
  <path
    d="M711.905 185.39c5.015 3.275 13.121 7.555 14.014 8.717.892 1.16-24.558 5.748-40.394-2.665 0 0-2.455-1.435 7.092-3.445 2.034-.428 1.636-4.594 1.364-8.901l1.909-3.732s11.001 6.749 16.015 10.026z"
    fill="url(#paint29_linear_1_7)"
  />
  <path
    d="M699.254 172.826s1.967 8.785-5.382 13.126c-6.581 3.889-17.714-12.049-15.634-17.972.693-1.976 3.171-4.515 5.761-5.368 1.821-.601 8.713-.369 11.665 5.739.773-1.786 2.158-2.722 3.088-2.429 1.181.372 1.354 2.634 1.394 3.146.137 1.776-.544 3.154-.892 3.758z"
    fill="url(#paint30_linear_1_7)"
  />
  <path
    opacity=".3"
    d="M687.859 313.648c7.571 3.304 8.593 10.443 19.062 14.493 9.987 3.863 13.338-.977 23.299 2.23 14.961 4.817 20.681 20.014 22.945 18.58 2.075-1.313.085-15.851-9.531-25.269-11.044-10.817-22.939-5.864-30.006-17.094-2.749-4.37-4.869-11.35-2.471-16.722 3.251-7.28 11.74-4.756 16.238-10.777 8.083-10.818-10.832-30.329-5.648-46.822 2.069-6.582 8.656-14.832 29.899-20.354a595.565 595.565 0 0 1-2.097 40.84c-2.959 34.316-7.755 54.784 2.787 63.332 6.758 5.48 13.66 1.067 23.589 9.489 8.25 6.998 6.894 12.938 14.03 16.609 10.771 5.542 22.509-3.543 25.134.456 1.928 2.938-2.356 10.963-8.234 16.423-15.765 14.643-45.845 13.477-65.87 1.369-6.331-3.829-8.861-7.061-22.534-15.51-5.84-3.609-12.803-7.913-20.368-11.405-18.339-8.467-33.963-9.286-41.978-11.193 15.914-11.172 25.608-11.356 31.754-8.675z"
    fill="url(#paint31_linear_1_7)"
  />
  <path
    d="m614.78 324.86 96.057 4.92c1.323.069 2.529.814 3.228 1.997l2.658 4.491c1.323 2.235-.267 5.118-2.767 5.018l-101.748-4.08 2.572-12.346z"
    fill="#007DAC"
  />
  <path
    d="m526.599 268.997 99.237 2.024c2.937.061 5.626 1.744 7.077 4.432l34.365 63.647-104.808-4.396c-2.876-.121-5.501-1.76-6.98-4.361l-31.839-55.994c-1.356-2.383.309-5.406 2.948-5.352z"
    fill="#007DAC"
  />
  <path
    opacity=".3"
    d="M632.913 275.453c-1.452-2.688-4.14-4.372-7.077-4.432l-2.175-.044c-.324 3.372-1.307 6.457-3.267 8.947-6.119 7.776-16.286 2.98-23.863 11.208-8.324 9.039-.635 19.799-8.076 28.212-7.834 8.854-20.501 1.645-35.062 7.311l2.097 3.687c1.478 2.601 4.103 4.241 6.98 4.361l104.807 4.396-34.364-63.646z"
    fill="#007DAC"
  />
  <path
    d="m695.102 324.913-3.248-9.027c11.963-3.453 28.508-8.554 45.479-14.938 4.193-1.577 5.728-3.616 6.849-5.182 8.701-12.147-13.441-33.576-13.044-61.382.275-19.275 11.375-41.323 21.156-41.573 19.883-.509 63.721 88.3 26.799 126.204-18.325 18.813-52.563 20.997-83.991 5.898z"
    fill="url(#paint32_linear_1_7)"
  />
  <path
    d="M691.855 315.886c-7.511-4.2-16.501.105-17.08.393-1.65.82-4.052 2.281-6.478 4.89-.275.394-3.532 5.146-2.346 6.669.951 1.22 4.636.208 9.063-2.69a32.67 32.67 0 0 1 7.929-.205c6.079.59 8.863 2.612 11.07.867 1.616-1.277 2.166-3.978 1.585-5.986-.624-2.157-2.472-3.227-3.743-3.938z"
    fill="url(#paint33_linear_1_7)"
  />
  <path
    d="M384.348 1075.21c-5.884-30.61-3.35-55.21-.677-70.07 3.242-18.018 9.834-54.654 37.501-75.075 2.18-1.609 23.824-17.28 33.545-9.497 5.013 4.013 6.158 13.707 3.966 21.358-5.66 19.754-31.178 17.563-39.656 40.045-2.823 7.487-3.347 16.622-1.378 17.484 2.425 1.065 9.338-10.111 9.997-11.175 6.164-9.959 6.221-15.598 10.921-17.127 2.886-.939 6.689-.058 8.39 2.341 3.875 5.463-3.778 17.912-5.918 21.391-5.597 9.105-10.271 11.175-11.407 18.925-.489 3.33-.402 8.27 1.478 9.03 2.543 1.04 7.396-5.93 10.51-10.4 8.372-12.02 9.264-19.015 13.426-19.516 3.883-.468 8.258 4.996 9.382 8.326 3.068 9.09-9.261 28.42-80.08 73.96z"
    fill="#65E4A3"
  />
  <path
    opacity=".28"
    d="M385.234 1069.96c-.879-28.44 3.495-50.99 7.458-65.79 5.093-19.022 14.672-54.797 41.547-70.278 1.91-1.101 15.96-9.195 19.886-4.86 2.617 2.89.297 10.822-3.551 16.074-6.568 8.963-14.132 5.408-24.857 14.205-9.624 7.895-13.003 18.526-13.85 21.307-3.138 10.321-1.507 19.169-1.065 22.432 1.68 12.38-1.761 32.66-25.568 66.91z"
    fill="#fff"
  />
  <path
    opacity=".28"
    d="M394.822 1062.86c15.07-14.21 18.553-25.85 18.821-34.02.208-6.36-1.428-13.92 3.196-20.93 2.957-4.49 5.187-3.77 10.298-8.601 10.677-10.094 12.003-23.702 14.204-23.177 1.225.293 1.86 4.757 1.066 8.972-1.641 8.699-8.104 9.611-14.56 20.186-4.41 7.22-5.941 14.25-6.747 17.94-1.966 9.02-.631 12.18-1.775 17.2-1.484 6.5-6.854 14.88-24.503 22.43z"
    fill="#fff"
  />
  <path
    d="M393.403 1080.15c26.123 1.58 33.889 3.23 46.2-1.19 11.568-4.15 23.433-12.32 22.391-16.07-.747-2.69-8.01-2.65-12.348-2.63-11.64.05-21.24 3.81-27.975 7.44l17.427-12.45c4.057-1.53 10.921-4.77 17.001-11.62 3.807-4.29 12.554-15.91 9.266-21.49-3.434-5.83-19.749-4.65-29.154 3.62-4.513 3.96-4.519 7-10.567 13.93a64.162 64.162 0 0 1-15.16 12.7 92.41 92.41 0 0 0 12.768-22.95c6.002-15.72 10.533-40.603 2.899-45.126-5.064-3-15.105 3.182-20.127 10.508-4.071 5.938-3.672 10.918-6.474 30.008a498.06 498.06 0 0 1-3.188 19.13c-7.77-17.94-10.024-33.04-10.479-44.131-.584-14.254 1.656-25.423-3.523-28.393-4.616-2.649-12.859 2.518-17.04 7.366-16.921 19.621 5.405 65.668 7.765 70.418a127.27 127.27 0 0 1-23.052-23.88c-8.862-11.97-12.605-20.88-17.11-20.08-4.481.79-7.434 10.83-7.098 18.6.938 21.67 27.816 34.39 30.685 35.7-2.261.38-6.095.79-10.614-.12-10.022-2.01-13.148-8.41-23.315-10.58-3.888-.83-11.84-1.69-12.819.84-1.759 4.55 18.324 21.64 42.691 28.15 8.931 2.39 6.795.24 40.95 2.3z"
    fill="#0DBBFC"
  />
  <path
    opacity=".28"
    d="M410.645 1064.48c11.893-5.56 10.277-13.13 23.288-22.5 8.333-6.01 10.268-3.82 19.198-9.56 4.911-3.15 8.926-6.77 12.184-10.35.016.03.035.05.05.07 3.288 5.58-5.459 17.2-9.266 21.49-6.081 6.85-12.944 10.09-17.001 11.62l-17.427 12.45c6.735-3.63 16.335-7.38 27.975-7.44 3.782-.02 9.784-.05 11.758 1.73-3.496 2.28-6.641 3.38-9.201 3.93-5.835 1.25-9.496-.15-14.544 3.05-4.05 2.57-3.713 4.75-7.279 6.14-3.356 1.31-5.07-.07-13.351-1.5-8.055-1.39-12.149-2.04-15.404.11-2.46 1.63-3.766 4.31-4.487 6.67-.834-.05-1.688-.11-2.564-.16.647-2.71 1.838-5.82 4.102-8.59 3.59-4.4 7.519-5.07 11.969-7.16zM376.753 1074.1c-1.88-.47-2.778.94-5.388 1.3-4.85.66-6.668-3.55-12.369-5.55-6.748-2.37-8.459 2.04-15.18-.15-5.32-1.74-4.635-4.63-11.585-8.84-7.397-4.49-10.529-2.65-15.965-6.35-1.748-1.19-3.741-2.96-5.639-5.72 2.39-1.36 8.643-.64 11.954.07 10.167 2.17 13.293 8.57 23.315 10.58 4.519.91 8.353.51 10.614.12-2.869-1.31-29.747-14.03-30.685-35.7-.311-7.21 2.208-16.36 6.151-18.28-.469 5-.535 9.28-.462 12.64.168 7.83.301 11.81 2.653 15.08 4.082 5.66 9.057 2.71 15.841 8.6 6.176 5.36 4.024 9.52 10.467 14.89 5.56 4.64 8.855 2.95 14.086 6.7 3.282 2.36 7.268 6.83 9.663 16.17-1.091-.05-2.135-.1-3.128-.14-.946-2.65-2.317-4.91-4.343-5.42zM381.814 1044.57c-3.255-9.34-8.906-8.38-11.263-16.6-2.344-8.17 2.783-10.71 1.476-22.54-.979-8.863-4.158-10.168-4.37-16.226-.156-4.467 1.34-10.552 8.256-18.095 2.097-.58 4.077-.582 5.641.315 5.179 2.971 2.938 14.139 3.523 28.394.455 11.092 2.709 26.182 10.478 44.122.776-4.14 1.971-10.82 3.189-19.12 2.801-19.09 2.402-24.07 6.474-30.01 5.022-7.326 15.063-13.507 20.127-10.508.289.172.559.376.814.604-2.526 1.813-4.856 4.041-6.815 6.789-6.678 9.365-2.879 16.085-8.934 34.565-5.823 17.77-11.731 18.87-16.418 34.23-1.497 4.9-2.907 11.39-3.198 19.55-1.711-.1-3.323-.19-4.848-.27-1.754-6.05-2.581-11.46-2.934-16.05-.777-10.12 1-12.85-1.198-19.15z"
    fill="#fff"
  />
  <path
    d="M379.67 131.102c42 1.355 77.274 28.294 84.148 62.395l.027.134a61.41 61.41 0 0 1 .856 5.661c.013.126.028.252.04.378.087.89.155 1.786.203 2.684l.022.49c.042.918.069 1.839.069 2.765 0 39.628-38.499 69.66-85.365 67.111a103.111 103.111 0 0 1-3.717-.274c-.121-.011-.242-.02-.363-.032-1.167-.11-2.326-.243-3.479-.392l-.538-.07a100.15 100.15 0 0 1-3.327-.506l-.623-.107a102.44 102.44 0 0 1-3.223-.618l-.648-.14a99.588 99.588 0 0 1-3.164-.733c-.202-.051-.403-.105-.606-.158a97.91 97.91 0 0 1-3.097-.844c-.184-.053-.365-.111-.549-.165-.921-.275-1.836-.563-2.743-.862-.231-.077-.463-.149-.692-.226a98.482 98.482 0 0 1-2.737-.977c-.196-.072-.396-.137-.591-.211l.007-.007c-31.153-11.805-53.056-38.375-53.056-68.088 0-38.598 36.957-68.697 83.146-67.208z"
    fill="#0DBBFC"
  />
  <path
    d="M287.632 198.31c0 38.598 36.957 71.898 83.146 74.41 46.866 2.548 85.365-27.483 85.365-67.111 0-39.629-38.499-72.995-85.365-74.507-46.189-1.489-83.146 28.609-83.146 67.208z"
    fill="#0DBBFC"
  />
  <path
    d="M350.39 253.632c10.114-20.356-.111-40.335 13.571-53.216 13.96-13.142 32.191.419 51.929-9.99 7.663-4.042 16.205-12.043 22.569-28.996 11.082 12.466 17.684 27.809 17.684 44.178 0 39.628-38.499 69.66-85.365 67.111-10.64-.579-20.786-2.79-30.097-6.315 4.588-4.187 7.629-8.585 9.709-12.772z"
    fill="#0DBBFC"
    opacity=".3"
  />
  <path
    d="m346.808 219.955-33.438-16.031v-4.959l33.438-17.081v8.484l-23.169 10.864 23.169 10.275v8.448zM382.751 175.45l-19.265 52.167-9.635-.281 19.057-51.886h9.843zM389.939 212.385l24.973-9.807-24.973-11.846v-8.691l36.482 18.454v5.282l-36.482 15.262v-8.654z"
    fill="#fff"
  />
  <path
    d="M256.882 567.596c-7.336-9.671-11.56-21.025-11.56-33.17 0-35.317 35.721-63.946 79.785-63.946s79.785 28.629 79.785 63.946c0 35.316-35.721 63.945-79.785 63.945-16.515 0-31.858-4.021-44.587-10.909-8.414 1.511-21.474 4.05-28.367 5.4-2.029.397-3.692-1.691-2.965-3.725l7.694-21.541z"
    fill="#65E4A3"
  />
  <path
    d="M281.446 547.958c17.891-7.915 37.564 8.793 49.863-2.863 12.399-11.75-.995-34.981 10.879-51.536 5.662-7.893 15.175-11.628 26.057-12.933 22.046 11.378 36.647 31.222 36.647 53.8 0 35.316-35.721 63.946-79.785 63.946-16.515 0-31.858-4.022-44.587-10.91-6.638 1.193-16.168 3.024-23.28 4.407 5.246-28.632 14.896-39.792 24.206-43.911z"
    fill="#65E4A3"
    opacity=".2"
  />
  <path
    d="M376.823 514.333c0 1.723-1.327 3.119-2.963 3.119h-98.89c-1.637 0-2.963-1.396-2.963-3.119v-.49c0-1.722 1.326-3.119 2.963-3.119h98.89c1.636 0 2.963 1.397 2.963 3.119v.49zM376.823 533.171c0 1.722-1.327 3.119-2.963 3.119h-98.89c-1.637 0-2.963-1.397-2.963-3.119v-.49c0-1.723 1.326-3.119 2.963-3.119h98.89c1.636 0 2.963 1.396 2.963 3.119v.49zM326.972 551.919c0 1.773-1.366 3.21-3.05 3.21h-48.865c-1.684 0-3.049-1.437-3.049-3.21v-.308c0-1.773 1.365-3.21 3.049-3.21h48.865c1.684 0 3.05 1.437 3.05 3.21v.308z"
    fill="#fff"
  />
  <g clip-path="url(#clip0_1_7)">
    <mask
      id="mask0_1_7"
      style="mask-type: luminance"
      maskUnits="userSpaceOnUse"
      x="692"
      y="444"
      width="116"
      height="116"
    >
      <path d="M807.011 444.174h-115v115h115v-115z" fill="#fff" />
    </mask>
    <g mask="url(#mask0_1_7)">
      <path
        fill-rule="evenodd"
        clip-rule="evenodd"
        d="M743.156 444.235c-3.249.023-5.866 2.699-5.843 5.977l.03 4.298c.027 2.528-1.545 4.795-3.909 5.635a41.92 41.92 0 0 0-4.442 1.849 5.82 5.82 0 0 1-6.636-1.143l-2.995-2.981a5.845 5.845 0 0 0-8.315.049l-.006.008-5.91 6.035a5.978 5.978 0 0 0 .081 8.384l2.914 2.899a5.948 5.948 0 0 1 1.193 6.731 42.192 42.192 0 0 0-1.807 4.533 5.935 5.935 0 0 1-5.585 4.042l-4.061.029c-3.25.017-5.871 2.69-5.854 5.967v.01l.061 8.489c.022 3.279 2.675 5.918 5.924 5.895h.001l4.457-.032a5.808 5.808 0 0 1 5.478 3.848 42.631 42.631 0 0 0 1.848 4.268 5.945 5.945 0 0 1-1.071 6.815l-3.137 3.212c-2.284 2.334-2.261 6.092.05 8.396l.005.006 5.991 5.957a5.848 5.848 0 0 0 8.316-.062l3.493-3.586a5.844 5.844 0 0 1 6.6-1.239 41.604 41.604 0 0 0 3.94 1.536c2.376.783 3.989 3.011 4.006 5.533l.035 5.158c.023 3.277 2.675 5.918 5.925 5.895l8.412-.061c3.251-.023 5.867-2.7 5.844-5.978l-.04-5.583a5.847 5.847 0 0 1 3.762-5.506c1.219-.461 2.4-.979 3.554-1.537a5.868 5.868 0 0 1 6.761 1.076l3.92 3.903a5.854 5.854 0 0 0 8.327-.061l5.899-6.014c2.279-2.337 2.255-6.095-.056-8.401l-3.995-3.975a6 6 0 0 1-1.189-6.765 42.196 42.196 0 0 0 1.387-3.412 6.015 6.015 0 0 1 5.583-4.027l5.53-.04c3.25-.023 5.866-2.698 5.844-5.978l-.061-8.488c-.023-3.277-2.676-5.918-5.924-5.895l-5.262.036a5.995 5.995 0 0 1-5.685-4.051 40.016 40.016 0 0 0-1.522-3.694 5.86 5.86 0 0 1 1.11-6.561l3.758-3.842c2.281-2.337 2.254-6.097-.061-8.399l-5.924-5.984a5.854 5.854 0 0 0-8.327.061l-3.352 3.423a5.867 5.867 0 0 1-6.788 1.156 42.062 42.062 0 0 0-4.061-1.731 5.91 5.91 0 0 1-3.837-5.531l-.035-4.718c-.023-3.278-2.677-5.918-5.925-5.895h-.01l-8.414.061zm25.745 55.621c.303 11.784-8.922 21.584-20.6 21.89-11.681.303-21.395-9.002-21.697-20.786-.302-11.785 8.922-21.583 20.602-21.888.266-.007.533-.009.799-.007 11.371.137 20.603 9.32 20.896 20.791z"
        fill="#fff"
        fill-opacity=".9"
        style="
          transform: rotate(0deg);
          animation: rotateGear 8s linear infinite;
          transform-origin: center;
          transform-box: border-box;
        "
      />
    </g>
  </g>
  <defs>
    <linearGradient
      id="paint17_linear_1_7"
      x1="242.311"
      y1="1110.12"
      x2="134.887"
      y2="698.097"
      gradientUnits="userSpaceOnUse"
    >
      <stop stop-color="#0A2640" />
      <stop offset=".996" stop-color="#26264F" />
    </linearGradient>
    <linearGradient
      id="paint15_linear_1_7"
      x1="255.494"
      y1="1083.5"
      x2="239.86"
      y2="1096.71"
      gradientUnits="userSpaceOnUse"
    >
      <stop stop-color="#444B8C" />
      <stop offset=".996" stop-color="#26264F" />
    </linearGradient>
    <linearGradient
      id="paint1_linear_1_7"
      x1="825.042"
      y1="616.055"
      x2="825.042"
      y2="709.044"
      gradientUnits="userSpaceOnUse"
    >
      <stop offset=".443" stop-color="#0DBBFC" />
      <stop offset="1" stop-color="#0A2640" />
    </linearGradient>
    <linearGradient
      id="paint2_linear_1_7"
      x1="857.615"
      y1="1092.72"
      x2="887.76"
      y2="1093.54"
      gradientUnits="userSpaceOnUse"
    >
      <stop stop-color="#311944" />
      <stop offset="1" stop-color="#893976" />
    </linearGradient>
    <linearGradient
      id="paint3_linear_1_7"
      x1="759.733"
      y1="1083.98"
      x2="790.837"
      y2="1092.1"
      gradientUnits="userSpaceOnUse"
    >
      <stop stop-color="#311944" />
      <stop offset="1" stop-color="#893976" />
    </linearGradient>
    <linearGradient
      id="paint4_linear_1_7"
      x1="834.204"
      y1="774.274"
      x2="834.204"
      y2="1079.25"
      gradientUnits="userSpaceOnUse"
    >
      <stop offset=".209" stop-color="#65E4A3" />
      <stop offset="1" stop-color="#0A2640" stop-opacity=".61" />
    </linearGradient>
    <linearGradient
      id="paint5_linear_1_7"
      x1="901.215"
      y1="769.72"
      x2="901.215"
      y2="1082.35"
      gradientUnits="userSpaceOnUse"
    >
      <stop offset=".209" stop-color="#65E4A3" />
      <stop offset="1" stop-color="#0A2640" stop-opacity=".61" />
    </linearGradient>
    <linearGradient
      id="paint6_linear_1_7"
      x1="889.452"
      y1="614.24"
      x2="889.452"
      y2="861.512"
      gradientUnits="userSpaceOnUse"
    >
      <stop offset=".443" stop-color="#0DBBFC" />
      <stop offset="1" stop-color="#0A2640" />
    </linearGradient>
    <linearGradient
      id="paint7_linear_1_7"
      x1="892.755"
      y1="660.852"
      x2="892.755"
      y2="861.513"
      gradientUnits="userSpaceOnUse"
    >
      <stop offset=".443" stop-color="#0DBBFC" />
      <stop offset="1" stop-color="#0A2640" />
    </linearGradient>
    <linearGradient
      id="paint8_linear_1_7"
      x1="944.02"
      y1="622.874"
      x2="944.02"
      y2="783.602"
      gradientUnits="userSpaceOnUse"
    >
      <stop offset=".443" stop-color="#0DBBFC" />
      <stop offset="1" stop-color="#0A2640" />
    </linearGradient>
    <linearGradient
      id="paint9_linear_1_7"
      x1="895.611"
      y1="628.68"
      x2="870.929"
      y2="568.479"
      gradientUnits="userSpaceOnUse"
    >
      <stop stop-color="#311944" />
      <stop offset="1" stop-color="#6B3976" />
    </linearGradient>
    <linearGradient
      id="paint10_linear_1_7"
      x1="888.634"
      y1="631.572"
      x2="863.928"
      y2="571.31"
      gradientUnits="userSpaceOnUse"
    >
      <stop stop-color="#311944" />
      <stop offset="1" stop-color="#6B3976" />
    </linearGradient>
    <linearGradient
      id="paint11_linear_1_7"
      x1="179.723"
      y1="767.197"
      x2="144.999"
      y2="635.252"
      gradientUnits="userSpaceOnUse"
    >
      <stop offset="1" stop-color="#0DBBFC" />
      <stop offset="1" stop-color="#AA80F9" />
    </linearGradient>
    <linearGradient
      id="paint12_linear_1_7"
      x1="149.614"
      y1="1074.79"
      x2="132.425"
      y2="1085.65"
      gradientUnits="userSpaceOnUse"
    >
      <stop stop-color="#444B8C" />
      <stop offset=".996" stop-color="#26264F" />
    </linearGradient>
    <linearGradient
      id="paint13_linear_1_7"
      x1="133.479"
      y1="1086.57"
      x2="137.514"
      y2="1059.46"
      gradientUnits="userSpaceOnUse"
    >
      <stop stop-color="#FFC444" />
      <stop offset=".996" stop-color="#F36F56" />
    </linearGradient>
    <linearGradient
      id="paint14_linear_1_7"
      x1="148.362"
      y1="1072.81"
      x2="131.173"
      y2="1083.66"
      gradientUnits="userSpaceOnUse"
    >
      <stop stop-color="#444B8C" />
      <stop offset=".996" stop-color="#26264F" />
    </linearGradient>
    <linearGradient
      id="paint16_linear_1_7"
      x1="241.084"
      y1="1097.54"
      x2="241.084"
      y2="1070.1"
      gradientUnits="userSpaceOnUse"
    >
      <stop stop-color="#FFC444" />
      <stop offset=".996" stop-color="#F36F56" />
    </linearGradient>
    <linearGradient
      id="paint0_linear_1_7"
      x1="536.051"
      y1="1218.88"
      x2="538.753"
      y2="1000.65"
      gradientUnits="userSpaceOnUse"
    >
      <stop offset=".494" stop-color="#EBEFF2" />
      <stop offset="1" stop-color="#fff" />
    </linearGradient>
    <linearGradient
      id="paint18_linear_1_7"
      x1="253.989"
      y1="1081.72"
      x2="238.356"
      y2="1094.93"
      gradientUnits="userSpaceOnUse"
    >
      <stop stop-color="#444B8C" />
      <stop offset=".996" stop-color="#26264F" />
    </linearGradient>
    <linearGradient
      id="paint19_linear_1_7"
      x1="239.529"
      y1="581.103"
      x2="160.582"
      y2="690.296"
      gradientUnits="userSpaceOnUse"
    >
      <stop stop-color="#FFC444" />
      <stop offset=".996" stop-color="#F36F56" />
    </linearGradient>
    <linearGradient
      id="paint20_linear_1_7"
      x1="235.931"
      y1="578.503"
      x2="156.986"
      y2="687.692"
      gradientUnits="userSpaceOnUse"
    >
      <stop stop-color="#FFC444" />
      <stop offset=".996" stop-color="#F36F56" />
    </linearGradient>
    <linearGradient
      id="paint21_linear_1_7"
      x1="150.555"
      y1="738.565"
      x2="165.451"
      y2="738.565"
      gradientUnits="userSpaceOnUse"
    >
      <stop offset=".004" stop-color="#6165D7" />
      <stop offset="1" stop-color="#AA80F9" />
    </linearGradient>
    <linearGradient
      id="paint22_linear_1_7"
      x1="161.241"
      y1="762.905"
      x2="273.494"
      y2="762.905"
      gradientUnits="userSpaceOnUse"
    >
      <stop offset="1" stop-color="#0DBBFC" />
      <stop offset="1" stop-color="#17B7FC" />
      <stop offset="1" stop-color="#9E85F9" />
      <stop offset="1" stop-color="#AA80F9" />
    </linearGradient>
    <linearGradient
      id="paint23_linear_1_7"
      x1="360.174"
      y1="683.124"
      x2="383.979"
      y2="711.575"
      gradientUnits="userSpaceOnUse"
    >
      <stop stop-color="#FFC444" />
      <stop offset=".996" stop-color="#F36F56" />
    </linearGradient>
    <linearGradient
      id="paint24_linear_1_7"
      x1="647.121"
      y1="195.613"
      x2="647.121"
      y2="331.167"
      gradientUnits="userSpaceOnUse"
    >
      <stop stop-color="#0A2640" stop-opacity=".43" />
      <stop offset="0" stop-color="#65E4A3" />
    </linearGradient>
    <linearGradient
      id="paint25_linear_1_7"
      x1="612.753"
      y1="525.192"
      x2="637.267"
      y2="620.102"
      gradientUnits="userSpaceOnUse"
    >
      <stop offset=".004" stop-color="#E38DDD" />
      <stop offset="1" stop-color="#9571F6" />
    </linearGradient>
    <linearGradient
      id="paint26_linear_1_7"
      x1="619.343"
      y1="555.113"
      x2="627.137"
      y2="555.113"
      gradientUnits="userSpaceOnUse"
    >
      <stop stop-color="#311944" />
      <stop offset="1" stop-color="#A03976" />
    </linearGradient>
    <linearGradient
      id="paint27_linear_1_7"
      x1="873.612"
      y1="118.002"
      x2="731.288"
      y2="243.465"
      gradientUnits="userSpaceOnUse"
    >
      <stop stop-color="#444B8C" />
      <stop offset=".996" stop-color="#26264F" />
    </linearGradient>
    <linearGradient
      id="paint28_linear_1_7"
      x1="732.954"
      y1="189.973"
      x2="732.954"
      y2="369.777"
      gradientUnits="userSpaceOnUse"
    >
      <stop stop-color="#0A2640" stop-opacity=".43" />
      <stop offset="0" stop-color="#65E4A3" />
    </linearGradient>
    <linearGradient
      id="paint29_linear_1_7"
      x1="685.242"
      y1="185.881"
      x2="725.941"
      y2="185.881"
      gradientUnits="userSpaceOnUse"
    >
      <stop stop-color="#311944" />
      <stop offset="1" stop-color="#A03976" />
    </linearGradient>
    <linearGradient
      id="paint30_linear_1_7"
      x1="690.395"
      y1="296.926"
      x2="689.423"
      y2="212.374"
      gradientUnits="userSpaceOnUse"
    >
      <stop stop-color="#311944" />
      <stop offset="1" stop-color="#A03976" />
    </linearGradient>
    <linearGradient
      id="paint31_linear_1_7"
      x1="735.831"
      y1="211.913"
      x2="735.831"
      y2="369.778"
      gradientUnits="userSpaceOnUse"
    >
      <stop stop-color="#0A2640" stop-opacity=".43" />
      <stop offset="0" stop-color="#65E4A3" />
    </linearGradient>
    <linearGradient
      id="paint32_linear_1_7"
      x1="742.633"
      y1="192.809"
      x2="742.633"
      y2="334.861"
      gradientUnits="userSpaceOnUse"
    >
      <stop stop-color="#0A2640" stop-opacity=".43" />
      <stop offset="0" stop-color="#65E4A3" />
    </linearGradient>
    <linearGradient
      id="paint33_linear_1_7"
      x1="665.692"
      y1="321.201"
      x2="695.823"
      y2="321.201"
      gradientUnits="userSpaceOnUse"
    >
      <stop stop-color="#311944" />
      <stop offset="1" stop-color="#A03976" />
    </linearGradient>
    <filter
      id="filter3_d_1_7"
      x="157.241"
      y="720.369"
      width="120.253"
      height="93.073"
      filterUnits="userSpaceOnUse"
      color-interpolation-filters="sRGB"
    >
      <feFlood flood-opacity="0" result="BackgroundImageFix" />
      <feColorMatrix
        in="SourceAlpha"
        values="0 0 0 0 0 0 0 0 0 0 0 0 0 0 0 0 0 0 127 0"
        result="hardAlpha"
      />
      <feOffset dy="4" />
      <feGaussianBlur stdDeviation="2" />
      <feComposite in2="hardAlpha" operator="out" />
      <feColorMatrix values="0 0 0 0 0 0 0 0 0 0 0 0 0 0 0 0 0 0 0.25 0" />
      <feBlend in2="BackgroundImageFix" result="effect1_dropShadow_1_7" />
      <feBlend in="SourceGraphic" in2="effect1_dropShadow_1_7" result="shape" />
    </filter>
    <filter
      id="filter1_d_1_7"
      x="108.092"
      y="635.021"
      width="124.791"
      height="147.069"
      filterUnits="userSpaceOnUse"
      color-interpolation-filters="sRGB"
    >
      <feFlood flood-opacity="0" result="BackgroundImageFix" />
      <feColorMatrix
        in="SourceAlpha"
        values="0 0 0 0 0 0 0 0 0 0 0 0 0 0 0 0 0 0 127 0"
        result="hardAlpha"
      />
      <feOffset dy="4" />
      <feGaussianBlur stdDeviation="2" />
      <feComposite in2="hardAlpha" operator="out" />
      <feColorMatrix values="0 0 0 0 0 0 0 0 0 0 0 0 0 0 0 0 0 0 0.25 0" />
      <feBlend in2="BackgroundImageFix" result="effect1_dropShadow_1_7" />
      <feBlend in="SourceGraphic" in2="effect1_dropShadow_1_7" result="shape" />
    </filter>
    <filter
      id="filter4_d_1_7"
      x="215.171"
      y="636.807"
      width="149.529"
      height="125.316"
      filterUnits="userSpaceOnUse"
      color-interpolation-filters="sRGB"
    >
      <feFlood flood-opacity="0" result="BackgroundImageFix" />
      <feColorMatrix
        in="SourceAlpha"
        values="0 0 0 0 0 0 0 0 0 0 0 0 0 0 0 0 0 0 127 0"
        result="hardAlpha"
      />
      <feOffset dy="4" />
      <feGaussianBlur stdDeviation="2" />
      <feComposite in2="hardAlpha" operator="out" />
      <feColorMatrix values="0 0 0 0 0 0 0 0 0 0 0 0 0 0 0 0 0 0 0.25 0" />
      <feBlend in2="BackgroundImageFix" result="effect1_dropShadow_1_7" />
      <feBlend in="SourceGraphic" in2="effect1_dropShadow_1_7" result="shape" />
    </filter>
    <filter
      id="filter0_d_1_7"
      x="382.933"
      y="375.864"
      width="127.999"
      height="24.767"
      filterUnits="userSpaceOnUse"
      color-interpolation-filters="sRGB"
    >
      <feFlood flood-opacity="0" result="BackgroundImageFix" />
      <feColorMatrix
        in="SourceAlpha"
        values="0 0 0 0 0 0 0 0 0 0 0 0 0 0 0 0 0 0 127 0"
        result="hardAlpha"
      />
      <feOffset dy="4" />
      <feGaussianBlur stdDeviation="2" />
      <feComposite in2="hardAlpha" operator="out" />
      <feColorMatrix values="0 0 0 0 0 0 0 0 0 0 0 0 0 0 0 0 0 0 0.25 0" />
      <feBlend in2="BackgroundImageFix" result="effect1_dropShadow_1_7" />
      <feBlend in="SourceGraphic" in2="effect1_dropShadow_1_7" result="shape" />
    </filter>
    <filter
      id="filter2_d_1_7"
      x="141.025"
      y="627.543"
      width="136.469"
      height="185.9"
      filterUnits="userSpaceOnUse"
      color-interpolation-filters="sRGB"
    >
      <feFlood flood-opacity="0" result="BackgroundImageFix" />
      <feColorMatrix
        in="SourceAlpha"
        values="0 0 0 0 0 0 0 0 0 0 0 0 0 0 0 0 0 0 127 0"
        result="hardAlpha"
      />
      <feOffset dy="4" />
      <feGaussianBlur stdDeviation="2" />
      <feComposite in2="hardAlpha" operator="out" />
      <feColorMatrix values="0 0 0 0 0 0 0 0 0 0 0 0 0 0 0 0 0 0 0.25 0" />
      <feBlend in2="BackgroundImageFix" result="effect1_dropShadow_1_7" />
      <feBlend in="SourceGraphic" in2="effect1_dropShadow_1_7" result="shape" />
    </filter>
    <clipPath id="clip0_1_7">
      <path
        fill="#fff"
        transform="translate(692.011 444.174)"
        d="M0 0h116.972v111.425H0z"
      />
    </clipPath>
  </defs>
</svg>
