 <svg
            width="64"
            height="64"
            viewBox="0 0 64 64"
            fill="none"
            xmlns="http://www.w3.org/2000/svg"
          >
            <rect width="64" height="64" rx="24" fill="#65E4A3" />
            <path
              d="M40.0001 25.5C40.0001 21.09 36.4101 17.5 32.0001 17.5C27.5901 17.5 24.0001 21.09 24.0001 25.5C24.0001 29.91 27.5901 33.5 32.0001 33.5C36.4101 33.5 40.0001 29.91 40.0001 25.5ZM27.0001 25.5C27.0001 22.74 29.2401 20.5 32.0001 20.5C34.7601 20.5 37.0001 22.74 37.0001 25.5C37.0001 28.26 34.7601 30.5 32.0001 30.5C29.2401 30.5 27.0001 28.26 27.0001 25.5ZM34.4001 35.5H29.6001C24.3601 35.5 20.1001 39.76 20.1001 45C20.1001 45.83 20.7701 46.5 21.6001 46.5H42.4001C43.2301 46.5 43.9001 45.83 43.9001 45C43.9001 39.76 39.6401 35.5 34.4001 35.5ZM23.2701 43.5C23.9501 40.64 26.5301 38.5 29.6001 38.5H34.4001C37.4701 38.5 40.0501 40.64 40.7301 43.5H23.2701Z"
              fill="#F4F3F8"
            />
          </svg>