<svg width="695" height="618" viewBox="0 0 695 618" fill="none" xmlns="http://www.w3.org/2000/svg">
<mask id="mask0_1_1440" style="mask-type:alpha" maskUnits="userSpaceOnUse" x="0" y="0" width="695" height="618">
<path fill-rule="evenodd" clip-rule="evenodd" d="M362.796 0.0815609C411.65 2.04601 440.316 57.4624 485.903 75.1382C542.902 97.2387 618.9 72.0658 661.51 115.903C702.954 158.541 694.426 228.919 693.16 288.367C691.914 346.923 680.15 404.107 654.258 456.643C627.216 511.512 595.347 568.944 541.02 597.06C487.252 624.886 421.904 620.574 362.796 607.481C309.968 595.779 274.76 548.28 224.989 527.055C166.235 502 87.4539 519.533 44.8864 471.911C2.73053 424.751 -12.8345 346.699 11.6308 288.367C36.9457 228.008 122.673 222.785 168.834 176.383C199.677 145.379 201.475 94.4173 233.836 65.0026C270.067 32.0711 313.875 -1.88555 362.796 0.0815609Z" fill="#C4C4C4"/>
</mask>
<g mask="url(#mask0_1_1440)">
<path fill-rule="evenodd" clip-rule="evenodd" d="M362.796 0.0815609C411.65 2.04601 440.316 57.4624 485.903 75.1382C542.902 97.2387 618.9 72.0658 661.51 115.903C702.954 158.541 694.426 228.919 693.16 288.367C691.914 346.923 680.15 404.107 654.258 456.643C627.216 511.512 595.347 568.944 541.02 597.06C487.252 624.886 421.904 620.574 362.796 607.481C309.968 595.779 274.76 548.28 224.989 527.055C166.235 502 87.4539 519.533 44.8864 471.911C2.73053 424.751 -12.8345 346.699 11.6308 288.367C36.9457 228.008 122.673 222.785 168.834 176.383C199.677 145.379 201.475 94.4173 233.836 65.0026C270.067 32.0711 313.875 -1.88555 362.796 0.0815609Z" fill="#0DBBFC"/>
<path d="M533.057 243.825C538.674 246.808 545.731 244.069 548.819 237.709C551.906 231.348 549.856 223.773 544.239 220.791C543.948 220.636 543.651 220.506 543.353 220.382C544.397 216.862 545.184 213.315 545.712 209.766C546.034 209.765 546.357 209.76 546.685 209.729C553.093 209.132 558.179 202.973 558.045 195.972C557.911 188.972 552.607 183.782 546.199 184.379C545.864 184.411 545.535 184.466 545.208 184.527C544.538 181.058 543.621 177.669 542.464 174.389C542.759 174.209 543.052 174.022 543.339 173.812C548.821 169.795 550.574 161.866 547.254 156.103C543.933 150.339 536.797 148.924 531.314 152.941C531.033 153.147 530.769 153.369 530.508 153.595C528.342 151.091 525.967 148.771 523.398 146.653C523.578 146.343 523.755 146.03 523.915 145.7C527.003 139.339 531.038 132.391 525.377 129.501C512.282 122.815 506.662 128.538 503.574 134.899C503.414 135.228 503.277 135.563 503.144 135.898C499.993 134.978 496.801 134.342 493.59 133.991C493.61 133.637 493.625 133.283 493.619 132.924C493.485 125.924 495.471 122.136 489.038 122.005C475.011 121.72 470.278 128.088 470.412 135.088C470.419 135.454 470.448 135.811 470.483 136.167C467.269 137.125 464.112 138.35 461.039 139.832C460.893 139.52 460.741 139.21 460.568 138.908C457.247 133.145 450.111 131.729 444.628 135.747C439.145 139.764 437.393 147.693 440.713 153.457C440.883 153.752 441.069 154.028 441.259 154.301C438.831 156.84 436.557 159.598 434.456 162.556C434.184 162.378 433.908 162.203 433.617 162.049C428 159.066 420.944 161.805 417.856 168.166C414.768 174.527 416.818 182.101 422.435 185.084C422.726 185.239 423.023 185.368 423.321 185.493C422.277 189.012 421.49 192.56 420.963 196.108C420.641 196.109 420.318 196.115 419.99 196.145C413.581 196.743 408.495 202.902 408.629 209.902C408.763 216.902 414.067 222.092 420.476 221.495C420.81 221.464 421.139 221.409 421.467 221.348C422.136 224.817 423.053 228.205 424.21 231.485C423.915 231.665 423.622 231.852 423.336 232.062C417.853 236.079 416.1 244.008 419.421 249.772C422.741 255.535 433.734 258.213 439.216 254.196C439.497 253.99 435.905 252.505 436.166 252.28C438.332 254.783 440.707 257.104 443.276 259.221C443.096 259.531 442.919 259.845 442.759 260.174C439.671 266.535 441.721 274.11 447.338 277.092C452.955 280.075 460.012 277.336 463.1 270.975C463.26 270.646 463.397 270.311 463.53 269.976C466.681 270.896 469.873 271.532 473.084 271.884C473.064 272.237 473.048 272.592 473.055 272.95C473.189 279.95 478.493 285.141 484.902 284.543C491.31 283.946 496.396 277.787 496.262 270.787C496.255 270.421 496.226 270.063 496.191 269.708C499.406 268.75 502.563 267.524 505.635 266.042C505.781 266.355 505.933 266.665 506.107 266.966C509.427 272.73 516.563 274.145 522.046 270.128C527.529 266.11 529.282 258.181 525.961 252.417C525.791 252.122 525.605 251.846 525.416 251.574C527.844 249.034 530.117 246.277 532.218 243.319C532.49 243.497 532.766 243.671 533.057 243.825ZM463.037 244.755C442.643 233.925 435.199 206.424 446.411 183.329C457.623 160.234 483.244 150.29 503.638 161.12C524.031 171.949 531.475 199.45 520.264 222.545C509.052 245.641 483.431 255.584 463.037 244.755Z" fill="url(#paint0_linear_1_1440)"/>
<path d="M546.685 209.729C553.093 209.131 558.179 202.973 558.045 195.973C557.911 188.973 552.607 183.782 546.199 184.38C545.864 184.411 545.534 184.466 545.207 184.527C544.538 181.058 543.621 177.669 542.464 174.389C542.758 174.209 543.052 174.023 543.338 173.813C548.821 169.795 555.604 160.088 551.736 154.712C544.394 144.507 536.796 148.924 531.314 152.941C531.033 153.147 530.769 153.369 530.508 153.595C528.342 151.091 525.967 148.771 523.397 146.653C523.578 146.344 523.755 146.03 523.915 145.701C525.595 142.238 525.744 138.422 524.634 135.177C519.338 144.925 514.114 154.714 508.983 164.556C525.253 177.025 530.432 201.597 520.263 222.546C511.645 240.298 494.515 250.266 477.788 249.017C477.042 251.04 476.309 253.075 475.51 255.079C473.342 260.518 470.879 265.846 468.413 271.166C469.964 271.471 471.522 271.712 473.084 271.883C473.064 272.237 473.048 272.591 473.055 272.95C473.189 279.95 477.253 285.898 488.867 285.253C495.292 284.897 496.396 277.787 496.262 270.786C496.255 270.421 496.226 270.063 496.191 269.708C499.406 268.749 502.563 267.524 505.635 266.042C505.781 266.354 505.933 266.665 506.107 266.966C509.427 272.73 520.946 275.178 526.428 271.161C531.911 267.143 529.281 258.181 525.961 252.418C525.791 252.122 525.605 251.846 525.416 251.574C527.843 249.034 530.117 246.277 532.218 243.318C532.49 243.497 532.766 243.671 533.057 243.825C538.673 246.808 545.73 244.069 548.818 237.708C551.906 231.348 549.856 223.773 544.239 220.79C543.948 220.636 543.651 220.506 543.353 220.382C544.397 216.862 545.183 213.315 545.711 209.766C546.033 209.765 546.356 209.76 546.685 209.729Z" fill="url(#paint1_linear_1_1440)"/>
<path d="M539.098 244.544C544.715 247.527 551.772 244.788 554.86 238.427C557.947 232.066 555.897 224.492 550.28 221.509C549.989 221.355 549.693 221.225 549.395 221.101C550.438 217.581 551.225 214.033 551.753 210.485C552.075 210.484 552.398 210.478 552.726 210.448C559.134 209.85 564.22 203.691 564.086 196.691C563.952 189.691 558.648 184.5 552.24 185.098C551.905 185.129 551.576 185.184 551.249 185.245C550.579 181.776 549.662 178.388 548.505 175.108C548.8 174.927 549.093 174.741 549.38 174.531C554.862 170.514 556.615 162.585 553.295 156.821C549.974 151.058 542.838 149.642 537.355 153.66C537.074 153.866 536.81 154.088 536.549 154.313C534.383 151.81 532.008 149.49 529.439 147.372C529.619 147.062 529.796 146.748 529.956 146.419C533.044 140.058 530.994 132.483 525.377 129.501C519.76 126.518 512.703 129.257 509.615 135.618C509.456 135.947 509.318 136.282 509.185 136.617C506.034 135.697 502.841 135.061 499.631 134.71C499.651 134.356 499.666 134.002 499.66 133.643C499.525 126.643 494.222 121.452 487.813 122.05C481.405 122.647 476.319 128.806 476.453 135.806C476.46 136.172 476.489 136.53 476.524 136.885C473.309 137.843 470.152 139.069 467.079 140.551C466.933 140.238 466.782 139.928 466.608 139.627C463.288 133.863 456.152 132.448 450.669 136.465C445.186 140.483 443.434 148.412 446.754 154.175C446.924 154.47 447.11 154.746 447.3 155.019C444.872 157.559 442.598 160.316 440.497 163.274C440.225 163.096 439.949 162.922 439.658 162.767C434.041 159.785 426.985 162.523 423.897 168.884C420.809 175.245 422.859 182.82 428.476 185.802C428.767 185.957 429.064 186.087 429.362 186.211C428.318 189.731 427.531 193.278 427.004 196.827C426.682 196.827 426.359 196.833 426.03 196.863C419.622 197.461 414.536 203.62 414.67 210.62C414.804 217.62 420.108 222.81 426.517 222.213C426.851 222.182 427.18 222.127 427.507 222.066C428.177 225.535 429.094 228.923 430.251 232.203C429.956 232.383 429.663 232.57 429.377 232.78C423.894 236.797 422.141 244.726 425.461 250.49C428.782 256.253 435.918 257.669 441.401 253.652C441.682 253.445 441.946 253.223 442.207 252.998C444.373 255.501 446.748 257.822 449.317 259.939C449.137 260.249 448.96 260.563 448.8 260.893C445.712 267.253 447.762 274.828 453.379 277.811C458.996 280.793 466.053 278.055 469.141 271.693C469.301 271.364 469.439 271.029 469.571 270.694C472.722 271.614 475.915 272.25 479.125 272.602C479.105 272.955 479.089 273.31 479.096 273.668C479.231 280.668 484.534 285.859 490.943 285.261C497.351 284.664 502.437 278.505 502.303 271.505C502.296 271.139 502.267 270.781 502.232 270.426C505.447 269.468 508.604 268.242 511.676 266.761C511.823 267.073 511.974 267.383 512.148 267.684C515.468 273.448 522.604 274.863 528.087 270.846C533.57 266.828 535.322 258.899 532.002 253.136C531.832 252.841 531.646 252.564 531.456 252.292C533.884 249.753 536.158 246.995 538.26 244.037C538.531 244.215 538.807 244.39 539.098 244.544ZM469.078 245.473C448.684 234.644 441.24 207.143 452.452 184.048C463.664 160.953 489.285 151.009 509.679 161.838C530.073 172.668 537.516 200.169 526.304 223.264C515.093 246.359 489.472 256.303 469.078 245.473Z" fill="url(#paint2_linear_1_1440)"/>
<path d="M412.418 134.775C415.727 136.532 419.884 134.919 421.704 131.171C423.523 127.424 422.315 122.961 419.006 121.204C418.834 121.113 418.659 121.037 418.484 120.963C419.099 118.89 419.562 116.8 419.873 114.709C420.063 114.709 420.253 114.705 420.447 114.687C424.222 114.335 427.218 110.707 427.139 106.583C427.06 102.459 423.936 99.4004 420.16 99.7526C419.963 99.771 419.769 99.8036 419.576 99.8395C419.182 97.7958 418.642 95.7993 417.96 93.867C418.134 93.7607 418.306 93.6509 418.475 93.5272C421.705 91.1606 422.738 86.4891 420.782 83.0936C418.826 79.6981 414.621 78.8641 411.391 81.2309C411.226 81.3524 411.07 81.4832 410.916 81.6163C409.64 80.1412 408.241 78.7741 406.727 77.5267C406.833 77.3441 406.938 77.1592 407.032 76.9651C408.851 73.2176 411.228 69.1239 407.893 67.4211C400.178 63.4821 396.867 66.854 395.048 70.6016C394.954 70.7957 394.873 70.9929 394.795 71.1904C392.938 70.6482 391.057 70.2734 389.166 70.0667C389.178 69.8583 389.187 69.6496 389.183 69.4382C389.104 65.3143 390.274 63.0825 386.484 63.0054C378.22 62.8374 375.431 66.5889 375.51 70.7128C375.515 70.9285 375.532 71.1391 375.552 71.3484C373.658 71.913 371.799 72.6349 369.988 73.508C369.902 73.3241 369.813 73.1412 369.711 72.9635C367.754 69.568 363.55 68.7343 360.32 71.1011C357.09 73.468 356.057 78.1392 358.013 81.5347C358.114 81.7087 358.223 81.8713 358.335 82.0317C356.904 83.528 355.565 85.1526 354.327 86.8955C354.167 86.7904 354.005 86.6878 353.833 86.5968C350.524 84.8395 346.367 86.453 344.547 90.2005C342.728 93.948 343.936 98.4106 347.245 100.168C347.417 100.259 347.592 100.335 347.767 100.408C347.152 102.482 346.689 104.572 346.378 106.663C346.188 106.663 345.998 106.666 345.804 106.684C342.029 107.037 339.032 110.665 339.111 114.789C339.19 118.913 342.315 121.971 346.091 121.619C346.288 121.601 346.482 121.568 346.674 121.532C347.069 123.576 347.609 125.572 348.291 127.505C348.117 127.611 347.944 127.721 347.776 127.845C344.546 130.211 343.513 134.883 345.469 138.278C347.425 141.674 353.902 143.251 357.132 140.885C357.297 140.763 355.181 139.889 355.335 139.756C356.611 141.231 358.01 142.598 359.524 143.845C359.417 144.028 359.313 144.213 359.219 144.407C357.4 148.155 358.608 152.617 361.917 154.374C365.226 156.131 369.383 154.518 371.203 150.77C371.297 150.576 371.378 150.379 371.456 150.182C373.313 150.724 375.194 151.098 377.085 151.305C377.073 151.514 377.064 151.722 377.068 151.934C377.147 156.058 380.272 159.116 384.047 158.764C387.823 158.412 390.819 154.783 390.74 150.659C390.736 150.444 390.719 150.233 390.698 150.024C392.592 149.459 394.452 148.737 396.262 147.864C396.348 148.048 396.438 148.231 396.54 148.408C398.496 151.804 402.701 152.638 405.931 150.271C409.161 147.904 410.194 143.233 408.237 139.837C408.137 139.663 408.027 139.501 407.916 139.34C409.346 137.844 410.686 136.219 411.924 134.477C412.084 134.581 412.246 134.684 412.418 134.775ZM371.166 135.322C359.151 128.942 354.765 112.74 361.371 99.1336C367.976 85.5271 383.071 79.6689 395.086 86.0491C407.1 92.429 411.486 108.631 404.881 122.238C398.275 135.844 383.181 141.702 371.166 135.322Z" fill="url(#paint3_linear_1_1440)"/>
<path d="M420.447 114.687C424.223 114.335 427.219 110.707 427.14 106.583C427.061 102.458 423.936 99.4004 420.161 99.7525C419.964 99.7708 419.77 99.8035 419.577 99.8393C419.183 97.7955 418.642 95.7991 417.961 93.8668C418.134 93.7606 418.307 93.6507 418.476 93.527C421.706 91.1603 425.702 85.4414 423.423 82.2737C419.098 76.2617 414.622 78.8639 411.392 81.2307C411.226 81.3521 411.07 81.483 410.917 81.6159C409.641 80.1408 408.242 78.7741 406.728 77.5265C406.834 77.3438 406.938 77.1591 407.032 76.965C408.022 74.9254 408.11 72.6768 407.456 70.7649C404.336 76.508 401.258 82.2751 398.235 88.0737C407.821 95.4196 410.872 109.896 404.881 122.238C399.804 132.696 389.711 138.569 379.857 137.833C379.417 139.025 378.986 140.224 378.515 141.405C377.238 144.609 375.787 147.748 374.333 150.882C375.247 151.062 376.165 151.204 377.086 151.305C377.074 151.514 377.065 151.722 377.069 151.934C377.148 156.058 379.542 159.562 386.384 159.182C390.169 158.972 390.82 154.783 390.741 150.659C390.736 150.443 390.719 150.233 390.699 150.023C392.593 149.459 394.453 148.737 396.263 147.864C396.349 148.048 396.438 148.231 396.54 148.408C398.497 151.804 405.283 153.246 408.513 150.879C411.743 148.512 410.194 143.233 408.238 139.837C408.137 139.663 408.028 139.5 407.916 139.34C409.347 137.844 410.686 136.219 411.924 134.476C412.084 134.581 412.247 134.684 412.418 134.775C415.727 136.532 419.885 134.919 421.704 131.171C423.523 127.424 422.315 122.961 419.006 121.204C418.835 121.113 418.66 121.036 418.484 120.963C419.099 118.89 419.562 116.8 419.873 114.709C420.064 114.709 420.254 114.705 420.447 114.687Z" fill="url(#paint4_linear_1_1440)"/>
<path d="M415.977 135.198C419.286 136.956 423.444 135.342 425.263 131.594C427.082 127.847 425.875 123.384 422.565 121.627C422.394 121.536 422.219 121.46 422.044 121.386C422.658 119.313 423.122 117.223 423.433 115.132C423.623 115.132 423.813 115.128 424.006 115.11C427.782 114.758 430.778 111.13 430.699 107.006C430.62 102.882 427.495 99.8237 423.72 100.176C423.523 100.194 423.329 100.227 423.136 100.263C422.742 98.2189 422.201 96.2226 421.52 94.2903C421.693 94.1839 421.866 94.0742 422.035 93.9505C425.265 91.5837 426.298 86.9124 424.341 83.5167C422.385 80.1212 418.181 79.2872 414.951 81.654C414.785 81.7753 414.63 81.9063 414.476 82.0392C413.2 80.5641 411.801 79.1972 410.287 77.9496C410.393 77.767 410.497 77.5821 410.591 77.388C412.411 73.6405 411.203 69.1781 407.894 67.4208C404.584 65.6636 400.427 67.2771 398.608 71.0245C398.514 71.2187 398.432 71.4159 398.354 71.6134C396.498 71.0712 394.617 70.6965 392.725 70.4896C392.737 70.2813 392.746 70.0726 392.742 69.8611C392.663 65.7371 389.539 62.6793 385.763 63.0312C381.988 63.3832 378.991 67.0119 379.07 71.1358C379.074 71.3514 379.092 71.5621 379.112 71.7714C377.218 72.3361 375.358 73.0578 373.548 73.931C373.462 73.747 373.373 73.5643 373.271 73.3865C371.314 69.991 367.11 69.157 363.88 71.524C360.65 73.891 359.617 78.5623 361.573 81.9578C361.673 82.1317 361.783 82.2944 361.895 82.455C360.464 83.9511 359.125 85.5757 357.887 87.3186C357.727 87.2135 357.564 87.111 357.393 87.0199C354.084 85.2626 349.926 86.8761 348.107 90.6236C346.288 94.3711 347.496 98.8337 350.805 100.591C350.976 100.682 351.151 100.758 351.327 100.832C350.712 102.905 350.248 104.995 349.938 107.086C349.748 107.086 349.558 107.09 349.364 107.107C345.589 107.46 342.592 111.088 342.671 115.212C342.75 119.336 345.875 122.394 349.651 122.042C349.848 122.024 350.042 121.991 350.234 121.955C350.629 123.999 351.169 125.996 351.851 127.928C351.677 128.034 351.504 128.144 351.336 128.268C348.106 130.634 347.073 135.306 349.029 138.701C350.985 142.097 355.19 142.931 358.42 140.564C358.585 140.443 358.741 140.312 358.895 140.179C360.171 141.654 361.57 143.021 363.084 144.268C362.977 144.451 362.873 144.636 362.779 144.83C360.96 148.577 362.167 153.04 365.477 154.797C368.786 156.554 372.943 154.941 374.762 151.193C374.857 150.999 374.938 150.802 375.016 150.604C376.873 151.146 378.753 151.521 380.645 151.728C380.633 151.937 380.624 152.145 380.628 152.357C380.707 156.481 383.832 159.539 387.607 159.187C391.382 158.835 394.379 155.206 394.3 151.082C394.296 150.867 394.279 150.656 394.258 150.446C396.152 149.882 398.012 149.16 399.822 148.287C399.908 148.471 399.998 148.654 400.1 148.831C402.056 152.227 406.26 153.061 409.491 150.694C412.721 148.327 413.753 143.656 411.797 140.26C411.697 140.086 411.587 139.923 411.476 139.763C412.906 138.267 414.246 136.642 415.484 134.899C415.644 135.004 415.806 135.107 415.977 135.198ZM374.725 135.746C362.71 129.365 358.325 113.163 364.93 99.5569C371.535 85.9505 386.63 80.0924 398.645 86.4725C410.66 92.8526 415.045 109.055 408.44 122.661C401.835 136.268 386.74 142.126 374.725 135.746Z" fill="url(#paint5_linear_1_1440)"/>
<path d="M179.688 512.768C176.562 496.608 177.908 483.621 179.328 475.78C181.051 466.266 184.553 446.925 199.254 436.145C200.412 435.296 211.912 427.023 217.078 431.132C219.741 433.251 220.35 438.368 219.185 442.407C216.178 452.835 202.619 451.678 198.114 463.547C196.614 467.499 196.336 472.322 197.382 472.776C198.67 473.336 202.344 467.439 202.694 466.877C205.969 461.619 205.999 458.643 208.497 457.836C210.03 457.34 212.051 457.805 212.955 459.072C215.014 461.956 210.947 468.527 209.81 470.364C206.836 475.17 204.353 476.261 203.749 480.352C203.489 482.114 203.536 484.718 204.535 485.124C205.886 485.673 208.465 481.992 210.119 479.631C214.567 473.284 215.041 469.593 217.253 469.329C219.316 469.082 221.641 471.966 222.238 473.723C223.868 478.52 217.317 488.729 179.688 512.768Z" fill="url(#paint6_linear_1_1440)"/>
<path opacity="0.28" d="M180.159 509.995C179.692 494.98 182.016 483.075 184.121 475.264C186.827 465.223 191.917 446.338 206.197 438.165C207.212 437.584 214.677 433.311 216.763 435.6C218.153 437.125 216.921 441.312 214.876 444.085C211.387 448.817 207.367 446.939 201.668 451.584C196.555 455.751 194.759 461.363 194.31 462.832C192.642 468.28 193.509 472.951 193.744 474.672C194.637 481.209 192.808 491.916 180.159 509.995Z" fill="white"/>
<path opacity="0.28" d="M185.253 506.246C193.261 498.746 195.111 492.6 195.254 488.288C195.364 484.929 194.495 480.942 196.952 477.238C198.523 474.868 199.708 475.25 202.424 472.699C208.097 467.37 208.801 460.187 209.971 460.464C210.622 460.618 210.959 462.975 210.537 465.2C209.665 469.792 206.231 470.274 202.801 475.856C200.458 479.67 199.644 483.378 199.216 485.328C198.171 490.089 198.881 491.759 198.272 494.406C197.484 497.836 194.631 502.263 185.253 506.246Z" fill="white"/>
<path d="M184.499 515.378C198.379 516.21 202.505 517.08 209.047 514.749C215.193 512.558 221.498 508.244 220.944 506.264C220.547 504.844 216.688 504.862 214.383 504.874C208.198 504.904 203.097 506.885 199.519 508.801C202.605 506.61 205.692 504.419 208.779 502.228C210.934 501.421 214.581 499.71 217.812 496.094C219.835 493.83 224.482 487.699 222.735 484.753C220.91 481.675 212.241 482.297 207.244 486.661C204.847 488.755 204.844 490.358 201.63 494.015C198.709 497.338 195.693 499.447 193.575 500.72C195.56 498.125 198.26 494.071 200.359 488.607C203.548 480.305 205.956 467.171 201.899 464.783C199.209 463.2 193.874 466.463 191.205 470.331C189.042 473.466 189.254 476.096 187.765 486.172C187.118 490.553 186.483 494.08 186.071 496.269C181.943 486.798 180.745 478.83 180.503 472.974C180.193 465.449 181.383 459.553 178.631 457.985C176.178 456.587 171.799 459.314 169.577 461.874C160.586 472.232 172.449 496.541 173.703 499.05C170.404 496.437 165.858 492.349 161.454 486.44C156.746 480.121 154.757 475.418 152.364 475.839C149.983 476.258 148.414 481.559 148.592 485.661C149.09 497.098 163.372 503.815 164.896 504.507C163.695 504.709 161.658 504.922 159.256 504.442C153.931 503.379 152.271 500.003 146.868 498.857C144.802 498.419 140.577 497.965 140.057 499.303C139.123 501.704 149.793 510.724 162.74 514.162C167.486 515.423 166.351 514.29 184.499 515.378Z" fill="url(#paint7_linear_1_1440)"/>
<path opacity="0.28" d="M193.66 507.104C199.98 504.166 199.121 500.17 206.034 495.222C210.462 492.054 211.49 493.209 216.234 490.18C218.844 488.514 220.977 486.603 222.709 484.714C222.717 484.727 222.727 484.739 222.735 484.753C224.482 487.699 219.834 493.83 217.812 496.094C214.581 499.71 210.934 501.421 208.779 502.228C205.692 504.419 202.605 506.609 199.518 508.8C203.097 506.885 208.198 504.904 214.383 504.874C216.392 504.864 219.582 504.848 220.63 505.786C218.773 506.99 217.102 507.57 215.742 507.86C212.641 508.522 210.696 507.782 208.014 509.473C205.862 510.829 206.041 511.982 204.146 512.716C202.363 513.408 201.453 512.678 197.053 511.923C192.772 511.188 190.597 510.843 188.868 511.98C187.561 512.838 186.866 514.255 186.484 515.501C186.04 515.473 185.587 515.444 185.121 515.416C185.465 513.985 186.098 512.345 187.301 510.881C189.208 508.559 191.296 508.203 193.66 507.104Z" fill="white"/>
<path opacity="0.28" d="M175.652 512.183C174.654 511.933 174.177 512.68 172.79 512.868C170.213 513.218 169.247 510.994 166.218 509.938C162.632 508.687 161.723 511.013 158.152 509.856C155.325 508.94 155.69 507.416 151.996 505.19C148.066 502.822 146.402 503.793 143.513 501.838C142.585 501.21 141.526 500.275 140.517 498.82C141.787 498.1 145.11 498.484 146.869 498.857C152.271 500.003 153.932 503.379 159.257 504.442C161.658 504.922 163.695 504.709 164.897 504.507C163.372 503.814 149.091 497.098 148.593 485.661C148.427 481.856 149.766 477.022 151.861 476.007C151.612 478.649 151.577 480.907 151.616 482.684C151.705 486.816 151.775 488.918 153.025 490.642C155.194 493.633 157.837 492.074 161.442 495.183C164.724 498.014 163.58 500.209 167.004 503.044C169.958 505.49 171.709 504.599 174.488 506.582C176.232 507.827 178.35 510.183 179.622 515.115C179.043 515.087 178.488 515.062 177.96 515.04C177.458 513.641 176.729 512.452 175.652 512.183Z" fill="white"/>
<path opacity="0.28" d="M178.77 496.597C177.04 491.67 174.038 492.176 172.785 487.837C171.539 483.524 174.264 482.183 173.569 475.938C173.049 471.258 171.36 470.569 171.247 467.371C171.165 465.013 171.959 461.8 175.634 457.819C176.748 457.512 177.8 457.511 178.631 457.985C181.383 459.553 180.192 465.449 180.503 472.974C180.745 478.83 181.943 486.798 186.071 496.269C186.483 494.08 187.118 490.553 187.765 486.172C189.254 476.096 189.042 473.466 191.205 470.33C193.874 466.463 199.209 463.2 201.899 464.783C202.053 464.874 202.196 464.982 202.332 465.102C200.99 466.059 199.752 467.235 198.711 468.686C195.162 473.632 197.181 477.175 193.964 486.931C190.87 496.313 187.731 496.893 185.24 505C184.445 507.589 183.696 511.017 183.541 515.322C182.632 515.269 181.776 515.222 180.965 515.181C180.033 511.987 179.594 509.13 179.406 506.706C178.993 501.368 179.938 499.925 178.77 496.597Z" fill="white"/>
<path d="M519.893 474.576C516.767 458.416 518.113 445.43 519.533 437.588C521.256 428.075 524.759 408.734 539.459 397.954C540.618 397.104 552.118 388.832 557.283 392.94C559.946 395.059 560.555 400.177 559.39 404.215C556.383 414.644 542.824 413.487 538.319 425.355C536.819 429.308 536.541 434.13 537.587 434.585C538.875 435.145 542.549 429.248 542.899 428.686C546.174 423.428 546.205 420.451 548.702 419.644C550.235 419.148 552.256 419.614 553.16 420.88C555.219 423.764 551.152 430.336 550.015 432.173C547.042 436.978 544.558 438.07 543.955 442.161C543.695 443.923 543.741 446.527 544.74 446.933C546.091 447.482 548.67 443.801 550.324 441.44C554.772 435.092 555.247 431.402 557.458 431.137C559.521 430.89 561.846 433.775 562.443 435.532C564.073 440.329 557.522 450.538 519.893 474.576Z" fill="url(#paint8_linear_1_1440)"/>
<path opacity="0.28" d="M520.364 471.804C519.897 456.788 522.221 444.884 524.326 437.073C527.032 427.032 532.122 408.146 546.402 399.974C547.417 399.393 554.882 395.12 556.968 397.408C558.358 398.934 557.126 403.121 555.081 405.894C551.592 410.625 547.572 408.748 541.873 413.393C536.76 417.56 534.964 423.172 534.515 424.641C532.847 430.089 533.714 434.76 533.949 436.481C534.842 443.018 533.013 453.725 520.364 471.804Z" fill="white"/>
<path opacity="0.28" d="M525.458 468.055C533.465 460.554 535.316 454.409 535.458 450.097C535.569 446.738 534.7 442.751 537.156 439.047C538.728 436.677 539.912 437.059 542.628 434.508C548.301 429.179 549.006 421.996 550.175 422.273C550.826 422.427 551.164 424.784 550.741 427.009C549.87 431.601 546.436 432.083 543.006 437.665C540.662 441.479 539.849 445.186 539.421 447.137C538.376 451.898 539.085 453.568 538.477 456.215C537.689 459.645 534.836 464.072 525.458 468.055Z" fill="white"/>
<path d="M524.704 477.187C538.585 478.019 542.711 478.889 549.252 476.557C555.398 474.367 561.703 470.053 561.149 468.073C560.752 466.652 556.893 466.671 554.589 466.682C548.403 466.713 543.303 468.694 539.724 470.609C542.811 468.418 545.897 466.227 548.984 464.037C551.14 463.23 554.787 461.519 558.017 457.903C560.04 455.639 564.688 449.507 562.941 446.561C561.116 443.484 552.447 444.105 547.45 448.47C545.052 450.564 545.049 452.167 541.835 455.823C538.914 459.146 535.899 461.255 533.781 462.529C535.766 459.933 538.466 455.879 540.564 450.415C543.754 442.113 546.161 428.98 542.105 426.592C539.414 425.008 534.079 428.272 531.411 432.139C529.247 435.275 529.459 437.905 527.971 447.981C527.323 452.361 526.689 455.889 526.277 458.077C522.148 448.607 520.951 440.639 520.709 434.783C520.398 427.258 521.589 421.362 518.837 419.794C516.384 418.396 512.004 421.123 509.783 423.682C500.792 434.04 512.655 458.35 513.909 460.859C510.61 458.246 506.063 454.158 501.66 448.249C496.951 441.93 494.963 437.226 492.569 437.648C490.188 438.066 488.619 443.367 488.798 447.47C489.296 458.907 503.577 465.623 505.102 466.315C503.9 466.518 501.863 466.73 499.462 466.251C494.137 465.188 492.476 461.812 487.074 460.666C485.008 460.228 480.783 459.773 480.263 461.111C479.328 463.513 489.999 472.532 502.946 475.971C507.691 477.231 506.557 476.099 524.704 477.187Z" fill="url(#paint9_linear_1_1440)"/>
<path opacity="0.28" d="M533.865 468.913C540.185 465.975 539.326 461.979 546.239 457.031C550.667 453.863 551.695 455.018 556.44 451.989C559.049 450.323 561.182 448.412 562.914 446.523C562.922 446.536 562.933 446.548 562.94 446.561C564.687 449.507 560.04 455.639 558.017 457.903C554.786 461.519 551.139 463.23 548.984 464.037C545.897 466.228 542.811 468.418 539.724 470.609C543.302 468.694 548.403 466.713 554.588 466.683C556.597 466.673 559.787 466.657 560.835 467.595C558.978 468.799 557.307 469.379 555.947 469.669C552.846 470.331 550.901 469.591 548.219 471.282C546.067 472.638 546.246 473.791 544.352 474.525C542.568 475.217 541.658 474.487 537.258 473.732C532.978 472.997 530.802 472.652 529.073 473.789C527.766 474.647 527.072 476.064 526.689 477.31C526.245 477.282 525.792 477.253 525.326 477.225C525.67 475.794 526.303 474.154 527.506 472.69C529.414 470.368 531.501 470.012 533.865 468.913Z" fill="white"/>
<path opacity="0.28" d="M515.857 473.992C514.858 473.742 514.381 474.488 512.994 474.677C510.417 475.027 509.452 472.803 506.422 471.746C502.837 470.496 501.928 472.822 498.357 471.665C495.53 470.749 495.894 469.225 492.201 466.999C488.271 464.63 486.606 465.602 483.718 463.647C482.79 463.019 481.73 462.084 480.722 460.629C481.992 459.909 485.314 460.293 487.074 460.666C492.476 461.812 494.137 465.188 499.462 466.251C501.863 466.73 503.9 466.518 505.101 466.315C503.577 465.623 489.296 458.907 488.798 447.47C488.632 443.664 489.97 438.83 492.065 437.816C491.816 440.458 491.782 442.716 491.82 444.492C491.91 448.625 491.98 450.727 493.23 452.451C495.398 455.442 498.042 453.883 501.647 456.992C504.928 459.823 503.785 462.018 507.208 464.852C510.163 467.299 511.913 466.408 514.693 468.391C516.437 469.636 518.555 471.992 519.827 476.923C519.248 476.896 518.693 476.871 518.165 476.849C517.662 475.45 516.933 474.261 515.857 473.992Z" fill="white"/>
<path opacity="0.28" d="M518.975 458.405C517.246 453.479 514.243 453.985 512.99 449.646C511.745 445.333 514.469 443.992 513.775 437.746C513.255 433.066 511.565 432.378 511.453 429.179C511.37 426.821 512.165 423.609 515.84 419.627C516.954 419.321 518.006 419.32 518.837 419.793C521.589 421.362 520.398 427.258 520.709 434.782C520.951 440.639 522.148 448.606 526.276 458.077C526.689 455.889 527.323 452.361 527.971 447.98C529.459 437.905 529.247 435.275 531.411 432.139C534.079 428.271 539.414 425.008 542.105 426.592C542.258 426.682 542.402 426.79 542.537 426.911C541.195 427.868 539.957 429.044 538.916 430.494C535.368 435.44 537.386 438.984 534.169 448.739C531.075 458.122 527.936 458.701 525.446 466.809C524.65 469.398 523.901 472.825 523.747 477.13C522.837 477.078 521.981 477.031 521.17 476.989C520.239 473.796 519.799 470.938 519.612 468.514C519.199 463.177 520.143 461.733 518.975 458.405Z" fill="white"/>
<path d="M377.759 454.377L505.125 418.856L511.495 453.357L394.895 513.358L302.572 487.931L246.878 426.961L377.759 454.377Z" fill="url(#paint10_linear_1_1440)"/>
<path d="M377.759 454.377L505.125 418.856L511.495 453.357L394.895 513.358L302.572 487.931L246.878 426.961L377.759 454.377Z" fill="url(#paint11_linear_1_1440)"/>
<path d="M373.756 502.131C399.07 487 417.766 471.588 430.456 459.939C455.425 437.018 466.879 419.727 492.157 412.895C496.675 411.674 522.414 404.717 530.719 417.461C539.915 431.571 522.037 461.076 519.865 464.66C487.57 517.957 405.33 515.47 379.533 513.741C377.608 509.871 375.682 506.001 373.756 502.131Z" fill="url(#paint12_linear_1_1440)"/>
<path opacity="0.3" d="M530.72 417.461C528.292 413.737 524.36 411.727 519.92 410.733C521.397 416.437 521.532 421.79 519.686 426.466C514.639 439.247 499.696 435.31 489.2 450.31C478.891 465.041 486.027 479.239 476.914 485.315C466.47 492.28 453.521 476.01 442.333 483.793C434.726 489.085 437.093 499.125 428.228 504.594C422.102 508.373 416.097 506.586 409.118 505.608C401.119 504.488 390.16 504.248 376.404 507.452C377.447 509.548 378.49 511.645 379.534 513.741C405.33 515.47 487.57 517.957 519.865 464.66C522.037 461.075 539.916 431.571 530.72 417.461Z" fill="url(#paint13_linear_1_1440)"/>
<path d="M392.894 510.096C392.894 510.096 397.533 506.387 404.263 508.915C410.994 511.441 421.682 513.481 421.666 517.151C421.649 520.82 410.956 523.116 403.566 521.608C396.498 520.165 390.938 513.316 392.894 510.096Z" fill="url(#paint14_linear_1_1440)"/>
<path d="M386.097 503.833L398.485 508.275C398.485 508.275 400.497 512.012 397.781 514.383C395.066 516.753 385.629 511.74 385.629 511.74L386.097 503.833Z" fill="url(#paint15_linear_1_1440)"/>
<path d="M213.917 440.164C210.259 463.908 256.219 489.593 266.741 495.473C288.184 507.457 328.531 524.373 388.414 517.911C389.21 512.584 390.007 507.257 390.803 501.93C382.892 498.909 371.169 493.997 357.566 486.537C334.35 473.804 325.535 464.71 293.32 442.995C257.672 418.965 247.288 415.882 236.667 418.856C227.585 421.399 215.616 429.131 213.917 440.164Z" fill="url(#paint16_linear_1_1440)"/>
<path d="M302.812 301.031C307.261 295.498 318.955 294.646 342.344 292.942C346.825 292.616 362.549 291.579 383.332 293.19C389.569 293.674 402.143 292.96 425.024 302.521C426.679 303.212 428.319 304.069 430.204 305.216C448.739 316.493 430.134 358.622 429.005 357.344C425.453 366.047 421.082 379.262 419.114 396.154C416.572 417.968 419.204 435.906 421.433 446.454C412.471 452.698 397.652 461.17 378.348 463.881C363.997 465.896 347.915 468.075 334.285 457.032C329.984 453.547 321.655 445.281 310.078 394.742C298.143 342.639 291.76 314.774 302.812 301.031Z" fill="url(#paint17_linear_1_1440)"/>
<path d="M367.732 272.608C367.732 272.608 367.746 285.816 361.033 289.227C354.32 292.638 343.644 293.964 342.176 295.565C342.137 295.606 342.057 295.704 342.05 295.844C341.941 297.885 357.754 301.758 372.698 301.253C385.312 300.826 395.164 297.353 395.058 295.613C394.949 293.832 384.496 295.459 380.488 288.782C378.509 285.487 375.259 279.991 375.786 277.143L367.732 272.608Z" fill="url(#paint18_linear_1_1440)"/>
<path d="M383.087 268.689C385.331 266.063 385.904 261.005 383.9 257.471C382.176 254.43 379.113 253.597 377.279 253.097C371.964 251.648 364.963 253.159 362.12 258.277C360.436 261.311 362.864 268.455 363.231 269.73C363.646 271.171 364.576 271.778 365.384 272.937C366.504 274.546 368.253 277.099 371.1 281.358C371.448 280.27 371.947 278.933 372.678 277.51C372.96 276.963 374.085 274.829 375.649 273.148C378.785 269.78 380.961 271.177 383.087 268.689Z" fill="url(#paint19_linear_1_1440)"/>
<path d="M366.841 277.512C366.841 277.512 369.808 284.404 376.888 284.899C383.227 285.341 385.531 269.901 381.8 266.024C380.556 264.731 377.908 263.892 375.662 264.257C374.336 264.472 373.846 265.001 371.672 265.306C369.666 265.588 369.134 265.27 368.495 265.734C367.696 266.315 367.006 267.918 367.835 272.645C366.753 271.133 365.356 270.413 364.286 270.8C364.116 270.862 363.655 271.125 363.368 271.582C362.329 273.236 363.601 275.716 366.841 277.512Z" fill="url(#paint20_linear_1_1440)"/>
<path d="M368.293 264.762C368.574 265.055 367.535 266.173 367.309 267.931C366.87 271.345 369.656 275.912 372.841 276.719C374.724 277.195 375.358 276.006 378.533 276.087C380.498 276.136 382.094 276.639 383.091 277.029C383.745 280.934 382.483 284.556 380.046 285.973C377.422 287.498 374.384 285.916 373.113 285.254C372.263 284.81 369.54 283.398 368.322 280.344C367.053 277.163 368.714 275.59 367.135 273.336C366.338 272.199 365.212 271.596 364.252 269.477C363.991 268.901 363.828 268.401 363.73 268.067C365.523 266.4 367.885 264.338 368.293 264.762Z" fill="url(#paint21_linear_1_1440)"/>
<path d="M380.68 278.1C380.68 278.1 379.25 278.69 376.912 278.211C376.798 278.187 376.67 278.207 376.649 278.27C376.573 278.508 377.984 279.824 379.411 279.591C380.425 279.425 381.284 278.505 381.175 278.224C381.128 278.105 380.904 278.088 380.68 278.1Z" fill="url(#paint22_linear_1_1440)"/>
<path d="M511.915 344.881C514.633 343.576 517.367 342.274 520.117 340.975C522.103 340.038 524.084 339.108 526.059 338.186C526.059 338.186 526.841 336.617 527.936 337.14C529.031 337.663 525.121 342.719 523.87 343.416C522.619 344.114 530.438 343.939 531.689 340.452C532.94 336.965 534.816 334.699 535.911 334.35C537.006 334.001 533.878 341.673 532.315 345.334C530.751 348.996 520.43 349.518 517.146 349.867C513.863 350.216 511.204 352.483 511.204 352.483C509.933 351.432 508.661 350.383 507.39 349.332C508.898 347.849 510.407 346.365 511.915 344.881Z" fill="url(#paint23_linear_1_1440)"/>
<path d="M509.872 345.733C511.853 347.758 513.833 349.782 515.814 351.806C512.464 359.587 505.808 371.607 493.532 379.134C471.789 392.466 441.375 386.209 417.773 362.848C404.011 335.439 401.42 310.701 409.699 303.627C418.241 296.327 440.327 306.152 452.434 321.718C462.555 334.731 461.007 344.509 469.517 351.53C475.058 356.102 485.965 358.511 509.872 345.733Z" fill="url(#paint24_linear_1_1440)"/>
<path d="M217.365 341.786C214.344 340.337 211.306 338.89 208.25 337.446C206.044 336.404 203.842 335.371 201.647 334.347C201.647 334.347 200.778 332.603 199.562 333.184C198.345 333.766 202.69 339.384 204.08 340.159C205.47 340.934 196.781 340.74 195.391 336.866C194.001 332.991 191.916 330.472 190.7 330.085C189.483 329.697 192.959 338.222 194.696 342.29C196.434 346.359 207.903 346.94 211.552 347.328C215.201 347.715 218.155 350.234 218.155 350.234C219.568 349.067 220.981 347.9 222.393 346.734C220.717 345.084 219.041 343.435 217.365 341.786Z" fill="url(#paint25_linear_1_1440)"/>
<path d="M219.636 342.733C217.435 344.983 215.234 347.232 213.033 349.482C216.755 358.127 224.152 371.485 237.794 379.849C261.955 394.664 295.752 387.712 321.98 361.751C332.429 329.988 331.328 303.436 321.323 297.394C311.991 291.758 293.8 303.299 283.463 316.046C271.537 330.754 273.676 341.588 264.48 349.175C258.323 354.255 246.203 356.932 219.636 342.733Z" fill="url(#paint26_linear_1_1440)"/>
<g opacity="0.3">
<path d="M388.641 443.826C379.885 432.577 385.57 421.251 375.322 412.401C362.528 401.352 349.345 408.938 340.319 398.794C327.798 384.723 344.151 359.998 332.575 349.227C323.087 340.398 302.933 348.476 295.404 351.494C271.904 360.913 268.744 375.532 252.037 379.356C248.054 380.267 243.08 380.614 237.01 379.353C237.27 379.52 237.528 379.687 237.794 379.85C257.153 391.72 282.699 389.613 305.58 374.953C306.959 381.126 308.468 387.711 310.078 394.742C321.655 445.281 329.984 453.547 334.285 457.032C347.915 468.075 363.997 465.897 378.348 463.881C389.117 462.369 398.488 459.063 406.228 455.352C399.334 453.201 393.138 449.602 388.641 443.826Z" fill="url(#paint27_linear_1_1440)"/>
</g>
</g>
<defs>
<linearGradient id="paint0_linear_1_1440" x1="668.625" y1="257.043" x2="492.112" y2="209.285" gradientUnits="userSpaceOnUse">
<stop stop-color="#311944"/>
<stop offset="1" stop-color="#A03976"/>
</linearGradient>
<linearGradient id="paint1_linear_1_1440" x1="668.164" y1="258.742" x2="491.652" y2="210.984" gradientUnits="userSpaceOnUse">
<stop stop-color="#311944"/>
<stop offset="1" stop-color="#A03976"/>
</linearGradient>
<linearGradient id="paint2_linear_1_1440" x1="488.638" y1="141.122" x2="491.638" y2="372.757" gradientUnits="userSpaceOnUse">
<stop stop-color="#FF9085"/>
<stop offset="1" stop-color="#FB6FBB"/>
</linearGradient>
<linearGradient id="paint3_linear_1_1440" x1="492.287" y1="142.562" x2="388.295" y2="114.425" gradientUnits="userSpaceOnUse">
<stop stop-color="#311944"/>
<stop offset="1" stop-color="#A03976"/>
</linearGradient>
<linearGradient id="paint4_linear_1_1440" x1="492.017" y1="143.563" x2="388.025" y2="115.426" gradientUnits="userSpaceOnUse">
<stop stop-color="#311944"/>
<stop offset="1" stop-color="#A03976"/>
</linearGradient>
<linearGradient id="paint5_linear_1_1440" x1="386.249" y1="74.2675" x2="388.016" y2="210.734" gradientUnits="userSpaceOnUse">
<stop stop-color="#FF9085"/>
<stop offset="1" stop-color="#FB6FBB"/>
</linearGradient>
<linearGradient id="paint6_linear_1_1440" x1="175.701" y1="443.642" x2="230.334" y2="505.756" gradientUnits="userSpaceOnUse">
<stop offset="0.0036" stop-color="#E38DDD"/>
<stop offset="1" stop-color="#9571F6"/>
</linearGradient>
<linearGradient id="paint7_linear_1_1440" x1="180.207" y1="517.884" x2="182.542" y2="478.651" gradientUnits="userSpaceOnUse">
<stop stop-color="#AA80F9"/>
<stop offset="0.9964" stop-color="#6165D7"/>
</linearGradient>
<linearGradient id="paint8_linear_1_1440" x1="515.906" y1="405.451" x2="570.539" y2="467.565" gradientUnits="userSpaceOnUse">
<stop offset="0.0036" stop-color="#E38DDD"/>
<stop offset="1" stop-color="#9571F6"/>
</linearGradient>
<linearGradient id="paint9_linear_1_1440" x1="520.413" y1="479.693" x2="522.747" y2="440.46" gradientUnits="userSpaceOnUse">
<stop stop-color="#AA80F9"/>
<stop offset="0.9964" stop-color="#6165D7"/>
</linearGradient>
<linearGradient id="paint10_linear_1_1440" x1="380.71" y1="408.685" x2="377.54" y2="468.558" gradientUnits="userSpaceOnUse">
<stop stop-color="#FF9085"/>
<stop offset="1" stop-color="#FB6FBB"/>
</linearGradient>
<linearGradient id="paint11_linear_1_1440" x1="380.71" y1="408.685" x2="377.54" y2="468.558" gradientUnits="userSpaceOnUse">
<stop stop-color="#FFC444"/>
<stop offset="0.9964" stop-color="#F36F56"/>
</linearGradient>
<linearGradient id="paint12_linear_1_1440" x1="373.756" y1="462.163" x2="533.331" y2="462.163" gradientUnits="userSpaceOnUse">
<stop stop-color="#FFC444"/>
<stop offset="0.9964" stop-color="#F36F56"/>
</linearGradient>
<linearGradient id="paint13_linear_1_1440" x1="373.756" y1="462.577" x2="533.33" y2="462.577" gradientUnits="userSpaceOnUse">
<stop stop-color="#FF9085"/>
<stop offset="1" stop-color="#FB6FBB"/>
</linearGradient>
<linearGradient id="paint14_linear_1_1440" x1="419.123" y1="530.656" x2="386.153" y2="491.426" gradientUnits="userSpaceOnUse">
<stop stop-color="#AA80F9"/>
<stop offset="0.9964" stop-color="#6165D7"/>
</linearGradient>
<linearGradient id="paint15_linear_1_1440" x1="400.345" y1="520.913" x2="354.189" y2="465.393" gradientUnits="userSpaceOnUse">
<stop stop-color="#FFC444"/>
<stop offset="0.9964" stop-color="#F36F56"/>
</linearGradient>
<linearGradient id="paint16_linear_1_1440" x1="309.919" y1="459.163" x2="269.462" y2="539.622" gradientUnits="userSpaceOnUse">
<stop stop-color="#FFC444"/>
<stop offset="0.9964" stop-color="#F36F56"/>
</linearGradient>
<linearGradient id="paint17_linear_1_1440" x1="358.23" y1="478.039" x2="372.154" y2="269.923" gradientUnits="userSpaceOnUse">
<stop stop-color="#311944"/>
<stop offset="1" stop-color="#A03976"/>
</linearGradient>
<linearGradient id="paint18_linear_1_1440" x1="370.41" y1="276.923" x2="365.599" y2="321.554" gradientUnits="userSpaceOnUse">
<stop stop-color="#FFC444"/>
<stop offset="0.9964" stop-color="#F36F56"/>
</linearGradient>
<linearGradient id="paint19_linear_1_1440" x1="355.659" y1="297.365" x2="378.225" y2="256.383" gradientUnits="userSpaceOnUse">
<stop stop-color="#311944"/>
<stop offset="1" stop-color="#6B3976"/>
</linearGradient>
<linearGradient id="paint20_linear_1_1440" x1="373.618" y1="267.545" x2="369.473" y2="332.84" gradientUnits="userSpaceOnUse">
<stop stop-color="#FFC444"/>
<stop offset="0.9964" stop-color="#F36F56"/>
</linearGradient>
<linearGradient id="paint21_linear_1_1440" x1="360.482" y1="300.66" x2="383.606" y2="258.662" gradientUnits="userSpaceOnUse">
<stop stop-color="#311944"/>
<stop offset="1" stop-color="#6B3976"/>
</linearGradient>
<linearGradient id="paint22_linear_1_1440" x1="379.431" y1="275.894" x2="377.618" y2="283.603" gradientUnits="userSpaceOnUse">
<stop stop-color="#FFC444"/>
<stop offset="1" stop-color="#F36F56"/>
</linearGradient>
<linearGradient id="paint23_linear_1_1440" x1="515.372" y1="357.265" x2="525.617" y2="336.505" gradientUnits="userSpaceOnUse">
<stop stop-color="#FFC444"/>
<stop offset="0.9964" stop-color="#F36F56"/>
</linearGradient>
<linearGradient id="paint24_linear_1_1440" x1="450.893" y1="489.918" x2="465.579" y2="270.396" gradientUnits="userSpaceOnUse">
<stop stop-color="#311944"/>
<stop offset="1" stop-color="#A03976"/>
</linearGradient>
<linearGradient id="paint25_linear_1_1440" x1="213.524" y1="355.549" x2="202.139" y2="332.479" gradientUnits="userSpaceOnUse">
<stop stop-color="#FFC444"/>
<stop offset="0.9964" stop-color="#F36F56"/>
</linearGradient>
<linearGradient id="paint26_linear_1_1440" x1="281.335" y1="500.285" x2="265.425" y2="262.472" gradientUnits="userSpaceOnUse">
<stop stop-color="#311944"/>
<stop offset="1" stop-color="#A03976"/>
</linearGradient>
<linearGradient id="paint27_linear_1_1440" x1="305.207" y1="685.683" x2="336.522" y2="217.597" gradientUnits="userSpaceOnUse">
<stop stop-color="#311944"/>
<stop offset="1" stop-color="#A03976"/>
</linearGradient>
</defs>
</svg>
