<?xml version="1.0" standalone="no"?>
<!DOCTYPE svg PUBLIC "-//W3C//DTD SVG 20010904//EN" "http://www.w3.org/TR/2001/REC-SVG-20010904/DTD/svg10.dtd">
<svg version="1.0" xmlns="http://www.w3.org/2000/svg" width="1024.000000pt" height="1024.000000pt" viewBox="0 0 1024.000000 1024.000000" preserveAspectRatio="xMidYMid meet">

  <g transform="translate(0.000000,1024.000000) scale(0.100000,-0.100000)" fill="#000000" stroke="none">
    <path d="M30 10200 c0 -22 5 -40 10 -40 6 0 10 18 10 40 0 22 -4 40 -10 40 -5
0 -10 -18 -10 -40z" />
    <path d="M80 10150 c0 -5 5 -10 10 -10 6 0 10 5 10 10 0 6 -4 10 -10 10 -5 0
-10 -4 -10 -10z" />
    <path d="M0 9980 c0 -15 7 -20 25 -20 27 0 32 9 13 28 -18 18 -38 14 -38 -8z" />
    <path d="M27 9912 c2 -10 -3 -24 -11 -31 -22 -18 -20 -41 3 -41 15 0 21 10 26
39 4 25 13 42 23 44 9 3 3 5 -15 6 -25 1 -30 -2 -26 -17z" />
    <path d="M8 9753 c7 -3 16 -2 19 1 4 3 -2 6 -13 5 -11 0 -14 -3 -6 -6z" />
    <path d="M0 9720 c0 -5 7 -10 15 -10 8 0 15 5 15 10 0 6 -7 10 -15 10 -8 0
-15 -4 -15 -10z" />
    <path d="M8 9683 c7 -3 16 -2 19 1 4 3 -2 6 -13 5 -11 0 -14 -3 -6 -6z" />
    <path d="M13 9503 c9 -2 25 -2 35 0 9 3 1 5 -18 5 -19 0 -27 -2 -17 -5z" />
    <path d="M13 9473 c9 -2 23 -2 30 0 6 3 -1 5 -18 5 -17 0 -22 -2 -12 -5z" />
    <path d="M8 9443 c7 -3 16 -2 19 1 4 3 -2 6 -13 5 -11 0 -14 -3 -6 -6z" />
    <path d="M4428 7633 c-16 -2 -28 -8 -28 -13 0 -5 -6 -7 -13 -4 -7 2 -24 -4
-37 -16 -13 -11 -29 -20 -36 -20 -7 0 -31 -21 -53 -47 -30 -33 -40 -52 -36
-67 5 -17 4 -18 -4 -6 -8 11 -11 11 -12 3 -2 -21 -4 -28 -10 -38 -8 -15 -11
-75 -4 -75 3 0 27 15 53 33 l47 32 380 6 c546 9 1043 9 1095 0 25 -5 97 -23
160 -40 63 -17 121 -31 128 -31 8 0 12 16 12 46 0 44 -4 50 -67 113 -41 41
-92 79 -128 97 l-60 29 -680 1 c-374 1 -692 -1 -707 -3z m-108 -67 c0 -2 -8
-10 -17 -17 -16 -13 -17 -12 -4 4 13 16 21 21 21 13z" />
    <path d="M6160 7326 c0 -2 8 -10 18 -17 15 -13 16 -12 3 4 -13 16 -21 21 -21
13z" />
    <path d="M6022 7200 c-33 -14 -41 -14 -979 -11 -518 1 -867 -2 -890 -8 -21 -5
-59 -12 -84 -16 -58 -7 -82 -31 -77 -77 l3 -33 875 -7 c481 -4 993 -11 1138
-15 l263 -8 -7 45 c-9 70 -24 109 -47 125 -24 17 -156 20 -195 5z" />
    <path d="M4290 6745 c0 -30 5 -55 10 -55 6 0 10 -6 10 -14 0 -8 10 -26 23 -40
17 -20 35 -27 77 -31 218 -23 1449 -34 1493 -14 31 14 53 63 52 114 0 38 -3
41 -54 68 l-55 27 -778 0 -778 0 0 -55z" />
    <path d="M5965 6720 c3 -5 8 -10 11 -10 2 0 4 5 4 10 0 6 -5 10 -11 10 -5 0
-7 -4 -4 -10z" />
    <path d="M3718 6303 c-16 -2 -28 -9 -28 -14 0 -6 -9 -8 -19 -4 -11 3 -28 2
-38 -3 -100 -49 -136 -73 -186 -124 -33 -33 -55 -63 -51 -70 4 -6 3 -8 -3 -5
-13 8 -56 -70 -47 -85 4 -6 3 -8 -3 -5 -13 8 -30 -45 -42 -136 -14 -102 -14
-1000 -1 -1087 13 -82 29 -132 40 -125 4 3 6 -3 3 -14 -3 -10 0 -22 6 -25 5
-4 8 -13 5 -21 -4 -8 1 -18 10 -21 9 -3 16 -12 16 -19 0 -21 171 -197 187
-191 8 3 12 2 9 -3 -8 -13 31 -44 45 -35 8 4 10 3 5 -4 -10 -17 39 -58 114
-95 l65 -32 445 -3 c433 -4 555 2 629 30 52 19 161 101 222 165 72 76 138 197
167 303 15 58 17 120 16 616 -2 490 -3 554 -18 582 -38 73 -254 299 -341 357
-28 18 -79 43 -113 54 -59 20 -80 21 -564 20 -277 -1 -515 -4 -530 -6z m953
-456 c56 -22 114 -76 131 -125 10 -28 13 -139 13 -472 l0 -435 -27 -57 c-33
-71 -74 -110 -158 -151 l-65 -32 -325 0 -325 0 -45 25 c-55 30 -130 98 -130
117 0 8 -9 31 -20 52 -18 37 -19 58 -16 487 2 385 5 453 19 479 24 46 55 75
82 75 13 0 29 8 34 18 6 9 11 13 11 9 0 -4 10 -2 22 4 35 19 168 26 473 25
241 -1 286 -4 326 -19z m-1191 -1381 c-7 -7 -13 -7 -20 0 -6 6 -3 10 10 10 13
0 16 -4 10 -10z" />
    <path d="M2662 6258 c-16 -16 -17 -1661 -1 -1723 5 -22 11 -48 14 -58 4 -18
39 -78 60 -105 47 -60 142 -152 157 -152 10 0 18 -4 18 -10 0 -5 30 -24 67
-41 88 -41 96 -36 106 72 4 46 6 437 5 870 l-3 787 -40 58 c-43 62 -191 211
-206 207 -5 -2 -8 2 -6 8 3 17 -83 81 -100 75 -8 -3 -12 -2 -9 3 12 19 -44 27
-62 9z m42 -6 c2 -4 -4 -8 -14 -8 -10 0 -16 4 -14 8 3 4 9 8 14 8 5 0 11 -4
14 -8z m6 -1792 c0 -5 -2 -10 -4 -10 -3 0 -8 5 -11 10 -3 6 -1 10 4 10 6 0 11
-4 11 -10z" />
    <path d="M5654 6228 c-40 -31 -101 -95 -140 -146 l-33 -42 4 -718 c2 -394 7
-728 11 -742 4 -14 18 -43 32 -65 34 -55 226 -243 312 -305 38 -28 74 -58 78
-67 10 -16 22 519 22 961 0 149 3 272 6 275 3 3 8 1 12 -5 9 -14 47 -34 62
-34 7 0 10 7 6 15 -9 25 17 17 52 -16 18 -17 37 -27 44 -23 7 4 8 3 4 -5 -8
-12 91 -108 107 -103 5 1 6 -1 3 -6 -3 -4 8 -21 25 -38 66 -66 103 -105 116
-124 8 -12 21 -19 29 -16 8 3 14 0 14 -7 0 -7 38 -50 85 -96 97 -96 79 -96
171 -1 24 24 44 41 44 38 0 -9 49 41 220 223 74 79 165 175 203 213 37 38 67
73 67 77 0 5 7 9 15 9 12 0 14 -69 15 -495 0 -490 1 -496 22 -538 30 -57 31
-58 123 -152 94 -95 148 -137 180 -139 13 0 21 -4 18 -8 -2 -5 4 -8 14 -9 10
0 33 -2 50 -5 l33 -4 2 878 c2 482 7 885 12 895 7 14 4 17 -17 17 -14 0 -30 6
-34 14 -14 26 -116 140 -193 216 l-75 75 -58 -3 c-46 -3 -57 -7 -53 -18 3 -8
2 -13 -3 -10 -5 3 -20 -11 -34 -32 -14 -20 -46 -58 -72 -85 -26 -27 -43 -52
-39 -59 4 -6 3 -8 -3 -5 -15 9 -249 -230 -245 -251 2 -12 0 -14 -6 -4 -6 9
-15 5 -36 -18 -15 -17 -24 -35 -21 -39 2 -5 -2 -8 -9 -7 -8 0 -52 -35 -98 -80
-45 -44 -100 -93 -120 -108 -35 -26 -38 -27 -62 -11 -14 10 -26 22 -26 27 0 6
-11 7 -24 4 -14 -3 -28 -2 -31 4 -3 6 1 7 9 4 22 -9 20 8 -4 29 -25 21 -34 22
-26 1 3 -9 2 -12 -5 -9 -6 4 -8 14 -5 22 7 18 -45 85 -61 79 -6 -3 -14 2 -17
10 -4 10 -2 13 7 8 8 -5 7 -2 -2 9 -8 10 -16 15 -19 12 -3 -3 -11 4 -19 15 -7
10 -19 18 -26 16 -6 -1 -8 -1 -3 2 7 4 -324 337 -430 432 -65 58 -112 90 -132
90 -11 0 -32 -10 -48 -22z m634 -1073 c-3 -3 -13 7 -23 22 l-17 28 23 -22 c12
-12 20 -25 17 -28z m78 -70 c9 -8 11 -15 6 -15 -5 0 -15 7 -22 15 -7 8 -9 15
-6 15 4 0 14 -7 22 -15z m34 -35 c0 -5 -5 -10 -11 -10 -5 0 -7 5 -4 10 3 6 8
10 11 10 2 0 4 -4 4 -10z" />
    <path d="M3040 4051 c8 -5 30 -12 48 -16 25 -5 32 -3 32 9 0 12 -11 16 -47 16
-32 -1 -43 -3 -33 -9z" />
    <path d="M4490 3879 c-209 -9 -198 -7 -180 -19 11 -8 6 -9 -20 -8 -38 3 -40
-1 -27 -60 4 -18 11 -31 17 -27 5 3 7 0 5 -8 -3 -7 11 -28 32 -47 28 -26 49
-36 92 -41 31 -5 382 -8 781 -9 709 0 726 0 758 20 38 24 49 25 49 6 0 -7 -7
-11 -17 -9 -9 3 -28 -6 -41 -19 -14 -13 -20 -20 -15 -15 6 4 17 7 26 7 9 0 2
-12 -20 -30 -34 -29 -34 -30 -7 -20 65 23 147 94 147 127 0 21 -18 15 -25 -8
-4 -11 -9 -18 -12 -16 -2 3 1 15 7 27 19 35 -4 74 -58 102 -25 12 -53 29 -62
36 -12 10 -151 13 -645 15 -347 1 -700 -1 -785 -4z m-210 -83 c-7 -7 -10 1 -9
25 0 32 1 33 10 10 6 -16 6 -28 -1 -35z" />
    <path d="M4497 3583 c-48 -3 -67 -8 -64 -16 3 -9 122 -13 491 -15 300 -1 485
1 482 7 -4 5 2 11 11 13 54 12 -729 20 -920 11z" />
    <path d="M5858 3583 c6 -2 18 -2 25 0 6 3 1 5 -13 5 -14 0 -19 -2 -12 -5z" />
    <path d="M5440 3570 c0 -5 4 -10 9 -10 6 0 13 5 16 10 3 6 -1 10 -9 10 -9 0
-16 -4 -16 -10z" />
    <path d="M4054 3429 c-53 -15 -66 -83 -25 -137 12 -17 32 -25 73 -31 31 -4 64
-14 74 -22 15 -12 163 -14 998 -14 1115 0 1010 10 962 -89 -14 -29 -26 -59
-26 -67 0 -8 -7 -27 -15 -42 -19 -37 -46 -129 -40 -135 2 -3 8 4 12 14 3 10
12 23 20 27 7 4 13 13 13 18 0 6 13 29 28 52 16 23 39 67 51 97 13 30 41 92
62 138 37 79 40 82 73 82 18 0 39 6 45 14 9 11 2 14 -35 20 -55 7 -74 20 -74
50 l0 21 -1044 0 c-574 0 -1042 3 -1039 8 6 10 -75 7 -113 -4z" />
    <path d="M6000 3059 c-36 -4 -85 -14 -110 -21 -35 -10 -211 -13 -800 -13 -415
0 -769 3 -786 7 -29 6 -31 5 -43 -38 -8 -27 -18 -42 -25 -38 -6 3 3 -5 19 -20
17 -14 35 -25 41 -26 6 0 18 -8 25 -17 32 -38 93 -73 127 -73 20 0 43 -7 52
-15 13 -12 109 -14 644 -16 468 -1 630 1 635 10 4 6 34 16 66 21 31 5 69 17
83 26 36 23 71 66 72 86 0 9 5 20 11 23 32 20 85 118 62 114 -5 -1 -37 -5 -73
-10z" />
    <path d="M25 1981 c-7 -12 12 -24 25 -16 11 7 4 25 -10 25 -5 0 -11 -4 -15 -9z" />
    <path d="M0 1334 c0 -31 23 -28 28 4 2 15 -2 22 -12 22 -11 0 -16 -9 -16 -26z" />
    <path d="M0 1066 c0 -17 5 -26 16 -26 10 0 14 7 12 22 -5 32 -28 35 -28 4z" />
    <path d="M0 890 c0 -5 5 -10 10 -10 6 0 10 5 10 10 0 6 -4 10 -10 10 -5 0 -10
-4 -10 -10z" />
    <path d="M0 480 l0 -240 25 0 c23 0 25 4 25 40 0 29 -4 40 -15 40 -12 0 -15
21 -17 123 -2 67 -1 157 0 200 2 49 -1 77 -7 77 -8 0 -11 -78 -11 -240z" />
    <path d="M73 600 c0 -25 2 -35 4 -22 2 12 2 32 0 45 -2 12 -4 2 -4 -23z" />
    <path d="M83 280 c0 -25 2 -35 4 -22 2 12 2 32 0 45 -2 12 -4 2 -4 -23z" />
    <path d="M30 80 c0 -47 4 -80 10 -80 6 0 10 33 10 80 0 47 -4 80 -10 80 -6 0
-10 -33 -10 -80z" />
    <path d="M10080 80 l0 -80 80 0 80 0 0 80 0 80 -80 0 -80 0 0 -80z" />
  </g>
</svg>