<svg width="1232" height="1156" viewBox="0 0 1232 1156" fill="none" xmlns="http://www.w3.org/2000/svg">
<path d="M179.13 284.76C169.99 258.41 173.66 243.98 179.13 235.57C186.76 223.86 204.25 214.14 236.52 190.48C238.63 188.94 242.28 186.17 241.81 184.66C240.67 180.9 223.11 182.84 207.82 190.48C185.67 201.56 181.05 202.42 167.89 206.34C144.61 213.27 124.15 207.48 93.05 198.68C80.22 195.05 62.2401 188.91 41.8101 178.19C41.8101 178.19 19.26 167.94 13.11 178.19L45.91 194.58C45.91 194.58 17.2099 182.29 0.819946 190.48L58.21 215.08C58.21 215.08 15.16 202.78 13.12 210.98C41.09 230.93 65.76 237.75 84.85 239.67C114.23 242.64 136.34 234.65 144.29 245.82C150.7 254.84 144.04 270.95 136.09 284.76H179.13Z" fill="url(#paint0_linear_41_31)"/>
<path d="M564.45 477.42C538.88 439.12 507.48 416.17 484.75 402.33C476.54 405.95 463.92 412 449.53 421.09C408.01 447.34 403.44 466.24 368.2 488.12C349.51 499.73 326.36 514.1 296.64 512.14C262.43 509.88 238.99 487.27 229.24 477.87C162.4 413.4 188.55 291.25 191.43 278.61C166.15 277.93 140.87 277.25 115.59 276.56C102.3 299.88 29.02 448.56 82.8 598.35C159.82 812.87 473.14 814.72 567.86 715.96C624.27 657.15 623.94 566.55 564.45 477.42Z" fill="url(#paint1_linear_41_31)"/>
<path d="M1050.67 1117.66C1059.21 1105.53 1074.28 1080.41 1085.85 1047.72C1117.16 959.31 1100.15 879.97 1095.94 857.49C1082.67 786.77 1079.92 660.3 1118.25 416.92C1122.85 387.68 1103.52 360.11 1074.5 354.29C994.01 338.14 887.79 326.37 764.61 337.75C649.42 348.4 554.34 376.07 484.74 402.33C482.92 529.7 493.24 630.72 502.85 698.88C518.26 808.1 533.26 842.97 535.01 936.36C537.65 1076.91 505.54 1096.71 530.02 1140.3C600.36 1265.58 952.58 1256.96 1050.67 1117.66Z" fill="url(#paint2_linear_41_31)"/>
<path d="M815.47 188.32C819.64 227.94 823.81 267.57 827.99 307.19C829.12 317.92 837.72 326.34 848.48 327.22C891.07 330.73 933.65 334.25 976.24 337.76L740.07 410.16L631.8 358.53C664.84 348.3 697.87 338.06 730.9 327.82C739.39 325.19 745.53 317.81 746.56 308.99C749.44 284.52 752.31 260.05 755.19 235.58L815.47 188.32Z" fill="url(#paint3_linear_41_31)"/>
<path d="M838.52 169.89C812.49 229.63 747.34 279.07 713.68 264.4C680.01 249.74 683.6 175.42 709.63 115.67C735.66 55.93 785.52 33.15 819.19 47.82C852.85 62.49 864.56 110.14 838.52 169.89Z" fill="url(#paint4_linear_41_31)"/>
<path d="M794.74 164.47C798.03 166.93 810.85 149.35 817.95 152.49C823.95 155.14 825.57 172.39 818.3 184.23C812.12 194.3 803.88 193.3 801.48 201.16C797.53 214.08 814.74 233.38 821.18 231.11C825.31 229.65 821.89 220.42 825.9 209.88C833.79 189.16 859.7 191.55 880.85 175.7C914.11 150.78 923.17 90.09 903.34 67.37C895.8 58.74 887.35 59.32 877.1 45.42C866.01 30.37 870.86 22.81 862.32 13.13C847.84 -3.29004 816.06 -1.75998 795.98 4.31002C770.71 11.94 768.88 25.28 751.97 24.29C731.94 23.13 729.05 4.10996 705.17 0.619955C703.79 0.409956 681.5 -2.50004 664.71 12C642.9 30.83 648.24 63.61 649 68.26C653.84 97.96 678.08 124.75 704.89 130.77C710.54 132.04 709.4 130.84 766.19 129.47C784.96 129.02 796.3 128.88 800.07 135.48C805.53 145.01 791.44 161.99 794.74 164.47Z" fill="url(#paint5_linear_41_31)"/>
<path opacity="0.3" d="M1031.55 575.91C1001.41 589.58 985.16 606.91 975.86 622.88C940.4 683.8 994.95 743.51 955.78 819.67C928.83 872.08 893.1 863.03 875.46 912.03C852.84 974.89 902.07 1016.34 899.56 1080.71C898.29 1113.16 883.76 1153.7 834.5 1200.02C899.16 1182.19 955.36 1151.27 986.29 1107.35C994.83 1095.22 1009.89 1070.1 1021.47 1037.41C1052.78 949 1035.77 869.66 1031.55 847.18C1021.78 795.11 1017.72 712.82 1031.55 575.91Z" fill="url(#paint6_linear_41_31)"/>
<path d="M1012.9 1171.05C1127.1 1146.44 1172.19 972.08 1195.47 882.26C1213.77 811.65 1290.64 515.05 1138.47 391.25C1111.91 369.64 1084.41 358.21 1063.84 351.78C1041.09 359.12 983.26 381.26 950.72 438.51C932.29 470.92 927.13 505.52 929.27 554.51C934.79 681.3 980.87 714.7 993.31 800.58C1018.63 975.28 867.44 1089.05 917.24 1152.49C943.01 1185.32 1007.04 1172.31 1012.9 1171.05Z" fill="url(#paint7_linear_41_31)"/>
<defs>
<linearGradient id="paint0_linear_41_31" x1="105.71" y1="159.26" x2="400.85" y2="694.19" gradientUnits="userSpaceOnUse">
<stop stop-color="#FFC444"/>
<stop offset="0.9964" stop-color="#F36F56"/>
</linearGradient>
<linearGradient id="paint1_linear_41_31" x1="313.16" y1="513.18" x2="591.89" y2="1102.09" gradientUnits="userSpaceOnUse">
<stop stop-color="#0A2640"/>
<stop offset="1" stop-color="#8FB6D5"/>
</linearGradient>
<linearGradient id="paint2_linear_41_31" x1="682.13" y1="944.91" x2="406.24" y2="1527.81" gradientUnits="userSpaceOnUse">
<stop stop-color="#0A2640"/>
<stop offset="1" stop-color="white"/>
</linearGradient>
<linearGradient id="paint3_linear_41_31" x1="744.45" y1="447.72" x2="1070.37" y2="-97.062" gradientUnits="userSpaceOnUse">
<stop stop-color="#FFC444"/>
<stop offset="0.9964" stop-color="#F36F56"/>
</linearGradient>
<linearGradient id="paint4_linear_41_31" x1="722.22" y1="236.7" x2="972.57" y2="-216.758" gradientUnits="userSpaceOnUse">
<stop stop-color="#FFC444"/>
<stop offset="0.9964" stop-color="#F36F56"/>
</linearGradient>
<linearGradient id="paint5_linear_41_31" x1="867.25" y1="-69.8" x2="725.54" y2="180.55" gradientUnits="userSpaceOnUse">
<stop stop-color="#8FB6D5"/>
<stop offset="0.9964" stop-color="#0A2640"/>
</linearGradient>
<linearGradient id="paint6_linear_41_31" x1="799.1" y1="1349.23" x2="1355.81" y2="-103.071" gradientUnits="userSpaceOnUse">
<stop stop-color="#8FB6D5"/>
<stop offset="0.9964" stop-color="#0A2640"/>
</linearGradient>
<linearGradient id="paint7_linear_41_31" x1="807.93" y1="1042.66" x2="398.19" y2="1549.24" gradientUnits="userSpaceOnUse">
<stop stop-color="#0A2640"/>
<stop offset="1" stop-color="#8FB6D5"/>
</linearGradient>
</defs>
</svg>
