 <svg
            width="44"
            height="56"
            viewBox="0 0 44 56"
            fill="none"
            xmlns="http://www.w3.org/2000/svg"
          >
            <path
              fillRule="evenodd"
              clipRule="evenodd"
              d="M12 4H6C4.408 4 2.882 4.632 1.758 5.758C0.631996 6.882 0 8.408 0 10C0 19.04 0 40.96 0 50C0 51.592 0.631996 53.118 1.758 54.242C2.882 55.368 4.408 56 6 56C13.664 56 30.336 56 38 56C39.592 56 41.118 55.368 42.242 54.242C43.368 53.118 44 51.592 44 50C44 40.96 44 19.04 44 10C44 8.408 43.368 6.882 42.242 5.758C41.118 4.632 39.592 4 38 4H32C32 2.94 31.578 1.922 30.828 1.172C30.078 0.421997 29.06 0 28 0H16C14.94 0 13.922 0.421997 13.172 1.172C12.422 1.922 12 2.94 12 4ZM32 8V20.72C32 22.108 31.282 23.394 30.102 24.124C28.924 24.852 27.452 24.918 26.212 24.298L22 22.194L17.788 24.298C16.548 24.918 15.076 24.852 13.898 24.124C12.718 23.394 12 22.108 12 20.72V8H6C5.47 8 4.96 8.21 4.586 8.586C4.21 8.96 4 9.47 4 10V50C4 50.53 4.21 51.04 4.586 51.414C4.96 51.79 5.47 52 6 52H38C38.53 52 39.04 51.79 39.414 51.414C39.79 51.04 40 50.53 40 50V10C40 9.47 39.79 8.96 39.414 8.586C39.04 8.21 38.53 8 38 8H32ZM14 46H26C27.104 46 28 45.104 28 44C28 42.896 27.104 42 26 42H14C12.896 42 12 42.896 12 44C12 45.104 12.896 46 14 46ZM14 38H30C31.104 38 32 37.104 32 36C32 34.896 31.104 34 30 34H14C12.896 34 12 34.896 12 36C12 37.104 12.896 38 14 38ZM28 4V20.72L22.894 18.168C22.332 17.886 21.668 17.886 21.106 18.168L16 20.72V4H28Z"
              fill="#65E4A3"
            />
          </svg>