<svg xmlns="http://www.w3.org/2000/svg" width="1709" height="1369" viewBox="0 0 1709 1369" fill="none" >
<path d="M1292.27 79.3031C1350.62 144.707 1284.62 252.095 1370.57 300.93C1454.23 348.467 1555.19 268.542 1633.98 309.404C1750.87 370.021 1733.37 652.046 1565.96 828.592C1515.62 881.686 1473.24 902.535 1455.14 962.255C1416.26 1090.49 1559.8 1165.36 1533.5 1228.84C1474.3 1371.78 536.589 1499.2 154.083 1074.35C-24.5627 875.931 -54.6919 587.488 99.6947 366.921C378.668 -31.6402 1161.34 -67.4503 1292.27 79.3031Z" fill="#F4F7FA"/>
<path d="M1595.96 292.774C1612.92 299.672 1634.24 293.338 1643.57 278.628C1652.9 263.917 1646.7 246.399 1629.74 239.501C1628.86 239.144 1627.96 238.843 1627.06 238.556C1630.21 230.416 1632.59 222.212 1634.18 214.005C1635.16 214.003 1636.13 213.99 1637.12 213.919C1656.48 212.538 1671.85 198.294 1671.44 182.104C1671.04 165.915 1655.01 153.911 1635.66 155.292C1634.64 155.365 1633.65 155.492 1632.66 155.633C1630.64 147.611 1627.87 139.773 1624.37 132.188C1625.26 131.771 1626.15 131.34 1627.02 130.854C1643.58 121.564 1648.87 103.226 1638.84 89.8966C1628.81 76.5672 1607.25 73.294 1590.69 82.5843C1589.84 83.0609 1589.04 83.5749 1588.25 84.0968C1581.71 78.3062 1574.54 72.9402 1566.77 68.043C1567.32 67.3265 1567.85 66.6003 1568.34 65.8381C1577.67 51.1273 1589.86 35.0574 1572.75 28.3735C1533.19 12.9104 1516.22 26.1475 1506.89 40.8583C1506.41 41.6204 1505.99 42.3944 1505.59 43.1698C1496.07 41.042 1486.43 39.5703 1476.73 38.7586C1476.79 37.9409 1476.83 37.1212 1476.81 36.2918C1476.41 20.1029 1482.41 11.3419 1462.97 11.0392C1420.6 10.3793 1406.3 25.1067 1406.71 41.2951C1406.73 42.1413 1406.82 42.9683 1406.92 43.7904C1397.21 46.0066 1387.67 48.8404 1378.39 52.2679C1377.95 51.5455 1377.49 50.8281 1376.97 50.1308C1366.94 36.8018 1345.38 33.5287 1328.82 42.8199C1312.25 52.1116 1306.96 70.4484 1316.99 83.7773C1317.5 84.4609 1318.06 85.0992 1318.64 85.7291C1311.3 91.6022 1304.43 97.98 1298.09 104.822C1297.26 104.409 1296.43 104.006 1295.55 103.649C1278.58 96.751 1257.27 103.085 1247.94 117.796C1238.61 132.507 1244.8 150.025 1261.77 156.923C1262.65 157.281 1263.55 157.58 1264.45 157.868C1261.3 166.008 1258.92 174.212 1257.32 182.419C1256.35 182.421 1255.38 182.434 1254.39 182.504C1235.03 183.886 1219.66 198.13 1220.07 214.32C1220.47 230.509 1236.49 242.512 1255.85 241.13C1256.86 241.058 1257.86 240.931 1258.85 240.79C1260.87 248.812 1263.64 256.65 1267.13 264.235C1266.24 264.652 1265.36 265.083 1264.49 265.569C1247.93 274.86 1242.64 293.197 1252.67 306.527C1262.7 319.856 1295.9 326.049 1312.47 316.758C1313.32 316.282 1302.46 312.849 1303.25 312.327C1309.8 318.117 1316.97 323.484 1324.73 328.381C1324.19 329.097 1323.65 329.823 1323.17 330.585C1313.84 345.296 1320.04 362.814 1337 369.712C1353.97 376.61 1375.29 370.276 1384.62 355.565C1385.1 354.803 1385.52 354.029 1385.92 353.254C1395.44 355.381 1405.08 356.853 1414.78 357.665C1414.72 358.483 1414.67 359.302 1414.69 360.132C1415.1 376.321 1431.12 388.325 1450.48 386.943C1469.84 385.561 1485.21 371.317 1484.8 355.128C1484.78 354.282 1484.69 353.455 1484.58 352.633C1494.3 350.417 1503.83 347.583 1513.12 344.156C1513.56 344.878 1514.01 345.595 1514.54 346.292C1524.57 359.621 1546.13 362.895 1562.69 353.604C1579.25 344.313 1584.55 325.976 1574.52 312.646C1574 311.963 1573.44 311.325 1572.87 310.695C1580.21 304.821 1587.07 298.444 1593.42 291.602C1594.24 292.014 1595.08 292.417 1595.96 292.774ZM1384.43 294.923C1322.82 269.878 1300.33 206.276 1334.2 152.863C1368.07 99.4508 1445.47 76.4542 1507.08 101.5C1568.69 126.545 1591.18 190.147 1557.31 243.56C1523.44 296.972 1446.04 319.968 1384.43 294.923Z" fill="#8FB6D5"/>
<path d="M1637.12 213.919C1656.48 212.537 1671.85 198.294 1671.44 182.104C1671.04 165.914 1655.01 153.91 1635.66 155.292C1634.64 155.365 1633.65 155.492 1632.66 155.633C1630.64 147.61 1627.87 139.774 1624.37 132.188C1625.26 131.772 1626.15 131.34 1627.02 130.854C1643.58 121.564 1664.07 99.1136 1652.38 86.6795C1630.2 63.078 1607.25 73.294 1590.69 82.5847C1589.84 83.0614 1589.04 83.5749 1588.25 84.0967C1581.71 78.3062 1574.54 72.9412 1566.77 68.0435C1567.32 67.327 1567.85 66.6007 1568.34 65.8386C1573.42 57.8319 1573.86 49.005 1570.51 41.501C1554.51 64.0455 1538.73 86.6849 1523.23 109.447C1572.38 138.284 1588.03 195.112 1557.3 243.56C1531.27 284.616 1479.52 307.669 1428.99 304.78C1426.74 309.46 1424.53 314.167 1422.11 318.802C1415.56 331.381 1408.12 343.701 1400.67 356.005C1405.35 356.712 1410.06 357.269 1414.78 357.664C1414.72 358.483 1414.67 359.302 1414.69 360.132C1415.1 376.321 1427.37 390.076 1462.46 388.586C1481.87 387.761 1485.21 371.317 1484.8 355.128C1484.78 354.282 1484.69 353.455 1484.59 352.634C1494.3 350.417 1503.83 347.584 1513.12 344.156C1513.56 344.878 1514.01 345.596 1514.54 346.292C1524.57 359.623 1559.37 365.286 1575.93 355.994C1592.49 346.703 1584.55 325.976 1574.52 312.646C1574 311.964 1573.44 311.325 1572.87 310.695C1580.21 304.822 1587.07 298.444 1593.42 291.603C1594.24 292.016 1595.08 292.419 1595.95 292.775C1612.92 299.673 1634.24 293.339 1643.57 278.629C1652.9 263.918 1646.7 246.4 1629.74 239.502C1628.86 239.144 1627.96 238.844 1627.06 238.557C1630.21 230.417 1632.59 222.212 1634.18 214.006C1635.16 214.002 1636.13 213.989 1637.12 213.919Z" fill="#D8DEE8"/>
<path d="M1614.21 294.436C1631.17 301.334 1652.49 295 1661.82 280.289C1671.15 265.578 1664.95 248.061 1647.99 241.162C1647.11 240.805 1646.21 240.504 1645.31 240.217C1648.46 232.077 1650.84 223.873 1652.43 215.666C1653.41 215.664 1654.38 215.651 1655.37 215.581C1674.73 214.198 1690.1 199.955 1689.69 183.765C1689.29 167.576 1673.26 155.572 1653.91 156.954C1652.89 157.026 1651.9 157.154 1650.91 157.295C1648.89 149.272 1646.12 141.435 1642.62 133.85C1643.51 133.433 1644.4 133.001 1645.26 132.516C1661.83 123.225 1667.12 104.887 1657.09 91.5579C1647.06 78.2285 1625.5 74.9548 1608.94 84.246C1608.09 84.7217 1607.29 85.2362 1606.5 85.7581C1599.96 79.9675 1592.79 74.602 1585.02 69.7038C1585.57 68.9878 1586.1 68.2616 1586.59 67.4999C1595.92 52.7892 1589.72 35.2711 1572.75 28.3734C1555.79 21.4753 1534.47 27.8088 1525.14 42.5201C1524.66 43.2822 1524.24 44.0561 1523.84 44.8311C1514.32 42.7033 1504.68 41.2316 1494.98 40.4199C1495.04 39.6017 1495.09 38.7826 1495.06 37.9531C1494.66 21.7642 1478.64 9.76 1459.28 11.1423C1439.92 12.5236 1424.55 26.7681 1424.96 42.9564C1424.98 43.8031 1425.07 44.6296 1425.17 45.4517C1415.46 47.6679 1405.92 50.5017 1396.64 53.9292C1396.2 53.2073 1395.74 52.4894 1395.22 51.7921C1385.19 38.4626 1363.63 35.189 1347.07 44.4807C1330.5 53.7724 1325.21 72.1097 1335.24 85.4386C1335.75 86.1217 1336.32 86.7605 1336.89 87.39C1329.55 93.2636 1322.68 99.6408 1316.34 106.483C1315.51 106.07 1314.68 105.667 1313.8 105.31C1296.84 98.4119 1275.52 104.746 1266.19 119.457C1256.86 134.168 1263.05 151.686 1280.02 158.584C1280.9 158.941 1281.8 159.242 1282.7 159.529C1279.55 167.669 1277.17 175.873 1275.58 184.08C1274.6 184.082 1273.63 184.095 1272.64 184.165C1253.28 185.548 1237.91 199.791 1238.32 215.981C1238.72 232.17 1254.75 244.174 1274.1 242.792C1275.12 242.72 1276.11 242.592 1277.1 242.451C1279.12 250.474 1281.89 258.311 1285.39 265.897C1284.49 266.313 1283.61 266.745 1282.74 267.23C1266.18 276.52 1260.89 294.859 1270.92 308.188C1280.95 321.518 1302.51 324.791 1319.07 315.5C1319.92 315.023 1320.72 314.509 1321.5 313.988C1328.05 319.778 1335.22 325.144 1342.98 330.041C1342.44 330.758 1341.9 331.484 1341.42 332.246C1332.09 346.957 1338.29 364.474 1355.25 371.373C1372.22 378.27 1393.54 371.937 1402.87 357.226C1403.35 356.464 1403.77 355.69 1404.17 354.914C1413.69 357.042 1423.33 358.513 1433.03 359.326C1432.97 360.143 1432.92 360.963 1432.94 361.793C1433.35 377.981 1449.37 389.986 1468.73 388.604C1488.09 387.222 1503.46 372.978 1503.05 356.79C1503.03 355.943 1502.94 355.116 1502.84 354.294C1512.55 352.078 1522.08 349.244 1531.37 345.817C1531.81 346.539 1532.27 347.257 1532.79 347.953C1542.82 361.283 1564.38 364.557 1580.94 355.265C1597.5 345.974 1602.8 327.637 1592.77 314.306C1592.26 313.624 1591.69 312.986 1591.12 312.356C1598.45 306.483 1605.32 300.104 1611.67 293.263C1612.49 293.675 1613.33 294.078 1614.21 294.436ZM1402.68 296.584C1341.07 271.54 1318.58 207.938 1352.45 154.524C1386.32 101.112 1463.72 78.1159 1525.33 103.161C1586.94 128.206 1609.43 191.808 1575.56 245.221C1541.69 298.634 1464.29 321.63 1402.68 296.584Z" fill="#65E4A3"/>
<path d="M1131.45 247.23C1143.36 252.073 1158.33 247.626 1164.88 237.296C1171.43 226.967 1167.08 214.667 1155.17 209.823C1154.55 209.572 1153.92 209.361 1153.29 209.159C1155.5 203.444 1157.17 197.683 1158.29 191.921C1158.97 191.919 1159.66 191.91 1160.36 191.86C1173.95 190.89 1184.74 180.889 1184.45 169.521C1184.17 158.154 1172.92 149.725 1159.32 150.695C1158.61 150.746 1157.92 150.836 1157.22 150.934C1155.8 145.301 1153.86 139.798 1151.4 134.472C1152.03 134.179 1152.65 133.877 1153.26 133.536C1164.89 127.012 1168.6 114.136 1161.56 104.777C1154.52 95.4175 1139.38 93.1193 1127.75 99.6425C1127.15 99.9771 1126.59 100.338 1126.04 100.704C1121.45 96.6386 1116.41 92.8706 1110.96 89.4319C1111.34 88.9287 1111.72 88.4191 1112.06 87.884C1118.61 77.5544 1127.17 66.2706 1115.16 61.5779C1087.38 50.7201 1075.46 60.0148 1068.91 70.3443C1068.57 70.8794 1068.28 71.4229 1068 71.9673C1061.31 70.473 1054.54 69.4401 1047.73 68.8701C1047.78 68.2957 1047.81 67.7202 1047.79 67.1379C1047.51 55.7711 1051.72 49.6194 1038.08 49.4066C1008.32 48.9432 998.284 59.284 998.568 70.6509C998.583 71.245 998.645 71.8258 998.719 72.4027C991.9 73.9589 985.204 75.9486 978.686 78.3554C978.376 77.8483 978.054 77.3446 977.687 76.8547C970.644 67.4957 955.506 65.1975 943.876 71.7212C932.247 78.2454 928.529 91.1208 935.572 100.48C935.933 100.96 936.328 101.408 936.729 101.85C931.578 105.975 926.756 110.453 922.299 115.256C921.723 114.966 921.138 114.684 920.52 114.433C908.606 109.589 893.638 114.037 887.087 124.366C880.537 134.695 884.886 146.995 896.8 151.84C897.417 152.091 898.047 152.301 898.68 152.503C896.466 158.219 894.797 163.979 893.678 169.741C892.995 169.743 892.309 169.752 891.614 169.801C878.02 170.772 867.231 180.773 867.515 192.141C867.8 203.508 879.051 211.937 892.644 210.966C893.353 210.915 894.051 210.827 894.745 210.727C896.166 216.361 898.111 221.864 900.565 227.19C899.94 227.483 899.318 227.785 898.71 228.126C887.081 234.65 883.363 247.526 890.405 256.885C897.448 266.245 920.766 270.593 932.395 264.069C932.991 263.735 925.372 261.324 925.926 260.957C930.519 265.024 935.557 268.791 941.007 272.23C940.625 272.733 940.249 273.242 939.91 273.777C933.36 284.107 937.709 296.407 949.623 301.251C961.537 306.094 976.506 301.647 983.057 291.318C983.396 290.783 983.688 290.239 983.969 289.695C990.653 291.189 997.424 292.222 1004.23 292.792C1004.19 293.367 1004.16 293.942 1004.17 294.525C1004.46 305.892 1015.71 314.32 1029.3 313.35C1042.9 312.38 1053.68 302.379 1053.4 291.011C1053.39 290.417 1053.32 289.836 1053.25 289.259C1060.07 287.703 1066.76 285.714 1073.28 283.307C1073.59 283.814 1073.91 284.318 1074.28 284.807C1081.32 294.166 1096.46 296.466 1108.09 289.941C1119.72 283.417 1123.44 270.542 1116.4 261.182C1116.04 260.703 1115.64 260.255 1115.24 259.812C1120.39 255.688 1125.21 251.211 1129.67 246.407C1130.25 246.696 1130.83 246.979 1131.45 247.23ZM982.924 248.738C939.665 231.153 923.876 186.494 947.658 148.99C971.44 111.486 1025.79 95.3384 1069.05 112.924C1112.3 130.51 1128.09 175.169 1104.31 212.673C1080.53 250.178 1026.18 266.324 982.924 248.738Z" fill="#8FB6D5"/>
<path d="M1160.36 191.86C1173.95 190.89 1184.74 180.889 1184.45 169.521C1184.17 158.154 1172.92 149.725 1159.32 150.696C1158.61 150.746 1157.92 150.836 1157.22 150.935C1155.8 145.302 1153.86 139.799 1151.4 134.473C1152.03 134.18 1152.65 133.877 1153.26 133.536C1164.89 127.013 1179.28 111.25 1171.07 102.519C1155.5 85.947 1139.38 93.1198 1127.75 99.6435C1127.16 99.9781 1126.6 100.339 1126.04 100.705C1121.45 96.6391 1116.41 92.8716 1110.96 89.4329C1111.34 88.9297 1111.72 88.4201 1112.06 87.885C1115.62 82.263 1115.94 76.0651 1113.58 70.7959C1102.35 86.6256 1091.27 102.522 1080.39 118.505C1114.9 138.753 1125.88 178.655 1104.31 212.674C1086.03 241.501 1049.7 257.688 1014.21 255.659C1012.63 258.946 1011.08 262.25 1009.38 265.505C1004.78 274.337 999.56 282.988 994.328 291.627C997.618 292.124 1000.92 292.515 1004.24 292.793C1004.19 293.367 1004.16 293.942 1004.18 294.525C1004.46 305.892 1013.08 315.55 1037.72 314.504C1051.34 313.925 1053.69 302.379 1053.4 291.011C1053.39 290.418 1053.32 289.837 1053.25 289.26C1060.07 287.703 1066.77 285.714 1073.28 283.307C1073.59 283.814 1073.91 284.318 1074.28 284.807C1081.33 294.167 1105.76 298.143 1117.39 291.619C1129.02 285.094 1123.44 270.541 1116.4 261.181C1116.04 260.702 1115.64 260.254 1115.24 259.811C1120.39 255.687 1125.21 251.209 1129.67 246.406C1130.25 246.695 1130.83 246.978 1131.45 247.228C1143.36 252.072 1158.33 247.624 1164.88 237.295C1171.43 226.966 1167.08 214.666 1155.17 209.822C1154.55 209.571 1153.92 209.36 1153.29 209.159C1155.5 203.443 1157.17 197.683 1158.29 191.921C1158.97 191.919 1159.66 191.91 1160.36 191.86Z" fill="#8FB6D5"/>
<path d="M1144.26 248.396C1156.18 253.239 1171.15 248.792 1177.7 238.462C1184.25 228.133 1179.9 215.833 1167.98 210.989C1167.37 210.738 1166.74 210.527 1166.1 210.325C1168.32 204.61 1169.99 198.85 1171.11 193.087C1171.79 193.085 1172.47 193.077 1173.17 193.027C1186.76 192.057 1197.55 182.055 1197.27 170.688C1196.98 159.32 1185.73 150.892 1172.14 151.862C1171.43 151.913 1170.73 152.003 1170.04 152.102C1168.62 146.468 1166.67 140.966 1164.22 135.639C1164.84 135.347 1165.46 135.043 1166.07 134.703C1177.7 128.179 1181.42 115.303 1174.38 105.944C1167.33 96.5846 1152.2 94.2859 1140.57 100.81C1139.97 101.144 1139.41 101.505 1138.86 101.871C1134.26 97.8053 1129.22 94.0378 1123.77 90.5985C1124.16 90.0958 1124.53 89.5857 1124.87 89.0506C1131.42 78.7211 1127.07 66.4211 1115.16 61.5774C1103.24 56.7338 1088.28 61.1809 1081.73 71.5109C1081.39 72.0461 1081.09 72.5895 1080.81 73.1335C1074.13 71.6397 1067.36 70.6063 1060.55 70.0362C1060.59 69.4618 1060.62 68.8869 1060.61 68.3041C1060.32 56.9368 1049.07 48.5079 1035.48 49.4784C1021.89 50.4479 1011.1 60.4502 1011.38 71.8171C1011.4 72.4116 1011.46 72.992 1011.53 73.5693C1004.71 75.1256 998.018 77.1152 991.5 79.5216C991.191 79.015 990.869 78.5108 990.501 78.0213C983.458 68.6618 968.321 66.3636 956.691 72.8873C945.061 79.4115 941.344 92.2869 948.386 101.646C948.747 102.126 949.143 102.575 949.544 103.016C944.394 107.141 939.57 111.619 935.113 116.423C934.537 116.133 933.953 115.85 933.335 115.599C921.421 110.755 906.453 115.203 899.902 125.532C893.352 135.862 897.701 148.162 909.615 153.006C910.232 153.257 910.863 153.468 911.495 153.67C909.282 159.385 907.612 165.146 906.493 170.908C905.81 170.91 905.124 170.919 904.429 170.967C890.835 171.939 880.046 181.94 880.331 193.307C880.616 204.674 891.866 213.103 905.459 212.133C906.169 212.082 906.867 211.993 907.561 211.894C908.981 217.527 910.926 223.03 913.381 228.357C912.756 228.649 912.134 228.952 911.526 229.293C899.896 235.816 896.178 248.693 903.221 258.052C910.264 267.411 925.402 269.71 937.032 263.186C937.628 262.852 938.188 262.491 938.742 262.124C943.336 266.19 948.373 269.958 953.824 273.396C953.441 273.9 953.066 274.409 952.727 274.944C946.177 285.274 950.525 297.574 962.439 302.418C974.354 307.261 989.323 302.814 995.872 292.484C996.212 291.949 996.504 291.405 996.785 290.861C1003.47 292.355 1010.24 293.388 1017.05 293.958C1017.01 294.533 1016.97 295.108 1016.99 295.691C1017.27 307.058 1028.53 315.487 1042.12 314.516C1055.71 313.546 1066.5 303.544 1066.22 292.177C1066.2 291.583 1066.14 291.003 1066.06 290.425C1072.88 288.869 1079.58 286.879 1086.1 284.473C1086.41 284.98 1086.73 285.484 1087.1 285.973C1094.14 295.332 1109.28 297.631 1120.91 291.107C1132.54 284.583 1136.26 271.708 1129.21 262.348C1128.85 261.869 1128.46 261.421 1128.05 260.979C1133.2 256.855 1138.03 252.376 1142.48 247.573C1143.06 247.862 1143.65 248.145 1144.26 248.396ZM995.738 249.905C952.48 232.32 936.691 187.661 960.472 150.156C984.255 112.652 1038.6 96.505 1081.86 114.091C1125.12 131.676 1140.91 176.335 1117.13 213.84C1093.34 251.344 1039 267.49 995.738 249.905Z" fill="#0DBBFC"/>
<path opacity="0.54" d="M111.768 1097.02C79.415 1097.98 52.9921 1078.64 52.9921 1053.9V189.391C52.9921 164.649 79.4144 145.373 111.768 146.417L1550.6 211.09C1577.01 211.954 1605.36 212.689 1605.36 234.93V1012.07C1605.36 1034.31 1583.94 1053.04 1557.52 1053.83L111.768 1097.02Z" fill="url(#paint0_linear_24_7)"/>
<path d="M123.082 1097.29C90.7105 1098.26 64.2722 1078.91 64.2722 1054.16V189.403C64.2722 164.655 90.7099 145.373 123.082 146.416L1569.68 193.065C1596.12 193.918 1617.55 212.709 1617.55 234.956V1012.33C1617.55 1034.58 1596.11 1053.31 1569.68 1054.1L123.082 1097.29Z" fill="url(#paint1_linear_24_7)"/>
<path d="M1569.68 219.854L123.082 176C112.127 175.668 103.236 182.18 103.236 190.546V1053.11C103.236 1061.48 112.127 1068.01 123.082 1067.71L1569.68 1027.32C1578.65 1027.07 1585.91 1020.74 1585.91 1013.18V234.029C1585.91 226.472 1578.65 220.126 1569.68 219.854Z" fill="#0A2640"/>
<g opacity="0.53">
<path d="M621.308 991.529C616.687 991.529 612.94 988.53 612.94 984.83V260.069C612.94 256.37 616.686 253.37 621.308 253.37C625.928 253.37 629.675 256.369 629.675 260.069V984.83C629.674 988.53 625.928 991.529 621.308 991.529Z" fill="white"/>
<path d="M1134.14 979.598C1129.52 979.598 1125.77 976.599 1125.77 972.899V273.229C1125.77 269.529 1129.52 266.529 1134.14 266.529C1138.76 266.529 1142.51 269.529 1142.51 273.229V972.899C1142.51 976.599 1138.76 979.598 1134.14 979.598Z" fill="white"/>
</g>
<path opacity="0.3" d="M697.861 511.463V783.283C697.861 789.632 704.631 794.667 712.332 794.042L997.119 770.935C1006.68 770.16 1013.04 762.702 1010.62 755.089C1002.63 729.874 987.331 676.863 987.261 640.097C987.259 639.13 986.617 638.24 985.573 637.766L702.586 509.204C700.455 508.236 697.861 509.476 697.861 511.463Z" fill="#8FB6D5"/>
<path d="M703.414 506.643L1047.79 480.842C1050.51 480.638 1052.98 482.189 1053.41 484.39C1058.03 507.79 1084.55 630.94 1146.37 710.493C1148.31 712.99 1146.62 716.24 1143.08 716.803L833.221 766.22C831.67 766.467 830.063 766.115 828.851 765.261C816.035 756.224 744.685 698.752 698.95 511.558C698.361 509.149 700.435 506.866 703.414 506.643Z" fill="url(#paint2_linear_24_7)"/>
<path opacity="0.19" d="M1035.35 636.118C996.199 627.672 986.133 594.423 950.375 594.269C915.072 594.117 907.455 626.494 876.037 624.594C840.36 622.435 833.423 579.613 787.341 569.137C771.481 565.532 756.054 566.918 742.833 569.995C768.636 669.295 828.159 739.01 828.159 739.01L1112.27 695.509C1098.67 677.941 1086.8 656.722 1076.7 635.008C1059.6 639.028 1046.02 638.418 1035.35 636.118Z" fill="url(#paint3_linear_24_7)"/>
<path d="M734.738 537.073C730.445 537.073 726.792 534.442 726.412 530.953C726.014 527.267 729.421 524.019 734.026 523.699L1026.49 503.36C1031.06 503.032 1035.14 505.768 1035.55 509.454C1035.95 513.14 1032.54 516.388 1027.93 516.708L735.472 537.047C735.227 537.064 734.981 537.073 734.738 537.073Z" fill="white"/>
<path d="M844.509 552.496C840.26 552.496 836.621 549.916 836.192 546.459C835.735 542.777 839.091 539.496 843.69 539.129L1031.56 524.162C1036.17 523.805 1040.26 526.483 1040.72 530.165C1041.18 533.847 1037.82 537.129 1033.22 537.495L845.348 552.462C845.066 552.485 844.786 552.496 844.509 552.496Z" fill="white"/>
<path d="M1053.54 285.008C1053.22 281.381 1049.6 278.513 1045.13 278.336L723.371 265.581C718.43 265.386 714.305 268.603 714.305 272.651V274.168C714.305 277.983 717.986 281.13 722.644 281.294L1044.39 292.645C1049.65 292.831 1053.91 289.267 1053.54 285.008Z" fill="white"/>
<path d="M907.897 300.873L723.832 295.08C718.623 294.916 714.305 298.318 714.305 302.584V303.468C714.305 307.552 718.274 310.911 723.262 311.046L907.321 316.024C912.716 316.17 917.108 312.557 916.878 308.162C916.671 304.202 912.757 301.026 907.897 300.873Z" fill="white"/>
<g opacity="0.19">
<path d="M778.812 432.794L760.555 432.631L751.316 351.073L769.27 351.391L778.812 432.794Z" fill="url(#paint4_linear_24_7)"/>
<path d="M811.092 433.084L792.962 432.921L788.031 391.92L806.01 392.161L811.092 433.084Z" fill="url(#paint5_linear_24_7)"/>
<path d="M843.146 433.371L825.143 433.21L813.88 344.673L831.561 345.002L843.146 433.371Z" fill="url(#paint6_linear_24_7)"/>
<path d="M874.978 433.657L857.099 433.496L846.993 358.133L864.6 358.435L874.978 433.657Z" fill="url(#paint7_linear_24_7)"/>
<path d="M906.589 433.941L888.835 433.781L885.962 413.399L903.644 413.597L906.589 433.941Z" fill="url(#paint8_linear_24_7)"/>
<path d="M937.982 434.222L920.35 434.064L913.338 386.6L930.802 386.848L937.982 434.222Z" fill="url(#paint9_linear_24_7)"/>
<path d="M969.159 434.502L951.649 434.345L941.163 366.473L958.438 366.757L969.159 434.502Z" fill="url(#paint10_linear_24_7)"/>
<path d="M1000.12 434.779L982.731 434.623L974.748 385.096L991.969 385.345L1000.12 434.779Z" fill="url(#paint11_linear_24_7)"/>
<path d="M1030.87 435.055L1013.6 434.9L1000.83 358.778L1017.84 359.074L1030.87 435.055Z" fill="url(#paint12_linear_24_7)"/>
<path d="M1061.42 435.329L1044.26 435.176L1029.58 350.996L1046.45 351.305L1061.42 435.329Z" fill="url(#paint13_linear_24_7)"/>
</g>
<path d="M1063.76 448.478L762.094 446.215L761.087 437.324L1062.23 439.872L1063.76 448.478Z" fill="white"/>
<path opacity="0.3" d="M176.167 279.3V445.168C176.167 469.945 180.141 494.646 187.987 518.629L190.988 527.803C192.103 531.209 195.82 533.603 200.064 533.644L585.108 537.428C590.385 537.48 594.299 533.5 593.143 529.258C588.48 512.135 578.409 472.506 578.409 449.594L556.097 304.478C556.097 297.406 571.566 282.375 562.962 282.133L185.848 271.535C180.549 271.386 176.167 274.901 176.167 279.3Z" fill="#8FB6D5"/>
<path d="M176.167 246.969V412.836C176.167 437.613 180.141 462.311 187.987 486.287L190.988 495.458C192.103 498.865 195.82 501.255 200.064 501.293L585.108 504.761C590.385 504.808 594.299 500.824 593.143 496.584C588.48 479.465 578.409 439.844 578.409 416.932V262.609C578.409 255.532 571.566 249.72 562.962 249.485L185.848 239.196C180.549 239.052 176.167 242.57 176.167 246.969Z" fill="#8FB6D5"/>
<path d="M542.609 302.772C542.559 302.772 542.51 302.771 542.461 302.77L211.927 294.637C208.79 294.561 206.31 292.389 206.389 289.787C206.468 287.185 209.098 285.121 212.213 285.215L542.751 293.268C545.943 293.345 548.465 295.536 548.385 298.16C548.306 300.745 545.734 302.784 542.609 302.772Z" fill="white"/>
<g opacity="0.19">
<path d="M353.522 345.374L312.611 344.181V320.729L353.522 322.117V345.374Z" fill="url(#paint14_linear_24_7)"/>
<path d="M403.237 346.823L363.163 345.654V322.444L403.237 323.804V346.823Z" fill="url(#paint15_linear_24_7)"/>
<path d="M451.945 348.243L412.681 347.098V324.125L451.945 325.457V348.243Z" fill="url(#paint16_linear_24_7)"/>
<path d="M499.676 349.634L461.199 348.512V325.771L499.676 327.077V349.634Z" fill="url(#paint17_linear_24_7)"/>
<path d="M546.459 350.998L508.745 349.899V327.385L546.459 328.665V350.998Z" fill="url(#paint18_linear_24_7)"/>
<path d="M250.945 377.917L208.281 376.979V353.027L250.945 354.17V377.917Z" fill="url(#paint19_linear_24_7)"/>
<path d="M302.769 379.056L260.996 378.138V354.438L302.769 355.557V379.056Z" fill="url(#paint20_linear_24_7)"/>
<path d="M353.522 380.173L312.611 379.273V355.821L353.522 356.916V380.173Z" fill="url(#paint21_linear_24_7)"/>
<path d="M403.237 381.266L363.163 380.385V357.174L403.237 358.247V381.266Z" fill="url(#paint22_linear_24_7)"/>
<path d="M451.945 382.337L412.681 381.473V358.5L451.945 359.551V382.337Z" fill="url(#paint23_linear_24_7)"/>
<path d="M499.676 383.387L461.199 382.54V359.799L499.676 360.829V383.387Z" fill="url(#paint24_linear_24_7)"/>
<path d="M546.459 384.416L508.745 383.586V361.073L546.459 362.082V384.416Z" fill="url(#paint25_linear_24_7)"/>
<path d="M250.945 413.451L208.281 412.818V388.866L250.945 389.704V413.451Z" fill="url(#paint26_linear_24_7)"/>
<path d="M302.769 414.22L260.996 413.6V389.901L302.769 390.72V414.22Z" fill="url(#paint27_linear_24_7)"/>
<path d="M353.522 414.973L312.611 414.366V390.913L353.522 391.716V414.973Z" fill="url(#paint28_linear_24_7)"/>
<path d="M403.237 415.709L363.163 415.115V391.905L403.237 392.691V415.709Z" fill="url(#paint29_linear_24_7)"/>
<path d="M451.945 416.432L412.681 415.85V392.876L451.945 393.646V416.432Z" fill="url(#paint30_linear_24_7)"/>
<path d="M499.676 417.139L461.199 416.569V393.827L499.676 394.582V417.139Z" fill="url(#paint31_linear_24_7)"/>
<path d="M546.459 417.833L508.745 417.274V394.76L546.459 395.5V417.833Z" fill="url(#paint32_linear_24_7)"/>
<path d="M250.945 448.985L208.281 448.658V424.706L250.945 425.237V448.985Z" fill="url(#paint33_linear_24_7)"/>
<path d="M302.769 449.382L260.996 449.062V425.363L302.769 425.883V449.382Z" fill="url(#paint34_linear_24_7)"/>
<path d="M353.522 449.771L312.611 449.457V426.005L353.522 426.514V449.771Z" fill="#8FB6D5"/>
<path d="M403.237 450.152L363.163 449.845V426.635L403.237 427.134V450.152Z" fill="url(#paint35_linear_24_7)"/>
<path d="M451.945 450.526L412.681 450.225V427.251L451.945 427.741V450.526Z" fill="url(#paint36_linear_24_7)"/>
</g>
<path d="M1194.29 328.129C1195.03 434.385 1201.65 529.75 1246.01 555.441L1598.21 557.062C1574.41 488.387 1544.64 416.271 1550.8 338.793L1194.29 328.129Z" fill="url(#paint37_linear_24_7)"/>
<path d="M1568.72 1210.01L993.227 1368.95L642.911 1319.92C632.002 1318.39 624.042 1310.81 624.042 1301.94V1212.03C624.042 1202.82 633.172 1195.27 644.668 1194.98L1270.94 1179.15L1568.72 1210.01Z" fill="url(#paint38_linear_24_7)"/>
<path d="M645.522 1203.95L980.265 1251.44V1359.12L645.522 1312.6V1203.95Z" fill="url(#paint39_linear_24_7)"/>
<path d="M971.397 1353.88V1253.04C971.397 1244 981.183 1236.23 993.226 1235.69L1564.53 1209.83C1575.11 1209.35 1583.67 1215.81 1583.67 1224.25V1318.45C1583.67 1326.9 1575.11 1334.25 1564.53 1334.88L993.226 1368.95C981.183 1369.67 971.397 1362.92 971.397 1353.88Z" fill="#8FB6D5"/>
<path opacity="0.4" d="M1030.46 1265.52C1030.46 1271.57 1023.95 1276.8 1015.9 1277.2C1007.83 1277.6 1001.28 1273.01 1001.28 1266.94C1001.28 1260.88 1007.83 1255.65 1015.9 1255.27C1023.95 1254.88 1030.46 1259.48 1030.46 1265.52Z" fill="white"/>
<path opacity="0.4" d="M1076.35 1263.29C1076.35 1269.31 1069.9 1274.5 1061.93 1274.9C1053.94 1275.3 1047.46 1270.73 1047.46 1264.69C1047.46 1258.66 1053.94 1253.46 1061.93 1253.08C1069.9 1252.7 1076.35 1257.27 1076.35 1263.29Z" fill="white"/>
<path opacity="0.4" d="M1121.79 1261.08C1121.79 1267.06 1115.4 1272.24 1107.5 1272.63C1099.6 1273.02 1093.18 1268.48 1093.18 1262.47C1093.18 1256.46 1099.6 1251.29 1107.5 1250.91C1115.4 1250.54 1121.79 1255.09 1121.79 1261.08Z" fill="white"/>
<path d="M1553.22 1315.4L1150.22 1338.5V1248.89L1553.22 1229.75V1315.4Z" fill="#65E4A3"/>
<g opacity="0.3">
<path d="M1190.13 1329.91L1177.78 1330.61V1258.35L1190.13 1257.75V1329.91Z" fill="white"/>
<path d="M1212 1328.68L1199.71 1329.37V1257.28L1212 1256.69V1328.68Z" fill="white"/>
<path d="M1233.77 1327.44L1221.54 1328.14V1256.22L1233.77 1255.63V1327.44Z" fill="white"/>
<path d="M1255.44 1326.22L1243.26 1326.91V1255.16L1255.44 1254.57V1326.22Z" fill="white"/>
<path d="M1276.99 1325L1264.88 1325.68V1254.11L1276.99 1253.52V1325Z" fill="white"/>
<path d="M1298.45 1323.78L1286.39 1324.46V1253.07L1298.45 1252.48V1323.78Z" fill="white"/>
<path d="M1319.81 1322.57L1307.81 1323.25V1252.02L1319.81 1251.44V1322.57Z" fill="white"/>
<path d="M1341.06 1321.37L1329.12 1322.05V1250.99L1341.06 1250.4V1321.37Z" fill="white"/>
<path d="M1362.21 1320.17L1350.33 1320.84V1249.95L1362.21 1249.38V1320.17Z" fill="white"/>
<path d="M1383.27 1318.98L1371.44 1319.65V1248.93L1383.27 1248.35V1318.98Z" fill="white"/>
<path d="M1404.22 1317.79L1392.44 1318.46V1247.9L1404.22 1247.33V1317.79Z" fill="white"/>
<path d="M1425.07 1316.61L1413.35 1317.28V1246.89L1425.07 1246.32V1316.61Z" fill="white"/>
<path d="M1445.83 1315.44L1434.17 1316.1V1245.87L1445.83 1245.31V1315.44Z" fill="white"/>
<path d="M1466.49 1314.27L1454.88 1314.92V1244.86L1466.49 1244.3V1314.27Z" fill="white"/>
<path d="M1487.05 1313.1L1475.5 1313.76V1243.86L1487.05 1243.3V1313.1Z" fill="white"/>
<path d="M1507.52 1311.94L1496.02 1312.6V1242.86L1507.52 1242.3V1311.94Z" fill="white"/>
<path d="M1527.89 1310.79L1516.44 1311.44V1241.87L1527.89 1241.31V1310.79Z" fill="white"/>
</g>
<g opacity="0.69">
<path d="M1190.13 1329.91L1177.78 1330.61V1269.13L1190.13 1268.51V1329.91Z" fill="#0A2640"/>
<path d="M1212 1328.68L1199.71 1329.37V1321.99L1212 1321.3V1328.68Z" fill="#0A2640"/>
<path d="M1233.77 1327.44L1221.54 1328.14V1286.25L1233.77 1285.61V1327.44Z" fill="#0A2640"/>
<path d="M1255.44 1326.22L1243.26 1326.91V1308.86L1255.44 1308.2V1326.22Z" fill="#0A2640"/>
<path d="M1276.99 1325L1264.88 1325.68V1279.57L1276.99 1278.95V1325Z" fill="#0A2640"/>
<path d="M1298.45 1323.78L1286.39 1324.46V1292.75L1298.45 1292.1V1323.78Z" fill="#0A2640"/>
<path d="M1319.81 1322.57L1307.81 1323.25V1268.3L1319.81 1267.69V1322.57Z" fill="#0A2640"/>
<path d="M1341.06 1321.37L1329.12 1322.05V1261.58L1341.06 1260.98V1321.37Z" fill="#0A2640"/>
<path d="M1362.21 1320.17L1350.33 1320.84V1290.68L1362.21 1290.05V1320.17Z" fill="#0A2640"/>
<path d="M1383.27 1318.98L1371.44 1319.65V1253.77L1383.27 1253.19V1318.98Z" fill="#0A2640"/>
<path d="M1404.22 1317.79L1392.44 1318.46V1262.48L1404.22 1261.89V1317.79Z" fill="#0A2640"/>
<path d="M1425.07 1316.61L1413.35 1317.28V1302.3L1425.07 1301.66V1316.61Z" fill="#0A2640"/>
<path d="M1445.83 1315.44L1434.17 1316.1V1280.99L1445.83 1280.37V1315.44Z" fill="#0A2640"/>
<path d="M1466.49 1314.27L1454.88 1314.92V1264.44L1466.49 1263.85V1314.27Z" fill="#0A2640"/>
<path d="M1487.05 1313.1L1475.5 1313.76V1277.03L1487.05 1276.42V1313.1Z" fill="#0A2640"/>
<path d="M1507.52 1311.94L1496.02 1312.6V1255.75L1507.52 1255.17V1311.94Z" fill="#0A2640"/>
<path d="M1527.89 1310.79L1516.44 1311.44V1248.4L1527.89 1247.84V1310.79Z" fill="#0A2640"/>
</g>
<path d="M641.881 1184.77L983.289 1229.75L1568.81 1082.36C1570.43 1081.95 1570.19 1080.05 1568.49 1079.93C1517.94 1076.42 1239.06 1057.06 1237.51 1057.07L646.547 1073.03C634.072 1073.16 624.042 1081.29 624.042 1091.28V1167.94C624.042 1176.29 631.592 1183.41 641.881 1184.77Z" fill="url(#paint40_linear_24_7)"/>
<path d="M645.522 1086.16L989.216 1111.42V1222.74C989.216 1222.74 645.522 1183.35 645.522 1177.96C645.522 1172.57 645.522 1086.16 645.522 1086.16Z" fill="url(#paint41_linear_24_7)"/>
<path d="M971.397 1215.72V1114.88C971.397 1105.84 981.183 1098.22 993.226 1097.85L1564.53 1080.49C1575.11 1080.16 1583.67 1086.75 1583.67 1095.19V1189.39C1583.67 1197.84 1575.11 1205.06 1564.53 1205.54L993.226 1231.11C981.183 1231.65 971.397 1224.76 971.397 1215.72Z" fill="#8FB6D5"/>
<path opacity="0.4" d="M1030.46 1128.24C1030.46 1134.29 1023.95 1139.42 1015.9 1139.7C1007.83 1139.98 1001.28 1135.29 1001.28 1129.23C1001.28 1123.16 1007.83 1118.03 1015.9 1117.77C1023.95 1117.51 1030.46 1122.19 1030.46 1128.24Z" fill="white"/>
<path opacity="0.4" d="M1076.35 1126.69C1076.35 1132.71 1069.9 1137.81 1061.93 1138.09C1053.94 1138.37 1047.46 1133.7 1047.46 1127.67C1047.46 1121.63 1053.94 1116.53 1061.93 1116.27C1069.9 1116.01 1076.35 1120.67 1076.35 1126.69Z" fill="white"/>
<path opacity="0.4" d="M1121.79 1125.15C1121.79 1131.14 1115.4 1136.22 1107.5 1136.49C1099.6 1136.77 1093.18 1132.13 1093.18 1126.12C1093.18 1120.11 1099.6 1115.04 1107.5 1114.78C1115.4 1114.52 1121.79 1119.17 1121.79 1125.15Z" fill="white"/>
<path d="M1553.22 1185.89L1150.22 1203V1113.39L1553.22 1100.24V1185.89Z" fill="#65E4A3"/>
<g opacity="0.3">
<path d="M1190.13 1195.01L1177.78 1195.52V1123.26L1190.13 1122.84V1195.01Z" fill="white"/>
<path d="M1212 1194.09L1199.71 1194.61V1122.52L1212 1122.1V1194.09Z" fill="white"/>
<path d="M1233.77 1193.18L1221.54 1193.69V1121.78L1233.77 1121.37V1193.18Z" fill="white"/>
<path d="M1255.44 1192.28L1243.26 1192.79V1121.05L1255.44 1120.63V1192.28Z" fill="white"/>
<path d="M1276.99 1191.38L1264.88 1191.88V1120.31L1276.99 1119.91V1191.38Z" fill="white"/>
<path d="M1298.45 1190.48L1286.39 1190.99V1119.59L1298.45 1119.18V1190.48Z" fill="white"/>
<path d="M1319.81 1189.59L1307.81 1190.09V1118.86L1319.81 1118.46V1189.59Z" fill="white"/>
<path d="M1341.06 1188.7L1329.12 1189.2V1118.14L1341.06 1117.74V1188.7Z" fill="white"/>
<path d="M1362.21 1187.82L1350.33 1188.32V1117.43L1362.21 1117.02V1187.82Z" fill="white"/>
<path d="M1383.27 1186.94L1371.44 1187.43V1116.71L1383.27 1116.31V1186.94Z" fill="white"/>
<path d="M1404.22 1186.07L1392.44 1186.56V1116L1404.22 1115.6V1186.07Z" fill="white"/>
<path d="M1425.07 1185.19L1413.35 1185.68V1115.29L1425.07 1114.9V1185.19Z" fill="white"/>
<path d="M1445.83 1184.33L1434.17 1184.82V1114.59L1445.83 1114.2V1184.33Z" fill="white"/>
<path d="M1466.49 1183.47L1454.88 1183.95V1113.89L1466.49 1113.5V1183.47Z" fill="white"/>
<path d="M1487.05 1182.61L1475.5 1183.09V1113.19L1487.05 1112.8V1182.61Z" fill="white"/>
<path d="M1507.52 1181.75L1496.02 1182.23V1112.5L1507.52 1112.11V1181.75Z" fill="white"/>
<path d="M1527.89 1180.9L1516.44 1181.38V1111.81L1527.89 1111.42V1180.9Z" fill="white"/>
</g>
<g opacity="0.69">
<path d="M1190.13 1195.01L1177.78 1195.52V1134.03L1190.13 1133.6V1195.01Z" fill="#0A2640"/>
<path d="M1212 1194.09L1199.71 1194.61V1187.22L1212 1186.72V1194.09Z" fill="#0A2640"/>
<path d="M1233.77 1193.18L1221.54 1193.69V1151.81L1233.77 1151.35V1193.18Z" fill="#0A2640"/>
<path d="M1255.44 1192.28L1243.26 1192.79V1174.74L1255.44 1174.26V1192.28Z" fill="#0A2640"/>
<path d="M1276.99 1191.38L1264.88 1191.88V1145.78L1276.99 1145.33V1191.38Z" fill="#0A2640"/>
<path d="M1298.45 1190.48L1286.39 1190.99V1159.27L1298.45 1158.81V1190.48Z" fill="#0A2640"/>
<path d="M1319.81 1189.59L1307.81 1190.09V1135.14L1319.81 1134.71V1189.59Z" fill="#0A2640"/>
<path d="M1341.06 1188.7L1329.12 1189.2V1128.74L1341.06 1128.32V1188.7Z" fill="#0A2640"/>
<path d="M1362.21 1187.82L1350.33 1188.32V1158.16L1362.21 1157.7V1187.82Z" fill="#0A2640"/>
<path d="M1383.27 1186.94L1371.44 1187.44V1121.55L1383.27 1121.15V1186.94Z" fill="#0A2640"/>
<path d="M1404.22 1186.07L1392.44 1186.56V1130.58L1404.22 1130.16V1186.07Z" fill="#0A2640"/>
<path d="M1425.07 1185.19L1413.35 1185.68V1170.71L1425.07 1170.24V1185.19Z" fill="#0A2640"/>
<path d="M1445.83 1184.33L1434.17 1184.82V1149.7L1445.83 1149.26V1184.33Z" fill="#0A2640"/>
<path d="M1466.49 1183.47L1454.88 1183.95V1133.46L1466.49 1133.05V1183.47Z" fill="#0A2640"/>
<path d="M1487.05 1182.61L1475.5 1183.09V1146.36L1487.05 1145.92V1182.61Z" fill="#0A2640"/>
<path d="M1507.52 1181.75L1496.02 1182.23V1125.39L1507.52 1124.98V1181.75Z" fill="#0A2640"/>
<path d="M1527.89 1180.9L1516.44 1181.38V1118.34L1527.89 1117.95V1180.9Z" fill="#0A2640"/>
</g>
<path d="M1011.71 549.546C1011.71 549.546 1003.54 546.282 999.214 540.973C994.889 535.664 997.141 527.739 1003.17 522.026C1009.2 516.313 1012.03 502.512 1012.03 502.512C1012.03 502.512 1019.21 515.021 1016.09 520.025C1012.96 525.029 1006.92 535.205 1006.92 535.205L1016.87 543.932L1011.71 549.546Z" fill="url(#paint42_linear_24_7)"/>
<path d="M1012.03 536.624L1003.17 547.044C1003.17 547.044 1025.41 599.566 1096.78 617.671C1168.15 635.775 1195.35 589.203 1195.35 589.203C1195.35 589.203 1091.71 584.246 1012.03 536.624Z" fill="url(#paint43_linear_24_7)"/>
<path opacity="0.3" d="M1019.22 548.979C1012.69 547.437 1006.98 547.093 1003.17 547.044C1003.17 547.044 1025.41 599.566 1096.78 617.671C1168.15 635.775 1195.35 589.203 1195.35 589.203C1181.22 585.545 1159.86 581.224 1133.57 580.772C1095.82 580.122 1086.36 588.11 1068.58 580.569C1048.33 571.978 1045.41 555.162 1019.22 548.979Z" fill="url(#paint44_linear_24_7)"/>
<path d="M871.685 482.183L922.209 589.097C927.42 600.123 946.246 601.43 953.749 591.286L1066.69 438.594C1071.5 432.079 1069.02 423.68 1061.06 419.591L1054.32 416.131C1045.98 411.846 1034.86 413.933 1029.77 420.742L945.28 533.687C942.823 536.972 936.732 536.584 934.954 533.03L904.417 471.978C900.343 463.833 888.051 460.631 878.771 465.297C871.691 468.857 868.726 475.921 871.685 482.183Z" fill="#65E4A3"/>
<path d="M936.889 565.159C936.889 565.159 930.118 566.627 926.907 556.174C924.391 547.979 921.836 545.807 920.3 547.935C918.764 550.064 920.802 554.6 920.802 554.6C920.802 554.6 909.568 551.786 902.251 545.571C894.934 539.357 896.058 546.309 897.294 550.244C898.529 554.178 910.196 563.723 914.483 564.781C918.769 565.841 928.38 573.675 928.38 573.675L936.889 565.159Z" fill="url(#paint45_linear_24_7)"/>
<path d="M1262.02 1054.07C1265.59 1059.91 1264.59 1062.42 1263.7 1063.53C1261.09 1066.76 1254.81 1063.71 1238.41 1065.26C1236.49 1065.44 1232.82 1065.84 1228.24 1064.98C1224.32 1064.24 1219.69 1062.56 1219.89 1061.72C1219.96 1061.42 1220.66 1061.29 1220.92 1061.25C1225.47 1060.47 1253.96 1053.47 1253.96 1053.47L1262.02 1054.07Z" fill="#0A2640"/>
<path d="M1264.2 1041.24L1261.66 1054.29C1261.66 1054.29 1254.66 1058.25 1252.82 1053.44C1251.5 1049.98 1251.53 1040.66 1251.53 1040.66L1264.2 1041.24Z" fill="url(#paint46_linear_24_7)"/>
<path d="M1184.38 1042.14L1191.25 1057.16L1201.24 1055.89L1198.92 1041.98L1184.38 1042.14Z" fill="url(#paint47_linear_24_7)"/>
<path d="M1194.36 1065.44C1199.2 1060.85 1203.51 1061.26 1204.38 1058.11C1205.07 1055.63 1203.17 1052.58 1200.31 1051.43C1196.29 1049.81 1191.42 1052.34 1190.31 1052.91C1182.84 1056.81 1184.87 1062.89 1177.82 1065.53C1176.4 1066.06 1174.16 1066.63 1171.78 1068.4C1170.78 1069.16 1168.28 1071.03 1168.87 1072.32C1169.54 1073.81 1173.99 1073.76 1178.22 1073.71C1183.29 1073.65 1185.82 1073.62 1188.26 1072.4C1191.64 1070.71 1190.63 1068.98 1194.36 1065.44Z" fill="#0A2640"/>
<path d="M1317.65 729.066C1315.8 759.422 1310.37 785.336 1304.2 806.461C1297.55 829.187 1293.94 833.071 1291.63 848.825C1286.62 883.106 1300.31 888.26 1301.81 927.131C1303.47 970.052 1288.32 1003.88 1282.37 1016.78C1277.17 1028.06 1271.8 1037.15 1267.78 1043.46C1262.78 1046.8 1255.31 1045.36 1247.43 1043.93C1245.56 1005 1242.9 968.337 1241.03 929.4C1233.19 870.739 1225.36 812.079 1217.52 753.419C1250.9 745.301 1284.27 737.184 1317.65 729.066Z" fill="url(#paint48_linear_24_7)"/>
<path opacity="0.3" d="M1247.43 1043.93C1245.56 1005 1242.9 968.338 1241.03 929.401C1233.19 870.739 1225.36 812.08 1217.52 753.419C1250.9 745.3 1284.27 737.184 1317.65 729.066C1317.53 731.076 1317.35 733.013 1317.2 734.986C1269.83 766.52 1260.04 791.977 1260.03 809.455C1260.01 830.654 1274.2 841.406 1270.55 872.08C1267.94 894.012 1259.59 897.74 1259.06 917.563C1258.38 943.088 1271.68 957.674 1277.95 972.539C1284.01 986.904 1285.76 1007.14 1272.55 1035.64C1270.84 1038.58 1269.22 1041.21 1267.78 1043.46C1262.78 1046.8 1255.31 1045.36 1247.43 1043.93Z" fill="#8FB6D5"/>
<path d="M1261.03 751.751C1231 781.2 1213.86 808.731 1203.98 828.019C1192.09 851.224 1183.47 868.616 1186.17 891.141C1189.14 915.932 1203.18 924.841 1212.51 945.976C1221.55 966.474 1225.96 998.013 1202.37 1044.95C1196.43 1046.59 1190.49 1048.24 1184.55 1049.88C1180.61 1037.2 1174.23 1018.23 1164.69 995.636C1145.78 950.865 1126.93 921.403 1121.84 912.252C1103.89 880.025 1102.07 822.491 1176.78 711.484C1204.86 724.905 1232.95 738.328 1261.03 751.751Z" fill="url(#paint49_linear_24_7)"/>
<path d="M921.253 573.589C926.352 567.031 931.454 560.473 936.554 553.916C968.582 594.438 997.787 604.663 1018.85 606.311C1057.37 609.325 1110.02 583.218 1175.16 551.79C1184.28 547.392 1202.28 538.524 1223.17 541.613C1228.18 542.354 1244.37 545.411 1263.43 564.731C1299.13 600.902 1277.57 625.842 1307.38 651.795C1328.87 670.509 1342.61 659.746 1373.79 684.298C1396.82 702.437 1395.7 713.328 1416.25 720.821C1441.34 729.97 1458.66 719.429 1472.66 730.437C1483.96 739.315 1486.56 757.066 1477.57 765.797C1466.43 776.617 1444.69 766.589 1409.23 767.229C1349.41 768.309 1340.63 798.115 1270.57 803.765C1247.16 805.653 1218.39 807.623 1198.66 793.463C1188.81 786.397 1185.06 778.143 1175.8 743.177C1157.45 673.907 1157.25 669.087 1149.15 663.582C1121.8 645.002 1082.2 674.488 1030.98 666.014C1001.03 661.06 960.075 641.963 921.253 573.589Z" fill="url(#paint50_linear_24_7)"/>
<path opacity="0.3" d="M1301.89 782.99C1287.43 772.952 1291.58 757.736 1272.09 746.389C1247.26 731.927 1224.68 747.42 1207.23 736.429C1177.39 717.631 1225.25 660.873 1191.04 626.407C1174.7 609.951 1145.14 604.097 1123.72 605.366C1076.16 608.185 1064.41 646.385 1020.68 650.621C1010.31 651.625 997.357 650.796 981.741 645.232C999.717 657.989 1016.61 663.637 1030.98 666.014C1082.2 674.488 1121.8 645.001 1149.15 663.581C1157.25 669.088 1157.45 673.907 1175.8 743.176C1185.06 778.144 1188.81 786.398 1198.66 793.463C1219.58 808.48 1250.61 805.612 1270.57 803.766C1276.49 803.22 1304.85 800.309 1332.29 790.287C1317.77 790.485 1308.27 787.418 1301.89 782.99Z" fill="url(#paint51_linear_24_7)"/>
<path d="M1169.29 515.938C1169.29 515.938 1175.83 528.883 1185.28 537.292C1193.82 544.892 1220.53 543.634 1226.32 544.231C1232.11 544.829 1220.55 554.631 1206.87 559.783C1193.2 564.934 1151.57 573.808 1142.37 571.568C1133.17 569.329 1146.48 565.929 1155.29 560.093C1164.1 554.255 1162.96 536.752 1158 530.064C1153.04 523.375 1169.29 515.938 1169.29 515.938Z" fill="url(#paint52_linear_24_7)"/>
<path d="M1147.24 537.522C1141.93 530.208 1144.4 521.904 1144.96 520.109C1147.3 512.598 1148.15 511.462 1149.91 509.88L1152.39 507.806C1152.39 507.806 1152.55 507.716 1152.71 507.628C1154.44 506.694 1160.85 505.198 1162.24 505.151C1166.66 505.001 1175.52 517.737 1180.48 537.312C1181.3 538.726 1182.11 540.141 1182.92 541.556C1191.53 537.959 1194.45 537.899 1195.35 538.736C1197.3 540.549 1196.49 554.637 1188.95 559.526C1179.49 565.657 1164.12 546.727 1164.03 544.821C1162.11 544.469 1151.15 542.911 1147.24 537.522Z" fill="url(#paint53_linear_24_7)"/>
<path d="M1156.75 527.682C1157.93 525.288 1161.76 526.516 1162.62 529.119C1163.48 531.722 1161.2 535.085 1157.97 535.203C1154.75 535.321 1155.16 530.904 1156.75 527.682Z" fill="url(#paint54_linear_24_7)"/>
<path d="M1557.54 445.084C1518.37 421.778 1450.52 448.107 1440.14 452.134C1410.83 463.511 1401.94 475.188 1372.64 477.984C1346.25 480.503 1344.74 471.862 1319.81 473.284C1269.24 476.168 1253.9 512.967 1220.02 506.184C1211.56 504.488 1201.46 499.977 1178.08 495.478C1172.22 494.35 1163 492.74 1154.6 496.412C1152.7 497.244 1146.34 499.983 1145.41 505.2C1144.66 509.428 1147.87 513.998 1151.61 516.412C1153.84 517.855 1154.72 517.617 1155.73 518.838C1158.58 522.27 1152.53 528.255 1154.52 529.643C1155.94 530.636 1159.39 527.83 1161.47 528.894C1163.75 530.06 1160.84 534.058 1162.92 539.239C1161.26 543.169 1163.47 549.049 1168.57 555.599C1176.26 565.467 1181.66 569.547 1191.56 575.99C1219 593.835 1211.91 613.3 1231.76 618.982C1245.91 623.031 1252.24 613.921 1280.29 610.147C1305.42 606.764 1325.33 610.717 1343.29 614.282C1391.74 623.899 1391.77 639.31 1425.47 644.831C1465.29 651.355 1516.69 638.279 1537 611.932C1551.38 593.272 1537.6 584.26 1554.61 550.833C1568.16 524.205 1580.52 522.82 1583.96 503.834C1587.41 484.8 1580.02 458.454 1557.54 445.084Z" fill="url(#paint55_linear_24_7)"/>
<path d="M316.376 682.353C316.376 682.353 328.316 753.535 234.64 803.722L334.32 822.76C334.32 822.76 366.224 774.995 343.126 695.876L316.376 682.353Z" fill="#8FB6D5"/>
<path d="M333.917 695.876C333.917 695.876 339.288 685.259 338.422 680.479C337.555 675.699 323.344 669.32 313.658 662.733C303.971 656.146 314.021 669.358 316.273 672.364C318.526 675.37 326.428 679.878 325.292 690.098L333.917 695.876Z" fill="url(#paint56_linear_24_7)"/>
<path d="M222.382 750.067C227.277 742.347 229.296 742.392 230.499 738.318C233.239 729.032 226.164 717.239 220.166 717.075C216.298 716.969 215.979 721.783 207.792 729.286C197.763 738.476 191.677 737.271 185.775 745.249C184.394 747.115 178.181 755.515 182.002 761.785C186.878 769.786 206.105 771.053 214.141 764.881C217.952 761.954 216.351 759.577 222.382 750.067Z" fill="#8FB6D5"/>
<path d="M207.969 758.397C207.969 758.397 211.403 773.069 208.959 784.998C206.75 795.78 181.805 806.98 177.024 810.192C172.243 813.403 189.705 816.889 205.724 815.209C221.742 813.531 265.6 802.295 272.265 796.032C278.93 789.769 264.505 792.855 252.373 791.669C240.241 790.483 228.66 774.204 228.306 765.895C227.952 757.586 207.969 758.397 207.969 758.397Z" fill="url(#paint57_linear_24_7)"/>
<path d="M213.192 769.347C213.192 769.347 225.455 773.658 236.316 766.705C246.041 760.478 231.582 741.35 221.689 741.106C218.388 741.024 213.571 742.917 210.728 745.687C209.048 747.323 208.948 748.413 206.138 751.043C203.547 753.469 202.407 753.688 202.015 754.866C201.522 756.339 202.368 758.802 209.027 763.034C205.709 762.544 202.848 763.245 201.74 764.794C201.564 765.04 201.197 765.813 201.306 766.61C201.704 769.497 206.413 770.833 213.192 769.347Z" fill="url(#paint58_linear_24_7)"/>
<path d="M482.683 718.314C482.683 718.314 490.109 717.486 487.794 706.129C485.979 697.228 487.354 694.234 489.978 695.812C492.602 697.39 492.973 702.534 492.973 702.534C492.973 702.534 502.546 695.997 506.487 687.431C510.429 678.864 512.963 686.078 513.807 690.361C514.652 694.644 508.176 707.945 504.516 710.424C500.856 712.904 495.507 723.833 495.507 723.833L482.683 718.314Z" fill="url(#paint59_linear_24_7)"/>
<path d="M208.016 1346.37C204.195 1352.61 205.267 1355.29 206.219 1356.47C209.007 1359.94 215.721 1356.67 233.247 1358.33C235.303 1358.52 239.225 1358.95 244.121 1358.03C248.315 1357.23 253.259 1355.45 253.048 1354.55C252.971 1354.22 252.226 1354.09 251.944 1354.04C247.08 1353.21 216.633 1345.73 216.633 1345.73L208.016 1346.37Z" fill="#0A2640"/>
<path d="M205.68 1332.65L208.399 1346.6C208.399 1346.6 215.882 1350.84 217.849 1345.7C219.263 1342 219.223 1332.03 219.223 1332.03L205.68 1332.65Z" fill="url(#paint60_linear_24_7)"/>
<path d="M291.003 1333.61L283.656 1349.67L272.979 1348.31L275.455 1333.44L291.003 1333.61Z" fill="url(#paint61_linear_24_7)"/>
<path d="M280.331 1358.52C275.162 1353.61 270.549 1354.06 269.618 1350.68C268.886 1348.03 270.914 1344.78 273.973 1343.54C278.273 1341.81 283.481 1344.52 284.658 1345.13C292.651 1349.29 290.474 1355.8 298.01 1358.62C299.527 1359.19 301.93 1359.79 304.464 1361.69C305.54 1362.5 308.205 1364.5 307.581 1365.87C306.859 1367.47 302.107 1367.41 297.589 1367.36C292.168 1367.3 289.458 1367.27 286.851 1365.96C283.238 1364.16 284.32 1362.31 280.331 1358.52Z" fill="#0A2640"/>
<path d="M148.553 998.977C150.528 1031.42 156.33 1059.12 162.931 1081.7C170.031 1105.99 173.9 1110.15 176.363 1126.99C181.72 1163.63 167.083 1169.14 165.481 1210.69C163.711 1256.56 179.906 1292.72 186.261 1306.51C191.817 1318.57 197.555 1328.28 201.855 1335.03C207.201 1338.6 215.186 1337.06 223.608 1335.53C225.612 1293.91 228.449 1254.73 230.452 1213.11C238.827 1150.41 247.203 1087.71 255.577 1025.01C219.902 1016.33 184.228 1007.65 148.553 998.977Z" fill="#65E4A3"/>
<path opacity="0.3" d="M223.608 1335.53C225.612 1293.91 228.449 1254.73 230.452 1213.11C238.827 1150.41 247.203 1087.71 255.577 1025.01C219.902 1016.33 184.228 1007.65 148.553 998.977C148.683 1001.13 148.874 1003.2 149.037 1005.3C199.665 1039.01 210.126 1066.22 210.141 1084.9C210.159 1107.56 194.991 1119.05 198.893 1151.84C201.683 1175.28 210.61 1179.27 211.173 1200.46C211.899 1227.74 197.685 1243.33 190.985 1259.22C184.51 1274.58 182.638 1296.2 196.759 1326.67C198.59 1329.81 200.316 1332.62 201.854 1335.03C207.201 1338.6 215.186 1337.06 223.608 1335.53Z" fill="#65E4A3"/>
<path d="M209.07 1023.23C241.173 1054.7 259.485 1084.13 270.049 1104.75C282.761 1129.55 291.977 1148.14 289.088 1172.22C285.908 1198.72 270.901 1208.24 260.933 1230.83C251.267 1252.74 246.557 1286.45 271.776 1336.61C278.122 1338.37 284.469 1340.13 290.815 1341.89C295.031 1328.34 301.852 1308.06 312.05 1283.91C332.261 1236.05 352.405 1204.56 357.853 1194.78C377.038 1160.33 378.977 1098.84 299.122 980.184C269.105 994.53 239.087 1008.88 209.07 1023.23Z" fill="#65E4A3"/>
<path d="M502.47 721.357C494.022 716.619 485.575 711.883 477.126 707.146C466.847 757.739 443.482 777.594 423.637 786.281C375.762 807.234 333.033 769.895 241.396 785.133C216.144 789.331 172.127 797.153 147.721 825.957C141.305 833.528 139.023 839.26 128.369 893.574C114.751 963.003 114.267 975.12 116.187 990.069C119.701 1017.43 121.83 1034.01 137.585 1048.68C179.419 1087.65 268.337 1067.55 279.485 1064.91C300.079 1060.03 332.087 1052.44 344.804 1030.65C350.788 1020.39 350.152 1011.02 340.956 973.53C322.739 899.262 320.412 894.455 325.496 886.322C342.657 858.877 397.029 874.581 442.961 849.058C469.818 834.135 500.089 801.615 502.47 721.357Z" fill="url(#paint62_linear_24_7)"/>
<path opacity="0.3" d="M237.815 1054.99C246.781 1040.27 234.732 1026.7 247.951 1009C264.798 986.451 295.108 994.109 306.513 977.445C326.019 948.945 249.244 909.199 264.844 863.828C272.293 842.166 298.301 826.486 320.028 820.545C368.264 807.358 399.814 840.975 445.035 830.464C455.753 827.972 468.055 822.81 480.498 812.099C469.5 830.675 455.842 841.9 442.962 849.057C397.03 874.58 342.657 858.876 325.497 886.321C320.412 894.454 322.739 899.261 340.956 973.529C350.153 1011.02 350.789 1020.39 344.804 1030.65C332.088 1052.43 300.08 1060.03 279.485 1064.91C273.383 1066.36 243.973 1073.01 211.745 1072.37C226.123 1067.69 233.861 1061.49 237.815 1054.99Z" fill="url(#paint63_linear_24_7)"/>
<path d="M560.024 643.706C574.392 649.547 592.445 644.184 600.344 631.726C608.243 619.269 602.999 604.435 588.63 598.593C587.886 598.291 587.126 598.037 586.364 597.793C589.034 590.9 591.046 583.953 592.396 577.004C593.22 577.002 594.046 576.991 594.886 576.931C611.279 575.761 624.29 563.699 623.947 549.99C623.604 536.281 610.036 526.116 593.643 527.286C592.786 527.347 591.944 527.455 591.107 527.575C589.395 520.781 587.049 514.144 584.089 507.722C584.843 507.368 585.593 507.003 586.326 506.592C600.351 498.725 604.836 483.196 596.342 471.909C587.848 460.622 569.592 457.85 555.567 465.717C554.848 466.12 554.173 466.556 553.504 466.997C547.965 462.094 541.889 457.55 535.316 453.403C535.778 452.796 536.23 452.182 536.639 451.536C544.539 439.079 554.861 425.471 540.38 419.811C506.88 406.717 492.506 417.926 484.605 430.383C484.197 431.029 483.844 431.684 483.505 432.341C475.444 430.539 467.278 429.293 459.064 428.605C459.116 427.913 459.156 427.219 459.139 426.516C458.795 412.808 463.875 405.389 447.42 405.133C411.536 404.574 399.43 417.045 399.773 430.753C399.79 431.469 399.866 432.17 399.954 432.866C391.731 434.743 383.655 437.142 375.795 440.045C375.421 439.433 375.034 438.826 374.589 438.235C366.096 426.948 347.84 424.176 333.814 432.044C319.789 439.913 315.305 455.44 323.799 466.727C324.234 467.306 324.711 467.846 325.194 468.38C318.984 473.354 313.167 478.754 307.792 484.547C307.097 484.198 306.392 483.857 305.648 483.554C291.279 477.713 273.227 483.076 265.328 495.534C257.428 507.991 262.673 522.825 277.042 528.666C277.786 528.968 278.546 529.223 279.308 529.466C276.639 536.359 274.625 543.306 273.276 550.255C272.452 550.257 271.626 550.268 270.787 550.328C254.393 551.499 241.382 563.559 241.725 577.269C242.069 590.978 255.637 601.142 272.03 599.972C272.886 599.911 273.728 599.803 274.565 599.684C276.277 606.478 278.623 613.114 281.583 619.538C280.829 619.891 280.079 620.256 279.346 620.667C265.321 628.534 260.837 644.063 269.331 655.35C277.825 666.638 305.945 671.881 319.97 664.014C320.689 663.61 311.5 660.703 312.168 660.261C317.708 665.165 323.783 669.709 330.356 673.855C329.895 674.462 329.442 675.077 329.033 675.722C321.134 688.179 326.378 703.014 340.747 708.855C355.116 714.696 373.167 709.332 381.067 696.876C381.477 696.23 381.829 695.575 382.168 694.918C390.228 696.72 398.395 697.966 406.608 698.653C406.557 699.346 406.517 700.04 406.535 700.743C406.878 714.452 420.446 724.617 436.839 723.447C453.232 722.277 466.244 710.214 465.901 696.506C465.882 695.789 465.808 695.089 465.719 694.393C473.942 692.516 482.019 690.117 489.878 687.215C490.252 687.826 490.64 688.434 491.084 689.024C499.578 700.311 517.833 703.083 531.859 695.216C545.884 687.348 550.368 671.82 541.874 660.532C541.439 659.954 540.962 659.414 540.479 658.88C546.69 653.907 552.506 648.506 557.881 642.713C558.575 643.062 559.28 643.403 560.024 643.706ZM380.905 645.525C328.735 624.317 309.694 570.459 338.374 525.229C367.055 480 432.597 460.526 484.766 481.735C536.936 502.943 555.977 556.801 527.297 602.031C498.615 647.26 433.074 666.733 380.905 645.525Z" fill="#0DBBFC"/>
<path d="M594.885 576.931C611.278 575.76 624.289 563.699 623.947 549.99C623.603 536.28 610.035 526.115 593.642 527.286C592.785 527.347 591.943 527.455 591.107 527.574C589.395 520.78 587.048 514.145 584.088 507.721C584.842 507.368 585.592 507.003 586.325 506.591C600.35 498.724 617.702 479.714 607.807 469.184C589.027 449.199 569.591 457.85 555.566 465.717C554.847 466.12 554.171 466.555 553.504 466.997C547.964 462.093 541.888 457.55 535.314 453.403C535.776 452.796 536.229 452.182 536.638 451.536C540.937 444.757 541.316 437.282 538.477 430.927C524.931 450.018 511.566 469.188 498.442 488.463C540.061 512.882 553.31 561.004 527.296 602.029C505.251 636.795 461.43 656.316 418.641 653.87C416.732 657.833 414.858 661.818 412.814 665.743C407.268 676.395 400.966 686.828 394.657 697.246C398.626 697.845 402.61 698.317 406.607 698.652C406.556 699.344 406.516 700.039 406.533 700.741C406.877 714.45 417.271 726.097 446.983 724.835C463.417 724.138 466.242 710.213 465.899 696.504C465.881 695.788 465.807 695.087 465.718 694.391C473.941 692.514 482.017 690.115 489.877 687.212C490.251 687.824 490.639 688.432 491.083 689.021C499.576 700.309 529.043 705.105 543.069 697.237C557.094 689.369 550.367 671.818 541.873 660.53C541.438 659.952 540.961 659.412 540.478 658.877C546.688 653.904 552.505 648.503 557.88 642.71C558.575 643.06 559.281 643.401 560.024 643.702C574.393 649.544 592.445 644.18 600.345 631.723C608.243 619.266 602.999 604.432 588.63 598.591C587.886 598.288 587.126 598.034 586.364 597.791C589.034 590.898 591.047 583.95 592.397 577.001C593.219 577.001 594.046 576.99 594.885 576.931Z" fill="#0DBBFC"/>
<path d="M575.478 645.112C589.847 650.953 607.899 645.59 615.798 633.132C623.697 620.675 618.453 605.842 604.084 600C603.34 599.697 602.58 599.443 601.818 599.2C604.487 592.307 606.5 585.36 607.849 578.41C608.673 578.408 609.499 578.397 610.339 578.337C626.732 577.167 639.743 565.105 639.401 551.396C639.057 537.687 625.49 527.522 609.096 528.692C608.239 528.754 607.398 528.862 606.561 528.981C604.848 522.187 602.502 515.551 599.542 509.128C600.296 508.775 601.046 508.41 601.78 507.998C615.805 500.131 620.289 484.603 611.795 473.315C603.301 462.028 585.046 459.256 571.02 467.123C570.302 467.527 569.625 467.962 568.958 468.404C563.418 463.5 557.342 458.957 550.769 454.81C551.231 454.203 551.683 453.588 552.093 452.943C559.992 440.486 554.748 425.651 540.379 419.81C526.01 413.969 507.959 419.333 500.06 431.79C499.651 432.435 499.298 433.091 498.958 433.747C490.898 431.945 482.731 430.699 474.518 430.012C474.569 429.319 474.609 428.625 474.592 427.922C474.248 414.214 460.681 404.049 444.287 405.219C427.894 406.388 414.883 418.451 415.227 432.159C415.244 432.876 415.32 433.577 415.408 434.272C407.185 436.149 399.109 438.548 391.249 441.451C390.876 440.839 390.488 440.231 390.044 439.641C381.55 428.354 363.295 425.582 349.269 433.45C335.243 441.318 330.76 456.846 339.254 468.133C339.689 468.712 340.166 469.252 340.65 469.786C334.439 474.76 328.622 480.159 323.247 485.953C322.552 485.604 321.847 485.263 321.103 484.96C306.734 479.119 288.683 484.482 280.783 496.939C272.884 509.396 278.128 524.23 292.497 530.072C293.242 530.374 294.001 530.628 294.763 530.872C292.094 537.765 290.081 544.712 288.731 551.661C287.908 551.663 287.081 551.675 286.242 551.734C269.848 552.905 256.837 564.965 257.18 578.675C257.524 592.384 271.092 602.548 287.485 601.378C288.341 601.317 289.183 601.209 290.019 601.09C291.731 607.884 294.078 614.52 297.038 620.943C296.284 621.296 295.533 621.661 294.801 622.073C280.775 629.94 276.292 645.469 284.785 656.756C293.279 668.043 311.534 670.815 325.56 662.948C326.278 662.544 326.954 662.109 327.623 661.668C333.163 666.571 339.239 671.115 345.812 675.262C345.35 675.868 344.897 676.483 344.488 677.129C336.589 689.586 341.833 704.42 356.202 710.261C370.57 716.102 388.623 710.739 396.522 698.282C396.931 697.636 397.283 696.981 397.622 696.324C405.683 698.126 413.85 699.372 422.063 700.06C422.012 700.753 421.971 701.447 421.989 702.149C422.332 715.858 435.9 726.023 452.293 724.853C468.686 723.683 481.698 711.621 481.354 697.913C481.336 697.196 481.261 696.495 481.172 695.8C489.395 693.923 497.472 691.524 505.332 688.621C505.706 689.233 506.093 689.84 506.537 690.43C515.031 701.717 533.287 704.49 547.312 696.622C561.338 688.754 565.822 673.227 557.328 661.939C556.892 661.361 556.416 660.82 555.932 660.287C562.142 655.313 567.959 649.913 573.334 644.119C574.029 644.468 574.734 644.809 575.478 645.112ZM396.359 646.932C344.19 625.724 325.148 571.866 353.829 526.636C382.509 481.407 448.051 461.933 500.22 483.142C552.389 504.35 571.431 558.208 542.751 603.438C514.07 648.667 448.529 668.14 396.359 646.932Z" fill="#65E4A3"/>
<path d="M735.737 1345.92C735.24 1349.36 733.148 1352.14 730.394 1353.01C723.513 1355.17 714.608 1355.99 704.199 1356C693.63 1356.01 684.606 1355.15 677.669 1352.95C675 1352.11 672.951 1349.47 672.382 1346.15L653.927 1238.45H751.245L735.737 1345.92Z" fill="#0A2640"/>
<path d="M751.245 1238.45C751.245 1241.76 729.46 1244.44 702.586 1244.44C675.713 1244.44 653.927 1241.76 653.927 1238.45C653.927 1235.14 675.713 1232.46 702.586 1232.46C729.46 1232.46 751.245 1235.14 751.245 1238.45Z" fill="#8FB6D5"/>
<path d="M706.607 1238.04C710.147 1238.04 713.687 1238.04 717.228 1238.04C790.172 1196.46 803.49 1166.72 800.438 1146.55C797.741 1128.72 782.859 1122.36 760.708 1078.08C747.503 1051.69 740.901 1038.49 741.415 1024.16C742.539 992.836 767.322 988.752 780.763 947.821C786.121 931.506 794.998 904.475 779.25 878.145C762.356 849.898 725.088 830.325 715.738 835.739C709.538 839.329 715.664 853.95 721.74 868.451C737.835 906.86 758.595 915.671 760.708 938.126C762.012 951.998 754.941 957.685 739.145 984.173C707.157 1037.81 689.868 1066.8 696.769 1095.05C706.208 1133.68 752.792 1137.75 755.792 1171.39C758.233 1198.75 729.786 1222.65 706.607 1238.04Z" fill="#0DBBFC"/>
<path d="M654.394 824.222C644.268 823.147 622.205 857.545 622.613 894.503C623.009 930.407 644.246 935.651 650.611 972.661C658.695 1019.67 626.684 1024.25 631.693 1070.21C636.275 1112.25 664.238 1119.19 680.122 1176.84C687.124 1202.25 688.052 1223.99 687.69 1238.64C691.221 1238.64 694.752 1238.64 698.283 1238.64C719.913 1202.69 725.371 1172.83 726.281 1152C728.607 1098.79 702.064 1085.9 711.148 1033.85C717.185 999.262 731.412 990.629 725.525 961.755C721.896 943.955 712.72 928.757 697.527 903.591C683.019 879.56 676.097 874.378 667.259 853.303C659.032 833.688 659.399 824.753 654.394 824.222Z" fill="url(#paint64_linear_24_7)"/>
<path d="M676.339 1237.43C677.653 1224.46 676.917 1206.04 664.988 1188.35C644.908 1158.58 614.273 1162.28 589.318 1135.64C563.071 1107.63 558.845 1062.86 575.697 1030.83C591.895 1000.04 620.971 993.205 621.1 965.391C621.204 942.897 601.836 926.696 604.452 925.403C607.145 924.072 629.072 940.525 637.844 964.78C641.274 974.261 642.685 984.914 637.844 1013.86C630.536 1057.56 622.307 1063.25 622.613 1079.3C623.256 1113.06 664.781 1117.21 686.176 1155.03C695.881 1172.19 703.694 1198.77 692.23 1238.64C686.932 1238.24 681.635 1237.83 676.339 1237.43Z" fill="#0DBBFC"/>
<defs>
<linearGradient id="paint0_linear_24_7" x1="1059.67" y1="545.97" x2="549.494" y2="734.829" gradientUnits="userSpaceOnUse">
<stop stop-color="#D8DEE8"/>
<stop offset="1" stop-color="#A2A7AE"/>
</linearGradient>
<linearGradient id="paint1_linear_24_7" x1="1425.79" y1="-130.733" x2="653.586" y2="1376.21" gradientUnits="userSpaceOnUse">
<stop stop-color="white"/>
<stop offset="0.9964" stop-color="#EBEFF2"/>
</linearGradient>
<linearGradient id="paint2_linear_24_7" x1="923.018" y1="480.824" x2="923.018" y2="766.297" gradientUnits="userSpaceOnUse">
<stop stop-color="#FFC444"/>
<stop offset="1" stop-color="#F36F56"/>
</linearGradient>
<linearGradient id="paint3_linear_24_7" x1="936.93" y1="686.134" x2="989.152" y2="1149.67" gradientUnits="userSpaceOnUse">
<stop stop-color="white"/>
<stop offset="0.9964" stop-color="#EBEFF2"/>
</linearGradient>
<linearGradient id="paint4_linear_24_7" x1="751.316" y1="391.934" x2="778.812" y2="391.934" gradientUnits="userSpaceOnUse">
<stop stop-color="white"/>
<stop offset="0.9964" stop-color="#EBEFF2"/>
</linearGradient>
<linearGradient id="paint5_linear_24_7" x1="788.031" y1="412.502" x2="811.091" y2="412.502" gradientUnits="userSpaceOnUse">
<stop stop-color="white"/>
<stop offset="0.9964" stop-color="#EBEFF2"/>
</linearGradient>
<linearGradient id="paint6_linear_24_7" x1="813.88" y1="389.022" x2="843.146" y2="389.022" gradientUnits="userSpaceOnUse">
<stop stop-color="white"/>
<stop offset="0.9964" stop-color="#EBEFF2"/>
</linearGradient>
<linearGradient id="paint7_linear_24_7" x1="846.993" y1="395.895" x2="874.978" y2="395.895" gradientUnits="userSpaceOnUse">
<stop stop-color="white"/>
<stop offset="0.9964" stop-color="#EBEFF2"/>
</linearGradient>
<linearGradient id="paint8_linear_24_7" x1="885.962" y1="423.67" x2="906.589" y2="423.67" gradientUnits="userSpaceOnUse">
<stop stop-color="white"/>
<stop offset="0.9964" stop-color="#EBEFF2"/>
</linearGradient>
<linearGradient id="paint9_linear_24_7" x1="913.338" y1="410.411" x2="937.982" y2="410.411" gradientUnits="userSpaceOnUse">
<stop stop-color="white"/>
<stop offset="0.9964" stop-color="#EBEFF2"/>
</linearGradient>
<linearGradient id="paint10_linear_24_7" x1="941.163" y1="400.487" x2="969.159" y2="400.487" gradientUnits="userSpaceOnUse">
<stop stop-color="white"/>
<stop offset="0.9964" stop-color="#EBEFF2"/>
</linearGradient>
<linearGradient id="paint11_linear_24_7" x1="974.748" y1="409.938" x2="1000.12" y2="409.938" gradientUnits="userSpaceOnUse">
<stop stop-color="white"/>
<stop offset="0.9964" stop-color="#EBEFF2"/>
</linearGradient>
<linearGradient id="paint12_linear_24_7" x1="1000.83" y1="396.916" x2="1030.87" y2="396.916" gradientUnits="userSpaceOnUse">
<stop stop-color="white"/>
<stop offset="0.9964" stop-color="#EBEFF2"/>
</linearGradient>
<linearGradient id="paint13_linear_24_7" x1="1029.58" y1="393.163" x2="1061.42" y2="393.163" gradientUnits="userSpaceOnUse">
<stop stop-color="white"/>
<stop offset="0.9964" stop-color="#EBEFF2"/>
</linearGradient>
<linearGradient id="paint14_linear_24_7" x1="312.612" y1="333.051" x2="353.522" y2="333.051" gradientUnits="userSpaceOnUse">
<stop stop-color="white"/>
<stop offset="0.9964" stop-color="#EBEFF2"/>
</linearGradient>
<linearGradient id="paint15_linear_24_7" x1="363.162" y1="334.633" x2="403.237" y2="334.633" gradientUnits="userSpaceOnUse">
<stop stop-color="white"/>
<stop offset="0.9964" stop-color="#EBEFF2"/>
</linearGradient>
<linearGradient id="paint16_linear_24_7" x1="412.681" y1="336.184" x2="451.945" y2="336.184" gradientUnits="userSpaceOnUse">
<stop stop-color="white"/>
<stop offset="0.9964" stop-color="#EBEFF2"/>
</linearGradient>
<linearGradient id="paint17_linear_24_7" x1="461.199" y1="337.703" x2="499.676" y2="337.703" gradientUnits="userSpaceOnUse">
<stop stop-color="white"/>
<stop offset="0.9964" stop-color="#EBEFF2"/>
</linearGradient>
<linearGradient id="paint18_linear_24_7" x1="508.745" y1="339.191" x2="546.46" y2="339.191" gradientUnits="userSpaceOnUse">
<stop stop-color="white"/>
<stop offset="0.9964" stop-color="#EBEFF2"/>
</linearGradient>
<linearGradient id="paint19_linear_24_7" x1="208.281" y1="365.472" x2="250.945" y2="365.472" gradientUnits="userSpaceOnUse">
<stop stop-color="white"/>
<stop offset="0.9964" stop-color="#EBEFF2"/>
</linearGradient>
<linearGradient id="paint20_linear_24_7" x1="260.996" y1="366.747" x2="302.769" y2="366.747" gradientUnits="userSpaceOnUse">
<stop stop-color="white"/>
<stop offset="0.9964" stop-color="#EBEFF2"/>
</linearGradient>
<linearGradient id="paint21_linear_24_7" x1="312.612" y1="367.997" x2="353.522" y2="367.997" gradientUnits="userSpaceOnUse">
<stop stop-color="white"/>
<stop offset="0.9964" stop-color="#EBEFF2"/>
</linearGradient>
<linearGradient id="paint22_linear_24_7" x1="363.162" y1="369.22" x2="403.237" y2="369.22" gradientUnits="userSpaceOnUse">
<stop stop-color="white"/>
<stop offset="0.9964" stop-color="#EBEFF2"/>
</linearGradient>
<linearGradient id="paint23_linear_24_7" x1="412.681" y1="370.418" x2="451.945" y2="370.418" gradientUnits="userSpaceOnUse">
<stop stop-color="white"/>
<stop offset="0.9964" stop-color="#EBEFF2"/>
</linearGradient>
<linearGradient id="paint24_linear_24_7" x1="461.199" y1="371.593" x2="499.676" y2="371.593" gradientUnits="userSpaceOnUse">
<stop stop-color="white"/>
<stop offset="0.9964" stop-color="#EBEFF2"/>
</linearGradient>
<linearGradient id="paint25_linear_24_7" x1="508.745" y1="372.744" x2="546.46" y2="372.744" gradientUnits="userSpaceOnUse">
<stop stop-color="white"/>
<stop offset="0.9964" stop-color="#EBEFF2"/>
</linearGradient>
<linearGradient id="paint26_linear_24_7" x1="208.281" y1="401.159" x2="250.945" y2="401.159" gradientUnits="userSpaceOnUse">
<stop stop-color="white"/>
<stop offset="0.9964" stop-color="#EBEFF2"/>
</linearGradient>
<linearGradient id="paint27_linear_24_7" x1="260.996" y1="402.06" x2="302.769" y2="402.06" gradientUnits="userSpaceOnUse">
<stop stop-color="white"/>
<stop offset="0.9964" stop-color="#EBEFF2"/>
</linearGradient>
<linearGradient id="paint28_linear_24_7" x1="312.612" y1="402.943" x2="353.522" y2="402.943" gradientUnits="userSpaceOnUse">
<stop stop-color="white"/>
<stop offset="0.9964" stop-color="#EBEFF2"/>
</linearGradient>
<linearGradient id="paint29_linear_24_7" x1="363.162" y1="403.807" x2="403.237" y2="403.807" gradientUnits="userSpaceOnUse">
<stop stop-color="white"/>
<stop offset="0.9964" stop-color="#EBEFF2"/>
</linearGradient>
<linearGradient id="paint30_linear_24_7" x1="412.681" y1="404.654" x2="451.945" y2="404.654" gradientUnits="userSpaceOnUse">
<stop stop-color="white"/>
<stop offset="0.9964" stop-color="#EBEFF2"/>
</linearGradient>
<linearGradient id="paint31_linear_24_7" x1="461.199" y1="405.483" x2="499.676" y2="405.483" gradientUnits="userSpaceOnUse">
<stop stop-color="white"/>
<stop offset="0.9964" stop-color="#EBEFF2"/>
</linearGradient>
<linearGradient id="paint32_linear_24_7" x1="508.745" y1="406.297" x2="546.46" y2="406.297" gradientUnits="userSpaceOnUse">
<stop stop-color="white"/>
<stop offset="0.9964" stop-color="#EBEFF2"/>
</linearGradient>
<linearGradient id="paint33_linear_24_7" x1="208.281" y1="436.845" x2="250.945" y2="436.845" gradientUnits="userSpaceOnUse">
<stop stop-color="white"/>
<stop offset="0.9964" stop-color="#EBEFF2"/>
</linearGradient>
<linearGradient id="paint34_linear_24_7" x1="260.996" y1="437.372" x2="302.769" y2="437.372" gradientUnits="userSpaceOnUse">
<stop stop-color="white"/>
<stop offset="0.9964" stop-color="#EBEFF2"/>
</linearGradient>
<linearGradient id="paint35_linear_24_7" x1="363.162" y1="438.394" x2="403.237" y2="438.394" gradientUnits="userSpaceOnUse">
<stop stop-color="white"/>
<stop offset="0.9964" stop-color="#EBEFF2"/>
</linearGradient>
<linearGradient id="paint36_linear_24_7" x1="412.681" y1="438.889" x2="451.945" y2="438.889" gradientUnits="userSpaceOnUse">
<stop stop-color="white"/>
<stop offset="0.9964" stop-color="#EBEFF2"/>
</linearGradient>
<linearGradient id="paint37_linear_24_7" x1="1447.15" y1="425.201" x2="1674.3" y2="304.111" gradientUnits="userSpaceOnUse">
<stop offset="0.0036" stop-color="#0DBBFC"/>
<stop offset="0.583333" stop-color="#8FB6D5"/>
<stop offset="1" stop-color="#8FB6D5"/>
</linearGradient>
<linearGradient id="paint38_linear_24_7" x1="1096.38" y1="1179.15" x2="1096.38" y2="1368.95" gradientUnits="userSpaceOnUse">
<stop offset="0.125" stop-color="#0A2640"/>
<stop offset="1" stop-color="#8FB6D5"/>
</linearGradient>
<linearGradient id="paint39_linear_24_7" x1="812.894" y1="1203.95" x2="812.894" y2="1359.12" gradientUnits="userSpaceOnUse">
<stop stop-color="#0A2640"/>
<stop offset="1" stop-color="#8FB6D5" stop-opacity="0"/>
</linearGradient>
<linearGradient id="paint40_linear_24_7" x1="1096.97" y1="1057.07" x2="1096.97" y2="1229.75" gradientUnits="userSpaceOnUse">
<stop offset="0.161458" stop-color="#0A2640"/>
<stop offset="1" stop-color="#8FB6D5"/>
</linearGradient>
<linearGradient id="paint41_linear_24_7" x1="817.369" y1="1086.16" x2="817.369" y2="1222.74" gradientUnits="userSpaceOnUse">
<stop stop-color="#0A2640"/>
<stop offset="1" stop-color="#8FB6D5"/>
</linearGradient>
<linearGradient id="paint42_linear_24_7" x1="996.97" y1="526.029" x2="1016.87" y2="526.029" gradientUnits="userSpaceOnUse">
<stop offset="0.0036" stop-color="#F36F56"/>
<stop offset="1" stop-color="#FFC444"/>
</linearGradient>
<linearGradient id="paint43_linear_24_7" x1="1003.17" y1="579.237" x2="1195.35" y2="579.237" gradientUnits="userSpaceOnUse">
<stop stop-color="#0A2640"/>
<stop offset="1" stop-color="#8FB6D5"/>
</linearGradient>
<linearGradient id="paint44_linear_24_7" x1="1003.17" y1="584.447" x2="1195.35" y2="584.447" gradientUnits="userSpaceOnUse">
<stop offset="0.0036" stop-color="#8FB6D5"/>
<stop offset="0.489583" stop-color="#0A2640"/>
</linearGradient>
<linearGradient id="paint45_linear_24_7" x1="982.978" y1="617.198" x2="914.336" y2="518.217" gradientUnits="userSpaceOnUse">
<stop offset="0.0036" stop-color="#F36F56"/>
<stop offset="1" stop-color="#FFC444"/>
</linearGradient>
<linearGradient id="paint46_linear_24_7" x1="1258.55" y1="1080.85" x2="1256.91" y2="932.707" gradientUnits="userSpaceOnUse">
<stop stop-color="#FFC444"/>
<stop offset="0.9964" stop-color="#F36F56"/>
</linearGradient>
<linearGradient id="paint47_linear_24_7" x1="1193.28" y1="1076.04" x2="1191.64" y2="927.89" gradientUnits="userSpaceOnUse">
<stop stop-color="#FFC444"/>
<stop offset="0.9964" stop-color="#F36F56"/>
</linearGradient>
<linearGradient id="paint48_linear_24_7" x1="1267.58" y1="729.066" x2="1267.58" y2="1045.5" gradientUnits="userSpaceOnUse">
<stop stop-color="#8FB6D5"/>
<stop offset="1" stop-color="#0DBBFC"/>
</linearGradient>
<linearGradient id="paint49_linear_24_7" x1="1186.26" y1="711.484" x2="1186.26" y2="1049.88" gradientUnits="userSpaceOnUse">
<stop stop-color="#8FB6D5"/>
<stop offset="1" stop-color="#0DBBFC"/>
</linearGradient>
<linearGradient id="paint50_linear_24_7" x1="921.253" y1="673.028" x2="1482.98" y2="673.028" gradientUnits="userSpaceOnUse">
<stop stop-color="#0A2640"/>
<stop offset="1" stop-color="#8FB6D5"/>
</linearGradient>
<linearGradient id="paint51_linear_24_7" x1="1072.05" y1="616.733" x2="1216.25" y2="884.191" gradientUnits="userSpaceOnUse">
<stop stop-color="#0A2640"/>
<stop offset="1" stop-color="#8FB6D5"/>
</linearGradient>
<linearGradient id="paint52_linear_24_7" x1="1106.22" y1="454.948" x2="1177.67" y2="602.777" gradientUnits="userSpaceOnUse">
<stop offset="0.0036" stop-color="#F36F56"/>
<stop offset="1" stop-color="#FFC444"/>
</linearGradient>
<linearGradient id="paint53_linear_24_7" x1="1167.87" y1="517.686" x2="1172.26" y2="571.535" gradientUnits="userSpaceOnUse">
<stop stop-color="#FFC444"/>
<stop offset="0.9964" stop-color="#F36F56"/>
</linearGradient>
<linearGradient id="paint54_linear_24_7" x1="1153.45" y1="518.435" x2="1167.42" y2="567.76" gradientUnits="userSpaceOnUse">
<stop stop-color="#FFC444"/>
<stop offset="0.9964" stop-color="#F36F56"/>
</linearGradient>
<linearGradient id="paint55_linear_24_7" x1="1836.17" y1="342.142" x2="1228.07" y2="635.263" gradientUnits="userSpaceOnUse">
<stop stop-color="#AB316D"/>
<stop offset="1" stop-color="#0A2640"/>
</linearGradient>
<linearGradient id="paint56_linear_24_7" x1="323.805" y1="674.209" x2="321.153" y2="722.383" gradientUnits="userSpaceOnUse">
<stop offset="0.0036" stop-color="#F36F56"/>
<stop offset="1" stop-color="#FFC444"/>
</linearGradient>
<linearGradient id="paint57_linear_24_7" x1="220.816" y1="674.384" x2="224.384" y2="841.246" gradientUnits="userSpaceOnUse">
<stop offset="0.0036" stop-color="#F36F56"/>
<stop offset="1" stop-color="#FFC444"/>
</linearGradient>
<linearGradient id="paint58_linear_24_7" x1="166.507" y1="731.985" x2="226.176" y2="777.71" gradientUnits="userSpaceOnUse">
<stop offset="0.0036" stop-color="#F36F56"/>
<stop offset="1" stop-color="#FFC444"/>
</linearGradient>
<linearGradient id="paint59_linear_24_7" x1="491.261" y1="719.062" x2="483.553" y2="749.804" gradientUnits="userSpaceOnUse">
<stop offset="0.0036" stop-color="#F36F56"/>
<stop offset="1" stop-color="#FFC444"/>
</linearGradient>
<linearGradient id="paint60_linear_24_7" x1="211.722" y1="1374.99" x2="213.472" y2="1216.65" gradientUnits="userSpaceOnUse">
<stop stop-color="#FFC444"/>
<stop offset="0.9964" stop-color="#F36F56"/>
</linearGradient>
<linearGradient id="paint61_linear_24_7" x1="281.493" y1="1369.85" x2="283.243" y2="1211.5" gradientUnits="userSpaceOnUse">
<stop stop-color="#FFC444"/>
<stop offset="0.9964" stop-color="#F36F56"/>
</linearGradient>
<linearGradient id="paint62_linear_24_7" x1="318.225" y1="805.385" x2="271.42" y2="1109.84" gradientUnits="userSpaceOnUse">
<stop offset="0.171875" stop-color="#8FB6D5"/>
<stop offset="1" stop-color="#0A2640"/>
</linearGradient>
<linearGradient id="paint63_linear_24_7" x1="376.778" y1="814.386" x2="329.974" y2="1118.84" gradientUnits="userSpaceOnUse">
<stop offset="0.203125" stop-color="#8FB6D5"/>
<stop offset="1" stop-color="#0A2640"/>
</linearGradient>
<linearGradient id="paint64_linear_24_7" x1="674.569" y1="237.599" x2="674.569" y2="1445.25" gradientUnits="userSpaceOnUse">
<stop stop-color="#0DBBFC"/>
<stop offset="1" stop-color="#8FB6D5"/>
</linearGradient>
</defs>
</svg>