<svg
            width="49"
            height="60"
            viewBox="0 0 49 60"
            fill="none"
            xmlns="http://www.w3.org/2000/svg"
          >
            <path
              d="M43.8883 13.7674L43.8884 13.7675L46.2324 16.1115C48.3752 18.2543 48.3752 21.7457 46.2324 23.8884L37.0604 33.0604L25.0604 45.0604L25.0595 45.0614C24.7801 45.3423 24.3999 45.5 24 45.5H16C15.1721 45.5 14.5 44.8279 14.5 44V36C14.5 35.6018 14.6579 35.2198 14.9386 34.9405L14.9396 34.9395L26.9396 22.9395L36.1116 13.7675L36.1117 13.7674C38.1744 11.7029 41.8256 11.7029 43.8883 13.7674ZM17.5 42V42.5H18H23.172H24.3791L23.5256 41.6464L18.3536 36.4744L17.5 35.6209V36.828V42ZM25.6464 39.5255L26 39.8791L26.3536 39.5255L34.9396 30.9395L39.5256 26.3535L39.8791 26L39.5256 25.6464L34.3536 20.4744L34 20.1209L33.6464 20.4744L29.0604 25.0604L20.4744 33.6464L20.1209 34L20.4744 34.3535L25.6464 39.5255ZM41.6464 23.5255L42 23.8791L42.3536 23.5255L44.1116 21.7675C45.0868 20.7923 45.0868 19.2077 44.1116 18.2324L41.7676 15.8884C40.8223 14.9432 39.1777 14.9432 38.2324 15.8884L36.4744 17.6464L36.1209 18L36.4744 18.3535L41.6464 23.5255Z"
              fill="#65E4A3"
              stroke="#65E4A3"
            />
            <path
              d="M38 38C36.894 38 36 38.896 36 40V54C36 55.102 35.104 56 34 56H6C4.898 56 4 55.102 4 54V6C4 4.898 4.898 4 6 4H34C35.104 4 36 4.898 36 6C36 7.104 36.894 8 38 8C39.106 8 40 7.104 40 6C40 2.692 37.308 0 34 0H6C2.692 0 0 2.692 0 6V54C0 57.308 2.692 60 6 60H34C37.308 60 40 57.308 40 54V40C40 38.896 39.106 38 38 38Z"
              fill="#65E4A3"
            />
            <path
              d="M14 6C12.896 6 12 6.896 12 8C12 9.104 12.896 10 14 10H26C27.106 10 28 9.104 28 8C28 6.896 27.106 6 26 6H14ZM22 54C23.106 54 24 53.104 24 52C24 50.896 23.106 50 22 50H18C16.896 50 16 50.896 16 52C16 53.104 16.896 54 18 54H22Z"
              fill="#65E4A3"
            />
          </svg>