<svg
            width="64"
            height="64"
            viewBox="0 0 64 64"
            fill="none"
            xmlns="http://www.w3.org/2000/svg"
          >
            <rect width="64" height="64" rx="24" fill="#65E4A3" />
            <path
              d="M18.6668 30.6667H26.6668C27.0204 30.6667 27.3596 30.5262 27.6096 30.2761C27.8597 30.0261 28.0001 29.687 28.0001 29.3333V21.3333C28.0001 20.9797 27.8597 20.6406 27.6096 20.3905C27.3596 20.1405 27.0204 20 26.6668 20H18.6668C18.3132 20 17.974 20.1405 17.724 20.3905C17.4739 20.6406 17.3335 20.9797 17.3335 21.3333V29.3333C17.3335 29.687 17.4739 30.0261 17.724 30.2761C17.974 30.5262 18.3132 30.6667 18.6668 30.6667ZM20.0001 22.6667H25.3335V28H20.0001V22.6667ZM45.3335 24H32.0001C31.6465 24 31.3074 24.1405 31.0573 24.3905C30.8073 24.6406 30.6668 24.9797 30.6668 25.3333C30.6668 25.687 30.8073 26.0261 31.0573 26.2761C31.3074 26.5262 31.6465 26.6667 32.0001 26.6667H45.3335C45.6871 26.6667 46.0262 26.5262 46.2763 26.2761C46.5263 26.0261 46.6668 25.687 46.6668 25.3333C46.6668 24.9797 46.5263 24.6406 46.2763 24.3905C46.0262 24.1405 45.6871 24 45.3335 24ZM45.3335 37.3333H32.0001C31.6465 37.3333 31.3074 37.4738 31.0573 37.7239C30.8073 37.9739 30.6668 38.313 30.6668 38.6667C30.6668 39.0203 30.8073 39.3594 31.0573 39.6095C31.3074 39.8595 31.6465 40 32.0001 40H45.3335C45.6871 40 46.0262 39.8595 46.2763 39.6095C46.5263 39.3594 46.6668 39.0203 46.6668 38.6667C46.6668 38.313 46.5263 37.9739 46.2763 37.7239C46.0262 37.4738 45.6871 37.3333 45.3335 37.3333ZM21.2561 42.6667H21.2721C21.6217 42.6655 21.9569 42.5272 22.2055 42.2813L27.6001 36.948C27.7385 36.8289 27.851 36.6826 27.9306 36.5182C28.0101 36.3538 28.055 36.1749 28.0626 35.9924C28.0701 35.81 28.0401 35.6279 27.9744 35.4575C27.9087 35.2872 27.8086 35.1321 27.6805 35.002C27.5524 34.8718 27.3989 34.7694 27.2296 34.701C27.0603 34.6327 26.8787 34.5998 26.6961 34.6045C26.5136 34.6092 26.3339 34.6513 26.1683 34.7283C26.0027 34.8053 25.8547 34.9155 25.7335 35.052L21.2948 39.4373L19.6255 37.704C19.5037 37.5781 19.3583 37.4774 19.1976 37.4077C19.0369 37.338 18.8641 37.3006 18.689 37.2977C18.3353 37.2919 17.9937 37.4267 17.7395 37.6727C17.4852 37.9186 17.3391 38.2555 17.3332 38.6092C17.3273 38.9629 17.4622 39.3044 17.7081 39.5587L20.3135 42.2667C20.4365 42.3922 20.5831 42.4921 20.7449 42.5608C20.9066 42.6294 21.0804 42.6654 21.2561 42.6667Z"
              fill="#F4F3F8"
            />
          </svg>