<svg xmlns="http://www.w3.org/2000/svg" width="1001" height="1001" viewBox="0 0 1001 1001" fill="none">
<path d="M504.456 1000.13C778.311 1000.13 1000.31 777.275 1000.31 502.37C1000.31 227.466 778.311 4.61157 504.456 4.61157C230.6 4.61157 8.59631 227.466 8.59631 502.37C8.59631 777.275 230.6 1000.13 504.456 1000.13Z" fill="#F4F7FA"/>
<path d="M676.23 264.52C677.884 215.755 719.239 174.703 768.327 172.836C817.118 170.981 855.128 208.584 853.491 256.815C851.855 305.046 811.178 346.068 762.37 348.455C713.263 350.857 674.576 313.285 676.23 264.52Z" fill="#8FB6D5"/>
<path d="M576.259 256.618L575.454 280.348C575.218 287.311 580.781 292.696 587.875 292.379L600.767 291.802C601.999 303.082 604.467 313.915 608.052 324.172L597.163 330.729C590.908 334.494 588.544 342.295 591.884 348.149L603.259 368.085C606.592 373.929 622.691 377.403 628.929 373.628L630.894 365.592C637.789 374.24 645.682 382.038 654.416 388.845L648.457 398.738C644.732 404.921 646.562 412.489 652.54 415.638L672.889 426.355C678.849 429.493 698.199 429.981 701.906 423.808L696.098 411.354C706.664 414.973 717.825 417.436 729.433 418.62L729.077 429.133C728.842 436.032 734.305 441.32 741.273 440.946L764.981 439.672C771.924 439.298 777.737 433.421 777.97 426.541L778.326 416.059C789.975 413.664 801.233 410.043 811.951 405.342L816.96 414.223C820.21 419.985 840.163 422.95 846.249 419.206L854.578 405.132C860.645 401.398 862.94 393.714 859.707 387.96L854.529 378.747C863.538 371.135 871.773 362.64 879.075 353.417L888.694 358.587C894.506 361.71 911.72 363.308 915.338 357.224L918.09 332.509C921.701 326.436 919.933 318.978 914.138 315.844L904.029 310.376C908.182 299.94 911.288 289.045 913.226 277.825L925.641 277.27C932.457 276.965 938.165 271.192 938.397 264.375L939.185 241.139C939.416 234.322 934.083 229.028 927.267 229.314L914.123 229.865C912.628 219.075 909.989 208.717 906.322 198.906L918.352 191.626C924.377 187.978 926.657 180.344 923.447 174.567L925.736 151.478C922.521 145.69 901.779 147.327 895.738 150.964L883.078 158.586C876.501 150.606 869.054 143.372 860.864 137.004L868.662 124.02C872.295 117.971 870.515 110.461 864.685 107.245L856.012 94.6472C850.163 91.4208 831.224 95.3284 827.574 101.389L819.56 114.694C809.787 111.33 799.495 108.939 788.789 107.65L789.306 92.419C789.539 85.5399 784.108 80.1493 777.171 80.3776L753.479 81.1572C746.516 81.3862 740.679 87.1635 740.445 94.0625L739.926 109.337C729.033 111.378 718.456 114.506 708.313 118.587L713.021 102.472C709.723 96.6026 690.093 98.0609 683.902 101.726L662.766 114.241C656.556 117.917 654.207 125.667 657.522 131.545L664.628 144.143C655.781 151.213 647.62 159.122 640.29 167.736L640.825 159.664C634.826 156.42 613.849 160.059 610.108 166.21L597.345 187.192C593.598 193.353 595.439 200.972 601.456 204.206L613.445 210.649C608.955 220.963 605.491 231.758 603.184 242.902L589.535 243.474C582.441 243.771 576.495 249.656 576.259 256.618ZM636.607 268.242C638.884 201.104 695.821 144.584 763.403 142.015C830.576 139.461 882.906 191.231 880.653 257.633C878.4 324.036 822.398 380.513 755.201 383.8C687.593 387.107 634.329 335.379 636.607 268.242Z" fill="#8FB6D5"/>
<path d="M592.137 256.416L591.332 280.146C591.095 287.109 596.659 292.494 603.753 292.177L616.645 291.6C617.877 302.88 620.345 313.713 623.93 323.97L613.04 330.527C606.785 334.292 604.421 342.093 607.761 347.948L619.136 367.884C622.47 373.728 630.231 375.4 636.468 371.627L646.772 365.391C653.666 374.038 661.559 381.837 670.293 388.644L664.334 398.536C660.609 404.719 662.439 412.287 668.417 415.437L688.766 426.153C694.726 429.292 702.561 426.829 706.268 420.657L711.976 411.152C722.541 414.771 733.702 417.234 745.31 418.418L744.954 428.932C744.72 435.831 750.182 441.118 757.15 440.744L780.858 439.47C787.8 439.097 793.614 433.219 793.847 426.34L794.203 415.857C805.851 413.462 817.11 409.841 827.828 405.141L832.837 414.022C836.087 419.784 843.657 421.416 849.742 417.673L870.455 404.93C876.522 401.196 878.817 393.512 875.584 387.758L870.406 378.545C879.414 370.934 887.649 362.438 894.951 353.216L904.571 358.385C910.382 361.509 918.025 359.107 921.643 353.023L933.966 332.308C937.577 326.235 935.809 318.776 930.014 315.643L919.905 310.175C924.058 299.739 927.164 288.844 929.101 277.624L941.516 277.068C948.333 276.763 954.041 270.991 954.273 264.174L955.061 240.938C955.292 234.12 949.959 228.826 943.143 229.112L929.999 229.663C928.504 218.873 925.865 208.515 922.198 198.703L934.229 191.423C940.253 187.776 942.533 180.142 939.323 174.365L928.372 154.658C925.157 148.87 917.655 147.125 911.614 150.762L898.954 158.385C892.376 150.404 884.93 143.17 876.74 136.802L884.538 123.818C888.171 117.768 886.392 110.259 880.561 107.042L860.653 96.0585C854.804 92.8321 847.101 95.1257 843.45 101.187L835.436 114.492C825.663 111.128 815.371 108.737 804.665 107.448L805.182 92.2167C805.415 85.3376 799.984 79.9466 793.047 80.175L769.355 80.9549C762.392 81.1843 756.555 86.9612 756.321 93.8602L755.803 109.135C744.909 111.176 734.333 114.304 724.19 118.384L716.958 105.517C713.66 99.6479 705.97 97.8583 699.778 101.524L678.642 114.039C672.432 117.715 670.083 125.465 673.398 131.342L680.504 143.941C671.656 151.012 663.495 158.92 656.166 167.534L643.622 160.75C637.623 157.506 629.725 159.857 625.984 166.007L613.221 186.989C609.474 193.15 611.315 200.769 617.332 204.004L629.321 210.446C624.831 220.76 621.366 231.556 619.059 242.7L605.411 243.272C598.318 243.569 592.373 249.454 592.137 256.416ZM647.308 268.265C649.682 198.279 709.033 139.362 779.483 136.683C849.505 134.021 904.056 187.987 901.708 257.206C899.36 326.426 840.981 385.299 770.933 388.726C700.457 392.173 644.934 338.25 647.308 268.265Z" fill="#0DBBFC"/>
<path d="M685.877 266.588C687.531 217.824 728.886 176.771 777.975 174.905C826.765 173.05 864.775 210.652 863.139 258.883C861.502 307.114 820.825 348.136 772.017 350.523C722.911 352.925 684.223 315.353 685.877 266.588Z" fill="#0DBBFC"/>
<path d="M244.725 823.114L243.97 845.387C243.748 851.922 248.969 856.976 255.628 856.678L267.728 856.137C268.883 866.724 271.2 876.892 274.565 886.519L264.344 892.673C258.474 896.207 256.255 903.528 259.39 909.023L270.066 927.734C273.195 933.219 288.304 936.479 294.158 932.937L296.004 925.394C302.474 933.51 309.883 940.83 318.08 947.219L312.487 956.503C308.991 962.307 310.708 969.41 316.32 972.366L335.418 982.424C341.012 985.37 359.173 985.827 362.653 980.034L357.202 968.345C367.118 971.741 377.593 974.053 388.489 975.164L388.154 985.032C387.934 991.507 393.061 996.47 399.601 996.119L421.853 994.923C428.369 994.573 433.825 989.056 434.044 982.599L434.378 972.761C445.311 970.513 455.878 967.115 465.938 962.703L470.639 971.038C473.689 976.446 492.416 979.228 498.128 975.715L505.946 962.505C511.64 959.001 513.794 951.788 510.759 946.388L505.899 937.741C514.355 930.597 522.084 922.624 528.937 913.968L537.966 918.82C543.42 921.751 559.577 923.25 562.973 917.541L565.555 894.344C568.945 888.645 567.285 881.644 561.846 878.703L552.358 873.571C556.256 863.776 559.171 853.55 560.989 843.019L572.642 842.498C579.039 842.212 584.397 836.794 584.614 830.396L585.354 808.587C585.571 802.188 580.565 797.22 574.169 797.488L561.832 798.006C560.429 787.878 557.952 778.156 554.51 768.948L565.802 762.115C571.456 758.692 573.596 751.527 570.584 746.104L572.732 724.434C569.714 719.002 550.246 720.538 544.576 723.952L532.694 731.106C526.521 723.616 519.531 716.826 511.845 710.849L519.163 698.663C522.573 692.985 520.903 685.937 515.43 682.918L507.29 671.095C501.801 668.066 484.026 671.734 480.599 677.422L473.078 689.91C463.905 686.752 454.246 684.508 444.197 683.299L444.683 669.003C444.902 662.546 439.804 657.487 433.293 657.701L411.057 658.433C404.522 658.648 399.043 664.07 398.823 670.546L398.336 684.882C388.112 686.798 378.185 689.733 368.665 693.563L373.084 678.439C369.988 672.93 351.565 674.298 345.754 677.738L325.916 689.485C320.088 692.935 317.883 700.209 320.995 705.725L327.664 717.549C319.36 724.186 311.701 731.608 304.821 739.694L305.323 732.117C299.692 729.073 280.005 732.488 276.494 738.261L264.515 757.954C260.998 763.737 262.726 770.887 268.373 773.923L279.626 779.97C275.412 789.651 272.16 799.782 269.995 810.242L257.185 810.779C250.527 811.057 244.947 816.58 244.725 823.114ZM301.366 834.024C303.503 771.011 356.942 717.963 420.372 715.551C483.418 713.155 532.533 761.744 530.419 824.067C528.305 886.391 475.743 939.398 412.674 942.483C349.22 945.587 299.228 897.037 301.366 834.024Z" fill="#777777"/>
<path d="M259.627 822.925L258.872 845.197C258.65 851.732 263.871 856.787 270.529 856.489L282.63 855.948C283.785 866.534 286.102 876.702 289.467 886.329L279.246 892.484C273.375 896.018 271.156 903.339 274.291 908.834L284.967 927.545C288.096 933.03 295.381 934.6 301.234 931.058L310.905 925.205C317.375 933.322 324.784 940.641 332.981 947.03L327.388 956.314C323.893 962.118 325.61 969.221 331.221 972.177L350.319 982.235C355.913 985.181 363.267 982.869 366.746 977.076L372.103 968.155C382.02 971.552 392.495 973.864 403.39 974.975L403.056 984.843C402.836 991.318 407.963 996.281 414.502 995.93L436.754 994.734C443.27 994.384 448.726 988.867 448.945 982.41L449.279 972.571C460.212 970.324 470.779 966.925 480.839 962.513L485.54 970.849C488.59 976.257 495.695 977.789 501.407 974.275L520.847 962.315C526.541 958.811 528.696 951.598 525.661 946.198L520.801 937.551C529.256 930.407 536.986 922.434 543.839 913.778L552.867 918.63C558.322 921.561 565.495 919.307 568.891 913.598L580.456 894.154C583.846 888.455 582.187 881.454 576.748 878.513L567.26 873.381C571.158 863.586 574.073 853.36 575.891 842.83L587.544 842.308C593.941 842.022 599.299 836.604 599.516 830.206L600.256 808.398C600.473 801.999 595.467 797.03 589.071 797.299L576.734 797.816C575.331 787.689 572.854 777.967 569.412 768.758L580.704 761.925C586.358 758.502 588.498 751.337 585.486 745.915L575.207 727.418C572.189 721.987 565.148 720.348 559.478 723.762L547.596 730.916C541.423 723.425 534.433 716.636 526.747 710.659L534.065 698.473C537.476 692.795 535.805 685.747 530.332 682.728L511.648 672.419C506.158 669.391 498.928 671.543 495.502 677.232L487.979 689.719C478.807 686.562 469.148 684.318 459.099 683.108L459.584 668.813C459.804 662.356 454.706 657.297 448.195 657.511L425.958 658.243C419.424 658.458 413.945 663.88 413.725 670.355L413.238 684.691C403.014 686.607 393.087 689.543 383.567 693.373L376.78 681.296C373.685 675.787 366.467 674.108 360.656 677.548L340.818 689.294C334.99 692.745 332.785 700.019 335.897 705.535L342.566 717.359C334.262 723.995 326.602 731.418 319.723 739.503L307.949 733.136C302.319 730.091 294.906 732.298 291.395 738.07L279.416 757.763C275.899 763.546 277.627 770.697 283.275 773.733L294.528 779.78C290.313 789.46 287.061 799.592 284.896 810.052L272.086 810.589C265.429 810.868 259.849 816.39 259.627 822.925ZM311.409 834.046C313.637 768.359 369.343 713.062 435.465 710.548C501.185 708.049 552.384 758.7 550.18 823.667C547.977 888.634 493.185 943.891 427.44 947.106C361.293 950.342 309.181 899.732 311.409 834.046Z" fill="#D8DEE8"/>
<path d="M31.8533 435.634L30.7542 469.3C30.4317 479.178 38.0284 486.818 47.7154 486.368L65.3194 485.55C67.0007 501.552 70.3715 516.923 75.2668 531.474L60.397 540.777C51.8566 546.119 48.6279 557.185 53.1887 565.491L68.7211 593.774C73.2735 602.065 95.2556 606.993 103.773 601.638L106.457 590.237C115.871 602.506 126.649 613.569 138.576 623.226L130.439 637.26C125.353 646.033 127.851 656.769 136.015 661.238L163.8 676.441C171.939 680.893 198.361 681.586 203.423 672.828L195.493 655.159C209.92 660.293 225.16 663.788 241.011 665.467L240.524 680.383C240.205 690.171 247.664 697.672 257.177 697.141L289.551 695.333C299.031 694.804 306.969 686.465 307.288 676.705L307.773 661.833C323.679 658.435 339.053 653.299 353.689 646.63L360.528 659.23C364.966 667.404 392.212 671.61 400.521 666.299L411.895 646.331C420.179 641.034 423.313 630.132 418.899 621.97L411.828 608.899C424.129 598.1 435.374 586.049 445.344 572.963L458.479 580.298C466.415 584.729 489.921 586.995 494.862 578.365L498.619 543.301C503.551 534.686 501.136 524.104 493.223 519.658L479.419 511.901C485.09 497.096 489.331 481.638 491.977 465.72L508.929 464.932C518.236 464.5 526.032 456.311 526.348 446.639L527.424 413.674C527.74 404.002 520.457 396.492 511.15 396.898L493.202 397.679C491.161 382.372 487.557 367.676 482.55 353.756L498.977 343.429C507.204 338.254 510.318 327.424 505.935 319.228L509.06 286.47C504.67 278.26 476.346 280.582 468.097 285.741L450.81 296.555C441.829 285.234 431.66 274.971 420.478 265.936L431.125 247.516C436.087 238.933 433.656 228.279 425.694 223.716L413.851 205.844C405.865 201.267 380.004 206.811 375.019 215.41L364.076 234.285C350.731 229.512 336.678 226.121 322.059 224.292L322.765 202.683C323.083 192.924 315.667 185.276 306.194 185.6L273.843 186.706C264.336 187.031 256.365 195.227 256.045 205.015L255.337 226.685C240.462 229.581 226.02 234.018 212.17 239.808L218.599 216.946C214.095 208.619 187.291 210.688 178.838 215.887L149.976 233.642C141.496 238.858 138.288 249.853 142.816 258.191L152.519 276.064C140.437 286.095 129.294 297.315 119.285 309.536L120.015 298.084C111.824 293.482 83.18 298.645 78.0721 307.371L60.6442 337.138C55.5273 345.879 58.0414 356.687 66.2576 361.277L82.6291 370.416C76.498 385.049 71.767 400.364 68.6171 416.175L49.9805 416.987C40.2949 417.409 32.1757 425.757 31.8533 435.634ZM114.258 452.125C117.368 356.877 195.114 276.692 287.397 273.046C379.121 269.423 450.577 342.869 447.501 437.075C444.425 531.281 367.954 611.406 276.196 616.068C183.879 620.76 111.148 547.374 114.258 452.125Z" fill="#777777"/>
<path d="M53.5341 435.348L52.435 469.014C52.1122 478.892 59.7092 486.532 69.3955 486.082L86.9999 485.264C88.6811 501.266 92.0519 516.636 96.9469 531.188L82.0775 540.49C73.5367 545.832 70.3081 556.899 74.8685 565.205L90.4008 593.488C94.9533 601.779 105.551 604.152 114.068 598.798L128.137 589.951C137.551 602.22 148.329 613.283 160.255 622.94L152.118 636.974C147.033 645.747 149.531 656.483 157.694 660.952L185.48 676.155C193.619 680.607 204.317 677.114 209.379 668.357L217.173 654.873C231.6 660.007 246.84 663.502 262.691 665.181L262.205 680.097C261.885 689.885 269.344 697.386 278.858 696.855L311.231 695.047C320.711 694.518 328.649 686.179 328.968 676.419L329.454 661.547C345.36 658.15 360.734 653.013 375.369 646.344L382.209 658.944C386.646 667.119 396.983 669.434 405.292 664.123L433.576 646.045C441.86 640.748 444.994 629.846 440.579 621.684L433.508 608.613C445.809 597.814 457.054 585.762 467.025 572.677L480.16 580.012C488.096 584.443 498.532 581.036 503.473 572.405L520.299 543.015C525.231 534.4 522.817 523.818 514.904 519.373L501.1 511.615C506.77 496.81 511.012 481.352 513.658 465.434L530.61 464.646C539.918 464.214 547.713 456.025 548.029 446.353L549.105 413.388C549.421 403.716 542.138 396.205 532.832 396.611L514.883 397.393C512.842 382.085 509.238 367.39 504.231 353.47L520.659 343.142C528.886 337.968 531.999 327.137 527.616 318.942L512.662 290.982C508.272 282.772 498.028 280.295 489.779 285.455L472.491 296.27C463.51 284.947 453.341 274.685 442.158 265.65L452.806 247.23C457.767 238.648 455.337 227.994 447.375 223.43L420.191 207.848C412.204 203.271 401.685 206.525 396.7 215.124L385.757 233.999C372.412 229.226 358.359 225.835 343.74 224.006L344.446 202.397C344.765 192.638 337.349 184.99 327.875 185.314L295.524 186.42C286.017 186.745 278.046 194.942 277.726 204.729L277.019 226.399C262.144 229.295 247.701 233.733 233.852 239.522L223.977 221.267C219.473 212.94 208.972 210.401 200.518 215.601L171.656 233.357C163.177 238.572 159.969 249.567 164.496 257.905L174.2 275.778C162.118 285.81 150.975 297.029 140.966 309.251L123.837 299.626C115.645 295.024 104.861 298.36 99.7533 307.085L82.3254 336.852C77.2081 345.594 79.7225 356.402 87.9388 360.991L104.31 370.131C98.1792 384.764 93.4482 400.079 90.2982 415.889L71.6613 416.701C61.9753 417.123 53.8565 425.471 53.5341 435.348ZM128.87 452.158C132.112 352.869 213.155 269.283 309.354 265.483C404.969 261.705 479.457 338.268 476.25 436.47C473.044 534.672 393.329 618.196 297.679 623.057C201.445 627.947 125.628 551.448 128.87 452.158Z" fill="#D8DEE8"/>
<path d="M595.218 643.84L594.404 668.772C594.165 676.088 599.791 681.746 606.965 681.412L620.002 680.806C621.247 692.657 623.743 704.04 627.368 714.817L616.356 721.706C610.031 725.662 607.64 733.858 611.018 740.008L622.521 760.954C625.892 767.094 642.171 770.743 648.479 766.778L650.467 758.335C657.438 767.42 665.421 775.614 674.253 782.766L668.227 793.159C664.46 799.656 666.31 807.607 672.356 810.916L692.934 822.175C698.961 825.472 718.529 825.985 722.277 819.5L716.404 806.414C727.089 810.217 738.374 812.805 750.114 814.048L749.753 825.095C749.516 832.343 755.04 837.899 762.086 837.506L786.061 836.167C793.082 835.775 798.96 829.599 799.196 822.372L799.556 811.358C811.336 808.842 822.721 805.037 833.56 800.099L838.625 809.43C841.911 815.483 862.089 818.598 868.243 814.665L876.666 799.877C882.801 795.954 885.122 787.881 881.853 781.836L876.617 772.156C885.726 764.159 894.054 755.233 901.438 745.543L911.166 750.975C917.042 754.256 934.451 755.935 938.109 749.543L940.891 723.576C944.544 717.196 942.756 709.359 936.896 706.067L926.672 700.321C930.872 689.358 934.013 677.91 935.972 666.122L948.527 665.538C955.419 665.218 961.193 659.153 961.426 651.99L962.224 627.577C962.457 620.414 957.064 614.853 950.172 615.153L936.88 615.732C935.368 604.395 932.7 593.512 928.991 583.204L941.157 575.556C947.249 571.723 949.555 563.703 946.309 557.633L948.624 533.374C945.372 527.293 924.397 529.013 918.288 532.834L905.485 540.843C898.834 532.458 891.303 524.857 883.021 518.167L890.907 504.525C894.581 498.169 892.781 490.279 886.885 486.9L878.115 473.664C872.2 470.275 853.048 474.38 849.357 480.748L841.252 494.726C831.37 491.191 820.962 488.68 810.136 487.326L810.659 471.323C810.895 464.095 805.403 458.432 798.387 458.671L774.429 459.491C767.388 459.731 761.485 465.802 761.248 473.05L760.724 489.098C749.708 491.243 739.012 494.529 728.756 498.816L733.516 481.886C730.181 475.719 710.331 477.251 704.07 481.101L682.696 494.251C676.416 498.113 674.04 506.256 677.393 512.431L684.579 525.667C675.632 533.096 667.379 541.405 659.967 550.456L660.508 541.974C654.442 538.566 633.229 542.39 629.446 548.851L616.54 570.896C612.75 577.369 614.612 585.374 620.697 588.773L632.821 595.542C628.281 606.378 624.777 617.72 622.444 629.429L608.642 630.031C601.469 630.343 595.457 636.525 595.218 643.84ZM656.244 656.053C658.547 585.515 716.124 526.132 784.466 523.432C852.394 520.749 905.313 575.141 903.035 644.907C900.757 714.674 844.125 774.012 776.172 777.465C707.804 780.939 653.941 726.591 656.244 656.053Z" fill="#777777"/>
<path d="M611.274 643.628L610.46 668.56C610.221 675.875 615.847 681.533 623.021 681.2L636.058 680.594C637.304 692.446 639.8 703.828 643.425 714.604L632.413 721.494C626.088 725.45 623.697 733.645 627.074 739.796L638.578 760.742C641.949 766.882 649.797 768.64 656.104 764.675L666.524 758.123C673.496 767.208 681.478 775.402 690.31 782.554L684.284 792.947C680.517 799.444 682.368 807.395 688.413 810.704L708.991 821.963C715.018 825.26 722.941 822.673 726.689 816.188L732.461 806.202C743.146 810.004 754.432 812.592 766.171 813.836L765.81 824.882C765.574 832.131 771.097 837.686 778.143 837.293L802.118 835.954C809.139 835.563 815.018 829.387 815.254 822.159L815.613 811.145C827.393 808.629 838.778 804.825 849.617 799.886L854.682 809.217C857.969 815.271 865.624 816.985 871.777 813.052L892.723 799.665C898.858 795.742 901.179 787.668 897.909 781.623L892.673 771.943C901.783 763.946 910.11 755.02 917.495 745.33L927.222 750.762C933.099 754.043 940.828 751.52 944.487 745.129L956.948 723.363C960.6 716.983 958.813 709.147 952.952 705.854L942.729 700.109C946.929 689.145 950.07 677.697 952.029 665.909L964.584 665.326C971.477 665.005 977.25 658.941 977.483 651.778L978.281 627.365C978.514 620.202 973.121 614.64 966.229 614.94L952.937 615.52C951.425 604.183 948.756 593.3 945.048 582.991L957.214 575.343C963.306 571.511 965.612 563.49 962.366 557.42L951.292 536.715C948.04 530.634 940.454 528.8 934.345 532.622L921.543 540.63C914.891 532.245 907.361 524.645 899.079 517.954L906.964 504.313C910.638 497.957 908.839 490.067 902.942 486.688L882.81 475.148C876.895 471.758 869.106 474.168 865.414 480.536L857.309 494.514C847.427 490.98 837.019 488.468 826.193 487.114L826.716 471.111C826.952 463.883 821.46 458.22 814.444 458.459L790.486 459.279C783.445 459.52 777.542 465.59 777.305 472.838L776.781 488.886C765.765 491.031 755.07 494.317 744.813 498.604L737.5 485.086C734.165 478.919 726.388 477.038 720.127 480.889L698.753 494.038C692.473 497.901 690.098 506.044 693.45 512.218L700.637 525.455C691.689 532.884 683.437 541.193 676.025 550.243L663.34 543.115C657.273 539.707 649.287 542.178 645.504 548.639L632.597 570.684C628.808 577.158 630.669 585.162 636.754 588.561L648.879 595.33C644.338 606.166 640.834 617.508 638.502 629.217L624.7 629.818C617.525 630.131 611.513 636.313 611.274 643.628ZM667.065 656.077C669.466 582.546 729.485 520.645 800.727 517.83C871.537 515.033 926.701 571.733 924.326 644.459C921.952 717.185 862.917 779.04 792.081 782.64C720.813 786.262 664.665 729.608 667.065 656.077Z" fill="#D8DEE8"/>
<path opacity="0.75" d="M610.064 329.918C610.064 302.044 586.423 279.447 557.26 279.447C528.097 279.447 504.456 302.044 504.456 329.918C504.456 346.835 513.163 361.807 526.528 370.964C532.198 374.849 535.636 381.253 535.636 388.144V392.006C535.636 400.398 542.414 407.201 550.773 407.201H563.746C572.106 407.201 578.883 400.398 578.883 392.006V388.144C578.883 381.253 582.322 374.85 587.992 370.964C601.356 361.807 610.064 346.835 610.064 329.918Z" fill="#F4F7FA"/>
<path d="M557.26 435.93C563.729 435.93 568.973 433.143 568.973 429.705C568.973 426.267 563.729 423.479 557.26 423.479C550.791 423.479 545.547 426.267 545.547 429.705C545.547 433.143 550.791 435.93 557.26 435.93Z" fill="url(#paint0_linear_4_253)"/>
<path d="M541.697 418.584V424.941C541.697 427.092 542.916 429.063 544.85 429.989C547.535 431.274 551.999 432.685 558.487 432.518C563.75 432.382 567.182 431.519 569.363 430.613C571.471 429.737 572.822 427.645 572.822 425.355V421.838L541.697 418.584Z" fill="url(#paint1_linear_4_253)"/>
<path opacity="0.3" d="M541.697 424.152C542.171 424.615 542.721 425.008 543.338 425.303C546.35 426.745 566.079 429.967 570.838 428.172C571.457 427.939 572.012 427.627 572.5 427.251C572.708 426.651 572.822 426.012 572.822 425.355V421.837L541.697 418.584V424.152Z" fill="url(#paint2_linear_4_253)"/>
<path d="M543.079 414.259C541.326 414.076 539.8 415.456 539.8 417.225V417.405C539.8 419.818 541.168 422.029 543.338 423.068C546.35 424.51 566.08 427.731 570.839 425.936C573.235 425.033 574.719 422.968 574.719 420.399V420.254C574.719 418.726 573.57 417.445 572.056 417.287L543.079 414.259Z" fill="url(#paint3_linear_4_253)"/>
<path opacity="0.3" d="M572.056 417.288L543.079 414.259C541.936 414.139 540.892 414.687 540.303 415.572C540.885 416.948 541.945 418.1 543.338 418.767C546.35 420.209 566.92 423.851 570.839 421.998C572.365 421.276 573.561 420.058 574.202 418.577C573.724 417.874 572.955 417.382 572.056 417.288Z" fill="url(#paint4_linear_4_253)"/>
<path d="M541.945 403.959C540.76 403.959 539.8 404.923 539.8 406.112V411.091C539.8 413.504 541.168 415.715 543.338 416.753C546.35 418.195 566.92 421.837 570.839 419.984C573.154 418.888 574.719 416.654 574.719 414.085V406.112C574.719 404.923 573.759 403.959 572.574 403.959H541.945Z" fill="url(#paint5_linear_4_253)"/>
<path d="M557.26 409.55C566.664 409.55 574.288 407.741 574.288 405.509C574.288 403.277 566.664 401.468 557.26 401.468C547.856 401.468 540.232 403.277 540.232 405.509C540.232 407.741 547.856 409.55 557.26 409.55Z" fill="url(#paint6_linear_4_253)"/>
<path d="M610.064 329.918C610.064 302.044 586.423 279.447 557.26 279.447C528.097 279.447 504.456 302.044 504.456 329.918C504.456 346.835 513.163 361.807 526.528 370.964C532.198 374.849 535.636 381.253 535.636 388.144V392.006C535.636 400.398 542.414 407.201 550.773 407.201H563.746C572.106 407.201 578.883 400.398 578.883 392.006V388.144C578.883 381.253 582.322 374.85 587.992 370.964C601.356 361.807 610.064 346.835 610.064 329.918Z" fill="url(#paint7_linear_4_253)"/>
<path opacity="0.5" d="M557.26 405.28C564.141 405.28 569.719 403.956 569.719 402.323C569.719 400.69 564.141 399.366 557.26 399.366C550.379 399.366 544.8 400.69 544.8 402.323C544.8 403.956 550.379 405.28 557.26 405.28Z" fill="#F4F7FA"/>
<path d="M554.013 404.13C553.656 404.13 553.346 403.864 553.3 403.499L544.134 331.944C544.083 331.548 544.361 331.186 544.756 331.135C545.151 331.082 545.511 331.364 545.562 331.76L554.728 403.315C554.779 403.711 554.5 404.073 554.106 404.124C554.075 404.128 554.044 404.13 554.013 404.13Z" fill="url(#paint8_linear_4_253)"/>
<path d="M559.706 404.13C559.676 404.13 559.645 404.128 559.614 404.124C559.219 404.073 558.941 403.711 558.991 403.315L568.158 331.76C568.208 331.364 568.569 331.082 568.964 331.135C569.358 331.186 569.637 331.548 569.586 331.944L560.42 403.499C560.373 403.864 560.063 404.13 559.706 404.13Z" fill="url(#paint9_linear_4_253)"/>
<path d="M567.171 331.886C566.937 331.886 566.708 331.772 566.569 331.561L564.04 327.708C564.014 327.669 563.973 327.646 563.937 327.65C563.874 327.652 563.848 327.697 563.839 327.711L562.169 330.519C561.892 330.984 561.407 331.27 560.871 331.283C560.338 331.301 559.835 331.035 559.534 330.583L557.241 327.132C557.216 327.094 557.183 327.075 557.142 327.075C557.093 327.084 557.071 327.092 557.046 327.127L555.031 330.05C554.74 330.473 554.263 330.726 553.755 330.727C553.754 330.727 553.753 330.727 553.752 330.727C553.244 330.727 552.766 330.475 552.473 330.054L549.568 325.877C549.542 325.839 549.505 325.826 549.466 325.822C549.424 325.824 549.392 325.845 549.369 325.885L546.718 330.479C546.518 330.824 546.078 330.941 545.734 330.741C545.39 330.541 545.272 330.099 545.472 329.754L548.123 325.16C548.392 324.693 548.872 324.401 549.405 324.378C549.934 324.351 550.441 324.607 550.749 325.05L553.653 329.227C553.679 329.262 553.711 329.281 553.751 329.281C553.79 329.281 553.822 329.263 553.847 329.228L555.861 326.305C556.156 325.878 556.642 325.623 557.154 325.629C557.67 325.634 558.151 325.896 558.439 326.33L560.732 329.781C560.758 329.82 560.797 329.853 560.835 329.838C560.897 329.837 560.924 329.792 560.932 329.778L562.602 326.97C562.88 326.503 563.367 326.217 563.905 326.205C564.437 326.193 564.943 326.458 565.242 326.913L567.772 330.765C567.99 331.098 567.899 331.547 567.567 331.767C567.445 331.847 567.307 331.886 567.171 331.886Z" fill="url(#paint10_linear_4_253)"/>
<path opacity="0.3" d="M558.218 369.728C559.349 350.275 592.019 345.722 591.879 328.349C591.793 317.649 578.811 309.703 576.039 308.112C555.612 296.384 530.47 309.927 525.277 300.342C523.984 297.955 524.59 295.357 524.936 293.878C525.458 291.642 526.639 289.56 528.391 287.655C513.979 296.667 504.456 312.228 504.456 329.918C504.456 346.835 513.164 361.807 526.528 370.964C532.198 374.849 535.637 381.253 535.637 388.144V392.006C535.637 400.398 542.414 407.201 550.774 407.201H563.747C572.107 407.201 578.884 400.398 578.884 392.006V388.918C577.098 390.292 575.048 391.25 572.799 391.231C564.996 391.167 557.655 379.409 558.218 369.728Z" fill="url(#paint11_linear_4_253)"/>
<path class="lamp position-path" opacity="0.44" d="M558.104 375.875C583.2 375.875 603.543 356.18 603.543 331.886C603.543 307.592 583.2 287.897 558.104 287.897C533.009 287.897 512.666 307.592 512.666 331.886C512.666 356.18 533.009 375.875 558.104 375.875Z" fill="#F4F7FA" />
<mask id="mask0_4_253" style="mask-type:luminance" maskUnits="userSpaceOnUse" x="475" y="325" width="525" height="458">
<path d="M999.886 584.534L843.512 325.561L615.07 412.48L475.088 426.898L505.314 628.376L689.674 733.655C712.184 765.373 749.421 784.808 792.081 782.64C833.131 780.554 870.214 758.903 894.608 726.912C895.273 726.736 895.635 726.64 895.635 726.64L999.886 584.534Z" fill="white"/>
</mask>
<g mask="url(#mask0_4_253)">
<path d="M567.138 479.612C563.969 470.442 565.241 465.417 567.138 462.492C569.784 458.414 575.847 455.032 587.036 446.799C587.768 446.26 589.033 445.298 588.873 444.77C588.477 443.463 582.387 444.139 577.087 446.799C569.406 450.654 567.806 450.951 563.24 452.316C555.17 454.729 548.075 452.714 537.292 449.652C532.845 448.389 526.612 446.251 519.526 442.519C519.526 442.519 511.71 438.952 509.578 442.519L520.948 448.225C520.948 448.225 510.999 443.945 505.314 446.799L525.212 455.359C525.212 455.359 510.288 451.079 509.578 453.932C519.277 460.877 527.832 463.248 534.45 463.919C544.635 464.952 552.302 462.17 555.058 466.059C557.283 469.2 554.973 474.804 552.216 479.613H567.138V479.612Z" fill="url(#paint12_linear_4_253)"/>
<path d="M700.735 546.667C691.87 533.336 680.983 525.35 673.101 520.533C670.256 521.792 665.883 523.897 660.893 527.063C646.495 536.197 644.913 542.774 632.693 550.391C626.213 554.43 618.187 559.433 607.883 558.751C596.021 557.966 587.892 550.095 584.513 546.823C561.338 524.383 570.404 481.872 571.402 477.473C562.638 477.235 553.873 476.997 545.109 476.759C540.499 484.875 515.093 536.623 533.739 588.755C560.443 663.418 669.076 664.062 701.92 629.69C721.479 609.22 721.364 577.688 700.735 546.667Z" fill="url(#paint13_linear_4_253)"/>
<path d="M869.319 769.502C872.281 765.28 877.504 756.538 881.518 745.159C892.374 714.387 886.477 686.773 885.014 678.95C880.413 654.335 879.462 610.318 892.75 525.609C894.346 515.433 887.643 505.838 877.58 503.811C849.673 498.192 812.846 494.093 770.137 498.056C730.197 501.761 697.232 511.391 673.101 520.532C672.47 564.862 676.048 600.023 679.38 623.744C684.721 661.761 689.921 673.895 690.53 706.4C691.446 755.317 680.313 762.209 688.799 777.381C713.188 820.985 835.309 817.984 869.319 769.502Z" fill="url(#paint14_linear_4_253)"/>
<path d="M787.769 446.046C789.216 459.837 790.663 473.627 792.11 487.418C792.503 491.154 795.486 494.083 799.216 494.391C813.982 495.613 828.747 496.835 843.513 498.056L761.627 523.258L724.089 505.288C735.543 501.726 746.997 498.163 758.45 494.6C761.392 493.684 763.521 491.115 763.88 488.044C764.877 479.528 765.873 471.012 766.87 462.496L787.769 446.046Z" fill="url(#paint15_linear_4_253)"/>
<path d="M795.763 439.629C786.737 460.423 764.149 477.632 752.477 472.527C740.805 467.421 742.047 441.554 751.074 420.761C760.1 399.967 777.387 392.039 789.059 397.144C800.731 402.25 804.79 418.836 795.763 439.629Z" fill="url(#paint16_linear_4_253)"/>
<path d="M780.584 437.744C781.722 438.6 786.168 432.482 788.632 433.574C790.71 434.496 791.273 440.502 788.753 444.622C786.608 448.128 783.752 447.778 782.92 450.513C781.552 455.01 787.518 461.728 789.751 460.937C791.183 460.43 789.995 457.218 791.387 453.549C794.122 446.339 803.105 447.168 810.438 441.653C821.971 432.98 825.112 411.858 818.236 403.951C815.623 400.946 812.692 401.148 809.14 396.309C805.295 391.07 806.974 388.44 804.016 385.071C798.996 379.356 787.976 379.888 781.013 382.001C772.251 384.658 771.616 389.299 765.752 388.956C758.808 388.551 757.807 381.932 749.526 380.716C749.049 380.645 741.319 379.63 735.498 384.677C727.938 391.232 729.789 402.641 730.051 404.258C731.728 414.596 740.134 423.919 749.432 426.017C751.389 426.459 750.993 426.04 770.685 425.563C777.191 425.405 781.124 425.358 782.433 427.655C784.323 430.972 779.439 436.883 780.584 437.744Z" fill="url(#paint17_linear_4_253)"/>
<path opacity="0.3" d="M862.691 580.944C852.24 585.704 846.607 591.735 843.382 597.295C831.087 618.495 850 639.278 836.42 665.785C827.074 684.027 814.687 680.878 808.572 697.933C800.727 719.811 817.798 734.238 816.926 756.639C816.487 767.934 811.449 782.044 794.37 798.167C816.787 791.959 836.273 781.199 846.997 765.913C849.959 761.69 855.181 752.948 859.195 741.57C870.051 710.798 864.154 683.184 862.692 675.36C859.304 657.239 857.896 628.596 862.691 580.944Z" fill="url(#paint18_linear_4_253)"/>
<path d="M856.225 788.082C895.818 779.516 911.452 718.832 919.523 687.57C925.869 662.994 952.523 559.763 899.76 516.674C890.552 509.153 881.018 505.175 873.887 502.937C865.998 505.491 845.948 513.2 834.665 533.122C828.276 544.405 826.487 556.446 827.226 573.499C829.14 617.626 845.118 629.252 849.432 659.141C858.21 719.945 805.79 759.543 823.056 781.624C831.992 793.052 854.192 788.522 856.225 788.082Z" fill="url(#paint19_linear_4_253)"/>
</g>
<mask id="mask1_4_253" style="mask-type:luminance" maskUnits="userSpaceOnUse" x="0" y="0" width="536" height="624">
<path d="M447.934 42.9658L163.763 0.129028C163.763 0.129028 25.2746 9.82809 22.8594 10.6363C22.8594 10.6363 0.314941 236.945 0.314941 240.178C0.314941 243.411 132.118 422.951 132.119 422.951C130.306 432.489 129.194 442.244 128.87 452.158C125.628 551.448 201.445 627.947 297.679 623.057C371.02 619.33 434.99 569.353 462.287 501.974H462.287L502.935 429.308L535.793 173.093L447.934 42.9658Z" fill="white"/>
</mask>
<g mask="url(#mask1_4_253)">
<path d="M440.949 291.892C443.155 283.172 451.514 251.282 456.92 237.166C464.406 217.619 475.842 193.654 478.527 194.615C480.102 195.179 478.316 204.202 478.055 205.522C475.7 217.417 471.038 219.056 471.766 225.603C472.545 232.603 478.149 233.191 478.539 240.9C478.857 247.168 475.417 251.993 474.877 252.729C471.058 257.934 466.917 257.334 462.924 261.548C456.497 268.332 454.839 289.314 454.843 298.783L440.949 291.892Z" fill="url(#paint20_linear_4_253)"/>
<path d="M440.75 285.525C446.302 287.878 451.854 290.232 457.405 292.585C464.892 305.376 474.821 325.238 481.044 351.035C487.74 378.797 503.005 442.081 466.957 480.202C439.466 509.274 395.644 509.483 378.98 509.473C363.569 509.464 349.842 509.57 336.747 502.131C308.109 485.862 296.402 441.693 303.807 391.785C333.692 420.14 369.465 430.874 391.154 418.164C408.211 408.169 416.007 383.993 419.333 373.712C424.279 358.423 422.751 351.277 427.056 330.11C431.036 310.541 436.702 295.211 440.75 285.525Z" fill="url(#paint21_linear_4_253)"/>
<g opacity="0.3">
<path d="M399.973 481.24C409.058 468.942 404.293 454.754 418.937 440.447C437.454 422.355 459.475 430.968 468.379 415.971C475.647 403.73 466.168 389.248 458.897 366.339C453.258 348.57 448.148 323.196 450.4 289.616C452.735 290.605 455.07 291.595 457.405 292.585C464.891 305.376 474.821 325.238 481.043 351.035C487.74 378.797 503.004 442.081 466.957 480.202C439.465 509.274 395.644 509.483 378.98 509.473C363.568 509.464 349.841 509.57 336.747 502.132C333.123 500.073 329.772 497.564 326.695 494.656C372.931 501.208 391.817 492.28 399.973 481.24Z" fill="url(#paint22_linear_4_253)"/>
</g>
<path d="M146.876 616.564C146.562 601.115 145.736 515.873 186.849 454.574C196.273 440.524 212.946 415.664 244.958 399.216C257.436 392.804 268.69 389.497 276.418 387.698C285.547 389.06 294.677 390.423 303.807 391.785C312.545 399.778 324.415 412.314 334.896 430.053C341.533 441.285 352.516 459.874 355.06 483.869C358.024 511.833 346.952 522.855 337.857 566.407C332.925 590.027 331.369 609.834 330.825 622.881C299.242 625.605 267.658 628.33 236.075 631.055C235.575 616.027 234.263 599.313 231.633 581.269C228.911 562.595 225.242 545.681 221.27 530.74C217.025 547.718 213.286 567.548 211.277 589.814C209.886 605.225 209.528 619.546 209.796 632.541C205.959 634.059 184.355 642.186 163.531 631.055C155.398 626.706 150.07 620.856 146.876 616.564Z" fill="url(#paint23_linear_4_253)"/>
<path d="M295.485 358.662C322.442 354.997 335.92 353.164 345.001 345.821C364.843 329.773 369.172 300.454 365.57 279.811C360.516 250.84 338.683 232.293 324.866 220.555C307.113 205.474 303.044 209.342 296.317 199.777C277.724 173.34 308.067 142.748 301.357 100.839C293.953 54.5986 246.683 27.321 234.463 20.8974C169.35 -13.3318 104.101 21.3102 97.4767 24.9727C36.1016 58.905 11.8652 130.445 19.9556 185.182C22.2689 200.833 28.1877 240.875 55.3325 253.932C81.4721 266.507 105.101 243.383 142.038 259.902C147.199 262.209 162.837 269.203 174.976 285.108C188.685 303.07 184.989 315.442 200.042 333.89C212.248 348.848 226.733 355.488 229.651 356.779C248.005 364.902 264.086 362.932 295.485 358.662Z" fill="url(#paint24_linear_4_253)"/>
<g opacity="0.3">
<path d="M84.0585 33.3875C42.0634 87.8355 35.6927 112.834 43.6513 123.603C54.787 138.67 91.3063 122.289 109.683 144.237C126.211 163.978 106.907 189.461 122.351 207.148C141.872 229.504 182.31 199.773 209.618 219.972C242.121 244.011 210.723 305.271 242.618 339.08C252.278 349.32 268.794 358.128 298.804 358.211C297.718 358.359 296.618 358.509 295.485 358.662C264.086 362.932 248.005 364.902 229.651 356.779C226.733 355.488 212.248 348.848 200.042 333.89C184.989 315.442 188.684 303.07 174.976 285.108C162.837 269.203 147.199 262.21 142.038 259.902C105.101 243.383 81.4719 266.507 55.3327 253.932C28.1876 240.874 22.2691 200.833 19.9558 185.182C12.4836 134.627 32.5896 69.7422 84.0585 33.3875Z" fill="url(#paint25_linear_4_253)"/>
</g>
<path d="M299.282 346.341C299.282 346.341 300.051 366.196 299.282 379.524C298.72 389.281 307.125 394.839 307.125 394.839C307.125 394.839 311.741 402.778 286.781 404.105C261.821 405.431 237.534 404.105 237.534 404.105C237.534 404.105 261.937 387.811 267.512 383.482C273.087 379.152 276.078 346.781 272.508 326.279L299.282 346.341Z" fill="url(#paint26_linear_4_253)"/>
<path d="M337.309 320.211C337.309 320.211 332.158 353.092 322.441 368.903C312.725 384.713 296.143 387.028 290.157 377.972C284.17 368.915 281.602 344.688 281.602 344.688C281.602 344.688 277.203 348.084 273.487 339.703C269.77 331.322 280.189 303.479 288.366 318.218C288.366 318.218 290.647 310.021 299.9 301.783C309.153 293.545 344.478 300.217 337.309 320.211Z" fill="url(#paint27_linear_4_253)"/>
<g opacity="0.3">
<path d="M200.172 577.104C211.182 559.76 194.395 544.725 201.527 517.274C207.612 493.849 227.43 475.564 234.714 478.52C244.778 482.604 225.003 524.841 244.873 544.469C258.064 557.499 275.258 547.263 292.961 558.747C304.635 566.32 316.366 583.246 317.282 624.048C290.213 626.383 263.144 628.718 236.075 631.054C235.575 616.025 234.264 599.312 231.634 581.268C228.912 562.594 225.242 545.68 221.27 530.739C217.025 547.717 213.286 567.547 211.277 589.813C209.887 605.224 209.528 619.545 209.796 632.54C205.959 634.058 184.355 642.185 163.532 631.054C162.369 630.432 161.27 629.777 160.22 629.103C160.753 620.103 163.053 609.82 169.694 600.9C180.487 586.403 192.207 589.651 200.172 577.104Z" fill="url(#paint28_linear_4_253)"/>
</g>
</g>
<mask id="mask2_4_253" style="mask-type:luminance" maskUnits="userSpaceOnUse" x="300" y="602" width="350" height="346">
<path d="M649.405 755.031C649.405 670.665 571.361 602.273 475.087 602.273C378.815 602.273 300.77 670.665 300.77 755.031C300.77 775.675 305.453 795.358 313.923 813.321C312.507 820.075 311.648 827 311.409 834.046C309.181 899.732 361.294 950.341 427.439 947.106C462.867 945.374 495.107 928.524 517.659 903.193C593.352 886.543 649.405 826.527 649.405 755.031Z" fill="white"/>
</mask>
<g mask="url(#mask2_4_253)">
<path d="M576.113 851.258L617.337 754.322C619.397 749.479 616.631 743.939 611.533 742.696L536.02 724.286C531.939 723.292 527.747 725.442 526.158 729.345L488.241 822.512C486.353 827.152 488.842 832.417 493.616 833.884L565.822 856.061C569.971 857.335 574.409 855.264 576.113 851.258Z" fill="#0A2640"/>
<path d="M574.247 846.596L612.753 756.051C614.677 751.527 612.094 746.352 607.332 745.191L536.797 727.995C532.985 727.066 529.069 729.074 527.586 732.72L492.168 819.745C490.404 824.079 492.729 828.997 497.188 830.367L564.634 851.082C568.51 852.272 572.656 850.337 574.247 846.596Z" fill="url(#paint29_linear_4_253)"/>
<path d="M598.019 819.978L599.256 808.556L605.812 796.01C606.705 794.302 607.171 792.401 607.171 790.472V778.014L599.256 796.389C599.256 796.389 594.061 791.671 592.082 790.678C590.103 789.684 590.35 793.658 591.834 795.148C593.319 796.638 591.092 808.805 592.576 810.046L592.082 817.496L598.019 819.978Z" fill="url(#paint30_linear_4_253)"/>
<path d="M535.188 747.222C529.032 732.111 515.818 723.42 508.967 718.914C492.755 708.251 482.376 710.198 445.145 704.512C395.529 696.934 389.589 689.753 372.914 695.572C351.009 703.217 339.568 723.177 334.325 732.323C307.892 778.436 338.796 801.873 330.861 893.729C327.621 931.242 319.313 963.842 339.272 983.122C343.474 987.182 348.175 989.305 357.577 993.551C394.864 1010.39 428.294 1007.49 448.608 1005.47C470.962 1003.25 482.26 1001.98 488.187 994.048C497.655 981.384 487.909 965.288 486.208 937.432C484.987 917.433 489.517 901.585 498.577 869.89C519.639 796.205 546.982 776.172 535.188 747.222Z" fill="url(#paint31_linear_4_253)"/>
<path d="M452.137 677.33C454.396 669.252 450.447 661.771 449.576 660.158C445.932 653.41 444.999 652.488 443.26 651.319L440.843 649.822C440.843 649.822 440.703 649.765 440.555 649.713C439.005 649.158 433.718 648.997 432.647 649.227C429.225 649.96 425.583 663.951 426.622 683.732C426.48 684.486 426.343 685.246 426.211 686.013C425.672 689.137 425.244 692.198 424.913 695.192C424.597 698.056 420.552 697.99 417.688 697.807C406.061 697.062 400.372 698.055 399.877 699.793C398.95 703.051 412.741 713.699 429.769 716.095C452.621 716.265 471.211 713.823 469.213 710.21C468.326 708.607 450.619 703.962 445.64 699.359C441.08 695.143 441.452 690.792 441.077 687.676C442.459 686.956 450.474 683.282 452.137 677.33Z" fill="url(#paint32_linear_4_253)"/>
<path d="M447.934 644.203C447.913 650.331 445.037 656.876 443.571 657.928C443.382 658.064 442.317 658.908 441.36 660.352C441.23 660.549 441.115 660.779 441.012 661.076C439.675 664.938 445.792 669.483 444.611 671.212C443.755 672.466 439.598 670.789 439.103 671.872C438.638 672.891 442.093 675.002 441.564 676.223C441.165 677.145 439.038 676.302 437.697 677.714C437.029 678.417 437.225 678.975 436.517 681.124C436.117 682.34 435.557 683.671 435.123 684.411C433.013 688.009 427.037 689.323 425.887 687.884C425.568 687.482 425.842 687.145 425.515 685.798C425.515 685.798 425.212 684.55 424.347 683.108C423.111 681.046 420.128 679.571 417.117 677.395C411.542 673.365 410.026 669.929 409.571 668.769C409.41 668.355 409.309 668.043 409.237 667.818C407.787 663.301 407.78 656.666 409.803 652.586C413.192 645.751 420.837 648.996 427.094 642.224C434.313 634.41 430.013 623.73 433.931 622.551C438.249 621.25 447.971 632.872 447.934 644.203Z" fill="#0A2640"/>
<path d="M442.417 669.772C440.921 667.708 438.291 669.647 438.276 672.317C438.26 674.987 440.838 677.763 443.338 677.236C445.839 676.709 444.43 672.55 442.417 669.772Z" fill="url(#paint33_linear_4_253)"/>
<path d="M441.203 665.305L444.675 669.838C444.675 669.838 448.417 675.391 450.601 672.349C452.386 669.863 452.848 669.918 452.958 670.023C452.979 670.042 452.984 670.072 452.989 670.071C453.02 670.062 452.727 668.833 452.464 667.753C453.388 669.085 454.661 671.244 455.433 674.151C456.182 676.974 456.985 679.996 455.398 682.9C455.307 683.067 453.559 686.157 450.295 686.905C450.295 686.905 449.012 687.199 443.589 686.242C443.589 686.242 449.516 681.925 449.607 680.899C449.853 678.11 445.999 676.603 443.139 670.886C442.036 668.68 441.492 666.681 441.203 665.305Z" fill="#0A2640"/>
<path opacity="0.3" d="M429.314 979.149C435.89 966.004 419.775 948.531 430.303 928.492C439.245 911.473 455.488 915.286 462.956 899.688C471.976 880.848 452.359 866.767 453.061 838.106C453.901 803.842 483.271 769.542 500.556 772.55C511.739 774.496 513.176 791.244 521.044 809.579C514.082 824.905 505.947 844.106 498.577 869.89C489.517 901.585 484.988 917.432 486.208 937.432C487.909 965.288 497.655 981.384 488.188 994.048C482.26 1001.98 470.963 1003.25 448.609 1005.47C428.294 1007.49 394.864 1010.39 357.577 993.551C352.858 991.419 349.324 989.822 346.442 988.247C404.696 997.029 424.098 989.575 429.314 979.149Z" fill="url(#paint34_linear_4_253)"/>
<path d="M600.245 817.744C596.617 816.171 592.989 814.598 589.361 813.026C583.229 819.321 575.408 825.442 568.829 823.455C559.023 820.493 561.475 802.382 549.535 770.564C536.006 734.511 520.656 725.245 512.924 721.894C508.606 720.022 505.624 718.78 502.04 719.659C485.549 723.705 480.097 766.843 484.724 799.12C487.331 817.305 492.443 852.964 521.582 869.89C525.722 872.294 548.506 885.53 571.056 875.104C590.32 866.199 602.223 843.349 600.245 817.744Z" fill="url(#paint35_linear_4_253)"/>
</g>
<path d="M466.961 137.007L466.663 145.796C466.576 148.375 468.636 150.369 471.264 150.252L476.039 150.038C476.495 154.216 477.409 158.228 478.737 162.027L474.704 164.456C472.387 165.851 471.511 168.74 472.748 170.908L476.961 178.292C478.196 180.456 484.159 181.743 486.469 180.345L487.197 177.368C489.75 180.571 492.674 183.46 495.909 185.981L493.702 189.645C492.322 191.935 493 194.738 495.214 195.905L502.751 199.874C504.958 201.036 512.125 201.217 513.498 198.93L511.347 194.318C515.26 195.658 519.394 196.57 523.693 197.009L523.561 200.903C523.475 203.458 525.498 205.416 528.078 205.278L536.859 204.806C539.431 204.668 541.584 202.491 541.67 199.943L541.802 196.06C546.117 195.173 550.286 193.832 554.256 192.091L556.111 195.38C557.315 197.515 564.705 198.612 566.959 197.226L570.044 192.013C572.291 190.63 573.141 187.784 571.944 185.653L570.026 182.241C573.363 179.422 576.413 176.275 579.117 172.859L582.68 174.774C584.833 175.931 591.208 176.523 592.549 174.269L593.568 165.116C594.905 162.867 594.25 160.104 592.104 158.944L588.36 156.918C589.898 153.053 591.048 149.018 591.766 144.862L596.364 144.656C598.889 144.544 601.003 142.406 601.089 139.881L601.381 131.275C601.466 128.75 599.491 126.789 596.967 126.895L592.098 127.099C591.545 123.103 590.567 119.266 589.209 115.632L593.665 112.936C595.896 111.585 596.741 108.757 595.552 106.618L596.4 98.0657C595.209 95.9224 587.527 96.5283 585.289 97.8753L580.6 100.698C578.164 97.7427 575.406 95.0634 572.373 92.7047L575.261 87.896C576.607 85.6553 575.948 82.874 573.788 81.6827L570.576 77.0171C568.41 75.8222 561.395 77.2694 560.043 79.5143L557.075 84.442C553.455 83.196 549.644 82.3105 545.678 81.8334L545.87 76.1918C545.956 73.6438 543.945 71.6474 541.375 71.732L532.6 72.0208C530.021 72.1057 527.86 74.2456 527.773 76.8006L527.58 82.4578C523.546 83.2137 519.628 84.372 515.872 85.8836L517.615 79.9153C516.394 77.7414 509.123 78.2815 506.831 79.6389L499.002 84.2742C496.702 85.6358 495.832 88.5062 497.06 90.6832L499.692 95.3491C496.415 97.9682 493.392 100.897 490.678 104.088L490.876 101.098C488.654 99.8964 480.885 101.244 479.499 103.522L474.772 111.294C473.384 113.576 474.066 116.397 476.295 117.595L480.735 119.982C479.072 123.802 477.789 127.8 476.934 131.927L471.879 132.139C469.251 132.249 467.049 134.428 466.961 137.007ZM499.362 140.875C500.018 121.539 516.417 105.26 535.882 104.52C555.228 103.784 570.3 118.695 569.652 137.82C569.003 156.945 552.873 173.211 533.519 174.158C514.047 175.11 498.706 160.212 499.362 140.875Z" fill="#0A2640"/>
<path d="M472.842 136.932L472.544 145.721C472.456 148.3 474.517 150.295 477.144 150.177L481.919 149.963C482.375 154.141 483.289 158.153 484.617 161.952L480.584 164.381C478.267 165.776 477.392 168.665 478.629 170.833L482.842 178.217C484.076 180.382 486.951 181.001 489.261 179.603L493.077 177.294C495.631 180.497 498.554 183.385 501.789 185.906L499.582 189.57C498.203 191.86 498.88 194.663 501.094 195.83L508.631 199.799C510.839 200.961 513.74 200.049 515.113 197.763L517.227 194.243C521.14 195.583 525.274 196.496 529.574 196.934L529.442 200.828C529.355 203.383 531.378 205.342 533.959 205.203L542.74 204.731C545.311 204.593 547.464 202.416 547.551 199.868L547.682 195.986C551.997 195.098 556.167 193.758 560.136 192.016L561.991 195.306C563.195 197.44 565.999 198.044 568.253 196.658L575.924 191.939C578.171 190.556 579.021 187.709 577.824 185.579L575.906 182.166C579.242 179.347 582.293 176.201 584.997 172.785L588.56 174.7C590.712 175.857 593.543 174.967 594.883 172.714L599.447 165.041C600.785 162.792 600.13 160.029 597.984 158.869L594.24 156.843C595.778 152.978 596.928 148.943 597.646 144.787L602.244 144.582C604.769 144.469 606.883 142.331 606.969 139.806L607.261 131.2C607.346 128.674 605.371 126.714 602.846 126.82L597.978 127.024C597.424 123.027 596.447 119.191 595.089 115.557L599.545 112.861C601.776 111.51 602.62 108.682 601.432 106.543L597.376 99.2435C596.185 97.0998 593.406 96.4535 591.169 97.8005L586.48 100.624C584.044 97.6678 581.285 94.9889 578.252 92.6302L581.14 87.8216C582.486 85.5808 581.827 82.7996 579.667 81.6082L572.294 77.5402C570.127 76.3454 567.274 77.1946 565.922 79.4399L562.954 84.3675C559.334 83.1215 555.522 82.2361 551.557 81.7586L551.748 76.1174C551.835 73.5693 549.823 71.5729 547.254 71.6575L538.479 71.9464C535.9 72.0313 533.738 74.1711 533.652 76.7261L533.459 82.3833C529.425 83.1393 525.507 84.2979 521.751 85.8091L519.072 81.0437C517.851 78.8697 515.002 78.2071 512.709 79.5644L504.881 84.1998C502.581 85.5613 501.711 88.4317 502.938 90.6084L505.57 95.2743C502.293 97.8934 499.271 100.822 496.556 104.013L491.91 101.5C489.688 100.298 486.763 101.169 485.377 103.447L480.65 111.218C479.262 113.501 479.944 116.322 482.173 117.52L486.613 119.906C484.95 123.727 483.667 127.725 482.812 131.852L477.757 132.064C475.131 132.174 472.929 134.354 472.842 136.932ZM505.243 140.8C505.899 121.464 522.298 105.185 541.762 104.445C561.109 103.71 576.181 118.62 575.532 137.745C574.884 156.87 558.754 173.137 539.4 174.083C519.928 175.036 504.587 160.137 505.243 140.8Z" fill="#65E4A3"/>
<defs>
<linearGradient id="paint0_linear_4_253" x1="556.16" y1="438.538" x2="557.105" y2="431.007" gradientUnits="userSpaceOnUse">
<stop offset="0.0036" stop-color="#26264F"/>
<stop offset="1" stop-color="#444B8C"/>
</linearGradient>
<linearGradient id="paint1_linear_4_253" x1="552.303" y1="431.674" x2="561.736" y2="414.759" gradientUnits="userSpaceOnUse">
<stop offset="0.0036" stop-color="#26264F"/>
<stop offset="1" stop-color="#444B8C"/>
</linearGradient>
<linearGradient id="paint2_linear_4_253" x1="541.697" y1="423.643" x2="572.823" y2="423.643" gradientUnits="userSpaceOnUse">
<stop offset="0.0036" stop-color="#26264F"/>
<stop offset="1" stop-color="#444B8C"/>
</linearGradient>
<linearGradient id="paint3_linear_4_253" x1="553.196" y1="427.043" x2="562.512" y2="409.186" gradientUnits="userSpaceOnUse">
<stop offset="0.0036" stop-color="#26264F"/>
<stop offset="1" stop-color="#444B8C"/>
</linearGradient>
<linearGradient id="paint4_linear_4_253" x1="540.302" y1="418.377" x2="574.202" y2="418.377" gradientUnits="userSpaceOnUse">
<stop offset="0.0036" stop-color="#26264F"/>
<stop offset="1" stop-color="#444B8C"/>
</linearGradient>
<linearGradient id="paint5_linear_4_253" x1="539.8" y1="412.229" x2="574.719" y2="412.229" gradientUnits="userSpaceOnUse">
<stop offset="0.0036" stop-color="#26264F"/>
<stop offset="1" stop-color="#444B8C"/>
</linearGradient>
<linearGradient id="paint6_linear_4_253" x1="556.393" y1="409.585" x2="559.856" y2="393.429" gradientUnits="userSpaceOnUse">
<stop offset="0.0036" stop-color="#26264F"/>
<stop offset="1" stop-color="#444B8C"/>
</linearGradient>
<linearGradient id="paint7_linear_4_253" x1="549.789" y1="319.41" x2="618.385" y2="427.9" gradientUnits="userSpaceOnUse">
<stop stop-color="#FCB148"/>
<stop offset="0.0521" stop-color="#FDBA46"/>
<stop offset="0.1424" stop-color="#FFC244"/>
<stop offset="0.3183" stop-color="#FFC444"/>
<stop offset="0.4849" stop-color="#FDB946"/>
<stop offset="0.7754" stop-color="#F99C4D"/>
<stop offset="0.8658" stop-color="#F8924F"/>
<stop offset="1" stop-color="#F8924F"/>
</linearGradient>
<linearGradient id="paint8_linear_4_253" x1="537.326" y1="403.128" x2="551.332" y2="362.367" gradientUnits="userSpaceOnUse">
<stop offset="0.494" stop-color="#EBEFF2"/>
<stop offset="1" stop-color="white"/>
</linearGradient>
<linearGradient id="paint9_linear_4_253" x1="550.625" y1="407.698" x2="564.631" y2="366.936" gradientUnits="userSpaceOnUse">
<stop offset="0.494" stop-color="#EBEFF2"/>
<stop offset="1" stop-color="white"/>
</linearGradient>
<linearGradient id="paint10_linear_4_253" x1="532.482" y1="401.463" x2="546.488" y2="360.702" gradientUnits="userSpaceOnUse">
<stop offset="0.494" stop-color="#EBEFF2"/>
<stop offset="1" stop-color="white"/>
</linearGradient>
<linearGradient id="paint11_linear_4_253" x1="552.183" y1="294.902" x2="538.482" y2="407.387" gradientUnits="userSpaceOnUse">
<stop stop-color="#FCB148"/>
<stop offset="0.0521" stop-color="#FDBA46"/>
<stop offset="0.1424" stop-color="#FFC244"/>
<stop offset="0.3183" stop-color="#FFC444"/>
<stop offset="0.4849" stop-color="#FDB946"/>
<stop offset="0.7754" stop-color="#F99C4D"/>
<stop offset="0.8658" stop-color="#F8924F"/>
<stop offset="1" stop-color="#F8924F"/>
</linearGradient>
<linearGradient id="paint12_linear_4_253" x1="541.683" y1="435.93" x2="644.614" y2="621.78" gradientUnits="userSpaceOnUse">
<stop stop-color="#FFC444"/>
<stop offset="0.9964" stop-color="#F36F56"/>
</linearGradient>
<linearGradient id="paint13_linear_4_253" x1="613.608" y1="559.114" x2="710.858" y2="763.794" gradientUnits="userSpaceOnUse">
<stop stop-color="#0A2640"/>
<stop offset="1" stop-color="#8FB6D5"/>
</linearGradient>
<linearGradient id="paint14_linear_4_253" x1="741.54" y1="709.375" x2="645.281" y2="911.97" gradientUnits="userSpaceOnUse">
<stop stop-color="#0A2640"/>
<stop offset="1" stop-color="white"/>
</linearGradient>
<linearGradient id="paint15_linear_4_253" x1="763.145" y1="536.331" x2="876.788" y2="347.102" gradientUnits="userSpaceOnUse">
<stop stop-color="#FFC444"/>
<stop offset="0.9964" stop-color="#F36F56"/>
</linearGradient>
<linearGradient id="paint16_linear_4_253" x1="755.438" y1="462.886" x2="842.749" y2="305.341" gradientUnits="userSpaceOnUse">
<stop stop-color="#FFC444"/>
<stop offset="0.9964" stop-color="#F36F56"/>
</linearGradient>
<linearGradient id="paint17_linear_4_253" x1="805.724" y1="356.208" x2="756.306" y2="443.18" gradientUnits="userSpaceOnUse">
<stop stop-color="#8FB6D5"/>
<stop offset="0.9964" stop-color="#0A2640"/>
</linearGradient>
<linearGradient id="paint18_linear_4_253" x1="782.093" y1="850.098" x2="976.408" y2="345.124" gradientUnits="userSpaceOnUse">
<stop stop-color="#8FB6D5"/>
<stop offset="0.9964" stop-color="#0A2640"/>
</linearGradient>
<linearGradient id="paint19_linear_4_253" x1="785.157" y1="743.398" x2="642.434" y2="919.177" gradientUnits="userSpaceOnUse">
<stop stop-color="#0A2640"/>
<stop offset="1" stop-color="#8FB6D5"/>
</linearGradient>
<linearGradient id="paint20_linear_4_253" x1="460.074" y1="183.865" x2="459.999" y2="481.752" gradientUnits="userSpaceOnUse">
<stop stop-color="#AB316D"/>
<stop offset="1" stop-color="#792D3D"/>
</linearGradient>
<linearGradient id="paint21_linear_4_253" x1="490.033" y1="397.499" x2="301.639" y2="397.499" gradientUnits="userSpaceOnUse">
<stop offset="0.0114581" stop-color="#0DBBFC"/>
<stop offset="1" stop-color="#65E4A3"/>
</linearGradient>
<linearGradient id="paint22_linear_4_253" x1="490.033" y1="399.544" x2="301.639" y2="399.544" gradientUnits="userSpaceOnUse">
<stop stop-color="#0DBBFC"/>
<stop offset="1" stop-color="#65E4A3"/>
</linearGradient>
<linearGradient id="paint23_linear_4_253" x1="355.55" y1="512.261" x2="146.809" y2="512.261" gradientUnits="userSpaceOnUse">
<stop stop-color="#0DBBFC"/>
<stop offset="1" stop-color="#65E4A3"/>
</linearGradient>
<linearGradient id="paint24_linear_4_253" x1="385.459" y1="285.121" x2="43.5115" y2="76.6617" gradientUnits="userSpaceOnUse">
<stop stop-color="#0A2640"/>
<stop offset="1" stop-color="#8FB6D5"/>
</linearGradient>
<linearGradient id="paint25_linear_4_253" x1="362.114" y1="323.419" x2="20.164" y2="114.958" gradientUnits="userSpaceOnUse">
<stop stop-color="#0A2640"/>
<stop offset="1" stop-color="#0A2640"/>
</linearGradient>
<linearGradient id="paint26_linear_4_253" x1="270.878" y1="452.644" x2="274.973" y2="321.087" gradientUnits="userSpaceOnUse">
<stop stop-color="#AB316D"/>
<stop offset="1" stop-color="#792D3D"/>
</linearGradient>
<linearGradient id="paint27_linear_4_253" x1="291.311" y1="381.05" x2="323.281" y2="257.729" gradientUnits="userSpaceOnUse">
<stop stop-color="#AB316D"/>
<stop offset="1" stop-color="#792D3D"/>
</linearGradient>
<linearGradient id="paint28_linear_4_253" x1="355.55" y1="557.515" x2="146.809" y2="557.515" gradientUnits="userSpaceOnUse">
<stop stop-color="#65E4A3"/>
<stop offset="1" stop-color="#0DBBFC"/>
</linearGradient>
<linearGradient id="paint29_linear_4_253" x1="549.315" y1="792.82" x2="586.148" y2="720.426" gradientUnits="userSpaceOnUse">
<stop stop-color="#AA80F9"/>
<stop offset="0.9964" stop-color="#6165D7"/>
</linearGradient>
<linearGradient id="paint30_linear_4_253" x1="596.861" y1="785.079" x2="608.323" y2="837.207" gradientUnits="userSpaceOnUse">
<stop stop-color="#FFC444"/>
<stop offset="0.9964" stop-color="#F36F56"/>
</linearGradient>
<linearGradient id="paint31_linear_4_253" x1="464" y1="704.348" x2="357.154" y2="959.886" gradientUnits="userSpaceOnUse">
<stop stop-color="#0A2640"/>
<stop offset="0.980208" stop-color="#0DBBFC"/>
</linearGradient>
<linearGradient id="paint32_linear_4_253" x1="461.45" y1="643.564" x2="408.39" y2="764.828" gradientUnits="userSpaceOnUse">
<stop stop-color="#FFC444"/>
<stop offset="0.9964" stop-color="#F36F56"/>
</linearGradient>
<linearGradient id="paint33_linear_4_253" x1="456.314" y1="639.538" x2="397.071" y2="774.93" gradientUnits="userSpaceOnUse">
<stop stop-color="#FFC444"/>
<stop offset="0.9964" stop-color="#F36F56"/>
</linearGradient>
<linearGradient id="paint34_linear_4_253" x1="542.624" y1="831.665" x2="415.853" y2="905.111" gradientUnits="userSpaceOnUse">
<stop stop-color="#0A2640"/>
<stop offset="1" stop-color="#0DBBFC"/>
</linearGradient>
<linearGradient id="paint35_linear_4_253" x1="560.749" y1="736.985" x2="520.86" y2="946.546" gradientUnits="userSpaceOnUse">
<stop stop-color="#0A2640"/>
<stop offset="1" stop-color="#0DBBFC"/>
</linearGradient>
</defs>
</svg>