<svg width="2914" height="2893" viewBox="0 0 2914 2893" fill="none" xmlns="http://www.w3.org/2000/svg">
<path d="M698.63 174.109C601.086 313.748 715.458 540.138 570.72 645.158C429.828 747.388 256.747 579.82 123.966 667.819C-73.008 798.36 -37.037 1395.69 250.949 1766.82C337.556 1878.44 409.922 1921.86 441.972 2048.09C510.793 2319.13 268.921 2480.37 314.949 2614.42C418.588 2916.26 2012.47 3169.54 2652.01 2262.41C2950.7 1838.75 2995.39 1226.96 2728.52 762.315C2246.29 -77.3021 917.502 -139.216 698.63 174.109Z" fill="#F4F7FA"/>
<path d="M1478.04 2764.83C1478.29 2622.15 1500.16 2411.41 1622.53 2209.82C1763.04 1978.33 1907.63 1970.47 2111.01 1740.58C2401.32 1412.43 2307 1074.17 2515.47 1013.4C2617.13 983.762 2747.42 1026.72 2808.86 1110.44C2984.15 1349.31 2686.64 2039.54 2231.47 2196.96C2025.61 2268.15 1887.03 2205.9 1710.04 2327.54C1553.64 2435.02 1499.71 2627.12 1478.04 2764.83Z" fill="#0A2640"/>
<mask id="mask0_11_10" style="mask-type:luminance" maskUnits="userSpaceOnUse" x="1478" y="1004" width="1382" height="1761">
<path d="M1478.04 2764.83C1478.29 2622.15 1500.16 2411.41 1622.53 2209.82C1763.04 1978.33 1907.63 1970.47 2111.01 1740.58C2401.32 1412.43 2307 1074.17 2515.47 1013.4C2617.13 983.762 2747.42 1026.72 2808.86 1110.44C2984.15 1349.31 2686.64 2039.54 2231.47 2196.96C2025.61 2268.15 1887.03 2205.9 1710.04 2327.54C1553.64 2435.02 1499.71 2627.12 1478.04 2764.83Z" fill="white"/>
</mask>
<g mask="url(#mask0_11_10)">
<path d="M1558.79 2432.14L1555.83 2430.25C1587.6 2380.47 1623.82 2333.2 1663.49 2289.75C1754.73 2189.83 1833.88 2144.54 1934.08 2087.2C1999.19 2049.94 2073 2007.71 2163.76 1942.23C2333.52 1819.77 2388.35 1775.19 2450.7 1694.97C2574.15 1536.11 2617.59 1371.48 2632.49 1287.49C2653.63 1168.35 2651.2 1047.52 2625.26 928.354L2628.69 927.608C2654.73 1047.22 2657.17 1168.51 2635.95 1288.1C2620.98 1372.42 2577.38 1537.67 2453.47 1697.12C2390.85 1777.7 2335.89 1822.38 2165.81 1945.08C2074.91 2010.66 2001.01 2052.95 1935.82 2090.25C1835.89 2147.44 1756.95 2192.61 1666.08 2292.12C1626.55 2335.42 1590.45 2382.53 1558.79 2432.14Z" fill="white"/>
<path d="M2527.93 1579.53L2528.78 1576.77C2570.21 1443.37 2513.78 1329.55 2459.14 1257.56C2399.85 1179.43 2329.88 1132.35 2329.18 1131.88L2331.13 1128.96C2331.83 1129.43 2402.29 1176.85 2461.94 1255.44C2516.69 1327.58 2573.21 1441.39 2533 1574.98C2547.96 1571.8 2619.48 1554.69 2695.15 1505.01C2773.26 1453.73 2871.91 1356.23 2898.35 1182.96L2901.82 1183.49C2875.18 1358.1 2775.71 1456.35 2696.96 1508.02C2611.67 1563.98 2531.57 1578.87 2530.77 1579.02L2527.93 1579.53Z" fill="white"/>
<path d="M2491.64 2019.21C2426.94 2019.21 2370.72 2002.31 2329.03 1984.19C2256.79 1952.8 2211.4 1911.02 2210.95 1910.6L2209.87 1909.6L2210.68 1908.36C2287.79 1789.46 2289.82 1683.76 2277.95 1616.04C2265.08 1542.61 2233.55 1496.71 2233.23 1496.25L2236.12 1494.25C2236.44 1494.71 2268.35 1541.13 2281.38 1615.26C2293.36 1683.41 2291.42 1789.59 2214.44 1909.01C2221.73 1915.49 2264.99 1952.55 2330.54 1981.02C2396.64 2009.73 2499.62 2035.33 2614.8 1994.26L2615.98 1997.56C2572.35 2013.12 2530.47 2019.21 2491.64 2019.21Z" fill="white"/>
<path d="M2306.18 2222.83C2173.24 2222.83 2087.22 2184.95 2037.69 2152.16C1980.92 2114.59 1958.39 2075.3 1958.17 2074.9L1957.55 2073.81L1958.39 2072.87C2059.77 1959.68 2050.66 1716.73 2050.55 1714.29L2054.06 1714.14C2054.16 1716.58 2063.28 1959.6 1961.86 2074.25C1965.86 2080.74 1988.88 2115.7 2039.82 2149.36C2091.67 2183.63 2183.87 2223.53 2328.7 2218.96L2328.81 2222.47C2321.12 2222.71 2313.58 2222.83 2306.18 2222.83Z" fill="white"/>
</g>
<path d="M1331.15 2685.87C1338.28 2597.91 1363.19 2463.97 1461.42 2363.15C1632.78 2187.26 1834.39 2310.14 2098.76 2141.87C2311.98 2006.16 2293.3 1854.63 2509.87 1783.13C2546.12 1771.16 2738.74 1703.59 2845.39 1799.89C2905.49 1854.16 2911.66 1936.29 2912.82 1951.71C2930.34 2184.76 2626.94 2467.02 2302.68 2549.8C2116.38 2597.36 2070.64 2555.19 1755.92 2586.33C1570.98 2604.63 1424 2650.95 1331.15 2685.87Z" fill="#0A2640"/>
<mask id="mask1_11_10" style="mask-type:luminance" maskUnits="userSpaceOnUse" x="1331" y="1748" width="1583" height="938">
<path d="M1331.15 2685.87C1338.28 2597.91 1363.19 2463.97 1461.42 2363.15C1632.78 2187.26 1834.39 2310.14 2098.76 2141.87C2311.98 2006.16 2293.3 1854.63 2509.87 1783.13C2546.12 1771.16 2738.74 1703.59 2845.39 1799.89C2905.49 1854.16 2911.66 1936.29 2912.82 1951.71C2930.34 2184.76 2626.94 2467.02 2302.68 2549.8C2116.38 2597.36 2070.64 2555.19 1755.92 2586.33C1570.98 2604.63 1424 2650.95 1331.15 2685.87Z" fill="white"/>
</mask>
<g mask="url(#mask1_11_10)">
<path d="M1281.24 2781.39L1278.08 2779.86C1370.56 2588.39 1484.2 2472.61 1615.85 2435.73C1680.31 2417.67 1726.5 2423.8 1775.41 2430.29C1827.96 2437.27 1882.31 2444.49 1962.6 2419.72C2040.63 2395.66 2074.79 2362.25 2118.05 2319.95C2156.98 2281.89 2205.42 2234.51 2301.4 2179.27C2385.53 2130.84 2442.54 2112.59 2492.85 2096.48C2547.31 2079.04 2590.33 2065.26 2647.58 2019.51C2741.1 1944.77 2807.48 1835.57 2844.9 1694.94L2848.29 1695.84C2810.68 1837.21 2743.89 1947.03 2649.77 2022.25C2592.01 2068.41 2548.72 2082.27 2493.92 2099.82C2443.78 2115.88 2386.96 2134.07 2303.15 2182.31C2207.56 2237.33 2159.28 2284.53 2120.5 2322.46C2076.91 2365.09 2042.47 2398.76 1963.64 2423.08C1882.61 2448.07 1827.88 2440.8 1774.94 2433.77C1726.41 2427.33 1680.56 2421.24 1616.8 2439.1C1486.16 2475.71 1373.26 2590.87 1281.24 2781.39Z" fill="white"/>
<path d="M2626.49 2128.71C2578.49 2128.71 2526.3 2122.53 2471 2106.92L2468.74 2106.28L2470 2104.29C2471.63 2101.71 2632.2 1844.14 2557.93 1702.59L2561.04 1700.97C2600.4 1775.98 2574.31 1882.24 2545.48 1958.16C2517.37 2032.21 2481.28 2092.6 2474.2 2104.17C2626.6 2146.55 2755.18 2116.99 2836.36 2084.61C2924.81 2049.33 2977.65 2003.19 2978.17 2002.73L2980.5 2005.36C2979.97 2005.83 2926.76 2052.3 2837.79 2087.81C2785.09 2108.85 2712.52 2128.71 2626.49 2128.71Z" fill="white"/>
<path d="M2605.35 2373.75C2513.41 2373.75 2434.2 2354.52 2375.32 2333.65C2270.47 2296.48 2205.62 2246.18 2204.97 2245.68L2203.79 2244.74L2204.53 2243.43C2281.35 2107.41 2297.67 1890.61 2297.83 1888.44L2301.33 1888.69C2301.17 1890.86 2284.91 2107.03 2208.34 2243.82C2217.61 2250.79 2280.05 2296.17 2376.61 2330.38C2472.86 2364.48 2623.67 2394.15 2795.6 2341.84L2796.62 2345.2C2728.94 2365.79 2664.51 2373.75 2605.35 2373.75Z" fill="white"/>
<path d="M2249.5 2667.53C1959.18 2601.66 1822.63 2440.18 1821.28 2438.56L1820.1 2437.13L1821.58 2436.03C1966.31 2328.33 1978.95 2093.82 1979.06 2091.46L1982.57 2091.63C1982.46 2093.99 1969.8 2328.53 1825.19 2437.71C1839.26 2453.71 1975.61 2601.78 2250.27 2664.11L2249.5 2667.53Z" fill="white"/>
</g>
<path d="M1465.73 519.676C1486.49 530.217 1512.58 520.538 1523.99 498.057C1535.41 475.576 1527.83 448.805 1507.07 438.264C1505.99 437.718 1504.89 437.259 1503.79 436.819C1507.65 424.379 1510.56 411.842 1512.51 399.3C1513.7 399.297 1514.89 399.277 1516.11 399.168C1539.79 397.056 1558.59 375.29 1558.1 350.549C1557.6 325.809 1538 307.463 1514.31 309.575C1513.07 309.686 1511.86 309.881 1510.65 310.096C1508.17 297.836 1504.78 285.859 1500.5 274.267C1501.59 273.63 1502.68 272.971 1503.74 272.229C1524 258.031 1530.48 230.007 1518.21 209.638C1505.94 189.268 1479.56 184.265 1459.29 198.463C1458.25 199.191 1457.28 199.977 1456.31 200.774C1448.31 191.925 1439.53 183.725 1430.03 176.24C1430.7 175.145 1431.35 174.036 1431.94 172.871C1443.36 150.39 1458.27 125.832 1437.35 115.617C1388.94 91.986 1368.17 112.215 1356.75 134.696C1356.16 135.861 1355.65 137.044 1355.16 138.229C1343.52 134.977 1331.71 132.728 1319.85 131.487C1319.92 130.237 1319.98 128.985 1319.95 127.717C1319.46 102.977 1326.8 89.589 1303.02 89.127C1251.17 88.119 1233.68 110.624 1234.17 135.363C1234.2 136.656 1234.31 137.921 1234.43 139.176C1222.55 142.563 1210.88 146.893 1199.52 152.131C1198.98 151.028 1198.42 149.931 1197.78 148.865C1185.51 128.495 1159.13 123.493 1138.86 137.692C1118.6 151.891 1112.12 179.914 1124.39 200.283C1125.02 201.327 1125.71 202.303 1126.41 203.266C1117.43 212.241 1109.03 221.988 1101.26 232.443C1100.26 231.813 1099.24 231.197 1098.16 230.651C1077.4 220.11 1051.32 229.789 1039.9 252.27C1028.49 274.751 1036.07 301.522 1056.83 312.063C1057.9 312.61 1059 313.068 1060.1 313.508C1056.25 325.948 1053.34 338.485 1051.39 351.026C1050.2 351.03 1049 351.049 1047.79 351.157C1024.1 353.27 1005.3 375.036 1005.8 399.777C1006.29 424.518 1025.9 442.861 1049.59 440.75C1050.82 440.64 1052.04 440.445 1053.25 440.229C1055.72 452.49 1059.12 464.466 1063.39 476.058C1062.3 476.696 1061.22 477.354 1060.16 478.096C1039.89 492.294 1033.41 520.318 1045.69 540.688C1057.96 561.058 1098.59 570.521 1118.86 556.323C1119.9 555.595 1106.62 550.349 1107.59 549.551C1115.59 558.4 1124.37 566.6 1133.87 574.084C1133.2 575.179 1132.55 576.288 1131.96 577.453C1120.54 599.935 1128.12 626.705 1148.88 637.246C1169.64 647.788 1195.73 638.108 1207.14 615.627C1207.73 614.463 1208.24 613.28 1208.73 612.095C1220.38 615.347 1232.18 617.596 1244.05 618.836C1243.98 620.086 1243.92 621.338 1243.94 622.607C1244.44 647.347 1264.04 665.691 1287.73 663.579C1311.42 661.468 1330.22 639.7 1329.72 614.96C1329.7 613.667 1329.59 612.403 1329.46 611.147C1341.34 607.76 1353.01 603.43 1364.37 598.192C1364.91 599.295 1365.47 600.392 1366.11 601.456C1378.39 621.826 1404.77 626.829 1425.03 612.63C1445.3 598.431 1451.78 570.408 1439.5 550.037C1438.88 548.994 1438.19 548.018 1437.49 547.056C1446.46 538.08 1454.87 528.334 1462.63 517.879C1463.64 518.515 1464.66 519.13 1465.73 519.676ZM1206.91 522.961C1131.53 484.687 1104.01 387.49 1145.45 305.865C1186.9 224.24 1281.6 189.097 1356.99 227.371C1432.37 265.645 1459.88 362.842 1418.44 444.467C1377 526.092 1282.29 561.235 1206.91 522.961Z" fill="#0A2640"/>
<path d="M1516.11 399.17C1539.8 397.058 1558.6 375.291 1558.1 350.55C1557.6 325.81 1538 307.465 1514.31 309.577C1513.07 309.687 1511.86 309.883 1510.65 310.098C1508.17 297.837 1504.78 285.861 1500.51 274.269C1501.59 273.632 1502.68 272.973 1503.74 272.23C1524 258.032 1549.08 223.724 1534.78 204.722C1507.64 168.655 1479.56 184.267 1459.29 198.465C1458.25 199.193 1457.28 199.978 1456.31 200.775C1448.31 191.926 1439.53 183.727 1430.03 176.242C1430.69 175.147 1431.35 174.039 1431.94 172.874C1438.15 160.638 1438.7 147.148 1434.6 135.68C1415.02 170.133 1395.71 204.73 1376.75 239.515C1436.89 283.584 1456.03 370.427 1418.44 444.466C1386.59 507.207 1323.27 542.436 1261.44 538.022C1258.68 545.175 1255.97 552.366 1253.02 559.449C1245 578.672 1235.9 597.5 1226.78 616.303C1232.52 617.384 1238.27 618.235 1244.05 618.839C1243.97 620.09 1243.92 621.342 1243.94 622.61C1244.44 647.35 1259.46 668.37 1302.39 666.093C1326.14 664.834 1330.22 639.704 1329.72 614.964C1329.7 613.672 1329.59 612.407 1329.46 611.152C1341.34 607.765 1353.01 603.434 1364.37 598.197C1364.91 599.301 1365.47 600.397 1366.11 601.461C1378.39 621.832 1420.97 630.487 1441.23 616.288C1461.5 602.089 1451.78 570.414 1439.51 550.044C1438.88 549 1438.19 548.025 1437.49 547.062C1446.46 538.087 1454.87 528.34 1462.63 517.886C1463.64 518.516 1464.66 519.132 1465.73 519.677C1486.5 530.219 1512.58 520.539 1523.99 498.058C1535.41 475.578 1527.83 448.806 1507.07 438.266C1505.99 437.719 1504.89 437.261 1503.79 436.822C1507.65 424.382 1510.56 411.844 1512.51 399.304C1513.7 399.298 1514.89 399.278 1516.11 399.17Z" fill="#0A2640"/>
<path d="M1488.06 522.216C1508.83 532.757 1534.91 523.079 1546.32 500.597C1557.74 478.116 1550.16 451.345 1529.4 440.803C1528.32 440.257 1527.23 439.798 1526.12 439.359C1529.98 426.919 1532.89 414.382 1534.84 401.84C1536.03 401.837 1537.22 401.817 1538.44 401.709C1562.13 399.597 1580.93 377.831 1580.43 353.09C1579.94 328.349 1560.33 310.005 1536.64 312.116C1535.4 312.227 1534.19 312.422 1532.98 312.637C1530.5 300.377 1527.11 288.4 1522.84 276.809C1523.93 276.171 1525.01 275.512 1526.07 274.77C1546.34 260.572 1552.82 232.548 1540.54 212.178C1528.27 191.808 1501.89 186.806 1481.62 201.004C1480.59 201.732 1479.61 202.518 1478.64 203.315C1470.64 194.466 1461.86 186.266 1452.36 178.782C1453.03 177.687 1453.68 176.578 1454.27 175.414C1465.69 152.933 1458.11 126.162 1437.35 115.621C1416.58 105.079 1390.5 114.759 1379.08 137.24C1378.49 138.405 1377.98 139.588 1377.49 140.772C1365.85 137.52 1354.05 135.271 1342.18 134.031C1342.25 132.781 1342.31 131.529 1342.29 130.26C1341.79 105.52 1322.18 87.176 1298.5 89.288C1274.81 91.399 1256.01 113.167 1256.5 137.907C1256.53 139.2 1256.64 140.464 1256.77 141.72C1244.88 145.108 1233.21 149.438 1221.86 154.676C1221.32 153.573 1220.76 152.476 1220.11 151.41C1207.84 131.04 1181.46 126.038 1161.2 140.237C1140.93 154.437 1134.45 182.459 1146.72 202.829C1147.35 203.872 1148.04 204.849 1148.74 205.812C1139.77 214.788 1131.36 224.533 1123.59 234.989C1122.59 234.359 1121.57 233.743 1120.49 233.197C1099.73 222.655 1073.65 232.335 1062.23 254.816C1050.82 277.297 1058.4 304.068 1079.16 314.609C1080.24 315.155 1081.34 315.614 1082.44 316.054C1078.58 328.494 1075.67 341.03 1073.72 353.573C1072.53 353.576 1071.33 353.596 1070.12 353.703C1046.43 355.816 1027.63 377.582 1028.13 402.324C1028.62 427.064 1048.23 445.408 1071.92 443.296C1073.16 443.186 1074.37 442.991 1075.58 442.775C1078.06 455.036 1081.45 467.012 1085.72 478.604C1084.63 479.241 1083.55 479.9 1082.49 480.643C1062.22 494.841 1055.74 522.865 1068.02 543.234C1080.29 563.604 1106.67 568.606 1126.94 554.409C1127.98 553.68 1128.95 552.895 1129.92 552.098C1137.92 560.947 1146.7 569.147 1156.2 576.631C1155.53 577.726 1154.88 578.835 1154.29 580C1142.87 602.481 1150.45 629.251 1171.21 639.793C1191.97 650.334 1218.06 640.656 1229.47 618.174C1230.06 617.01 1230.57 615.827 1231.06 614.642C1242.71 617.894 1254.51 620.142 1266.38 621.383C1266.31 622.633 1266.25 623.886 1266.27 625.154C1266.77 649.893 1286.38 668.238 1310.06 666.127C1333.75 664.016 1352.55 642.248 1352.06 617.508C1352.03 616.215 1351.92 614.951 1351.79 613.695C1363.68 610.308 1375.35 605.978 1386.7 600.74C1387.24 601.843 1387.8 602.94 1388.44 604.004C1400.72 624.374 1427.1 629.378 1447.36 615.179C1467.63 600.98 1474.11 572.957 1461.84 552.586C1461.21 551.543 1460.52 550.567 1459.82 549.604C1468.79 540.629 1477.2 530.882 1484.96 520.427C1485.97 521.054 1486.99 521.67 1488.06 522.216ZM1229.24 525.5C1153.86 487.226 1126.34 390.029 1167.79 308.404C1209.23 226.779 1303.94 191.637 1379.32 229.911C1454.7 268.185 1482.22 365.382 1440.77 447.007C1399.33 528.631 1304.62 563.774 1229.24 525.5Z" fill="url(#paint0_linear_11_10)"/>
<path d="M901.254 746.56C915.482 753.784 933.357 747.151 941.179 731.745C949.001 716.339 943.807 697.994 929.579 690.77C928.842 690.395 928.09 690.081 927.335 689.78C929.979 681.255 931.971 672.664 933.308 664.069C934.123 664.067 934.942 664.053 935.773 663.979C952.006 662.532 964.889 647.616 964.549 630.661C964.21 613.707 950.774 601.135 934.542 602.582C933.693 602.658 932.86 602.792 932.032 602.939C930.336 594.537 928.013 586.329 925.082 578.386C925.828 577.949 926.571 577.498 927.297 576.989C941.185 567.26 945.625 548.055 937.214 534.096C928.803 520.137 910.726 516.709 896.838 526.438C896.126 526.937 895.457 527.475 894.795 528.022C889.309 521.958 883.293 516.339 876.784 511.21C877.241 510.459 877.689 509.7 878.095 508.901C885.917 493.495 896.138 476.666 881.799 469.666C848.627 453.472 834.393 467.335 826.571 482.741C826.166 483.539 825.817 484.35 825.481 485.162C817.499 482.933 809.413 481.393 801.28 480.542C801.331 479.686 801.37 478.827 801.353 477.958C801.013 461.005 806.043 451.83 789.749 451.513C754.217 450.822 742.228 466.245 742.568 483.198C742.586 484.084 742.66 484.951 742.748 485.811C734.606 488.132 726.609 491.099 718.825 494.689C718.455 493.933 718.071 493.181 717.632 492.451C709.221 478.492 691.144 475.064 677.256 484.795C663.368 494.525 658.928 513.729 667.339 527.688C667.77 528.403 668.242 529.072 668.721 529.732C662.571 535.883 656.811 542.562 651.489 549.726C650.801 549.294 650.102 548.873 649.365 548.498C635.137 541.274 617.262 547.907 609.44 563.313C601.618 578.719 606.811 597.064 621.039 604.288C621.776 604.663 622.529 604.977 623.283 605.278C620.64 613.803 618.646 622.394 617.309 630.989C616.494 630.991 615.675 631.005 614.844 631.078C598.611 632.526 585.727 647.442 586.067 664.397C586.407 681.351 599.843 693.921 616.075 692.474C616.923 692.399 617.757 692.265 618.585 692.117C620.28 700.519 622.604 708.726 625.535 716.67C624.788 717.107 624.045 717.558 623.32 718.067C609.432 727.796 604.992 747.001 613.403 760.96C621.814 774.919 649.659 781.405 663.547 771.674C664.259 771.175 655.16 767.58 655.821 767.033C661.307 773.097 667.323 778.717 673.832 783.845C673.375 784.596 672.927 785.355 672.521 786.154C664.699 801.56 669.893 819.905 684.12 827.129C698.348 834.353 716.223 827.72 724.045 812.314C724.45 811.516 724.799 810.706 725.135 809.894C733.117 812.123 741.203 813.663 749.336 814.514C749.285 815.37 749.246 816.229 749.263 817.098C749.603 834.051 763.038 846.622 779.271 845.175C795.504 843.728 808.388 828.811 808.047 811.857C808.029 810.971 807.955 810.104 807.867 809.244C816.01 806.923 824.007 803.956 831.79 800.366C832.16 801.122 832.544 801.874 832.983 802.603C841.394 816.562 859.47 819.991 873.359 810.26C887.247 800.53 891.687 781.326 883.276 767.367C882.845 766.652 882.373 765.984 881.894 765.324C888.044 759.173 893.804 752.494 899.126 745.329C899.819 745.764 900.517 746.186 901.254 746.56ZM723.888 748.811C672.229 722.583 653.374 655.976 681.774 600.04C710.174 544.103 775.074 520.021 826.733 546.249C878.392 572.477 897.247 639.084 868.847 695.02C840.447 750.957 775.546 775.039 723.888 748.811Z" fill="#0A2640"/>
<path d="M935.774 663.979C952.007 662.531 964.89 647.615 964.55 630.661C964.211 613.707 950.775 601.135 934.543 602.583C933.694 602.658 932.861 602.793 932.033 602.94C930.338 594.538 928.014 586.331 925.083 578.387C925.829 577.951 926.572 577.499 927.298 576.99C941.186 567.261 958.368 543.75 948.569 530.728C929.972 506.013 910.727 516.711 896.839 526.44C896.127 526.939 895.458 527.477 894.796 528.023C889.31 521.959 883.294 516.34 876.785 511.211C877.242 510.461 877.69 509.701 878.096 508.903C882.353 500.518 882.729 491.274 879.917 483.415C866.503 507.025 853.269 530.733 840.273 554.571C881.485 584.771 894.605 644.283 868.845 695.02C847.016 738.015 803.623 762.157 761.254 759.132C759.364 764.034 757.508 768.962 755.484 773.816C749.992 786.989 743.752 799.892 737.505 812.777C741.434 813.518 745.381 814.101 749.338 814.515C749.287 815.372 749.248 816.23 749.265 817.099C749.605 834.053 759.898 848.458 789.318 846.897C805.592 846.034 808.389 828.813 808.049 811.859C808.031 810.974 807.958 810.107 807.87 809.246C816.012 806.925 824.01 803.957 831.793 800.368C832.163 801.124 832.547 801.876 832.987 802.605C841.398 816.564 870.575 822.495 884.464 812.765C898.352 803.035 891.691 781.329 883.28 767.369C882.849 766.654 882.377 765.985 881.898 765.325C888.048 759.174 893.808 752.495 899.13 745.331C899.819 745.763 900.516 746.185 901.253 746.558C915.481 753.783 933.356 747.149 941.178 731.743C949 716.337 943.807 697.991 929.579 690.768C928.841 690.393 928.089 690.079 927.335 689.778C929.979 681.253 931.971 672.661 933.308 664.068C934.124 664.067 934.943 664.054 935.774 663.979Z" fill="#0A2640"/>
<path d="M916.557 748.301C930.785 755.525 948.66 748.892 956.482 733.486C964.304 718.08 959.111 699.735 944.883 692.511C944.146 692.137 943.394 691.822 942.639 691.521C945.282 682.996 947.275 674.405 948.612 665.81C949.428 665.808 950.246 665.794 951.077 665.72C967.31 664.273 980.193 649.356 979.854 632.402C979.515 615.448 966.079 602.877 949.846 604.324C948.997 604.4 948.164 604.534 947.336 604.681C945.641 596.279 943.317 588.072 940.386 580.128C941.133 579.691 941.876 579.24 942.602 578.731C956.489 569.002 960.93 549.797 952.519 535.838C944.108 521.879 926.031 518.451 912.144 528.181C911.432 528.68 910.763 529.218 910.101 529.764C904.616 523.7 898.6 518.081 892.091 512.952C892.548 512.202 892.996 511.441 893.402 510.644C901.224 495.238 896.031 476.893 881.803 469.669C867.575 462.445 849.7 469.078 841.878 484.484C841.473 485.282 841.123 486.092 840.788 486.904C832.806 484.675 824.719 483.135 816.587 482.284C816.638 481.427 816.677 480.569 816.66 479.7C816.319 462.747 802.885 450.175 786.652 451.623C770.419 453.07 757.536 467.987 757.876 484.94C757.894 485.826 757.968 486.692 758.056 487.553C749.914 489.874 741.917 492.842 734.133 496.431C733.763 495.674 733.379 494.923 732.94 494.193C724.529 480.234 706.452 476.806 692.564 486.536C678.676 496.267 674.236 515.47 682.647 529.429C683.078 530.144 683.55 530.813 684.029 531.473C677.879 537.624 672.119 544.302 666.797 551.468C666.109 551.036 665.411 550.614 664.673 550.24C650.445 543.016 632.57 549.649 624.748 565.055C616.926 580.461 622.119 598.806 636.347 606.03C637.084 606.405 637.837 606.719 638.591 607.02C635.947 615.545 633.954 624.136 632.618 632.731C631.802 632.733 630.984 632.747 630.152 632.821C613.919 634.269 601.036 649.185 601.375 666.139C601.715 683.093 615.15 695.663 631.383 694.217C632.231 694.142 633.065 694.008 633.893 693.86C635.589 702.262 637.912 710.469 640.843 718.413C640.097 718.85 639.353 719.301 638.628 719.81C624.74 729.539 620.3 748.744 628.711 762.703C637.122 776.662 655.199 780.09 669.086 770.36C669.798 769.861 670.468 769.323 671.129 768.776C676.614 774.84 682.631 780.459 689.14 785.588C688.682 786.338 688.234 787.098 687.829 787.896C680.007 803.302 685.2 821.647 699.428 828.871C713.656 836.095 731.531 829.462 739.353 814.056C739.758 813.258 740.107 812.447 740.443 811.636C748.425 813.865 756.512 815.405 764.644 816.255C764.593 817.112 764.554 817.97 764.571 818.839C764.911 835.792 778.346 848.364 794.579 846.917C810.812 845.47 823.696 830.553 823.355 813.599C823.338 812.713 823.264 811.847 823.176 810.986C831.319 808.665 839.316 805.698 847.099 802.108C847.469 802.864 847.853 803.616 848.293 804.345C856.704 818.304 874.78 821.733 888.668 812.003C902.556 802.273 906.996 783.069 898.586 769.109C898.155 768.394 897.683 767.726 897.203 767.066C903.354 760.915 909.113 754.236 914.436 747.071C915.122 747.504 915.819 747.926 916.557 748.301ZM739.191 750.551C687.532 724.322 668.677 657.716 697.077 601.779C725.477 545.843 790.377 521.761 842.036 547.989C893.695 574.217 912.55 640.824 884.15 696.76C855.75 752.697 790.849 776.779 739.191 750.551Z" fill="url(#paint1_linear_11_10)"/>
<path opacity="0.75" d="M2614.83 509.548C2614.83 241.815 2386.89 24.7739 2105.71 24.7739C1824.54 24.7739 1596.59 241.814 1596.59 509.548C1596.59 672.028 1680.55 815.833 1809.41 903.791C1864.07 941.106 1897.23 1002.61 1897.23 1068.8V1105.9C1897.23 1186.5 1962.57 1251.84 2043.17 1251.84H2168.25C2248.86 1251.84 2314.2 1186.5 2314.2 1105.9V1068.8C2314.2 1002.61 2347.35 941.106 2402.02 903.791C2530.88 815.833 2614.83 672.028 2614.83 509.548Z" fill="#F4F7FA"/>
<path d="M2218.65 1467.98C2218.65 1501.01 2168.09 1527.78 2105.71 1527.78C2043.34 1527.78 1992.78 1501.01 1992.78 1467.98C1992.78 1434.96 2043.34 1408.19 2105.71 1408.19C2168.09 1408.19 2218.65 1434.96 2218.65 1467.98Z" fill="url(#paint2_linear_11_10)"/>
<path d="M1955.66 1361.18V1422.23C1955.66 1442.89 1967.42 1461.82 1986.06 1470.71C2011.95 1483.06 2054.99 1496.61 2117.54 1495C2168.29 1493.7 2201.38 1485.41 2222.41 1476.71C2242.74 1468.3 2255.76 1448.2 2255.76 1426.21V1392.42L1955.66 1361.18Z" fill="url(#paint3_linear_11_10)"/>
<path opacity="0.3" d="M1955.66 1414.66C1960.24 1419.1 1965.53 1422.88 1971.48 1425.71C2000.52 1439.56 2190.75 1470.51 2236.64 1453.27C2242.6 1451.03 2247.96 1448.03 2252.65 1444.42C2254.66 1438.65 2255.76 1432.52 2255.76 1426.21V1392.42L1955.66 1361.17V1414.66H1955.66Z" fill="url(#paint4_linear_11_10)"/>
<path d="M1968.99 1319.63C1952.08 1317.87 1937.38 1331.12 1937.38 1348.12V1349.85C1937.38 1373.03 1950.56 1394.26 1971.48 1404.24C2000.52 1418.09 2190.75 1449.03 2236.64 1431.79C2259.74 1423.11 2274.05 1403.28 2274.05 1378.6V1377.21C2274.05 1362.54 2262.97 1350.24 2248.38 1348.72L1968.99 1319.63Z" fill="url(#paint5_linear_11_10)"/>
<path opacity="0.3" d="M2248.38 1348.72L1968.99 1319.63C1957.96 1318.48 1947.9 1323.74 1942.22 1332.24C1947.83 1345.46 1958.05 1356.53 1971.48 1362.93C2000.52 1376.78 2198.85 1411.76 2236.64 1393.96C2251.34 1387.03 2262.88 1375.33 2269.06 1361.1C2264.46 1354.35 2257.05 1349.63 2248.38 1348.72Z" fill="url(#paint6_linear_11_10)"/>
<path d="M1958.05 1220.7C1946.63 1220.7 1937.38 1229.96 1937.38 1241.38V1289.2C1937.38 1312.38 1950.56 1333.62 1971.48 1343.59C2000.52 1357.44 2198.85 1392.42 2236.64 1374.62C2258.96 1364.1 2274.05 1342.63 2274.05 1317.96V1241.38C2274.05 1229.96 2264.79 1220.7 2253.37 1220.7H1958.05Z" fill="url(#paint7_linear_11_10)"/>
<path d="M2269.89 1235.59C2269.89 1257.03 2196.39 1274.4 2105.71 1274.4C2015.04 1274.4 1941.54 1257.03 1941.54 1235.59C1941.54 1214.15 2015.04 1196.77 2105.71 1196.77C2196.39 1196.77 2269.89 1214.15 2269.89 1235.59Z" fill="url(#paint8_linear_11_10)"/>
<path d="M2614.83 509.548C2614.83 241.815 2386.89 24.7739 2105.71 24.7739C1824.54 24.7739 1596.59 241.814 1596.59 509.548C1596.59 672.028 1680.55 815.833 1809.41 903.791C1864.07 941.106 1897.23 1002.61 1897.23 1068.8V1105.9C1897.23 1186.5 1962.57 1251.84 2043.17 1251.84H2168.25C2248.86 1251.84 2314.2 1186.5 2314.2 1105.9V1068.8C2314.2 1002.61 2347.35 941.106 2402.02 903.791C2530.88 815.833 2614.83 672.028 2614.83 509.548Z" fill="url(#paint9_linear_11_10)"/>
<path opacity="0.5" d="M2105.71 1233.39C2172.06 1233.39 2225.84 1220.67 2225.84 1204.98C2225.84 1189.3 2172.06 1176.58 2105.71 1176.58C2039.37 1176.58 1985.58 1189.3 1985.58 1204.98C1985.58 1220.67 2039.37 1233.39 2105.71 1233.39Z" fill="#F4F7FA"/>
<path d="M2074.41 1222.34C2070.97 1222.34 2067.98 1219.78 2067.53 1216.28L1979.15 529.005C1978.67 525.2 1981.35 521.722 1985.16 521.234C1988.97 520.723 1992.44 523.432 1992.93 527.234L2081.3 1214.51C2081.79 1218.31 2079.1 1221.79 2075.3 1222.28C2075 1222.32 2074.7 1222.34 2074.41 1222.34Z" fill="url(#paint10_linear_11_10)"/>
<path d="M2129.3 1222.34C2129.01 1222.34 2128.71 1222.32 2128.41 1222.28C2124.6 1221.79 2121.92 1218.32 2122.41 1214.51L2210.78 527.235C2211.27 523.432 2214.75 520.72 2218.56 521.235C2222.36 521.722 2225.04 525.201 2224.56 529.006L2136.18 1216.28C2135.73 1219.78 2132.74 1222.34 2129.3 1222.34Z" fill="url(#paint11_linear_11_10)"/>
<path d="M2201.27 528.448C2199.02 528.448 2196.8 527.35 2195.47 525.328L2171.08 488.325C2170.83 487.945 2170.44 487.725 2170.09 487.769C2169.49 487.783 2169.23 488.213 2169.14 488.352L2153.04 515.325C2150.37 519.792 2145.69 522.537 2140.53 522.666C2135.39 522.834 2130.54 520.285 2127.64 515.945L2105.53 482.793C2105.29 482.433 2104.97 482.247 2104.57 482.245C2104.1 482.333 2103.88 482.411 2103.65 482.75L2084.22 510.828C2081.42 514.884 2076.82 517.31 2071.92 517.323C2071.92 517.323 2071.9 517.323 2071.89 517.323C2066.99 517.323 2062.38 514.909 2059.56 510.858L2031.55 470.741C2031.3 470.378 2030.94 470.253 2030.56 470.216C2030.16 470.232 2029.85 470.436 2029.63 470.815L2004.07 514.94C2002.15 518.254 1997.9 519.388 1994.58 517.465C1991.26 515.543 1990.13 511.296 1992.05 507.978L2017.61 463.853C2020.21 459.368 2024.84 456.56 2029.98 456.344C2035.08 456.083 2039.97 458.542 2042.94 462.795L2070.94 502.912C2071.18 503.258 2071.5 503.438 2071.89 503.438C2072.26 503.436 2072.57 503.265 2072.81 502.929L2092.23 474.853C2095.07 470.748 2099.75 468.304 2104.69 468.361C2109.66 468.406 2114.3 470.921 2117.08 475.093L2139.19 508.242C2139.44 508.615 2139.81 508.928 2140.18 508.788C2140.78 508.775 2141.04 508.347 2141.12 508.209L2157.22 481.237C2159.9 476.753 2164.6 474.007 2169.78 473.892C2174.91 473.777 2179.79 476.32 2182.67 480.689L2207.06 517.692C2209.17 520.891 2208.29 525.196 2205.09 527.308C2203.91 528.08 2202.59 528.448 2201.27 528.448Z" fill="url(#paint12_linear_11_10)"/>
<path opacity="0.3" d="M2114.95 891.921C2125.86 705.074 2440.85 661.347 2439.5 494.48C2438.67 391.709 2313.5 315.385 2286.77 300.098C2089.82 187.455 1847.41 317.534 1797.35 225.47C1784.88 202.548 1790.72 177.597 1794.05 163.387C1799.09 141.91 1810.48 121.908 1827.37 103.612C1688.42 190.172 1596.59 339.638 1596.59 509.548C1596.59 672.028 1680.55 815.833 1809.41 903.791C1864.07 941.106 1897.23 1002.61 1897.23 1068.8V1105.89C1897.23 1186.5 1962.57 1251.84 2043.17 1251.84H2168.25C2248.86 1251.84 2314.2 1186.5 2314.2 1105.89V1076.24C2296.99 1089.43 2277.21 1098.63 2255.53 1098.45C2180.3 1097.83 2109.52 984.903 2114.95 891.921Z" fill="url(#paint13_linear_11_10)"/>
<path opacity="0.44" d="M2113.86 950.955C2355.82 950.955 2551.96 761.792 2551.96 528.448C2551.96 295.104 2355.82 105.941 2113.86 105.941C1871.9 105.941 1675.75 295.104 1675.75 528.448C1675.75 761.792 1871.9 950.955 2113.86 950.955Z" fill="#F4F7FA"/>
<path d="M531.879 2822.25C628.804 2921.6 805.516 2862.02 1137.98 2843.89C1392.13 2830.03 1600.88 2847.84 1738.28 2865.24C1758.68 2755.27 1783.53 2602.06 1801.8 2418.18C1868.35 1748.33 1911.35 1315.5 1684.23 1083.11C1354.34 745.546 616.778 996.842 534.581 1025.88C639.053 1657.93 588.096 2101.45 517.448 2396.53C488.549 2517.24 431.034 2718.87 531.879 2822.25Z" fill="#69E6A6"/>
<path opacity="0.3" d="M531.879 2822.25C628.804 2921.6 805.516 2862.02 1137.98 2843.89C1392.13 2830.03 1600.88 2847.84 1738.28 2865.24C1759.45 2716.22 1780.63 2567.2 1801.8 2418.18C1815.39 1884.63 1735.4 1719.4 1642.64 1690.03C1489.09 1641.4 1303.76 1966 1132.72 1901.69C975.936 1842.74 1017.32 1527.01 828.501 1463.76C727.111 1429.8 660.637 1502.56 589.127 1459.12C492.688 1400.53 504.231 1201.76 534.581 1025.88C639.053 1657.93 588.094 2101.45 517.448 2396.53C488.549 2517.24 431.034 2718.87 531.879 2822.25Z" fill="#69E6A6"/>
<path d="M534.58 1025.88C492.457 1047.56 157.584 1227.25 81.614 1625.08C30.321 1893.69 104.02 2225.24 314.925 2377.93C621.997 2600.25 1249.85 2465.08 1637.82 1882.45C1634.62 1842.36 1631.41 1802.27 1628.2 1762.18C999.133 2069.21 789.313 2047.78 716.605 1966.63C661.425 1905.04 691.672 1816.26 680.526 1620.27C665.886 1362.8 593.333 1158.16 534.58 1025.88Z" fill="url(#paint14_linear_11_10)"/>
<path d="M1534.25 978.127C1798.72 1113.34 1946.47 1286.87 2019.61 1388.57C2099.36 1499.48 2345.18 1841.33 2212.08 2094.54C2204.41 2109.14 2128.07 2249.91 2010.65 2255.03C1799.79 2264.24 1628.88 1828.54 1570.48 1616.86C1498.85 1357.23 1512.03 1128.48 1534.25 978.127Z" fill="url(#paint15_linear_11_10)"/>
<path d="M1405.5 1086.18C1418.52 1179.9 1440.95 1319.63 1479.76 1487.07C1572.05 1885.13 1631.7 2127.6 1821.37 2218.34C1895.77 2253.93 2012.51 2276.87 2070.77 2224C2195.91 2110.44 1985.05 1707.32 1974.56 1687.62C1924.15 1592.95 1852.88 1504.56 1712.39 1331.64C1616.14 1213.18 1533.55 1117.8 1476.13 1052.86C1452.59 1063.96 1429.04 1075.07 1405.5 1086.18Z" fill="url(#paint16_linear_11_10)"/>
<path d="M1198.84 628.401C1195.41 704.528 1183.7 764.424 1173.46 805.324C1161.73 852.185 1154.45 864.064 1145.46 873.538C1131.93 887.802 1111.96 899.305 1001.47 920.523C941.35 932.065 933.735 931.257 932.111 937.073C924.188 965.459 1080.76 1072 1249.19 1057.33C1352.26 1048.36 1448.46 994.957 1444.39 964.004C1440.28 932.848 1337.21 943.943 1309.73 886.509C1290.61 846.557 1317.31 792.711 1347.82 748.568C1323.35 696.168 1223.3 680.798 1198.84 628.401Z" fill="url(#paint17_linear_11_10)"/>
<path d="M1333.28 628.48C1349.74 591.801 1338.76 536.792 1303.74 508.404C1273.6 483.975 1235.85 488.098 1213.24 490.557C1147.74 497.696 1073.27 542.645 1058.61 607.754C1049.93 646.337 1102.27 710.509 1110.85 722.235C1120.56 735.491 1133.24 737.912 1146.45 746.601C1164.76 758.657 1193.5 777.905 1240.63 810.313C1240.82 797.545 1241.88 781.554 1245.29 763.705C1246.6 756.834 1252.03 729.935 1264.03 705.926C1288.07 657.801 1317.67 663.242 1333.28 628.48Z" fill="url(#paint18_linear_11_10)"/>
<path d="M1178.85 788.094C1178.85 788.094 1236.46 847.393 1318.76 822.969C1392.45 801.099 1365.28 630.873 1309.41 606.14C1290.77 597.887 1257.73 600.211 1233.43 613.384C1219.08 621.166 1215.34 628.716 1191.63 640.969C1169.77 652.28 1162.63 651.195 1156.95 658.687C1149.86 668.066 1147.55 687.622 1173.34 733.328C1155.79 722.126 1137.4 720.472 1126.56 728.959C1124.84 730.32 1120.5 734.979 1118.81 740.93C1112.71 762.465 1135.77 782.956 1178.85 788.094Z" fill="url(#paint19_linear_11_10)"/>
<path d="M1151.29 649.427C1155.51 651.297 1147.54 667.258 1151.05 686.494C1157.86 723.831 1205.37 759.706 1244.4 754.791C1267.48 751.882 1270.59 736.87 1307.01 724.446C1329.55 716.756 1349.45 715.324 1362.15 715.218C1383.09 753.1 1381.25 796.037 1358.41 820.957C1333.82 847.785 1293.76 844.007 1277.01 842.426C1265.81 841.367 1229.92 838.051 1205.5 811.382C1180.05 783.591 1193.53 760.289 1167.75 743.44C1154.74 734.941 1139.85 733.367 1121.59 715.341C1116.63 710.445 1113.04 705.929 1110.78 702.861C1125.43 678.024 1145.18 646.717 1151.29 649.427Z" fill="url(#paint20_linear_11_10)"/>
<path d="M1338.42 736.416C1338.42 736.416 1324.18 748.53 1295.91 753.304C1294.54 753.534 1293.13 754.273 1293.12 755.015C1293.08 757.809 1313.68 765.614 1329.13 757.226C1340.1 751.263 1346.69 738.103 1344.47 735.638C1343.53 734.602 1340.92 735.361 1338.42 736.416Z" fill="url(#paint21_linear_11_10)"/>
<path d="M1397.3 779.055L1447.91 883.037C1447.91 883.037 1453.94 997.757 1476.13 1052.85L1436.71 1071.45C1436.71 1071.45 1319.01 990.092 1409.12 897.463C1409.12 897.463 1373.24 786.898 1397.3 779.055Z" fill="url(#paint22_linear_11_10)"/>
<defs>
<linearGradient id="paint0_linear_11_10" x1="1301.54" y1="156.694" x2="1311.68" y2="975.368" gradientUnits="userSpaceOnUse">
<stop offset="0.0036" stop-color="#0A2640"/>
<stop offset="1" stop-color="#8FB6D5"/>
</linearGradient>
<linearGradient id="paint1_linear_11_10" x1="788.738" y1="497.816" x2="795.685" y2="1058.84" gradientUnits="userSpaceOnUse">
<stop offset="0.0036" stop-color="#0A2640"/>
<stop offset="1" stop-color="#8FB6D5"/>
</linearGradient>
<linearGradient id="paint2_linear_11_10" x1="2095.11" y1="1552.82" x2="2104.15" y2="1480.49" gradientUnits="userSpaceOnUse">
<stop offset="0.0036" stop-color="#26264F"/>
<stop offset="1" stop-color="#444B8C"/>
</linearGradient>
<linearGradient id="paint3_linear_11_10" x1="2057.92" y1="1486.9" x2="2148.34" y2="1324.14" gradientUnits="userSpaceOnUse">
<stop offset="0.0036" stop-color="#26264F"/>
<stop offset="1" stop-color="#444B8C"/>
</linearGradient>
<linearGradient id="paint4_linear_11_10" x1="1955.66" y1="1409.77" x2="2255.77" y2="1409.77" gradientUnits="userSpaceOnUse">
<stop offset="0.0036" stop-color="#26264F"/>
<stop offset="1" stop-color="#444B8C"/>
</linearGradient>
<linearGradient id="paint5_linear_11_10" x1="2066.53" y1="1442.42" x2="2155.82" y2="1270.62" gradientUnits="userSpaceOnUse">
<stop offset="0.0036" stop-color="#26264F"/>
<stop offset="1" stop-color="#444B8C"/>
</linearGradient>
<linearGradient id="paint6_linear_11_10" x1="1942.22" y1="1359.19" x2="2269.06" y2="1359.19" gradientUnits="userSpaceOnUse">
<stop offset="0.0036" stop-color="#26264F"/>
<stop offset="1" stop-color="#444B8C"/>
</linearGradient>
<linearGradient id="paint7_linear_11_10" x1="1937.38" y1="1300.13" x2="2274.05" y2="1300.13" gradientUnits="userSpaceOnUse">
<stop offset="0.0036" stop-color="#26264F"/>
<stop offset="1" stop-color="#444B8C"/>
</linearGradient>
<linearGradient id="paint8_linear_11_10" x1="2097.35" y1="1274.74" x2="2130.51" y2="1119.51" gradientUnits="userSpaceOnUse">
<stop offset="0.0036" stop-color="#26264F"/>
<stop offset="1" stop-color="#444B8C"/>
</linearGradient>
<linearGradient id="paint9_linear_11_10" x1="2033.68" y1="408.619" x2="2691.46" y2="1452.92" gradientUnits="userSpaceOnUse">
<stop stop-color="#FCB148"/>
<stop offset="0.0521" stop-color="#FDBA46"/>
<stop offset="0.1424" stop-color="#FFC244"/>
<stop offset="0.3183" stop-color="#FFC444"/>
<stop offset="0.4849" stop-color="#FDB946"/>
<stop offset="0.7754" stop-color="#F99C4D"/>
<stop offset="0.8658" stop-color="#F8924F"/>
<stop offset="1" stop-color="#F8924F"/>
</linearGradient>
<linearGradient id="paint10_linear_11_10" x1="1913.52" y1="1212.72" x2="2047.64" y2="820.896" gradientUnits="userSpaceOnUse">
<stop offset="0.494" stop-color="#EBEFF2"/>
<stop offset="1" stop-color="white"/>
</linearGradient>
<linearGradient id="paint11_linear_11_10" x1="2041.74" y1="1256.61" x2="2175.87" y2="864.788" gradientUnits="userSpaceOnUse">
<stop offset="0.494" stop-color="#EBEFF2"/>
<stop offset="1" stop-color="white"/>
</linearGradient>
<linearGradient id="paint12_linear_11_10" x1="1866.81" y1="1196.73" x2="2000.93" y2="804.91" gradientUnits="userSpaceOnUse">
<stop offset="0.494" stop-color="#EBEFF2"/>
<stop offset="1" stop-color="white"/>
</linearGradient>
<linearGradient id="paint13_linear_11_10" x1="2056.77" y1="173.225" x2="1925.66" y2="1253.75" gradientUnits="userSpaceOnUse">
<stop stop-color="#FCB148"/>
<stop offset="0.0521" stop-color="#FDBA46"/>
<stop offset="0.1424" stop-color="#FFC244"/>
<stop offset="0.3183" stop-color="#FFC444"/>
<stop offset="0.4849" stop-color="#FDB946"/>
<stop offset="0.7754" stop-color="#F99C4D"/>
<stop offset="0.8658" stop-color="#F8924F"/>
<stop offset="1" stop-color="#F8924F"/>
</linearGradient>
<linearGradient id="paint14_linear_11_10" x1="884.88" y1="1187.7" x2="788.669" y2="3049.37" gradientUnits="userSpaceOnUse">
<stop stop-color="#0DBBFC"/>
<stop offset="1" stop-color="#8FB6D5"/>
</linearGradient>
<linearGradient id="paint15_linear_11_10" x1="2167.07" y1="1243.33" x2="1753.37" y2="1671.46" gradientUnits="userSpaceOnUse">
<stop stop-color="#0DBBFC"/>
<stop offset="1" stop-color="#8FB6D5"/>
</linearGradient>
<linearGradient id="paint16_linear_11_10" x1="1746" y1="1676.07" x2="2328.08" y2="1916.6" gradientUnits="userSpaceOnUse">
<stop stop-color="#0DBBFC"/>
<stop offset="1" stop-color="#8FB6D5"/>
</linearGradient>
<linearGradient id="paint17_linear_11_10" x1="1153.63" y1="1132.15" x2="1240.07" y2="683.726" gradientUnits="userSpaceOnUse">
<stop stop-color="#FCB148"/>
<stop offset="0.0521" stop-color="#FDBA46"/>
<stop offset="0.1424" stop-color="#FFC244"/>
<stop offset="0.3183" stop-color="#FFC444"/>
<stop offset="0.4849" stop-color="#FDB946"/>
<stop offset="0.7754" stop-color="#F99C4D"/>
<stop offset="0.8658" stop-color="#F8924F"/>
<stop offset="1" stop-color="#F8924F"/>
</linearGradient>
<linearGradient id="paint18_linear_11_10" x1="1134.6" y1="1040" x2="1212.53" y2="516.698" gradientUnits="userSpaceOnUse">
<stop stop-color="#311944"/>
<stop offset="1" stop-color="#6B3976"/>
</linearGradient>
<linearGradient id="paint19_linear_11_10" x1="1355.8" y1="671.729" x2="911.504" y2="932.26" gradientUnits="userSpaceOnUse">
<stop stop-color="#FCB148"/>
<stop offset="0.0521" stop-color="#FDBA46"/>
<stop offset="0.1424" stop-color="#FFC244"/>
<stop offset="0.3183" stop-color="#FFC444"/>
<stop offset="0.4849" stop-color="#FDB946"/>
<stop offset="0.7754" stop-color="#F99C4D"/>
<stop offset="0.8658" stop-color="#F8924F"/>
<stop offset="1" stop-color="#F8924F"/>
</linearGradient>
<linearGradient id="paint20_linear_11_10" x1="1197.59" y1="1049.63" x2="1275.61" y2="525.785" gradientUnits="userSpaceOnUse">
<stop stop-color="#311944"/>
<stop offset="1" stop-color="#6B3976"/>
</linearGradient>
<linearGradient id="paint21_linear_11_10" x1="1293.11" y1="748.074" x2="1344.9" y2="748.074" gradientUnits="userSpaceOnUse">
<stop stop-color="#FCB148"/>
<stop offset="0.0521" stop-color="#FDBA46"/>
<stop offset="0.1424" stop-color="#FFC244"/>
<stop offset="0.3183" stop-color="#FFC444"/>
<stop offset="0.4849" stop-color="#FDB946"/>
<stop offset="0.7754" stop-color="#F99C4D"/>
<stop offset="0.8658" stop-color="#F8924F"/>
<stop offset="1" stop-color="#F8924F"/>
</linearGradient>
<linearGradient id="paint22_linear_11_10" x1="1375.12" y1="775.952" x2="1468.16" y2="1173.73" gradientUnits="userSpaceOnUse">
<stop stop-color="#FCB148"/>
<stop offset="0.0521" stop-color="#FDBA46"/>
<stop offset="0.1424" stop-color="#FFC244"/>
<stop offset="0.3183" stop-color="#FFC444"/>
<stop offset="0.4849" stop-color="#FDB946"/>
<stop offset="0.7754" stop-color="#F99C4D"/>
<stop offset="0.8658" stop-color="#F8924F"/>
<stop offset="1" stop-color="#F8924F"/>
</linearGradient>
</defs>
</svg>
