<svg width="1000" height="1000" viewBox="0 0 2865 2835" fill="none" xmlns="http://www.w3.org/2000/svg">
<path d="M2499.15 2427.29C2425.22 2503.5 2359.06 2548.29 2308.41 2582.11C1814.45 2911.94 1249.79 2816.87 1075.22 2784.38C793.557 2731.96 555.797 2694.98 351.519 2510.42C-112.662 2091.05 -90.0849 1216.22 264.606 674.293C306.662 610.037 660.816 85.071 1226.69 11.098C1240.53 9.28895 1250.86 8.25796 1259.91 7.30096C1347.45 -1.96704 1889.91 -50.885 2332.24 319.698C2395.56 372.745 2497.46 468.428 2591.95 614.361C2937.45 1147.96 2938.54 1974.38 2499.15 2427.29Z" fill="#F4F7FA"/>
<path d="M2624.56 1352.28C2624.56 1938.6 2149.44 2435.62 1543.27 2463.33C913.7 2492.11 385.229 2007.23 385.229 1379.31C385.229 751.381 913.7 253.748 1543.26 267.33C2149.44 280.409 2624.56 765.964 2624.56 1352.28Z" fill="#8FB6D5"/>
<path d="M2674.41 1352.28C2674.41 1938.6 2199.29 2435.62 1593.11 2463.33C963.545 2492.11 435.073 2007.23 435.073 1379.31C435.073 751.382 963.545 253.748 1593.11 267.33C2199.29 280.409 2674.41 765.964 2674.41 1352.28Z" fill="#0DBBFC"/>
<path d="M2611.94 1353.04C2611.94 1905.48 2163.77 2372.91 1593.11 2397.85C1001.77 2423.7 506.429 1967.68 506.429 1378.45C506.429 789.212 1001.77 321.236 1593.11 332.808C2163.77 343.974 2611.94 800.59 2611.94 1353.04Z" fill="#0DBBFC"/>
<path d="M1171.53 761.801C1196.6 740.502 1224.06 720.327 1253.84 701.275C1283.58 682.258 1315.63 665.802 1350.01 651.871C1384.3 637.986 1421.44 627.175 1461.4 619.429C1501.25 611.719 1544.27 608.111 1590.41 608.624C1652.92 609.319 1709.65 618.399 1760.67 635.826C1811.51 653.198 1854.96 677.645 1891.05 709.121C1927.05 740.544 1954.87 778.3 1974.57 822.418C1994.23 866.481 2004.07 915.707 2004.07 970.133C2004.07 1023.17 1996.34 1069.07 1980.9 1107.87C1965.42 1146.71 1945.89 1180.55 1922.29 1209.37C1898.63 1238.26 1873.01 1263.33 1845.4 1284.62C1817.74 1305.94 1791.44 1326.07 1766.55 1344.95C1741.59 1363.89 1720.01 1382.45 1701.79 1400.64C1683.55 1418.85 1672.62 1439.27 1669.05 1461.88L1644.31 1616.77L1461.4 1620.39L1442.89 1447.18C1442.15 1443.65 1441.8 1440.64 1441.8 1438.14C1441.8 1435.67 1441.8 1432.65 1441.8 1429.09C1441.8 1397.86 1449.78 1370.61 1465.75 1347.35C1481.69 1324.13 1501.62 1302.29 1525.49 1281.87C1549.32 1261.48 1574.91 1241.63 1602.28 1222.33C1629.59 1203.06 1655.07 1182.25 1678.72 1159.89C1702.33 1137.57 1721.97 1112.31 1737.68 1084.1C1753.36 1055.93 1761.21 1022.85 1761.21 984.889C1761.21 959.579 1756.39 936.902 1746.77 916.846C1737.14 896.778 1723.76 879.509 1706.62 865.019C1689.45 850.53 1668.86 839.35 1644.85 831.48C1620.79 823.616 1594.73 819.605 1566.64 819.474C1525.49 819.283 1490.58 823.557 1461.95 832.291C1433.25 841.056 1408.89 850.904 1388.86 861.846C1368.8 872.818 1351.82 882.728 1337.95 891.588C1324.05 900.472 1311.61 904.888 1300.62 904.866C1274.23 904.813 1255.12 894.065 1243.37 872.61L1171.53 761.801ZM1379.57 2021.04C1379.57 1999.01 1383.76 1977.89 1392.14 1957.72C1400.51 1937.57 1412.16 1920.18 1427.08 1905.53C1441.97 1890.91 1459.58 1879.06 1479.89 1869.99C1500.16 1860.93 1521.87 1856.09 1544.99 1855.46C1567.35 1854.86 1588.6 1858.52 1608.76 1866.45C1628.87 1874.37 1646.09 1885.19 1660.45 1898.88C1674.77 1912.59 1686.23 1929.16 1694.82 1948.63C1703.4 1968.09 1707.69 1988.74 1707.69 2010.56C1707.69 2033.11 1703.4 2054.19 1694.82 2073.84C1686.23 2093.53 1674.77 2110.66 1660.45 2125.26C1646.09 2139.89 1628.87 2151.62 1608.76 2160.46C1588.6 2169.31 1567.34 2174.17 1544.99 2174.99C1521.87 2175.85 1500.16 2172.56 1479.89 2165.16C1459.58 2157.75 1441.97 2147.21 1427.08 2133.52C1412.16 2119.85 1400.51 2103.38 1392.14 2084.1C1383.76 2064.83 1379.57 2043.82 1379.57 2021.04Z" fill="white"/>
<path opacity="0.3" d="M1105.18 889.623C1067.95 768.282 1069.66 583.988 1251.2 311.704C782.878 446.615 435.072 871.296 435.072 1379.31C435.072 2007.23 963.544 2492.11 1593.11 2463.33C1825.24 2452.72 2037.78 2373.48 2211.45 2247.76C2206.07 2080.3 2169.63 1896.99 2067.18 1727.91C1785.47 1263 1221.99 1270.32 1105.18 889.623Z" fill="url(#paint0_linear_7_414)"/>
<path d="M2719.92 64.362L1930.5 28.369C1872.78 26.718 1825.84 70.922 1825.84 127.108V436.065L1699.67 556.278L1825.84 557.856L1927.73 559.13L2752.21 569.442C2806.9 570.126 2851.09 526.543 2851.09 472.1V153.286C2851.09 98.843 2774.6 65.927 2719.92 64.362Z" fill="url(#paint1_linear_7_414)"/>
<path d="M2766.11 51.8779L1944.4 28.3679C1886.68 26.7169 1839.75 70.9209 1839.75 127.107V436.064L1713.58 556.277L1839.75 557.855L1941.63 559.129L2766.11 569.441C2820.8 570.125 2865 526.542 2865 472.099V153.286C2865 98.8429 2820.8 53.4429 2766.11 51.8779Z" fill="#65E4A3"/>
<g opacity="0.54">
<path d="M1942.05 217.553L2751.83 236.073V197.792L1942.05 178.308V217.553Z" fill="white"/>
<path d="M1942.05 293.97L2751.83 310.612V272.331L1942.05 254.725V293.97Z" fill="white"/>
<path d="M2260.67 376.196L2751.83 385.151V346.87L2260.67 337.33V376.196Z" fill="white"/>
</g>
<path d="M1769.82 2634.91C1912.25 2617.6 1941.65 2651.07 2086.56 2644.51C2229.1 2638.05 2238.88 2603.93 2355.32 2610.91C2460 2617.19 2594.79 2653.33 2595.27 2692.5C2595.8 2735.61 2433.78 2796.24 2278.53 2774.08C2192.15 2761.76 2198.11 2736.68 2115.36 2726.09C1965.45 2706.91 1921.38 2786.09 1769.82 2769.28C1682.12 2759.56 1590.58 2721.27 1592.25 2692.5C1594.36 2656.23 1744.44 2637.99 1769.82 2634.91Z" fill="#D8DEE8"/>
<path d="M2094.69 2647.32C2050.51 2429.01 2069.54 2253.57 2089.6 2147.62C2113.95 2019.1 2163.43 1757.81 2371.14 1612.17C2387.51 1600.69 2550 1488.94 2622.98 1544.44C2660.62 1573.07 2669.21 1642.2 2652.76 1696.76C2610.27 1837.65 2418.69 1822.02 2355.04 1982.36C2333.85 2035.75 2329.92 2100.91 2344.7 2107.05C2362.9 2114.61 2414.8 2034.95 2419.75 2027.35C2466.02 1956.33 2466.45 1916.11 2501.74 1905.21C2523.4 1898.51 2551.96 1904.79 2564.73 1921.9C2593.82 1960.87 2536.36 2049.64 2520.3 2074.46C2478.28 2139.38 2443.19 2154.13 2434.66 2209.4C2430.99 2233.2 2431.64 2268.38 2445.75 2273.87C2464.84 2281.28 2501.28 2231.56 2524.66 2199.66C2587.51 2113.91 2594.21 2064.05 2625.46 2060.48C2654.61 2057.14 2687.46 2096.11 2695.89 2119.85C2718.92 2184.65 2626.36 2322.57 2094.69 2647.32Z" fill="#8FB6D5"/>
<path opacity="0.28" d="M2101.34 2609.87C2094.74 2407.01 2127.57 2246.19 2157.32 2140.67C2195.56 2005.01 2267.48 1749.87 2469.24 1639.46C2483.58 1631.62 2589.06 1573.89 2618.53 1604.81C2638.18 1625.41 2620.77 1681.98 2591.87 1719.44C2542.57 1783.36 2485.78 1758 2405.26 1820.75C2333.01 1877.05 2307.63 1952.87 2301.28 1972.71C2277.72 2046.31 2289.96 2109.42 2293.29 2132.67C2305.9 2220.98 2280.07 2365.63 2101.34 2609.87Z" fill="white"/>
<path opacity="0.28" d="M2173.32 2559.22C2286.46 2457.89 2312.61 2374.87 2314.61 2316.62C2316.18 2271.23 2303.9 2217.36 2338.61 2167.32C2360.81 2135.31 2377.55 2140.47 2415.92 2106.01C2496.08 2034.01 2506.04 1936.97 2522.56 1940.72C2531.76 1942.8 2536.53 1974.63 2530.56 2004.7C2518.24 2066.74 2469.72 2073.24 2421.25 2148.66C2388.14 2200.18 2376.65 2250.27 2370.6 2276.63C2355.84 2340.94 2365.86 2363.5 2357.27 2399.26C2346.13 2445.61 2305.82 2505.42 2173.32 2559.22Z" fill="white"/>
<path d="M2162.66 2682.59C2358.79 2693.83 2417.09 2705.59 2509.51 2674.09C2596.35 2644.5 2685.44 2586.22 2677.61 2559.47C2672 2540.28 2617.48 2540.53 2584.91 2540.68C2497.52 2541.09 2425.45 2567.86 2374.89 2593.73C2418.5 2564.13 2462.11 2534.54 2505.73 2504.94C2536.18 2494.04 2587.71 2470.92 2633.36 2422.07C2661.94 2391.49 2727.61 2308.65 2702.92 2268.85C2677.14 2227.28 2554.65 2235.67 2484.05 2294.64C2450.17 2322.93 2450.12 2344.58 2404.71 2393.98C2363.44 2438.87 2320.84 2467.37 2290.91 2484.57C2318.95 2449.5 2357.1 2394.73 2386.76 2320.92C2431.82 2208.76 2465.84 2031.33 2408.52 1999.07C2370.5 1977.68 2295.12 2021.76 2257.42 2074.01C2226.85 2116.38 2229.85 2151.91 2208.81 2288.03C2199.67 2347.21 2190.7 2394.86 2184.88 2424.43C2126.55 2296.48 2109.63 2188.84 2106.21 2109.73C2101.82 2008.07 2118.64 1928.41 2079.76 1907.23C2045.1 1888.34 1983.22 1925.19 1951.83 1959.76C1824.8 2099.7 1992.41 2428.11 2010.13 2462C1963.51 2426.7 1899.28 2371.47 1837.06 2291.65C1770.53 2206.28 1742.43 2142.74 1708.61 2148.43C1674.97 2154.09 1652.8 2225.7 1655.32 2281.12C1662.36 2435.63 1864.15 2526.37 1885.69 2535.72C1868.71 2538.46 1839.93 2541.33 1806 2534.85C1730.76 2520.49 1707.3 2474.88 1630.97 2459.4C1601.77 2453.48 1542.08 2447.34 1534.72 2465.42C1521.52 2497.86 1672.29 2619.71 1855.23 2666.17C1922.28 2683.2 1906.25 2667.9 2162.66 2682.59Z" fill="#65E4A3"/>
<path opacity="0.28" d="M2292.11 2570.81C2381.4 2531.12 2369.26 2477.14 2466.95 2410.29C2529.5 2367.49 2544.04 2383.09 2611.07 2342.17C2647.94 2319.66 2678.08 2293.85 2702.55 2268.33C2702.67 2268.51 2702.81 2268.67 2702.92 2268.85C2727.61 2308.65 2661.94 2391.49 2633.36 2422.07C2587.71 2470.92 2536.18 2494.04 2505.73 2504.94C2462.11 2534.53 2418.5 2564.13 2374.89 2593.73C2425.45 2567.86 2497.52 2541.09 2584.91 2540.68C2613.3 2540.55 2658.37 2540.34 2673.18 2553C2646.94 2569.28 2623.33 2577.11 2604.11 2581.03C2560.3 2589.97 2532.82 2579.97 2494.92 2602.81C2464.51 2621.14 2467.05 2636.71 2440.28 2646.64C2415.08 2655.98 2402.21 2646.12 2340.04 2635.91C2279.57 2625.98 2248.83 2621.33 2224.4 2636.68C2205.93 2648.29 2196.12 2667.42 2190.71 2684.26C2184.44 2683.87 2178.03 2683.49 2171.46 2683.1C2176.32 2663.78 2185.25 2641.62 2202.25 2621.83C2229.21 2590.46 2258.7 2585.66 2292.11 2570.81Z" fill="white"/>
<path opacity="0.28" d="M2037.66 2639.43C2023.55 2636.05 2016.81 2646.14 1997.22 2648.68C1960.81 2653.41 1947.16 2623.37 1904.36 2609.09C1853.7 2592.2 1840.85 2623.62 1790.39 2607.99C1750.45 2595.62 1755.6 2575.03 1703.41 2544.96C1647.88 2512.96 1624.37 2526.08 1583.56 2499.67C1570.44 2491.18 1555.47 2478.55 1541.22 2458.9C1559.16 2449.17 1606.11 2454.35 1630.97 2459.4C1707.3 2474.88 1730.77 2520.49 1806 2534.85C1839.93 2541.33 1868.71 2538.45 1885.69 2535.72C1864.15 2526.37 1662.36 2435.63 1655.32 2281.12C1652.98 2229.71 1671.9 2164.41 1701.5 2150.7C1697.98 2186.39 1697.49 2216.9 1698.03 2240.9C1699.29 2296.73 1700.29 2325.12 1717.95 2348.41C1748.59 2388.82 1785.94 2367.76 1836.88 2409.76C1883.24 2448 1867.09 2477.66 1915.46 2515.96C1957.2 2549 1981.94 2536.97 2021.21 2563.76C2045.85 2580.57 2075.77 2612.41 2093.75 2679.03C2085.57 2678.66 2077.73 2678.32 2070.27 2678.02C2063.17 2659.13 2052.87 2643.07 2037.66 2639.43Z" fill="white"/>
<path opacity="0.28" d="M2081.72 2428.86C2057.28 2362.3 2014.85 2369.15 1997.15 2310.52C1979.56 2252.25 2018.05 2234.14 2008.24 2149.76C2000.89 2086.54 1977.02 2077.23 1975.43 2034.03C1974.26 2002.17 1985.49 1958.77 2037.41 1904.98C2053.16 1900.84 2068.02 1900.83 2079.76 1907.22C2118.64 1928.41 2101.82 2008.07 2106.21 2109.72C2109.63 2188.84 2126.55 2296.48 2184.88 2424.43C2190.7 2394.86 2199.67 2347.21 2208.81 2288.03C2229.85 2151.9 2226.85 2116.37 2257.42 2074.01C2295.12 2021.76 2370.51 1977.68 2408.52 1999.07C2410.7 2000.3 2412.72 2001.75 2414.64 2003.38C2395.67 2016.31 2378.18 2032.19 2363.47 2051.79C2313.33 2118.61 2341.86 2166.48 2296.4 2298.28C2252.68 2425.03 2208.33 2432.86 2173.14 2542.39C2161.9 2577.37 2151.32 2623.67 2149.13 2681.83C2136.29 2681.12 2124.19 2680.49 2112.73 2679.93C2099.57 2636.79 2093.36 2598.18 2090.71 2565.43C2084.88 2493.32 2098.22 2473.83 2081.72 2428.86Z" fill="white"/>
<path d="M597.018 2623.51C818.548 2625.46 1048.78 2627.49 1055.95 2675.67C1062.38 2718.82 887.136 2780.54 784.765 2806.04C684.367 2831.06 512.315 2856.56 310.186 2800.83C236.033 2780.39 53.4731 2720.24 59.8581 2675.67C67.9951 2618.86 378.091 2621.59 597.018 2623.51Z" fill="#D8DEE8"/>
<path d="M729.642 2667.03C729.642 2667.03 721.81 2674.37 721.792 2687.33C721.787 2691.19 723.544 2694.89 726.672 2697.35C733.539 2702.76 748.721 2713.43 772.372 2723.28C805.827 2737.22 817.133 2735.99 818.538 2730.41C819.943 2724.83 802.741 2709.61 787.996 2696.31C773.252 2683.01 729.642 2667.03 729.642 2667.03Z" fill="url(#paint2_linear_7_414)"/>
<path d="M718.982 2614.95C718.982 2614.95 729.573 2665.66 728.669 2684.17C728.669 2684.17 742.054 2696.02 761.105 2684.17C761.105 2684.17 751.371 2637.87 756.165 2618.67L718.982 2614.95Z" fill="url(#paint3_linear_7_414)"/>
<path d="M354.975 2684.43C354.975 2684.43 346.203 2690.61 344.392 2703.45C343.852 2707.27 345.081 2711.17 347.838 2714.05C353.89 2720.35 367.449 2733.02 389.508 2746.05C420.713 2764.49 432.079 2764.83 434.244 2759.5C436.408 2754.17 421.478 2736.71 408.715 2721.5C395.953 2706.29 354.975 2684.43 354.975 2684.43Z" fill="url(#paint4_linear_7_414)"/>
<path d="M339.268 2637.64C339.268 2637.64 349.859 2688.35 348.953 2706.86C348.953 2706.86 362.338 2718.71 381.389 2706.86C381.389 2706.86 371.655 2660.56 376.449 2641.36L339.268 2637.64Z" fill="url(#paint5_linear_7_414)"/>
<path d="M850.882 1555.66C854.131 1707.89 851.993 1871.2 841.999 2044.19C829.516 2260.26 806.56 2460.5 778.048 2642.84C767.864 2645.67 753.876 2648.38 737.189 2648.17C725.43 2648.03 715.213 2646.48 706.99 2644.62C702.357 2623.1 695.14 2590.33 685.672 2550.47C668.528 2478.29 664.387 2468.68 659.026 2443.89C636.788 2341.03 665.993 2311.95 651.92 2205.84C648.833 2182.57 647.516 2184.63 616.392 2072.61C577.585 1932.94 557.973 1863.15 548.887 1809.7C524.501 1666.25 512.309 1594.53 552.44 1550.33C604.881 1492.58 726.827 1501.58 850.882 1555.66Z" fill="#8FB6D5"/>
<path opacity="0.3" d="M744.296 2555.8C727.642 2508.55 756.875 2484.52 756.731 2403.03C756.608 2332.73 734.809 2323.96 728.308 2244.93C722.347 2172.47 738.367 2151.85 742.52 2085.05C750.346 1959.13 700.606 1916.88 691.004 1820.36C684.391 1753.9 696.42 1657.21 784.979 1531.14C685.476 1500.53 595.512 1502.9 552.442 1550.34C512.311 1594.53 524.503 1666.25 548.889 1809.7C557.975 1863.15 577.587 1932.94 616.394 2072.61C647.518 2184.63 648.835 2182.57 651.922 2205.84C665.995 2311.96 636.791 2341.03 659.028 2443.89C664.389 2468.69 668.53 2478.3 685.674 2550.47C695.142 2590.33 702.36 2623.1 706.992 2644.63C715.215 2646.48 725.432 2648.03 737.191 2648.18C753.877 2648.38 767.865 2645.67 778.05 2642.85C779.792 2631.71 781.51 2620.5 783.21 2609.23C766.414 2595.28 752.048 2577.8 744.296 2555.8Z" fill="url(#paint6_linear_7_414)"/>
<path d="M687.449 1545.01C626.368 1710.86 566.753 1895.2 513.754 2096.9C462.218 2293.03 424.214 2477.87 396.112 2648.17C388.182 2651.82 373.087 2657.47 353.478 2657.06C336.753 2656.7 323.734 2652.08 316.123 2648.69C296.435 2598.76 275.878 2533.79 263.705 2456.14C255.889 2406.29 247.375 2351.98 253.997 2282.23C262.798 2189.55 288.319 2174.91 300.184 2083.27C309.052 2014.78 297.611 2001.24 294.855 1902.07C290.582 1748.26 288.38 1668.99 326.831 1614.29C409.437 1496.77 647.933 1537.77 687.449 1545.01Z" fill="#8FB6D5"/>
<path d="M270.573 859.309C297.081 831.564 387.485 743.865 535.937 721.887C687.063 699.513 800.659 759.708 833.532 778.693C897.178 920.174 896.175 1022.36 882.858 1090.24C874.715 1131.74 864.451 1147.77 859.764 1198.6C851.662 1286.46 874.299 1325.68 893.682 1438.64C899.309 1471.44 931.637 1659.83 891.74 1674.69C870.122 1682.73 852.94 1630.29 790.483 1617.84C747.371 1609.25 732.744 1629.69 676.791 1624.95C625.506 1620.59 623.339 1602.2 581.811 1595.84C515.295 1585.65 491.253 1628.32 364.319 1667.19C301.445 1686.45 252.737 1700.75 229.684 1677.55C214.677 1662.44 215.049 1635.98 227.675 1581.36C253.192 1470.97 286.834 1426.92 309.307 1360.28C334.409 1285.83 330.946 1226.57 325.056 1125.77C319.03 1022.63 296.834 932.759 270.573 859.309Z" fill="#0A2640"/>
<path opacity="0.3" d="M911.283 1595.97C866.025 1594.19 840.115 1580.02 824.235 1564.55C779.549 1521.02 806.235 1459.67 757.619 1420.66C697.223 1372.19 615.438 1434.29 573.758 1391.35C534.959 1351.37 595.757 1287.19 568.429 1170.18C563.191 1147.76 545.377 1071.48 483.16 1020.96C408.636 960.437 339.343 992.839 299.298 943.684C297.782 941.826 296.314 939.844 294.901 937.746C309.759 993.881 321.028 1056.84 325.056 1125.77C330.946 1226.58 334.409 1285.83 309.307 1360.28C286.835 1426.92 253.192 1470.97 227.675 1581.36C215.049 1635.98 214.676 1662.44 229.684 1677.55C252.737 1700.75 301.445 1686.45 364.319 1667.2C491.253 1628.32 515.295 1585.65 581.811 1595.84C623.339 1602.2 625.506 1620.59 676.791 1624.95C732.744 1629.69 747.37 1609.25 790.483 1617.84C852.94 1630.29 870.122 1682.73 891.74 1674.69C907.517 1668.81 911.978 1635.77 911.283 1595.97Z" fill="url(#paint7_linear_7_414)"/>
<path d="M769.165 795.353C773.388 777.616 777.369 764.33 787.75 760.566C830.158 745.197 948.848 899.847 976.227 1070.41C979.098 1088.3 1004.32 1245.55 947.942 1270.87C903.238 1290.94 827.023 1218.14 788.705 1164.85C706.519 1050.54 740.097 917.438 769.165 795.353Z" fill="url(#paint8_linear_7_414)"/>
<path d="M298.856 1361.73C288.017 1360.97 138.711 1348.23 80.3551 1232.49C19.7821 1112.36 109.002 984.002 136.313 944.709C241.299 793.667 485.429 702.694 526.363 748.857C555.87 782.134 468.298 904.625 428.093 959.365C355.439 1058.29 277.822 1062.86 260.22 1132.57C251.792 1165.94 255.867 1219.22 324.148 1300.44C315.718 1320.87 307.287 1341.3 298.856 1361.73Z" fill="url(#paint9_linear_7_414)"/>
<path d="M548.774 625.215C553.463 638.173 559.694 666.767 545.747 692.554C533.534 715.133 510.855 725.05 501.785 729.117C479.864 738.948 466.678 736.007 466.086 740.147C464.776 749.313 527.27 778.905 591.915 765.913C629.909 758.28 665.889 736.489 663.499 724.27C660.818 710.559 612.006 720.087 595.195 693.529C584.453 676.556 591.524 652.345 600.325 632.956C587.784 622.393 561.349 635.8 548.774 625.215Z" fill="url(#paint10_linear_7_414)"/>
<path d="M621.502 626.48C626.962 614.52 624.392 596.05 614.21 586.067C605.445 577.474 593.986 578.258 587.12 578.724C567.205 580.082 544.012 593.913 538.652 615.417C535.475 628.172 550.468 650.391 552.908 654.436C555.669 659.009 559.485 660.004 563.369 663.101C568.751 667.398 577.197 674.247 591.026 685.754C591.257 681.494 591.798 676.169 593.074 670.26C593.565 667.987 595.575 659.09 599.532 651.257C607.455 635.57 616.322 637.826 621.502 626.48Z" fill="url(#paint11_linear_7_414)"/>
<path d="M572.618 677.438C572.618 677.438 589.252 698.082 614.486 691.104C637.033 684.869 631.122 627.758 614.6 618.68C609.084 615.651 599.068 615.925 591.543 619.946C587.095 622.324 585.859 624.784 578.519 628.512C571.742 631.957 569.594 631.488 567.771 633.903C565.493 636.926 564.521 643.421 571.706 659.064C566.54 655.064 560.987 654.24 557.584 656.917C557.041 657.345 555.659 658.838 555.064 660.801C552.913 667.908 559.626 675.094 572.618 677.438Z" fill="url(#paint12_linear_7_414)"/>
<path d="M595.429 702.638C586.612 698.004 587.607 687.117 589.765 679.245C590.971 674.848 596.29 673.137 599.912 675.905C605.521 680.189 613.673 685.63 620.83 687.37C633.218 690.382 643.71 758.032 643.71 758.032L633.208 765.194C633.208 765.194 622.669 740.267 611.335 721.664C605.85 712.658 600.179 705.135 595.429 702.638Z" fill="url(#paint13_linear_7_414)"/>
<path d="M615.953 749.465L645.267 736.35C679.173 796.746 711.277 842.29 733.943 872.304C771.45 921.97 795.252 945.197 856.764 1025.63C891.621 1071.21 904.757 1090.92 917.497 1113.33C941.331 1155.26 982.511 1227.69 955.69 1261.67C949.173 1269.92 940.797 1273.18 932.361 1276.46C893.615 1291.52 852.781 1271.9 832.228 1261.67C725.249 1208.42 663.613 1096.11 663.613 1096.11C585.392 953.577 605.037 806.724 615.953 749.465Z" fill="#65E4A3"/>
<path d="M315.359 1321.74C315.359 1321.74 338.826 1295.11 358.811 1300.44C378.796 1305.77 404.11 1329.75 404.11 1329.75C404.11 1329.75 404.11 1353.73 385.458 1347.07C366.805 1340.41 304.422 1348.24 304.422 1348.24L315.359 1321.74Z" fill="url(#paint14_linear_7_414)"/>
<defs>
<linearGradient id="paint0_linear_7_414" x1="435.073" y1="1388.13" x2="2211.45" y2="1388.13" gradientUnits="userSpaceOnUse">
<stop stop-color="#FFC444"/>
<stop offset="0.9964" stop-color="#F36F56"/>
</linearGradient>
<linearGradient id="paint1_linear_7_414" x1="1699.67" y1="298.888" x2="2851.09" y2="298.888" gradientUnits="userSpaceOnUse">
<stop stop-color="#0A2640"/>
<stop offset="0.9964" stop-color="#26264F"/>
</linearGradient>
<linearGradient id="paint2_linear_7_414" x1="721.792" y1="2700.68" x2="818.619" y2="2700.68" gradientUnits="userSpaceOnUse">
<stop stop-color="#444B8C"/>
<stop offset="0.9964" stop-color="#26264F"/>
</linearGradient>
<linearGradient id="paint3_linear_7_414" x1="757.054" y1="2745" x2="732.184" y2="2586" gradientUnits="userSpaceOnUse">
<stop stop-color="#311944"/>
<stop offset="1" stop-color="#893976"/>
</linearGradient>
<linearGradient id="paint4_linear_7_414" x1="344.267" y1="2723.46" x2="434.455" y2="2723.46" gradientUnits="userSpaceOnUse">
<stop stop-color="#444B8C"/>
<stop offset="0.9964" stop-color="#26264F"/>
</linearGradient>
<linearGradient id="paint5_linear_7_414" x1="361.709" y1="2748.15" x2="359.044" y2="2601.6" gradientUnits="userSpaceOnUse">
<stop stop-color="#311944"/>
<stop offset="1" stop-color="#893976"/>
</linearGradient>
<linearGradient id="paint6_linear_7_414" x1="655.672" y1="1510.91" x2="655.672" y2="2648.19" gradientUnits="userSpaceOnUse">
<stop stop-color="#8FB6D5"/>
<stop offset="1" stop-color="#0A2640" stop-opacity="0.67"/>
</linearGradient>
<linearGradient id="paint7_linear_7_414" x1="177.5" y1="1756" x2="852.531" y2="913.016" gradientUnits="userSpaceOnUse">
<stop offset="0.0036" stop-color="#65E4A3"/>
<stop offset="0.0037" stop-color="#0A2640"/>
</linearGradient>
<linearGradient id="paint8_linear_7_414" x1="511.109" y1="1336.12" x2="1041.38" y2="860.482" gradientUnits="userSpaceOnUse">
<stop stop-color="#65E4A3"/>
<stop offset="0.0001" stop-color="#0A2640"/>
</linearGradient>
<linearGradient id="paint9_linear_7_414" x1="299.066" y1="1073.08" x2="865.864" y2="564.668" gradientUnits="userSpaceOnUse">
<stop stop-color="#65E4A3"/>
<stop offset="0.0001" stop-color="#0A2640"/>
</linearGradient>
<linearGradient id="paint10_linear_7_414" x1="669.607" y1="534.353" x2="523.051" y2="813.254" gradientUnits="userSpaceOnUse">
<stop stop-color="#311944"/>
<stop offset="1" stop-color="#893976"/>
</linearGradient>
<linearGradient id="paint11_linear_7_414" x1="561.2" y1="760.61" x2="607.481" y2="592.35" gradientUnits="userSpaceOnUse">
<stop stop-color="#444B8C"/>
<stop offset="0.9964" stop-color="#26264F"/>
</linearGradient>
<linearGradient id="paint12_linear_7_414" x1="616.432" y1="720.575" x2="595.781" y2="665.283" gradientUnits="userSpaceOnUse">
<stop stop-color="#311944"/>
<stop offset="1" stop-color="#893976"/>
</linearGradient>
<linearGradient id="paint13_linear_7_414" x1="620.611" y1="779.455" x2="617.947" y2="747.479" gradientUnits="userSpaceOnUse">
<stop stop-color="#311944"/>
<stop offset="1" stop-color="#893976"/>
</linearGradient>
<linearGradient id="paint14_linear_7_414" x1="425.054" y1="1242.12" x2="325.129" y2="1376.69" gradientUnits="userSpaceOnUse">
<stop stop-color="#311944"/>
<stop offset="1" stop-color="#893976"/>
</linearGradient>
</defs>
</svg>
