<svg width="2907" height="2943" viewBox="0 0 2907 2943" fill="none" xmlns="http://www.w3.org/2000/svg">
<path d="M709.786 204.157C613.099 344.052 726.466 570.856 583 676.069C443.346 778.485 271.785 610.611 140.17 698.771C-55.0729 829.551 -19.4189 1427.98 266.038 1799.79C351.884 1911.6 423.614 1955.11 455.383 2081.57C523.6 2353.11 283.852 2514.64 329.476 2648.94C432.204 2951.33 2012.09 3205.08 2646.01 2296.28C2942.07 1871.84 2986.37 1258.94 2721.85 793.439C2243.85 -47.715 926.735 -109.743 709.786 204.157Z" fill="#F4F7FA"/>
<path d="M801.203 2026.06C857.56 2038.27 952.436 2058.83 1053.01 2016.99C1235.85 1940.93 1318.84 1708 1319.45 1530.72C1319.98 1378.44 1243.03 1236.39 1089.12 952.276C944.167 684.699 876.695 625.578 906.054 527.952C947.907 388.776 1127.38 368.119 1151.87 198.437C1154.8 178.075 1164.89 108.142 1124.35 57.074C1054.96 -30.347 885.898 -1.12904 792.594 37.952C702.595 75.648 577.478 166.749 564.622 289.69C555.307 378.764 612.835 408.882 587.928 481.688C562.869 554.941 497.076 546.548 411.076 642.108C376.719 680.284 307.755 756.915 304.258 854.036C299.736 979.616 408.759 1025.77 382.126 1117.43C362.884 1183.66 299.672 1181.21 262.825 1249.76C214.317 1340 264.763 1454.19 308.013 1548.65C358.943 1659.89 496.341 1959.99 801.203 2026.06Z" fill="url(#paint0_linear_7_344)"/>
<path opacity="0.16" d="M1068.65 75.7911C1096.77 138.046 868.515 203.951 790.171 424.181C705.877 661.139 846.552 932.198 911.564 1057.46C1022.48 1271.18 1111.09 1292.91 1151.11 1482.94C1166.95 1558.15 1199.94 1714.84 1105.81 1848.62C1097.06 1861.05 997.491 1998.17 844.792 1999.94C671.589 2001.95 561.723 1828.29 467.053 1678.67C409.85 1588.26 295.578 1407.65 361.764 1323.81C402.224 1272.57 500.805 1269.28 567.264 1291.02C662.122 1322.05 704.539 1408.3 720.764 1398.29C735.378 1389.27 715.023 1310.62 668.648 1233.64C575.888 1079.67 473.861 1089.8 413.127 961.83C405.765 946.319 349.219 822.568 407.746 720.39C441.501 661.459 514.414 608.172 568.607 624.434C629.898 642.826 640.791 742.242 659.991 738.203C678.351 734.342 679.545 641.101 667.267 548.776C649.225 413.12 617.128 392.479 624.896 318.062C636.749 204.526 724.178 130.788 736.898 120.367C856.093 22.7311 1044.62 22.5661 1068.65 75.7911Z" fill="white"/>
<path d="M937.981 2230.92C989.285 2217.2 1075.66 2194.12 1140.43 2117.52C1258.2 1978.27 1228.15 1752.55 1154.05 1607.07C1090.41 1482.11 967.587 1398.13 721.951 1230.17C490.61 1071.98 410.461 1051.95 393.426 959.622C369.141 828.003 507.467 735.553 456.114 586.255C449.951 568.34 428.786 506.807 374.087 482.035C280.451 439.629 154.264 534.707 94.279 605.985C36.419 674.738 -27.732 802.016 13.475 908.134C43.33 985.019 103.127 985.48 113.364 1055.6C123.664 1126.15 66.238 1146.96 36.006 1261.43C23.928 1307.16 -0.31496 1398.96 37.691 1479.99C86.834 1584.76 195.566 1576.69 212.321 1662.98C224.428 1725.32 171.62 1749.92 170.283 1821.58C168.522 1915.91 257.9 1988.22 333.081 2047.4C421.61 2117.09 660.451 2305.09 937.981 2230.92Z" fill="url(#paint1_linear_7_344)"/>
<path opacity="0.16" d="M336.337 520.808C385.563 559.974 226.326 710.014 254.83 923.385C285.499 1152.96 514.802 1315.8 620.771 1391.05C801.569 1519.45 883.302 1499.95 996.048 1638.78C1040.67 1693.72 1133.64 1808.19 1112.83 1957.39C1110.89 1971.25 1087.03 2125.47 962.694 2191.18C821.661 2265.71 658.587 2169.7 518.072 2086.98C433.166 2036.99 263.554 1937.13 282.492 1840.6C294.069 1781.6 373.439 1737.42 437.029 1727.26C527.789 1712.76 598.83 1765.56 607.908 1750.53C616.084 1737 566.313 1681.14 495.931 1637.6C355.152 1550.51 275.839 1601.74 172.234 1522.47C159.676 1512.86 61.278 1435.29 66.222 1326.96C69.073 1264.48 106.375 1190.15 157.61 1180.66C215.557 1169.94 266.317 1246.79 280.345 1235.4C293.759 1224.51 255.5 1147.63 206.589 1077.17C134.722 973.639 99.743 970.238 74.79 906.01C36.72 808.019 77.307 710.824 83.341 696.935C139.889 566.795 294.25 487.323 336.337 520.808Z" fill="white"/>
<path d="M1734.22 2779.1C1698.08 2767.11 1671.06 2736.43 1663.45 2698.73L1610.84 2438.36L1160.83 2454.34L1105.44 2725.59C1097.69 2763.58 1128.74 2801.69 1164.5 2815.68L1352.77 2889.34C1387.79 2903.05 1425.43 2908.5 1462.84 2905.3L1860.74 2871.26C1872.37 2870.27 1881.7 2861.13 1883.05 2849.4C1884.41 2837.67 1892.56 2824.49 1881.46 2820.81L1734.22 2779.1Z" fill="#97A6B7"/>
<path d="M1738.68 2763.26C1702.57 2751.43 1675.58 2721.14 1667.97 2683.91L1615.42 2426.81L1176.37 2442.61L1121.05 2710.44C1113.3 2747.95 1133.8 2785.57 1169.52 2799.38L1357.61 2872.12C1392.59 2885.65 1430.2 2891.04 1467.57 2887.88L1865.06 2854.27C1876.68 2853.29 1886 2844.26 1887.36 2832.68C1888.71 2821.09 1881.72 2810.16 1870.64 2806.53L1738.68 2763.26Z" fill="url(#paint2_linear_7_344)"/>
<path d="M241.286 2611.42C192.485 2614.33 152.561 2582.67 152.561 2540.83V1032.88C152.561 991.046 192.485 958.737 241.286 960.851L2498.13 1058.64C2533.96 1060.19 2562.97 1090.4 2562.97 1125.98V2408.48C2562.97 2444.06 2533.96 2474.74 2498.13 2476.88L241.286 2611.42Z" fill="url(#paint3_linear_7_344)"/>
<path d="M261.568 2611.42C212.767 2614.33 172.843 2582.67 172.843 2540.83V1032.88C172.843 991.046 212.767 958.737 261.568 960.851L2518.41 1058.64C2554.24 1060.19 2583.25 1090.4 2583.25 1125.98V2408.48C2583.25 2444.06 2554.24 2474.74 2518.41 2476.88L261.568 2611.42Z" fill="url(#paint4_linear_7_344)"/>
<path opacity="0.3" d="M2518.41 1088.82L261.568 995.977C235.479 994.904 214.267 1012.14 214.267 1034.48V2207.27V2538.55C214.267 2560.9 235.478 2577.79 261.568 2576.29L2518.41 2446.69C2537.61 2445.59 2553.14 2429.22 2553.14 2410.13V2116.96V1124.82C2553.14 1105.73 2537.62 1089.61 2518.41 1088.82Z" fill="#D8DEE8"/>
<path d="M261.568 2448.19C251.411 2448.69 243.139 2442.03 243.139 2433.34V1035.6C243.139 1026.91 251.412 1020.17 261.568 1020.57L2518.41 1109.95C2525.9 1110.25 2531.99 1116.55 2531.99 1124V2322.44C2531.99 2329.89 2525.9 2336.25 2518.41 2336.62L261.568 2448.19Z" fill="#777777"/>
<path opacity="0.6" d="M2282.81 2383.54C2092.94 2266.09 2225.56 1932.16 2012.33 1764.37C1797.36 1595.22 1494.87 1802.69 1344.28 1627.5C1232.16 1497.07 1363.36 1339.57 1256.3 1216.9C1088.41 1024.53 658.618 1289.1 461.16 1099.59C433.124 1072.68 404.833 1031.86 388.732 966.361L261.567 960.851C212.766 958.736 172.842 991.046 172.842 1032.88V2540.83C172.842 2582.67 212.766 2614.33 261.567 2611.42L2518.41 2476.88C2554.24 2474.74 2583.25 2444.06 2583.25 2408.48V2385.68C2433.4 2436.53 2341.79 2420.02 2282.81 2383.54Z" fill="white"/>
<path d="M2294.59 2259.61V546.621L630.256 463.389V2352.67C630.256 2395.22 599.425 2431.5 557.434 2438.36L2205.16 2355.13C2255.47 2351.82 2294.59 2310.04 2294.59 2259.61Z" fill="white"/>
<path d="M1845.49 215.521L1141.34 186.457C1112.67 185.274 1089.38 206.449 1089.38 233.776V925.707C1089.38 953.033 1112.67 975.37 1141.34 975.617L1845.49 981.669C1872.46 981.901 1894.26 960.687 1894.26 934.27V265.353C1894.26 238.935 1872.46 216.635 1845.49 215.521Z" fill="#65E4A3"/>
<path opacity="0.7" d="M1141.34 953.466C1125.57 953.316 1112.73 940.975 1112.73 925.956V234.692C1112.73 219.673 1125.57 207.973 1141.34 208.609L1845.49 237.027C1860.33 237.626 1872.4 249.948 1872.4 264.494V934.038C1872.4 948.585 1860.33 960.305 1845.49 960.164L1141.34 953.466Z" fill="white"/>
<g opacity="0.3">
<path d="M1387.72 704.43C1341.78 594.796 1482.2 510.145 1451.38 364.572C1436.6 294.765 1388.47 238.496 1332.75 194.358L1141.34 186.457C1112.67 185.273 1089.38 206.449 1089.38 233.776V925.707C1089.38 953.033 1112.66 975.37 1141.34 975.617L1812.46 981.385C1798.03 958.571 1780.82 936.871 1760.26 916.94C1624.21 785.021 1436.99 822.007 1387.72 704.43Z" fill="#65E4A3"/>
</g>
<path d="M1439.61 686.29C1439.61 651.158 1443.72 623.523 1451.96 603.394C1460.18 583.278 1473.51 566.013 1491.92 551.604C1510.3 537.217 1524.25 523.989 1533.79 511.91C1543.32 499.841 1548.08 486.385 1548.08 471.534C1548.08 435.365 1531.99 416.761 1499.74 415.72C1484.83 415.239 1472.76 420.136 1463.55 430.418C1454.32 440.708 1449.46 454.868 1448.96 472.892L1321.81 469.104C1322.32 420.757 1338.19 383.625 1369.37 357.757C1400.47 331.957 1443.97 320.094 1499.74 322.113C1555.01 324.113 1597.64 337.966 1627.78 363.631C1657.84 389.23 1672.85 424.641 1672.85 469.913C1672.85 489.69 1668.81 507.564 1660.72 523.544C1652.63 539.534 1639.63 555.764 1621.7 572.242L1579.21 609.54C1567.11 620.497 1558.71 631.849 1554.02 643.594C1549.32 655.343 1546.72 670.317 1546.23 688.512L1439.61 686.29ZM1424.24 795.766C1424.24 777.948 1430.93 763.438 1444.29 752.246C1457.63 741.066 1474.26 735.668 1494.16 736.042C1514.02 736.415 1530.57 742.419 1543.82 754.045C1557.05 765.658 1563.66 780.316 1563.66 798.03C1563.66 815.744 1557.05 830.187 1543.82 841.37C1530.57 852.566 1514.02 858.032 1494.16 857.76C1474.26 857.488 1457.63 851.55 1444.29 839.937C1430.93 828.311 1424.24 813.584 1424.24 795.766Z" fill="white"/>
<path d="M1472.85 1049.7L1419.31 978.007L1577.42 979.366L1524.35 1049.98C1511.68 1066.84 1485.56 1066.72 1472.85 1049.7Z" fill="url(#paint5_linear_7_344)"/>
<path d="M2114.99 1233.64L848.583 1236.4V1136.35L2114.99 1138.77V1233.64Z" fill="#D8DEE8"/>
<path d="M1437.99 1483.97L877.611 1491.04C861.588 1491.24 848.583 1479.17 848.583 1464.07V1327.8C848.583 1312.7 861.588 1300.4 877.611 1300.32L1437.99 1297.64C1453.27 1297.56 1465.64 1309.43 1465.64 1324.15V1456.98C1465.64 1471.69 1453.27 1483.78 1437.99 1483.97Z" fill="#0DBBFC"/>
<path d="M2088.83 1475.76L1558.95 1482.44C1543.81 1482.64 1531.52 1470.89 1531.52 1456.22V1323.76C1531.52 1309.08 1543.81 1297.13 1558.95 1297.06L2088.83 1294.51C2103.28 1294.44 2114.99 1305.99 2114.99 1320.3V1449.51C2114.99 1463.83 2103.28 1475.58 2088.83 1475.76Z" fill="#D8DEE8"/>
<path d="M2114.99 1631.05L848.583 1655.52V1555.47L2114.99 1536.18V1631.05Z" fill="#D8DEE8"/>
<path d="M1437.99 1892.99L877.611 1909.66C861.588 1910.14 848.583 1898.29 848.583 1883.19V1746.92C848.583 1731.83 861.588 1719.3 877.611 1718.95L1437.99 1706.65C1453.27 1706.32 1465.64 1717.97 1465.64 1732.69V1865.52C1465.64 1880.23 1453.27 1892.53 1437.99 1892.99Z" fill="#D8DEE8"/>
<path d="M2114.99 2028.45L848.583 2074.65V1974.59L2114.99 1933.59V2028.45Z" fill="#D8DEE8"/>
<path d="M1437.99 2302L877.611 2328.29C861.588 2329.04 848.583 2317.41 848.583 2302.32V2166.05C848.583 2150.95 861.588 2138.2 877.611 2137.58L1437.99 2115.67C1453.27 2115.07 1465.64 2126.52 1465.64 2141.23V2274.06C1465.64 2288.78 1453.27 2301.29 1437.99 2302Z" fill="#D8DEE8"/>
<path d="M2088.83 1873.62L1558.95 1889.39C1543.81 1889.84 1531.52 1878.31 1531.52 1863.63V1731.17C1531.52 1716.49 1543.81 1704.33 1558.95 1704L2088.83 1692.37C2103.28 1692.05 2114.99 1703.4 2114.99 1717.71V1846.92C2114.99 1861.24 2103.28 1873.19 2088.83 1873.62Z" fill="#8FB6D5"/>
<path d="M2088.83 2271.47L1558.95 2296.33C1543.81 2297.04 1531.52 2285.72 1531.52 2271.04V2138.58C1531.52 2123.91 1543.81 2111.53 1558.95 2110.94L2088.83 2090.22C2103.28 2089.66 2114.99 2100.8 2114.99 2115.12V2244.33C2114.99 2258.64 2103.28 2270.8 2088.83 2271.47Z" fill="#8FB6D5"/>
<path d="M2483.06 2895.14C2489.14 2900.74 2489.52 2913.8 2489.77 2922.33C2489.89 2926.15 2489.94 2928.05 2489.44 2929.37C2485.75 2938.95 2466.74 2938.82 2436.84 2940.05C2389.58 2941.98 2375.38 2944.83 2372.13 2937.61C2369.09 2930.85 2378.08 2920.64 2379.09 2919.51C2384.52 2913.47 2390.86 2911.53 2403.07 2908.32C2425.67 2902.38 2440.88 2899.3 2445.49 2898.37C2474.25 2892.54 2479.06 2891.47 2483.06 2895.14Z" fill="url(#paint6_linear_7_344)"/>
<path d="M2449.92 2848.02L2448.07 2901.81C2449.54 2904.33 2465.87 2911.23 2478.16 2903.91L2487.43 2850.64L2449.92 2848.02Z" fill="url(#paint7_linear_7_344)"/>
<path d="M2085.02 2887.71C2093.15 2895.77 2095.73 2911.28 2089.47 2919.32C2083.31 2927.23 2073.15 2922.09 2045.23 2924.41C2015.32 2926.91 2007.88 2934.4 1987.22 2929.87C1978.87 2928.04 1964.05 2923.3 1964.01 2917.41C1963.99 2913.27 1971.27 2910.75 1995.52 2901.15C2029.96 2887.54 2029.77 2886.9 2037.15 2885.27C2055.68 2881.18 2074.29 2877.06 2085.02 2887.71Z" fill="url(#paint8_linear_7_344)"/>
<path d="M2063.22 2839.88L2050.86 2890.66C2052.14 2893.28 2067.89 2901.4 2080.7 2895.04L2100.42 2845.34L2063.22 2839.88Z" fill="url(#paint9_linear_7_344)"/>
<path d="M2138.26 1738.14C2145.08 1906.22 2143.7 2095.69 2127.16 2302.34C2110.81 2506.58 2082.5 2691.85 2049.55 2855.19C2069 2859.33 2088.44 2863.46 2107.89 2867.6C2154.1 2819.65 2211.64 2744.99 2235.86 2642.53C2250.89 2578.93 2243.05 2547.08 2250.59 2469.45C2262.6 2345.84 2296.75 2279.59 2330.32 2178.63C2360.49 2087.91 2394.79 1955.31 2407.61 1779.82C2317.83 1765.92 2228.04 1752.03 2138.26 1738.14Z" fill="#69E6A6"/>
<path opacity="0.3" d="M2165.12 2523.66C2186.53 2438.86 2227.78 2416.44 2229.25 2336.4C2230.29 2279.79 2209.94 2275.16 2211.29 2220.97C2213.34 2138.77 2261.49 2095.67 2285.69 2043.97C2311.23 1989.36 2321.02 1901.66 2252.17 1755.76C2303.98 1763.78 2355.8 1771.8 2407.61 1779.82C2394.79 1955.31 2360.49 2087.92 2330.32 2178.63C2296.75 2279.59 2262.6 2345.84 2250.59 2469.45C2243.05 2547.08 2250.89 2578.93 2235.86 2642.53C2211.64 2744.99 2154.1 2819.65 2107.89 2867.6C2102.94 2866.54 2098 2865.5 2093.05 2864.44C2143.01 2804.81 2160.64 2751.56 2165.12 2708.35C2172.42 2638.05 2143.53 2609.15 2165.12 2523.66Z" fill="#69E6A6"/>
<path d="M2332.62 1727.63C2355.76 1940.63 2377.03 2157.72 2396.17 2378.78C2410.53 2544.67 2423.32 2708.52 2434.65 2870.29C2454.36 2871.66 2474.07 2873.04 2493.78 2874.41C2510.82 2838.17 2533.07 2782.97 2546.6 2713.02C2563.04 2628.06 2555.54 2578.53 2560.07 2491.15C2565.15 2393.14 2578.96 2371.11 2598.87 2246.76C2639.28 1994.38 2659.48 1868.19 2595.4 1793.79C2574.6 1769.63 2510.23 1709.69 2332.62 1727.63Z" fill="#69E6A6"/>
<path d="M2693.66 1863.57C2649.33 1909.02 2568.51 1881.77 2416.46 1873.48C2300.21 1867.14 2204.74 1875.28 2141.9 1883.24C2132.57 1832.95 2121.2 1762.87 2112.85 1678.77C2082.41 1372.41 2062.74 1174.45 2166.62 1068.16C2317.5 913.768 2654.83 1028.7 2692.43 1041.98C2644.65 1331.06 2667.95 1533.91 2700.26 1668.87C2713.48 1724.08 2739.79 1816.3 2693.66 1863.57Z" fill="#0DBBFC"/>
<path opacity="0.3" d="M2693.66 1863.57C2649.33 1909.02 2568.51 1881.77 2416.46 1873.48C2300.21 1867.14 2204.74 1875.28 2141.9 1883.24C2132.21 1815.08 2122.53 1746.93 2112.85 1678.77C2128.61 1598.26 2152.42 1483.44 2185.64 1345.74C2227.62 1171.75 2248.6 1110.48 2269.2 1111.27C2314.91 1113.03 2322.79 1419.09 2385.73 1423.59C2431.72 1426.88 2451.81 1265.25 2558 1242.25C2607.55 1231.52 2636.12 1259.18 2667.48 1240.13C2711.59 1213.34 2706.31 1122.42 2692.43 1041.98C2644.65 1331.06 2667.95 1533.91 2700.26 1668.87C2713.48 1724.08 2739.79 1816.3 2693.66 1863.57Z" fill="#0DBBFC"/>
<path d="M2692.43 1041.98C2711.69 1051.9 2864.85 1134.08 2899.6 1316.04C2923.06 1438.89 2889.35 1590.53 2792.89 1660.36C2652.45 1762.04 2365.29 1700.22 2187.84 1433.75C2189.31 1415.41 2190.78 1397.08 2192.24 1378.74C2479.96 1519.16 2575.92 1509.36 2609.18 1472.25C2634.41 1444.08 2620.58 1403.48 2625.68 1313.84C2632.37 1196.08 2665.56 1102.48 2692.43 1041.98Z" fill="#0A2640"/>
<path d="M2235.22 1020.14C2114.26 1081.98 2046.68 1161.35 2013.23 1207.86C1976.75 1258.59 1864.32 1414.94 1925.2 1530.75C1928.71 1537.43 1963.62 1601.81 2017.33 1604.15C2113.77 1608.36 2191.94 1409.09 2218.65 1312.27C2251.4 1193.53 2245.38 1088.91 2235.22 1020.14Z" fill="#0A2640"/>
<path d="M2294.1 1069.56C2288.14 1112.43 2277.89 1176.33 2260.13 1252.91C2217.93 1434.97 2190.65 1545.87 2103.89 1587.37C2069.87 1603.65 2016.48 1614.14 1989.83 1589.96C1932.6 1538.02 2029.04 1353.65 2033.83 1344.64C2056.89 1301.34 2089.49 1260.91 2153.74 1181.82C2197.76 1127.65 2235.54 1084.02 2261.8 1054.32C2272.57 1059.4 2283.33 1064.48 2294.1 1069.56Z" fill="#0A2640"/>
<path d="M2388.62 860.189C2390.19 895.007 2395.55 922.401 2400.23 941.107C2405.59 962.539 2408.92 967.972 2413.03 972.306C2419.22 978.83 2428.36 984.091 2478.89 993.795C2506.39 999.074 2509.87 998.704 2510.61 1001.36C2514.24 1014.35 2442.63 1063.07 2365.59 1056.37C2318.45 1052.26 2274.45 1027.84 2276.31 1013.68C2278.19 999.432 2325.34 1004.51 2337.9 978.238C2346.65 959.965 2334.44 935.338 2320.48 915.149C2331.68 891.183 2377.43 884.154 2388.62 860.189Z" fill="url(#paint10_linear_7_344)"/>
<path d="M2327.13 860.226C2319.6 843.45 2324.62 818.291 2340.64 805.308C2354.43 794.135 2371.69 796.021 2382.03 797.145C2411.99 800.41 2446.05 820.968 2452.76 850.747C2456.73 868.393 2432.79 897.744 2428.86 903.107C2424.42 909.17 2418.62 910.277 2412.58 914.251C2404.21 919.765 2391.06 928.569 2369.51 943.391C2369.42 937.552 2368.93 930.237 2367.38 922.074C2366.78 918.931 2364.29 906.629 2358.8 895.648C2347.81 873.636 2334.27 876.125 2327.13 860.226Z" fill="url(#paint11_linear_7_344)"/>
<path d="M2397.76 933.227C2397.76 933.227 2371.42 960.348 2333.77 949.177C2300.07 939.175 2312.5 861.319 2338.05 850.007C2346.57 846.232 2361.68 847.295 2372.8 853.32C2379.36 856.879 2381.07 860.333 2391.91 865.937C2401.91 871.11 2405.18 870.614 2407.77 874.041C2411.02 878.331 2412.08 887.275 2400.28 908.179C2408.31 903.056 2416.72 902.299 2421.68 906.181C2422.47 906.804 2424.45 908.934 2425.22 911.656C2428.01 921.505 2417.46 930.877 2397.76 933.227Z" fill="url(#paint12_linear_7_344)"/>
<path d="M2410.37 869.805C2408.44 870.66 2412.08 877.961 2410.48 886.758C2407.37 903.834 2385.63 920.242 2367.78 917.995C2357.23 916.665 2355.8 909.799 2339.15 904.116C2328.83 900.599 2319.73 899.944 2313.93 899.895C2304.35 917.221 2305.19 936.859 2315.64 948.256C2326.88 960.526 2345.21 958.798 2352.87 958.075C2357.99 957.591 2374.4 956.074 2385.57 943.877C2397.21 931.166 2391.05 920.508 2402.84 912.803C2408.79 908.916 2415.6 908.196 2423.95 899.952C2426.22 897.713 2427.86 895.648 2428.89 894.244C2422.2 882.885 2413.16 868.566 2410.37 869.805Z" fill="url(#paint13_linear_7_344)"/>
<path d="M2324.78 909.592C2324.78 909.592 2331.29 915.132 2344.22 917.316C2344.85 917.421 2345.5 917.759 2345.5 918.099C2345.52 919.377 2336.1 922.946 2329.03 919.11C2324.02 916.383 2321 910.364 2322.01 909.237C2322.44 908.762 2323.64 909.109 2324.78 909.592Z" fill="white"/>
<path d="M2297.85 929.093L2274.71 976.651C2274.71 976.651 2271.95 1029.12 2261.8 1054.32L2279.82 1062.82C2279.82 1062.82 2333.66 1025.61 2292.44 983.248C2292.44 983.248 2308.85 932.68 2297.85 929.093Z" fill="url(#paint14_linear_7_344)"/>
<defs>
<linearGradient id="paint0_linear_7_344" x1="766.453" y1="1385.63" x2="1309.52" y2="-549.146" gradientUnits="userSpaceOnUse">
<stop offset="0.0036" stop-color="#0A2640"/>
<stop offset="1" stop-color="#8FB6D5"/>
</linearGradient>
<linearGradient id="paint1_linear_7_344" x1="-35.0372" y1="1316.8" x2="1254.34" y2="1410.01" gradientUnits="userSpaceOnUse">
<stop stop-color="#8FB6D5"/>
<stop offset="0.9964" stop-color="#0A2640"/>
</linearGradient>
<linearGradient id="paint2_linear_7_344" x1="1452.73" y1="3267.22" x2="1508.84" y2="2724.79" gradientUnits="userSpaceOnUse">
<stop stop-color="#444B8C"/>
<stop offset="0.9964" stop-color="#26264F"/>
</linearGradient>
<linearGradient id="paint3_linear_7_344" x1="1063.31" y1="1753.74" x2="471" y2="1822.32" gradientUnits="userSpaceOnUse">
<stop stop-color="#444B8C"/>
<stop offset="0.3946" stop-color="#383C74"/>
<stop offset="0.9964" stop-color="#26264F"/>
</linearGradient>
<linearGradient id="paint4_linear_7_344" x1="2071.37" y1="666.021" x2="481.49" y2="3085.13" gradientUnits="userSpaceOnUse">
<stop stop-color="#444B8C"/>
<stop offset="0.9964" stop-color="#26264F"/>
</linearGradient>
<linearGradient id="paint5_linear_7_344" x1="932.188" y1="486.941" x2="1823.52" y2="1280.68" gradientUnits="userSpaceOnUse">
<stop stop-color="#65E4A3"/>
<stop offset="0.9964" stop-color="#65E4A3"/>
</linearGradient>
<linearGradient id="paint6_linear_7_344" x1="2373.45" y1="2912.49" x2="2490.21" y2="2923" gradientUnits="userSpaceOnUse">
<stop stop-color="#444B8C"/>
<stop offset="0.9964" stop-color="#26264F"/>
</linearGradient>
<linearGradient id="paint7_linear_7_344" x1="2440.42" y1="2917.25" x2="2499.12" y2="2814.63" gradientUnits="userSpaceOnUse">
<stop stop-color="#FFC444"/>
<stop offset="0.9964" stop-color="#F36F56"/>
</linearGradient>
<linearGradient id="paint8_linear_7_344" x1="1969.38" y1="2892.48" x2="2091.05" y2="2919.05" gradientUnits="userSpaceOnUse">
<stop stop-color="#444B8C"/>
<stop offset="0.9964" stop-color="#26264F"/>
</linearGradient>
<linearGradient id="paint9_linear_7_344" x1="2044.68" y1="2907.68" x2="2112.44" y2="2807.76" gradientUnits="userSpaceOnUse">
<stop stop-color="#FFC444"/>
<stop offset="0.9964" stop-color="#F36F56"/>
</linearGradient>
<linearGradient id="paint10_linear_7_344" x1="2438" y1="938.085" x2="2267.86" y2="1100.07" gradientUnits="userSpaceOnUse">
<stop stop-color="#FFC444"/>
<stop offset="0.2059" stop-color="#FDB248"/>
<stop offset="0.9964" stop-color="#F36F56"/>
</linearGradient>
<linearGradient id="paint11_linear_7_344" x1="2418" y1="1048.44" x2="2382.36" y2="809.1" gradientUnits="userSpaceOnUse">
<stop stop-color="#311944"/>
<stop offset="1" stop-color="#6B3976"/>
</linearGradient>
<linearGradient id="paint12_linear_7_344" x1="2343.66" y1="876.425" x2="2510.3" y2="1121.15" gradientUnits="userSpaceOnUse">
<stop stop-color="#FFC444"/>
<stop offset="0.9964" stop-color="#F36F56"/>
</linearGradient>
<linearGradient id="paint13_linear_7_344" x1="2389.19" y1="1052.85" x2="2353.51" y2="813.256" gradientUnits="userSpaceOnUse">
<stop stop-color="#311944"/>
<stop offset="1" stop-color="#6B3976"/>
</linearGradient>
<linearGradient id="paint14_linear_7_344" x1="2268.32" y1="975.012" x2="2374.37" y2="1123.01" gradientUnits="userSpaceOnUse">
<stop stop-color="#FFC444"/>
<stop offset="0.9964" stop-color="#F36F56"/>
</linearGradient>
</defs>
</svg>
