<svg xmlns="http://www.w3.org/2000/svg" width="1001" height="1001" viewBox="0 0 1001 1001" fill="none">
<path d="M240.122 60.3752C206.637 108.655 245.898 186.929 196.213 223.24C147.848 258.585 88.4329 200.649 42.8522 231.075C-24.7646 276.209 -12.4166 482.735 86.4426 611.053C116.173 649.643 141.015 664.658 152.017 708.301C175.641 802.014 92.612 857.761 108.412 904.11C143.989 1008.47 691.134 1096.04 910.674 782.403C1013.21 635.92 1028.55 424.398 936.938 263.746C771.399 -26.5498 315.255 -47.9564 240.122 60.3752Z" fill="#F4F7FA"/>
<path d="M507.675 956.114C507.76 906.78 515.27 833.918 557.276 764.217C605.51 684.182 655.145 681.463 724.96 601.981C824.617 488.522 792.24 371.57 863.801 350.558C898.699 340.311 943.426 355.164 964.517 384.111C1024.69 466.699 922.562 705.344 766.312 759.771C695.645 784.387 648.073 762.864 587.315 804.92C533.627 842.081 515.114 908.499 507.675 956.114Z" fill="#0A2640"/>
<mask id="mask0_11_10" style="mask-type:luminance" maskUnits="userSpaceOnUse" x="507" y="347" width="476" height="610">
<path d="M507.675 956.114C507.76 906.78 515.27 833.918 557.276 764.217C605.51 684.182 655.145 681.463 724.96 601.981C824.617 488.522 792.24 371.57 863.801 350.558C898.699 340.311 943.426 355.164 964.517 384.111C1024.69 466.699 922.562 705.344 766.312 759.771C695.645 784.387 648.073 762.864 587.315 804.92C533.627 842.081 515.114 908.499 507.675 956.114Z" fill="white"/>
</mask>
<g mask="url(#mask0_11_10)">
<path d="M535.394 841.086L534.378 840.433C545.284 823.221 557.719 806.876 571.338 791.855C602.658 757.308 629.827 741.65 664.223 721.825C686.576 708.942 711.912 694.339 743.068 671.702C801.341 629.358 820.165 613.948 841.568 586.209C883.945 531.285 898.857 474.366 903.973 445.325C911.23 404.131 910.395 362.355 901.49 321.154L902.666 320.896C911.605 362.252 912.444 404.187 905.159 445.537C900.023 474.689 885.056 531.824 842.52 586.954C821.024 614.814 802.156 630.263 743.772 672.686C712.566 695.361 687.201 709.98 664.822 722.878C630.517 742.65 603.421 758.267 572.227 792.673C558.655 807.644 546.263 823.932 535.394 841.086Z" fill="white"/>
<path d="M868.078 546.296L868.373 545.342C882.594 499.22 863.222 459.868 844.466 434.976C824.113 407.964 800.093 391.684 799.852 391.523L800.521 390.513C800.763 390.675 824.952 407.07 845.426 434.243C864.22 459.185 883.622 498.534 869.821 544.725C874.957 543.623 899.508 537.707 925.484 520.53C952.295 502.8 986.16 469.091 995.236 409.185L996.427 409.368C987.281 469.738 953.138 503.706 926.105 521.571C896.826 540.922 869.33 546.069 869.055 546.119L868.078 546.296Z" fill="white"/>
<path d="M855.623 698.314C833.413 698.314 814.112 692.473 799.801 686.209C775.004 675.354 759.422 660.91 759.268 660.765L758.897 660.418L759.173 659.991C785.644 618.878 786.342 582.336 782.267 558.919C777.849 533.533 767.026 517.662 766.917 517.505L767.906 516.811C768.016 516.97 778.971 533.019 783.444 558.651C787.556 582.212 786.891 618.924 760.464 660.216C762.967 662.455 777.816 675.269 800.32 685.113C823.012 695.04 858.36 703.89 897.899 689.689L898.303 690.832C883.329 696.21 868.952 698.314 855.623 698.314Z" fill="white"/>
<path d="M791.959 768.716C746.321 768.716 716.793 755.618 699.79 744.284C680.302 731.293 672.568 717.707 672.492 717.572L672.28 717.193L672.568 716.869C707.372 677.735 704.242 593.733 704.205 592.889L705.41 592.837C705.445 593.684 708.576 677.706 673.761 717.344C675.134 719.588 683.036 731.677 700.522 743.316C718.321 755.163 749.971 768.959 799.687 767.378L799.725 768.591C797.087 768.675 794.496 768.716 791.959 768.716Z" fill="white"/>
</g>
<path d="M457.252 928.813C459.699 898.399 468.251 852.09 501.97 817.232C560.795 756.42 630.004 798.905 720.755 740.726C793.949 693.803 787.536 641.413 861.879 616.692C874.323 612.554 940.446 589.191 977.056 622.487C997.687 641.248 999.807 669.648 1000.2 674.979C1006.22 755.554 902.068 853.145 790.757 881.767C726.805 898.211 711.101 883.631 603.064 894.397C539.581 900.723 489.123 916.738 457.252 928.813Z" fill="#0A2640"/>
<mask id="mask1_11_10" style="mask-type:luminance" maskUnits="userSpaceOnUse" x="457" y="604" width="544" height="325">
<path d="M457.252 928.813C459.699 898.399 468.251 852.09 501.97 817.232C560.795 756.42 630.004 798.905 720.755 740.726C793.949 693.803 787.536 641.413 861.879 616.692C874.323 612.554 940.446 589.191 977.056 622.487C997.687 641.248 999.807 669.648 1000.2 674.979C1006.22 755.554 902.068 853.145 790.757 881.767C726.805 898.211 711.101 883.631 603.064 894.397C539.581 900.723 489.123 916.738 457.252 928.813Z" fill="white"/>
</mask>
<g mask="url(#mask1_11_10)">
<path d="M440.12 961.837L439.034 961.309C470.78 895.11 509.79 855.078 554.984 842.326C577.11 836.082 592.966 838.203 609.755 840.448C627.795 842.86 646.452 845.355 674.015 836.792C700.799 828.471 712.528 816.92 727.376 802.297C740.739 789.136 757.368 772.757 790.317 753.655C819.196 736.913 838.768 730.6 856.036 725.031C874.731 719.001 889.5 714.238 909.151 698.419C941.255 672.578 964.044 634.822 976.888 586.2L978.053 586.512C965.141 635.39 942.213 673.36 909.904 699.367C890.078 715.326 875.218 720.119 856.403 726.187C839.192 731.738 819.686 738.029 790.918 754.707C758.102 773.732 741.532 790.051 728.218 803.164C713.253 817.903 701.433 829.544 674.37 837.952C646.556 846.592 627.768 844.081 609.595 841.651C592.935 839.422 577.197 837.318 555.309 843.494C510.463 856.149 471.708 895.965 440.12 961.837Z" fill="white"/>
<path d="M901.914 736.175C885.435 736.175 867.518 734.038 848.538 728.641L847.761 728.42L848.192 727.733C848.752 726.839 903.874 637.787 878.378 588.847L879.445 588.283C892.958 614.22 883.999 650.957 874.103 677.209C864.454 702.811 852.067 723.689 849.635 727.69C901.949 742.343 946.088 732.122 973.955 720.926C1004.32 708.729 1022.46 692.779 1022.64 692.619L1023.43 693.529C1023.25 693.69 1004.99 709.757 974.446 722.036C956.356 729.308 931.447 736.175 901.914 736.175Z" fill="white"/>
<path d="M894.657 820.897C863.094 820.897 835.905 814.25 815.691 807.032C779.699 794.181 757.436 776.79 757.215 776.616L756.808 776.294L757.062 775.84C783.435 728.812 789.036 653.853 789.09 653.101L790.292 653.187C790.238 653.939 784.657 728.681 758.37 775.975C761.554 778.385 782.988 794.074 816.136 805.904C849.175 817.693 900.946 827.951 959.965 809.864L960.315 811.025C937.08 818.146 914.963 820.897 894.657 820.897Z" fill="white"/>
<path d="M772.5 922.472C672.838 899.696 625.965 843.865 625.503 843.304L625.098 842.812L625.607 842.43C675.288 805.193 679.627 724.112 679.665 723.297L680.869 723.354C680.831 724.172 676.487 805.263 626.845 843.012C631.673 848.543 678.479 899.74 772.767 921.288L772.5 922.472Z" fill="white"/>
</g>
<path d="M503.451 179.854C510.578 183.499 519.532 180.152 523.451 172.38C527.369 164.607 524.767 155.351 517.64 151.706C517.271 151.518 516.894 151.359 516.516 151.207C517.84 146.906 518.839 142.571 519.508 138.235C519.917 138.234 520.326 138.227 520.743 138.189C528.875 137.459 535.328 129.933 535.158 121.379C534.988 112.825 528.258 106.482 520.127 107.212C519.701 107.251 519.284 107.318 518.869 107.393C518.02 103.154 516.856 99.0126 515.387 95.0047C515.761 94.7845 516.134 94.5566 516.497 94.3001C523.454 89.3911 525.678 79.7019 521.465 72.6593C517.252 65.6164 508.196 63.8867 501.24 68.7956C500.883 69.0473 500.548 69.319 500.217 69.5946C497.469 66.5351 494.455 63.6999 491.194 61.112C491.423 60.7334 491.648 60.35 491.851 59.9472C495.769 52.1744 500.89 43.6835 493.707 40.1517C477.09 31.9813 469.959 38.9755 466.041 46.7482C465.838 47.151 465.663 47.5601 465.495 47.9698C461.496 46.8454 457.445 46.0678 453.371 45.6387C453.397 45.2066 453.417 44.7737 453.408 44.3353C453.238 35.7814 455.758 31.1526 447.595 30.9928C429.797 30.6443 423.791 38.4254 423.961 46.9789C423.97 47.4259 424.007 47.8633 424.051 48.2972C419.972 49.4683 415.966 50.9653 412.067 52.7764C411.882 52.395 411.69 52.0157 411.47 51.6472C407.257 44.6043 398.201 42.8748 391.244 47.7841C384.287 52.6934 382.063 62.3823 386.276 69.4249C386.492 69.7858 386.729 70.1233 386.969 70.4562C383.888 73.5593 381.002 76.9293 378.336 80.5441C377.992 80.3263 377.642 80.1133 377.273 79.9245C370.145 76.28 361.191 79.6265 357.273 87.3993C353.355 95.172 355.956 104.428 363.084 108.073C363.453 108.262 363.83 108.42 364.208 108.572C362.883 112.873 361.885 117.208 361.215 121.544C360.807 121.545 360.397 121.552 359.981 121.589C351.849 122.32 345.395 129.845 345.565 138.4C345.736 146.954 352.466 153.296 360.598 152.566C361.022 152.528 361.44 152.46 361.855 152.386C362.704 156.625 363.868 160.766 365.336 164.774C364.963 164.994 364.59 165.222 364.227 165.478C357.27 170.387 355.046 180.076 359.259 187.119C363.472 194.162 377.421 197.434 384.377 192.525C384.734 192.273 380.176 190.46 380.507 190.184C383.255 193.243 386.269 196.078 389.529 198.666C389.3 199.045 389.076 199.428 388.873 199.831C384.955 207.604 387.556 216.86 394.683 220.504C401.81 224.149 410.764 220.802 414.683 213.029C414.886 212.627 415.061 212.218 415.229 211.808C419.227 212.933 423.278 213.71 427.352 214.139C427.327 214.571 427.307 215.004 427.315 215.443C427.486 223.997 434.216 230.339 442.347 229.609C450.479 228.879 456.933 221.353 456.762 212.799C456.753 212.352 456.716 211.915 456.672 211.48C460.751 210.309 464.757 208.812 468.656 207.001C468.841 207.383 469.034 207.762 469.254 208.13C473.467 215.173 482.522 216.902 489.479 211.993C496.436 207.084 498.66 197.395 494.447 190.352C494.231 189.991 493.995 189.654 493.755 189.321C496.836 186.218 499.721 182.848 502.387 179.233C502.732 179.453 503.082 179.666 503.451 179.854ZM414.603 180.99C388.725 167.757 379.28 134.151 393.507 105.93C407.733 77.7079 440.243 65.5573 466.121 78.7905C491.998 92.0236 501.443 125.629 487.217 153.851C472.991 182.073 440.48 194.223 414.603 180.99Z" fill="#0A2640"/>
<path d="M520.743 138.19C528.875 137.459 535.328 129.933 535.158 121.379C534.988 112.826 528.258 106.483 520.127 107.213C519.702 107.251 519.284 107.319 518.869 107.393C518.02 103.154 516.856 99.0132 515.387 95.0053C515.761 94.7851 516.134 94.5572 516.497 94.3003C523.454 89.3914 532.061 77.5294 527.153 70.9595C517.837 58.4894 508.196 63.8873 501.24 68.7962C500.883 69.0479 500.548 69.3193 500.217 69.5949C497.469 66.5354 494.455 63.7006 491.194 61.1126C491.423 60.734 491.648 60.351 491.851 59.9482C493.983 55.7176 494.172 51.0534 492.763 47.0884C486.044 59.0004 479.415 70.9623 472.904 82.9892C493.549 98.226 500.121 128.252 487.217 153.851C476.282 175.543 454.545 187.724 433.321 186.197C432.374 188.671 431.445 191.157 430.431 193.606C427.679 200.252 424.554 206.762 421.424 213.263C423.393 213.637 425.37 213.931 427.352 214.14C427.326 214.572 427.306 215.005 427.315 215.444C427.485 223.997 432.642 231.265 447.379 230.478C455.531 230.043 456.932 221.354 456.762 212.8C456.753 212.353 456.716 211.916 456.672 211.482C460.751 210.311 464.757 208.814 468.656 207.003C468.841 207.385 469.034 207.764 469.254 208.131C473.467 215.175 488.083 218.167 495.04 213.258C501.997 208.349 498.66 197.397 494.447 190.354C494.231 189.993 493.995 189.656 493.755 189.323C496.836 186.22 499.721 182.85 502.387 179.235C502.732 179.453 503.082 179.666 503.451 179.855C510.578 183.5 519.532 180.153 523.451 172.38C527.369 164.608 524.768 155.351 517.641 151.707C517.271 151.518 516.894 151.36 516.516 151.208C517.84 146.907 518.839 142.572 519.508 138.236C519.917 138.234 520.327 138.227 520.743 138.19Z" fill="#0A2640"/>
<path d="M511.117 180.733C518.244 184.377 527.198 181.031 531.116 173.258C535.034 165.485 532.433 156.229 525.306 152.584C524.937 152.395 524.56 152.237 524.182 152.085C525.506 147.784 526.504 143.449 527.174 139.113C527.583 139.112 527.992 139.105 528.409 139.067C536.541 138.337 542.994 130.812 542.824 122.258C542.654 113.703 535.924 107.361 527.792 108.091C527.367 108.129 526.95 108.197 526.535 108.271C525.685 104.032 524.521 99.8911 523.053 95.8835C523.428 95.6629 523.8 95.4351 524.163 95.1785C531.12 90.2696 533.344 80.5803 529.131 73.5374C524.918 66.4945 515.863 64.7651 508.905 69.6741C508.549 69.9258 508.214 70.1975 507.882 70.4731C505.135 67.4136 502.121 64.5784 498.86 61.9908C499.089 61.6122 499.313 61.2288 499.516 60.8264C503.435 53.0536 500.833 43.7975 493.706 40.153C486.579 36.5081 477.625 39.855 473.706 47.6278C473.504 48.0306 473.329 48.4396 473.16 48.8489C469.162 47.7246 465.111 46.947 461.037 46.5183C461.063 46.0861 461.082 45.6532 461.074 45.2144C460.904 36.6606 454.174 30.3182 446.042 31.0484C437.91 31.7783 431.457 39.3046 431.627 47.8584C431.636 48.3054 431.673 48.7424 431.717 49.1767C427.638 50.3481 423.632 51.8452 419.733 53.6562C419.548 53.2749 419.356 52.8956 419.136 52.527C414.922 45.4841 405.867 43.7547 398.91 48.664C391.953 53.5736 389.729 63.2621 393.942 70.305C394.158 70.6657 394.395 71.0035 394.635 71.3364C391.554 74.4399 388.668 77.8092 386.002 81.4243C385.657 81.2065 385.308 80.9935 384.938 80.8047C377.811 77.1599 368.857 80.5067 364.939 88.2795C361.02 96.0522 363.622 105.308 370.749 108.953C371.119 109.142 371.496 109.3 371.874 109.452C370.549 113.754 369.551 118.088 368.881 122.425C368.473 122.426 368.063 122.432 367.646 122.469C359.515 123.2 353.061 130.726 353.231 139.28C353.401 147.834 360.132 154.176 368.263 153.446C368.688 153.408 369.106 153.341 369.521 153.266C370.37 157.505 371.534 161.646 373.002 165.654C372.628 165.874 372.256 166.102 371.892 166.359C364.935 171.268 362.711 180.957 366.924 188C371.137 195.042 380.192 196.772 387.149 191.863C387.506 191.611 387.841 191.34 388.173 191.064C390.921 194.124 393.934 196.959 397.195 199.546C396.966 199.925 396.741 200.309 396.538 200.711C392.62 208.484 395.221 217.74 402.349 221.385C409.476 225.029 418.43 221.683 422.348 213.91C422.551 213.507 422.726 213.098 422.894 212.689C426.893 213.813 430.944 214.59 435.017 215.019C434.992 215.452 434.972 215.885 434.981 216.323C435.151 224.877 441.881 231.219 450.013 230.49C458.144 229.76 464.598 222.233 464.428 213.68C464.419 213.233 464.382 212.796 464.338 212.361C468.417 211.19 472.423 209.693 476.322 207.882C476.507 208.263 476.699 208.643 476.92 209.011C481.133 216.054 490.188 217.784 497.145 212.874C504.102 207.965 506.326 198.276 502.113 191.233C501.897 190.872 501.661 190.535 501.42 190.202C504.501 187.099 507.386 183.729 510.053 180.114C510.398 180.331 510.747 180.544 511.117 180.733ZM422.269 181.868C396.391 168.635 386.946 135.029 401.173 106.807C415.399 78.5857 447.909 66.4354 473.787 79.6686C499.664 92.9018 509.109 126.507 494.883 154.729C480.656 182.951 448.146 195.101 422.269 181.868Z" fill="url(#paint0_linear_11_10)"/>
<path d="M309.678 258.299C314.562 260.797 320.698 258.504 323.383 253.177C326.068 247.85 324.285 241.508 319.401 239.01C319.148 238.88 318.89 238.772 318.631 238.668C319.538 235.72 320.222 232.75 320.681 229.778C320.961 229.777 321.242 229.773 321.527 229.747C327.1 229.247 331.522 224.089 331.406 218.227C331.289 212.365 326.677 208.019 321.105 208.519C320.813 208.545 320.527 208.592 320.243 208.642C319.661 205.737 318.864 202.9 317.857 200.153C318.114 200.002 318.369 199.846 318.618 199.67C323.385 196.306 324.909 189.666 322.022 184.84C319.135 180.014 312.929 178.829 308.162 182.192C307.917 182.365 307.688 182.551 307.461 182.74C305.577 180.643 303.512 178.701 301.278 176.927C301.435 176.668 301.588 176.405 301.728 176.129C304.413 170.802 307.922 164.984 302.999 162.564C291.612 156.964 286.726 161.758 284.041 167.084C283.902 167.36 283.782 167.64 283.667 167.921C280.927 167.151 278.151 166.618 275.359 166.324C275.376 166.028 275.39 165.731 275.384 165.43C275.267 159.569 276.994 156.397 271.401 156.287C259.203 156.048 255.088 161.381 255.204 167.242C255.211 167.549 255.236 167.848 255.266 168.146C252.471 168.948 249.726 169.974 247.054 171.215C246.927 170.954 246.795 170.694 246.644 170.441C243.757 165.615 237.552 164.43 232.784 167.794C228.017 171.158 226.493 177.798 229.38 182.625C229.528 182.872 229.69 183.103 229.854 183.331C227.743 185.458 225.766 187.767 223.939 190.244C223.703 190.095 223.463 189.949 223.21 189.82C218.326 187.322 212.19 189.615 209.505 194.942C206.819 200.268 208.602 206.611 213.486 209.109C213.739 209.239 213.998 209.347 214.257 209.451C213.349 212.399 212.665 215.369 212.206 218.341C211.926 218.341 211.645 218.346 211.36 218.371C205.787 218.872 201.364 224.029 201.481 229.891C201.598 235.753 206.21 240.099 211.782 239.599C212.073 239.573 212.36 239.527 212.644 239.476C213.226 242.381 214.023 245.218 215.03 247.965C214.773 248.116 214.518 248.272 214.269 248.448C209.502 251.812 207.978 258.452 210.865 263.278C213.752 268.104 223.311 270.347 228.078 266.982C228.323 266.81 225.199 265.567 225.426 265.378C227.309 267.474 229.375 269.417 231.609 271.19C231.452 271.45 231.298 271.712 231.159 271.989C228.474 277.315 230.257 283.658 235.141 286.156C240.025 288.653 246.161 286.36 248.846 281.033C248.985 280.758 249.105 280.478 249.22 280.197C251.96 280.967 254.736 281.5 257.528 281.794C257.51 282.09 257.497 282.387 257.503 282.688C257.619 288.549 262.231 292.895 267.804 292.395C273.376 291.895 277.799 286.737 277.682 280.876C277.676 280.569 277.65 280.269 277.62 279.972C280.415 279.17 283.161 278.144 285.832 276.902C285.959 277.164 286.091 277.424 286.242 277.676C289.129 282.502 295.334 283.688 300.102 280.323C304.87 276.959 306.394 270.319 303.506 265.493C303.358 265.246 303.196 265.015 303.032 264.787C305.143 262.66 307.12 260.351 308.947 257.874C309.185 258.024 309.425 258.17 309.678 258.299ZM248.792 259.077C231.059 250.009 224.586 226.98 234.335 207.64C244.084 188.3 266.363 179.974 284.096 189.042C301.83 198.11 308.302 221.14 298.553 240.479C288.804 259.819 266.525 268.146 248.792 259.077Z" fill="#0A2640"/>
<path d="M321.528 229.747C327.1 229.246 331.523 224.089 331.406 218.227C331.29 212.366 326.677 208.019 321.105 208.519C320.814 208.545 320.528 208.592 320.244 208.643C319.662 205.738 318.864 202.9 317.858 200.154C318.114 200.003 318.369 199.847 318.618 199.671C323.386 196.307 329.284 188.178 325.92 183.676C319.536 175.13 312.93 178.829 308.162 182.193C307.918 182.366 307.688 182.552 307.461 182.74C305.578 180.644 303.513 178.701 301.278 176.928C301.435 176.668 301.589 176.406 301.728 176.13C303.189 173.231 303.319 170.034 302.353 167.317C297.749 175.48 293.206 183.677 288.744 191.919C302.892 202.361 307.395 222.937 298.553 240.479C291.059 255.345 276.163 263.692 261.619 262.646C260.97 264.341 260.333 266.045 259.638 267.723C257.753 272.277 255.611 276.739 253.466 281.194C254.815 281.45 256.17 281.651 257.528 281.795C257.511 282.091 257.498 282.388 257.503 282.688C257.62 288.55 261.153 293.53 271.253 292.991C276.839 292.692 277.799 286.738 277.683 280.876C277.676 280.57 277.651 280.27 277.621 279.973C280.416 279.17 283.162 278.144 285.833 276.903C285.96 277.165 286.092 277.425 286.243 277.677C289.131 282.503 299.146 284.554 303.914 281.189C308.682 277.825 306.395 270.321 303.508 265.494C303.36 265.247 303.198 265.015 303.033 264.787C305.144 262.66 307.122 260.351 308.949 257.874C309.185 258.024 309.424 258.17 309.677 258.299C314.562 260.797 320.698 258.503 323.383 253.176C326.068 247.85 324.285 241.507 319.401 239.009C319.148 238.88 318.89 238.771 318.631 238.667C319.538 235.719 320.222 232.749 320.681 229.778C320.961 229.777 321.243 229.773 321.528 229.747Z" fill="#0A2640"/>
<path d="M314.931 258.901C319.815 261.399 325.951 259.106 328.636 253.779C331.321 248.452 329.539 242.11 324.655 239.612C324.402 239.483 324.144 239.374 323.884 239.27C324.792 236.322 325.476 233.352 325.935 230.38C326.215 230.379 326.496 230.375 326.781 230.349C332.353 229.849 336.776 224.691 336.659 218.829C336.543 212.967 331.931 208.621 326.358 209.121C326.067 209.148 325.781 209.194 325.497 209.245C324.915 206.34 324.117 203.502 323.111 200.756C323.367 200.605 323.622 200.449 323.872 200.273C328.639 196.909 330.163 190.269 327.276 185.442C324.389 180.616 318.183 179.431 313.416 182.795C313.172 182.968 312.942 183.154 312.715 183.342C310.832 181.246 308.767 179.303 306.532 177.53C306.689 177.27 306.843 177.007 306.982 176.732C309.667 171.405 307.885 165.062 303.001 162.565C298.117 160.067 291.98 162.36 289.295 167.687C289.156 167.963 289.036 168.243 288.921 168.524C286.181 167.753 283.405 167.22 280.613 166.926C280.631 166.63 280.644 166.333 280.639 166.033C280.521 160.171 275.91 155.825 270.337 156.325C264.765 156.826 260.343 161.983 260.459 167.845C260.465 168.151 260.491 168.45 260.521 168.748C257.726 169.55 254.981 170.577 252.309 171.818C252.182 171.556 252.05 171.296 251.899 171.044C249.012 166.217 242.807 165.032 238.039 168.396C233.272 171.761 231.748 178.4 234.635 183.227C234.783 183.474 234.945 183.705 235.109 183.933C232.998 186.06 231.021 188.369 229.194 190.847C228.958 190.697 228.718 190.551 228.465 190.422C223.581 187.924 217.445 190.218 214.759 195.544C212.074 200.871 213.857 207.214 218.741 209.711C218.994 209.841 219.253 209.949 219.511 210.054C218.604 213.001 217.92 215.971 217.461 218.943C217.181 218.944 216.9 218.949 216.615 218.974C211.042 219.475 206.62 224.632 206.736 230.494C206.853 236.356 211.465 240.702 217.037 240.202C217.328 240.176 217.614 240.129 217.899 240.078C218.481 242.983 219.278 245.821 220.284 248.567C220.028 248.719 219.773 248.875 219.524 249.051C214.757 252.414 213.233 259.054 216.12 263.881C219.007 268.707 225.213 269.892 229.98 266.528C230.224 266.356 230.454 266.17 230.681 265.98C232.564 268.077 234.629 270.02 236.864 271.793C236.707 272.052 236.553 272.315 236.414 272.591C233.729 277.918 235.511 284.26 240.395 286.758C245.28 289.256 251.416 286.962 254.101 281.636C254.24 281.36 254.36 281.08 254.475 280.799C257.215 281.57 259.991 282.102 262.783 282.396C262.765 282.692 262.752 282.989 262.758 283.29C262.874 289.151 267.486 293.498 273.059 292.998C278.631 292.497 283.054 287.34 282.937 281.478C282.931 281.172 282.906 280.872 282.875 280.574C285.671 279.772 288.416 278.746 291.088 277.505C291.215 277.766 291.346 278.026 291.497 278.278C294.385 283.105 300.59 284.29 305.357 280.926C310.125 277.562 311.649 270.922 308.762 266.096C308.614 265.848 308.452 265.617 308.287 265.389C310.399 263.262 312.376 260.953 314.203 258.476C314.438 258.626 314.678 258.772 314.931 258.901ZM254.045 259.679C236.312 250.611 229.839 227.582 239.588 208.241C249.337 188.902 271.616 180.575 289.35 189.644C307.083 198.712 313.555 221.741 303.806 241.081C294.057 260.421 271.778 268.747 254.045 259.679Z" fill="url(#paint1_linear_11_10)"/>
<path opacity="0.75" d="M897.911 176.353C897.911 83.7844 819.664 8.7428 723.142 8.7428C626.62 8.7428 548.373 83.784 548.373 176.353C548.373 232.53 577.193 282.25 621.426 312.661C640.192 325.563 651.573 346.828 651.573 369.712V382.539C651.573 410.408 674.004 433 701.673 433H744.611C772.28 433 794.711 410.407 794.711 382.539V369.712C794.711 346.828 806.092 325.563 824.858 312.661C869.091 282.25 897.911 232.53 897.911 176.353Z" fill="#F4F7FA"/>
<path d="M761.91 507.731C761.91 519.148 744.553 528.404 723.142 528.404C701.73 528.404 684.373 519.148 684.373 507.731C684.373 496.314 701.73 487.058 723.142 487.058C744.554 487.058 761.91 496.314 761.91 507.731Z" fill="url(#paint2_linear_11_10)"/>
<path d="M671.633 470.801V491.912C671.633 499.055 675.669 505.6 682.069 508.674C690.955 512.942 705.73 517.626 727.202 517.072C744.622 516.623 755.981 513.757 763.203 510.747C770.179 507.84 774.651 500.891 774.651 493.286V481.605L671.633 470.801Z" fill="url(#paint3_linear_11_10)"/>
<path opacity="0.3" d="M671.633 489.293C673.203 490.83 675.021 492.134 677.063 493.115C687.032 497.903 752.333 508.603 768.085 502.642C770.131 501.868 771.971 500.832 773.583 499.583C774.272 497.59 774.651 495.467 774.651 493.286V481.605L671.632 470.801V489.293H671.633Z" fill="url(#paint4_linear_11_10)"/>
<path d="M676.206 456.437C670.404 455.828 665.355 460.412 665.355 466.287V466.885C665.355 474.899 669.882 482.24 677.063 485.69C687.033 490.479 752.334 501.178 768.085 495.217C776.015 492.216 780.929 485.359 780.929 476.827V476.346C780.929 471.273 777.124 467.021 772.115 466.496L676.206 456.437Z" fill="url(#paint5_linear_11_10)"/>
<path opacity="0.3" d="M772.114 466.496L676.206 456.437C672.422 456.04 668.969 457.859 667.017 460.797C668.944 465.369 672.452 469.194 677.063 471.409C687.032 476.197 755.115 488.292 768.085 482.136C773.134 479.739 777.094 475.694 779.215 470.776C777.635 468.442 775.091 466.808 772.114 466.496Z" fill="url(#paint6_linear_11_10)"/>
<path d="M672.454 422.233C668.533 422.233 665.355 425.434 665.355 429.383V445.917C665.355 453.931 669.882 461.273 677.063 464.722C687.032 469.511 755.115 481.605 768.085 475.449C775.748 471.812 780.929 464.391 780.929 455.86V429.383C780.929 425.434 777.75 422.233 773.83 422.233H672.454Z" fill="url(#paint7_linear_11_10)"/>
<path d="M779.5 427.381C779.5 434.792 754.267 440.801 723.142 440.801C692.017 440.801 666.784 434.792 666.784 427.381C666.784 419.969 692.017 413.96 723.142 413.96C754.267 413.96 779.5 419.969 779.5 427.381Z" fill="url(#paint8_linear_11_10)"/>
<path d="M897.911 176.353C897.911 83.7844 819.664 8.7428 723.142 8.7428C626.62 8.7428 548.373 83.784 548.373 176.353C548.373 232.53 577.193 282.25 621.426 312.661C640.192 325.563 651.573 346.828 651.573 369.712V382.539C651.573 410.408 674.004 433 701.673 433H744.611C772.28 433 794.711 410.407 794.711 382.539V369.712C794.711 346.828 806.092 325.563 824.858 312.661C869.091 282.25 897.911 232.53 897.911 176.353Z" fill="url(#paint9_linear_11_10)"/>
<path opacity="0.5" d="M723.142 426.618C745.917 426.618 764.38 422.222 764.38 416.799C764.38 411.375 745.917 406.979 723.142 406.979C700.367 406.979 681.904 411.375 681.904 416.799C681.904 422.222 700.367 426.618 723.142 426.618Z" fill="#F4F7FA"/>
<path d="M712.396 422.799C711.215 422.799 710.189 421.916 710.034 420.704L679.697 183.08C679.529 181.764 680.451 180.562 681.757 180.393C683.065 180.216 684.257 181.153 684.425 182.468L714.762 420.093C714.93 421.408 714.007 422.61 712.702 422.779C712.599 422.794 712.497 422.799 712.396 422.799Z" fill="url(#paint10_linear_11_10)"/>
<path d="M731.239 422.799C731.138 422.799 731.035 422.793 730.932 422.779C729.626 422.611 728.705 421.408 728.873 420.093L759.21 182.468C759.378 181.153 760.571 180.215 761.878 180.393C763.183 180.562 764.106 181.765 763.938 183.08L733.6 420.705C733.445 421.916 732.42 422.799 731.239 422.799Z" fill="url(#paint11_linear_11_10)"/>
<path d="M755.946 182.887C755.172 182.887 754.412 182.508 753.954 181.809L745.581 169.015C745.494 168.883 745.362 168.807 745.241 168.823C745.033 168.827 744.945 168.976 744.916 169.024L739.388 178.35C738.472 179.895 736.866 180.844 735.093 180.888C733.33 180.946 731.663 180.065 730.669 178.564L723.079 167.102C722.996 166.978 722.885 166.913 722.75 166.913C722.589 166.943 722.513 166.97 722.432 167.087L715.765 176.795C714.802 178.198 713.222 179.036 711.541 179.041C711.541 179.041 711.533 179.041 711.53 179.041C709.849 179.041 708.267 178.206 707.297 176.806L697.683 162.935C697.597 162.81 697.475 162.766 697.344 162.754C697.207 162.759 697.1 162.83 697.024 162.961L688.249 178.217C687.59 179.363 686.131 179.755 684.992 179.09C683.854 178.425 683.465 176.957 684.125 175.81L692.9 160.554C693.792 159.003 695.378 158.032 697.144 157.957C698.895 157.867 700.573 158.717 701.592 160.188L711.205 174.058C711.288 174.178 711.397 174.24 711.53 174.24C711.658 174.239 711.765 174.18 711.845 174.064L718.513 164.357C719.489 162.938 721.095 162.093 722.791 162.112C724.498 162.128 726.089 162.997 727.044 164.44L734.634 175.901C734.719 176.03 734.847 176.138 734.973 176.09C735.18 176.085 735.267 175.937 735.296 175.89L740.824 166.564C741.744 165.014 743.355 164.064 745.135 164.025C746.897 163.985 748.571 164.864 749.56 166.375L757.933 179.168C758.657 180.274 758.353 181.763 757.254 182.493C756.852 182.76 756.396 182.887 755.946 182.887Z" fill="url(#paint12_linear_11_10)"/>
<path opacity="0.3" d="M726.313 308.558C730.057 243.955 838.187 228.837 837.723 171.143C837.438 135.61 794.47 109.221 785.296 103.936C717.687 64.9896 634.472 109.964 617.286 78.1332C613.007 70.2079 615.013 61.5812 616.156 56.6681C617.883 49.2425 621.793 42.3268 627.593 36.001C579.894 65.929 548.373 117.607 548.373 176.353C548.373 232.53 577.193 282.25 621.426 312.662C640.192 325.563 651.573 346.828 651.573 369.713V382.539C651.573 410.408 674.004 433 701.673 433H744.611C772.28 433 794.711 410.407 794.711 382.539V372.284C788.801 376.846 782.014 380.026 774.572 379.966C748.746 379.751 724.45 340.706 726.313 308.558Z" fill="url(#paint13_linear_11_10)"/>
<path class="path-position lamp" opacity="0.44" d="M725.937 328.968C808.997 328.968 876.33 263.566 876.33 182.887C876.33 102.209 808.997 36.8062 725.937 36.8062C642.878 36.8062 575.545 102.209 575.545 182.887C575.545 263.566 642.878 328.968 725.937 328.968Z" fill="#F4F7FA"/>
<path d="M182.88 975.964C216.152 1010.32 276.813 989.715 390.94 983.448C478.185 978.657 549.843 984.815 597.011 990.83C604.012 952.809 612.544 899.837 618.815 836.259C641.659 604.66 656.42 455.011 578.457 374.66C465.213 257.949 212.024 344.834 183.807 354.874C219.67 573.405 202.178 726.749 177.926 828.775C168.005 870.51 148.262 940.223 182.88 975.964Z" fill="#69E6A6"/>
<path opacity="0.3" d="M182.88 975.964C216.152 1010.32 276.813 989.715 390.94 983.448C478.185 978.657 549.843 984.815 597.011 990.83C604.279 939.306 611.547 887.783 618.815 836.259C623.479 651.786 596.022 594.657 564.177 584.501C511.47 567.69 447.848 679.919 389.134 657.683C335.315 637.301 349.522 528.137 284.703 506.27C249.898 494.527 227.079 519.685 202.532 504.666C169.426 484.41 173.389 415.683 183.807 354.873C219.67 573.405 202.177 726.749 177.926 828.775C168.005 870.51 148.262 940.223 182.88 975.964Z" fill="#69E6A6"/>
<path d="M183.807 354.874C169.347 362.37 54.3924 424.496 28.3136 562.047C10.7059 654.918 36.0051 769.551 108.404 822.344C213.815 899.209 429.342 852.473 562.526 651.031C561.425 637.17 560.324 623.31 559.223 609.45C343.277 715.604 271.251 708.195 246.292 680.137C227.35 658.843 237.733 628.147 233.907 560.384C228.881 471.362 203.975 400.609 183.807 354.874Z" fill="url(#paint14_linear_11_10)"/>
<path d="M526.971 338.363C617.756 385.114 668.477 445.109 693.583 480.275C720.96 518.621 805.346 636.815 759.656 724.362C757.022 729.41 730.818 778.079 690.508 779.852C618.124 783.036 559.454 632.393 539.407 559.204C514.82 469.438 519.343 390.348 526.971 338.363Z" fill="url(#paint15_linear_11_10)"/>
<path d="M482.775 375.723C487.245 408.126 494.943 456.437 508.267 514.329C539.945 651.957 560.423 735.792 625.535 767.166C651.074 779.472 691.148 787.4 711.148 769.121C754.104 729.859 681.721 590.479 678.121 583.67C660.816 550.937 636.349 520.376 588.122 460.59C555.083 419.634 526.731 386.655 507.019 364.2C498.938 368.041 490.857 371.882 482.775 375.723Z" fill="url(#paint16_linear_11_10)"/>
<path d="M411.831 217.446C410.655 243.767 406.635 264.476 403.12 278.617C399.094 294.819 396.594 298.926 393.508 302.202C388.863 307.133 382.007 311.111 344.08 318.447C323.442 322.437 320.828 322.158 320.27 324.169C317.551 333.983 371.299 370.82 429.115 365.748C464.499 362.645 497.523 344.182 496.124 333.48C494.714 322.708 459.331 326.544 449.898 306.686C443.336 292.873 452.5 274.256 462.974 258.993C454.572 240.876 420.23 235.562 411.831 217.446Z" fill="url(#paint17_linear_11_10)"/>
<path d="M457.982 217.473C463.632 204.791 459.865 185.772 447.842 175.957C437.496 167.511 424.536 168.936 416.777 169.787C394.292 172.255 368.726 187.796 363.694 210.307C360.713 223.647 378.682 245.835 381.626 249.889C384.96 254.472 389.315 255.309 393.849 258.313C400.132 262.482 409.998 269.137 426.178 280.342C426.243 275.927 426.609 270.398 427.778 264.227C428.227 261.851 430.09 252.551 434.212 244.25C442.464 227.611 452.626 229.492 457.982 217.473Z" fill="url(#paint18_linear_11_10)"/>
<path d="M404.97 272.659C404.97 272.659 424.745 293.162 452.998 284.717C478.294 277.156 468.966 218.301 449.79 209.749C443.391 206.896 432.049 207.699 423.707 212.254C418.78 214.944 417.495 217.555 409.359 221.791C401.854 225.702 399.401 225.327 397.454 227.917C395.02 231.16 394.226 237.921 403.08 253.724C397.054 249.851 390.741 249.279 387.021 252.214C386.429 252.684 384.939 254.295 384.359 256.353C382.265 263.798 390.182 270.883 404.97 272.659Z" fill="url(#paint19_linear_11_10)"/>
<path d="M395.511 224.716C396.959 225.362 394.224 230.881 395.429 237.531C397.764 250.441 414.074 262.844 427.473 261.145C435.395 260.139 436.463 254.949 448.964 250.653C456.704 247.995 463.535 247.499 467.894 247.463C475.083 260.56 474.45 275.406 466.61 284.022C458.168 293.298 444.417 291.991 438.667 291.445C434.821 291.079 422.501 289.932 414.117 280.711C405.382 271.103 410.009 263.046 401.159 257.22C396.695 254.282 391.581 253.738 385.314 247.505C383.613 245.812 382.38 244.251 381.602 243.19C386.631 234.603 393.413 223.779 395.511 224.716Z" fill="url(#paint20_linear_11_10)"/>
<path d="M459.746 254.792C459.746 254.792 454.86 258.98 445.154 260.631C444.683 260.71 444.199 260.966 444.195 261.223C444.182 262.189 451.256 264.887 456.559 261.987C460.323 259.925 462.587 255.375 461.825 254.523C461.503 254.165 460.605 254.427 459.746 254.792Z" fill="url(#paint21_linear_11_10)"/>
<path d="M479.958 269.534L497.332 305.486C497.332 305.486 499.402 345.15 507.019 364.2L493.489 370.63C493.489 370.63 453.083 342.5 484.017 310.474C484.017 310.474 471.702 272.246 479.958 269.534Z" fill="url(#paint22_linear_11_10)"/>
<defs>
<linearGradient id="paint0_linear_11_10" x1="447.088" y1="54.3539" x2="450.619" y2="337.408" gradientUnits="userSpaceOnUse">
<stop offset="0.0036" stop-color="#0A2640"/>
<stop offset="1" stop-color="#8FB6D5"/>
</linearGradient>
<linearGradient id="paint1_linear_11_10" x1="271.053" y1="172.296" x2="273.473" y2="366.268" gradientUnits="userSpaceOnUse">
<stop offset="0.0036" stop-color="#0A2640"/>
<stop offset="1" stop-color="#8FB6D5"/>
</linearGradient>
<linearGradient id="paint2_linear_11_10" x1="719.501" y1="537.064" x2="722.649" y2="512.059" gradientUnits="userSpaceOnUse">
<stop offset="0.0036" stop-color="#26264F"/>
<stop offset="1" stop-color="#444B8C"/>
</linearGradient>
<linearGradient id="paint3_linear_11_10" x1="706.736" y1="514.269" x2="738.117" y2="458.187" gradientUnits="userSpaceOnUse">
<stop offset="0.0036" stop-color="#26264F"/>
<stop offset="1" stop-color="#444B8C"/>
</linearGradient>
<linearGradient id="paint4_linear_11_10" x1="671.633" y1="487.601" x2="774.651" y2="487.601" gradientUnits="userSpaceOnUse">
<stop offset="0.0036" stop-color="#26264F"/>
<stop offset="1" stop-color="#444B8C"/>
</linearGradient>
<linearGradient id="paint5_linear_11_10" x1="709.691" y1="498.892" x2="740.689" y2="439.675" gradientUnits="userSpaceOnUse">
<stop offset="0.0036" stop-color="#26264F"/>
<stop offset="1" stop-color="#444B8C"/>
</linearGradient>
<linearGradient id="paint6_linear_11_10" x1="667.017" y1="470.114" x2="779.216" y2="470.114" gradientUnits="userSpaceOnUse">
<stop offset="0.0036" stop-color="#26264F"/>
<stop offset="1" stop-color="#444B8C"/>
</linearGradient>
<linearGradient id="paint7_linear_11_10" x1="665.355" y1="449.696" x2="780.929" y2="449.696" gradientUnits="userSpaceOnUse">
<stop offset="0.0036" stop-color="#26264F"/>
<stop offset="1" stop-color="#444B8C"/>
</linearGradient>
<linearGradient id="paint8_linear_11_10" x1="720.272" y1="440.915" x2="731.81" y2="387.281" gradientUnits="userSpaceOnUse">
<stop offset="0.0036" stop-color="#26264F"/>
<stop offset="1" stop-color="#444B8C"/>
</linearGradient>
<linearGradient id="paint9_linear_11_10" x1="698.415" y1="141.457" x2="926.54" y2="501.046" gradientUnits="userSpaceOnUse">
<stop stop-color="#FCB148"/>
<stop offset="0.0521" stop-color="#FDBA46"/>
<stop offset="0.1424" stop-color="#FFC244"/>
<stop offset="0.3183" stop-color="#FFC444"/>
<stop offset="0.4849" stop-color="#FDB946"/>
<stop offset="0.7754" stop-color="#F99C4D"/>
<stop offset="0.8658" stop-color="#F8924F"/>
<stop offset="1" stop-color="#F8924F"/>
</linearGradient>
<linearGradient id="paint10_linear_11_10" x1="657.165" y1="419.473" x2="703.801" y2="284.206" gradientUnits="userSpaceOnUse">
<stop offset="0.494" stop-color="#EBEFF2"/>
<stop offset="1" stop-color="white"/>
</linearGradient>
<linearGradient id="paint11_linear_11_10" x1="701.182" y1="434.648" x2="747.818" y2="299.381" gradientUnits="userSpaceOnUse">
<stop offset="0.494" stop-color="#EBEFF2"/>
<stop offset="1" stop-color="white"/>
</linearGradient>
<linearGradient id="paint12_linear_11_10" x1="641.132" y1="413.946" x2="687.768" y2="278.679" gradientUnits="userSpaceOnUse">
<stop offset="0.494" stop-color="#EBEFF2"/>
<stop offset="1" stop-color="white"/>
</linearGradient>
<linearGradient id="paint13_linear_11_10" x1="706.339" y1="60.0694" x2="660.691" y2="433.581" gradientUnits="userSpaceOnUse">
<stop stop-color="#FCB148"/>
<stop offset="0.0521" stop-color="#FDBA46"/>
<stop offset="0.1424" stop-color="#FFC244"/>
<stop offset="0.3183" stop-color="#FFC444"/>
<stop offset="0.4849" stop-color="#FDB946"/>
<stop offset="0.7754" stop-color="#F99C4D"/>
<stop offset="0.8658" stop-color="#F8924F"/>
<stop offset="1" stop-color="#F8924F"/>
</linearGradient>
<linearGradient id="paint14_linear_11_10" x1="304.057" y1="410.823" x2="270.554" y2="1054.47" gradientUnits="userSpaceOnUse">
<stop stop-color="#0DBBFC"/>
<stop offset="1" stop-color="#8FB6D5"/>
</linearGradient>
<linearGradient id="paint15_linear_11_10" x1="744.205" y1="430.055" x2="601.135" y2="577.058" gradientUnits="userSpaceOnUse">
<stop stop-color="#0DBBFC"/>
<stop offset="1" stop-color="#8FB6D5"/>
</linearGradient>
<linearGradient id="paint16_linear_11_10" x1="599.661" y1="579.677" x2="799.891" y2="661.824" gradientUnits="userSpaceOnUse">
<stop stop-color="#0DBBFC"/>
<stop offset="1" stop-color="#8FB6D5"/>
</linearGradient>
<linearGradient id="paint17_linear_11_10" x1="396.312" y1="391.617" x2="426.399" y2="236.655" gradientUnits="userSpaceOnUse">
<stop stop-color="#FCB148"/>
<stop offset="0.0521" stop-color="#FDBA46"/>
<stop offset="0.1424" stop-color="#FFC244"/>
<stop offset="0.3183" stop-color="#FFC444"/>
<stop offset="0.4849" stop-color="#FDB946"/>
<stop offset="0.7754" stop-color="#F99C4D"/>
<stop offset="0.8658" stop-color="#F8924F"/>
<stop offset="1" stop-color="#F8924F"/>
</linearGradient>
<linearGradient id="paint18_linear_11_10" x1="389.779" y1="359.756" x2="416.91" y2="178.881" gradientUnits="userSpaceOnUse">
<stop stop-color="#311944"/>
<stop offset="1" stop-color="#6B3976"/>
</linearGradient>
<linearGradient id="paint19_linear_11_10" x1="465.714" y1="232.426" x2="312.639" y2="321.547" gradientUnits="userSpaceOnUse">
<stop stop-color="#FCB148"/>
<stop offset="0.0521" stop-color="#FDBA46"/>
<stop offset="0.1424" stop-color="#FFC244"/>
<stop offset="0.3183" stop-color="#FFC444"/>
<stop offset="0.4849" stop-color="#FDB946"/>
<stop offset="0.7754" stop-color="#F99C4D"/>
<stop offset="0.8658" stop-color="#F8924F"/>
<stop offset="1" stop-color="#F8924F"/>
</linearGradient>
<linearGradient id="paint20_linear_11_10" x1="411.404" y1="363.087" x2="438.564" y2="182.023" gradientUnits="userSpaceOnUse">
<stop stop-color="#311944"/>
<stop offset="1" stop-color="#6B3976"/>
</linearGradient>
<linearGradient id="paint21_linear_11_10" x1="444.195" y1="258.823" x2="461.972" y2="258.823" gradientUnits="userSpaceOnUse">
<stop stop-color="#FCB148"/>
<stop offset="0.0521" stop-color="#FDBA46"/>
<stop offset="0.1424" stop-color="#FFC244"/>
<stop offset="0.3183" stop-color="#FFC444"/>
<stop offset="0.4849" stop-color="#FDB946"/>
<stop offset="0.7754" stop-color="#F99C4D"/>
<stop offset="0.8658" stop-color="#F8924F"/>
<stop offset="1" stop-color="#F8924F"/>
</linearGradient>
<linearGradient id="paint22_linear_11_10" x1="472.344" y1="268.461" x2="504.722" y2="405.888" gradientUnits="userSpaceOnUse">
<stop stop-color="#FCB148"/>
<stop offset="0.0521" stop-color="#FDBA46"/>
<stop offset="0.1424" stop-color="#FFC244"/>
<stop offset="0.3183" stop-color="#FFC444"/>
<stop offset="0.4849" stop-color="#FDB946"/>
<stop offset="0.7754" stop-color="#F99C4D"/>
<stop offset="0.8658" stop-color="#F8924F"/>
<stop offset="1" stop-color="#F8924F"/>
</linearGradient>
</defs>
</svg>